<svg width="137" height="28" viewBox="0 0 137 28" fill="none" xmlns="http://www.w3.org/2000/svg">
<g clip-path="url(#clip0_139_2638)">
<mask id="mask0_139_2638" style="mask-type:luminance" maskUnits="userSpaceOnUse" x="0" y="0" width="137" height="28">
<path d="M137 0L0 0L0 28L137 28V0Z" fill="white"/>
</mask>
<g mask="url(#mask0_139_2638)">
<path d="M81.7859 14.1627L86.9292 9.0517L88.3818 10.4205C88.8492 10.8595 89.2812 11.5129 89.2908 12.1432C89.3004 12.7734 88.9256 13.3725 88.4717 13.8247L87.1001 15.1877L88.5292 16.5109C88.9966 16.95 89.2812 17.5769 89.2908 18.2071C89.3004 18.8373 89.0964 19.5084 88.6426 19.9606L83.4992 25.0716L82.0028 23.6613C81.5354 23.2222 81.1036 22.4916 81.094 21.8612C81.0844 21.231 81.5029 20.7509 81.9568 20.2986L83.3283 18.9357L81.832 17.5254C81.6005 17.308 81.4227 17.0327 81.2948 16.746C81.167 16.4595 81.0987 16.1513 81.094 15.8392C81.0893 15.5271 81.1482 15.217 81.2674 14.9269C81.3864 14.6369 81.561 14.3865 81.7859 14.1627Z" fill="url(#paint0_linear_139_2638)"/>
<path d="M93.8734 9.28955H101.246V11.3109C101.246 11.623 101.159 11.9137 101.036 12.2021C100.912 12.4904 100.731 12.7524 100.503 12.9732C100.043 13.4189 99.4397 13.689 98.7882 13.689H95.9622V14.9969H101.246V17.0182C101.246 17.3303 101.159 17.6265 101.036 17.9148C100.912 18.2031 100.731 18.4651 100.503 18.6859C100.275 18.9065 100.004 19.0816 99.7064 19.2011C99.4083 19.3205 99.1107 19.3961 98.7882 19.3961H95.7779V20.7041H98.7882C99.4397 20.7041 100.038 20.9896 100.499 21.4353C100.959 21.881 101.246 22.4518 101.246 23.0821V25.1034H93.8734C93.222 25.1034 92.6389 24.84 92.1782 24.3943C91.7175 23.9486 91.416 23.3557 91.416 22.7255L91.4176 11.7065C91.4176 11.0762 91.7191 10.4599 92.1798 10.0142C92.6405 9.56851 93.222 9.28955 93.8734 9.28955Z" fill="url(#paint1_linear_139_2638)"/>
<path d="M105.827 9.0517H113.199V11.073C113.199 11.3851 113.112 11.6759 112.989 11.9642C112.866 12.2526 112.685 12.5145 112.456 12.7353C111.996 13.181 111.393 13.4511 110.741 13.4511H107.915V14.759H113.199V16.7803C113.199 17.0924 113.112 17.3886 112.989 17.6769C112.866 17.9654 112.685 18.2274 112.456 18.448C112.228 18.6687 111.958 18.8437 111.66 18.9632C111.361 19.0827 111.064 19.1584 110.741 19.1584H107.731V20.4663H110.741C111.393 20.4663 111.991 20.7518 112.452 21.1975C112.913 21.6432 113.199 22.214 113.199 22.8442V24.8657H105.827C105.175 24.8657 104.592 24.6021 104.131 24.1564C103.671 23.7107 103.369 23.118 103.369 22.4876L103.371 11.4687C103.371 10.8383 103.672 10.2221 104.133 9.77637C104.594 9.33066 105.175 9.0517 105.827 9.0517Z" fill="url(#paint2_linear_139_2638)"/>
<path d="M61.5574 14.8448C61.5574 14.8448 61.5561 14.9768 61.5559 15.1328C61.5556 15.2382 61.556 15.3545 61.5574 15.4482V22.6896C61.5564 23.3193 61.2459 23.9599 60.7925 24.4051C60.3391 24.8503 59.7245 25.101 59.0833 25.102H57.9941V11.4322C57.9941 10.8019 58.2489 10.1973 58.7024 9.75129C59.1559 9.30524 59.771 9.05416 60.4128 9.05318L61.5574 9.0517V14.8448Z" fill="white"/>
<path fill-rule="evenodd" clip-rule="evenodd" d="M53.8789 9.05289H54.0278C53.9782 9.05138 53.9284 9.05138 53.8789 9.05289Z" fill="#D9D9D9"/>
<path d="M37.0787 10.788C36.8935 10.1761 36.472 9.66233 35.9068 9.35961C35.5732 9.18096 35.2057 9.08444 34.834 9.07305H34.685H32.8066L32.9677 9.50109L34.6697 15.1257C34.6697 15.1257 34.7098 15.2536 34.7557 15.4048C34.7869 15.5072 34.8208 15.6203 34.847 15.7116L37.622 25.1034L39.2724 25.1018C39.6518 25.0937 40.0278 24.9969 40.3684 24.8145C40.8536 24.5547 41.2329 24.1393 41.4478 23.6396L43.1678 18.008L44.3627 14.0595L44.3664 14.0472L44.3699 14.059L45.5473 17.9216L47.267 23.5114C47.4817 24.0073 47.8609 24.4197 48.3461 24.6777C48.6866 24.8587 49.0625 24.9548 49.4419 24.9627L51.0918 24.9644L53.8663 15.6422C53.8925 15.5515 53.9264 15.4393 53.9575 15.3377C54.0036 15.1876 54.0435 15.0606 54.0435 15.0606L55.7452 9.47772L55.9062 9.05286H54.0282H53.8793C53.5078 9.06415 53.1403 9.15997 52.8068 9.33729C52.2416 9.63777 51.8203 10.1477 51.6351 10.7551L50.6326 14.044C50.6326 14.044 50.595 14.1716 50.5494 14.322C50.5187 14.4236 50.4842 14.5356 50.4553 14.6255L49.3954 18.4232L48.261 14.6387C48.2312 14.549 48.1957 14.4373 48.164 14.3359C48.1171 14.186 48.0784 14.0587 48.0784 14.0587L47.0457 10.7789C46.855 10.1732 46.4289 9.66708 45.8611 9.37171C45.821 9.35092 45.7806 9.3313 45.7398 9.31285C45.438 9.17653 45.0524 9.11166 44.725 9.10464H44.6022L44.0773 9.10329C44.0276 9.10131 43.976 9.10357 43.9264 9.10464C43.5989 9.1117 43.2742 9.13249 42.9724 9.26983C42.9315 9.28842 42.8911 9.30819 42.8511 9.32913C42.2831 9.62671 41.8598 10.2018 41.6691 10.812L40.6362 14.1162C40.6362 14.1162 40.5975 14.2445 40.5505 14.3955C40.5187 14.4977 40.4833 14.6102 40.4536 14.7006L39.3189 18.5133L38.2586 14.6874C38.2298 14.5968 38.1953 14.484 38.1645 14.3815C38.1189 14.23 38.0813 14.1015 38.0813 14.1015L37.0787 10.788Z" fill="white"/>
<path d="M68.1907 15.1328C68.1904 15.2382 68.1908 15.3545 68.1921 15.4482V22.6896C68.1912 23.3193 67.8807 23.9599 67.4273 24.4051C66.9739 24.8503 66.3593 25.101 65.718 25.102H64.6289V11.4322C64.6289 10.8019 64.8836 10.1973 65.3371 9.75129C65.7905 9.30524 66.4057 9.05416 67.0476 9.05318L68.1921 9.0517L75.4442 19.0647C75.4456 18.4539 75.4463 17.7032 75.4415 17.5V11.4655C75.4415 10.8352 75.7115 10.1973 76.165 9.75129C76.6186 9.30524 77.2338 9.05416 77.8755 9.05318H79.0047V22.6896C79.0037 23.3193 78.6836 23.9599 78.2302 24.4051C77.7769 24.8503 77.1623 25.101 76.5211 25.102L75.4448 25.1034L68.1907 15.1328Z" fill="white"/>
<path d="M10.3341 9.91147L7.79633 3.3194C3.754 5.23081 1.53587 7.37399 0 9.30425L6.48616 14.3424C7.40187 12.5299 8.69256 11.1432 10.3341 9.91147Z" fill="url(#paint3_linear_139_2638)"/>
<path d="M12.0292 14.3165L10.5048 10.5604C8.95347 11.7493 7.81516 13.0163 6.97266 14.7378L9.32719 16.6487C9.32015 16.573 9.31654 16.4961 9.31654 16.4184C9.31654 15.1853 10.2242 14.1856 11.3439 14.1856C11.5844 14.1856 11.8152 14.2317 12.0292 14.3165Z" fill="url(#paint4_linear_139_2638)"/>
<path d="M18.053 10.4767C18.3713 10.5267 18.7983 10.6207 19.1055 10.7414L18.9212 15.9408C18.4882 15.3842 17.8663 15.0259 17.0781 15.0259C16.1283 15.0259 15.3077 15.5687 14.92 16.3557L12.3359 9.30429C13.1203 8.84148 13.92 8.44914 14.6867 8.14092C15.821 7.68487 16.8646 7.42045 17.6698 7.37402C17.9524 8.73748 17.9257 9.5043 17.8003 10.1195L17.7377 10.4271L18.053 10.4767Z" fill="url(#paint5_linear_139_2638)"/>
<path d="M19.1451 10.0776L19.7214 0C15.851 0.301724 12.4682 1.34459 9.82812 2.4248L12.1264 8.72539C12.9041 8.27327 13.6947 7.88832 14.4556 7.58244C15.7459 7.06369 16.9735 6.76318 17.9188 6.76318H18.1662L18.219 7.00043C18.523 8.36567 18.555 9.23092 18.4571 9.93084C18.6128 9.95764 19.003 10.0473 19.1451 10.0776Z" fill="url(#paint6_linear_139_2638)"/>
<path d="M11.7342 9.65519C11.5305 9.78749 11.2531 9.99895 11.0544 10.1403L12.999 15.1276C13.0958 15.3882 13.3315 15.9621 13.3315 16.4138C13.3315 16.7759 13.2902 17.2288 13.0243 17.6207C12.6557 18.1638 12.0413 18.5259 11.4884 18.5259C11.2048 18.5259 10.856 18.494 10.5459 18.3475C10.1572 18.1638 9.64054 17.8039 9.32788 17.4966L6.63505 15.3879C6.48356 15.6854 6.41006 15.9116 6.32788 16.1724L4.23909 15.8707C3.87048 15.8707 3.54679 16.0984 3.50187 16.5345C3.49943 16.5582 3.50419 16.5119 3.50187 16.5345C3.46609 16.8818 3.68564 17.2754 3.99442 17.3739C4.0349 17.3868 4.07691 17.3947 4.12009 17.3966H4.12624L6.04089 17.5173L6.00937 17.8959C6.00426 17.9996 6.00121 18.1032 6.00016 18.2068C5.99987 18.2343 5.99974 18.2617 5.99974 18.2891C5.99974 18.5836 6.02214 18.8742 6.06555 19.1603L6.10199 19.4006L4.47216 20.0086C4.20343 20.146 4.04675 20.4136 4.0424 20.693C4.04052 20.8145 4.06741 20.9382 4.12643 21.0544C4.21626 21.2314 4.36495 21.3604 4.53761 21.4299C4.7433 21.5128 4.98297 21.5115 5.19756 21.4064L5.20213 21.4041L6.55134 20.7975L6.68411 21.0582C6.77028 21.2273 6.86398 21.3938 6.96487 21.5576C7.08604 21.7542 7.21758 21.9468 7.35888 22.1349L7.53818 22.3736L5.92612 23.5843C5.79482 23.7093 5.71643 23.8683 5.69188 24.0339C5.65809 24.2619 5.72637 24.5023 5.89913 24.6836C5.98013 24.7685 6.07586 24.8319 6.1788 24.8733C6.45895 24.986 6.79251 24.9367 7.02799 24.7202L7.03172 24.7167L8.5435 23.4165L8.74548 23.5858C10.6539 25.1854 13.347 26.1943 16.1365 26.1943C18.0802 26.1943 19.8839 25.7044 21.3836 24.8673L21.5735 24.7613L23.4683 26.9138C23.7903 27.2099 24.3956 27.1094 24.697 26.7931C24.964 26.513 25.043 26.1261 24.8198 25.8276L23.3612 24.3803L22.8539 23.8362L23.0414 23.692C23.4053 23.3675 23.7365 23.0176 24.0309 22.6462L24.1802 22.4578L26.3998 23.4558C26.7946 23.6492 27.2772 23.4968 27.4755 23.1062C27.5871 22.8865 27.5839 22.6403 27.4886 22.4328C27.4173 22.2779 27.2947 22.1446 27.1298 22.0603L24.9246 21.2378L25.0479 20.9497C25.2278 20.5294 25.3662 20.0929 25.4591 19.6438L25.5074 19.4103L28.4184 19.3149H28.4235C28.8646 19.3149 29.2221 18.9637 29.2221 18.5305C29.2221 18.5296 29.2221 18.5313 29.2221 18.5305C29.222 18.4704 29.2149 18.4092 29.2016 18.3531C29.1198 18.0052 28.8024 17.746 28.4235 17.746C28.3684 17.746 28.3149 17.7514 28.2635 17.7617L28.2483 17.7647L26.0144 17.9841L25.5993 18.0249L25.5735 17.7191C25.5219 17.1086 25.3882 16.5127 25.1814 15.9408L25.1098 15.7429L25.2738 15.6082C26.5041 14.5988 27.2955 13.0485 27.7783 11.4751C28.0946 10.4444 28.2737 9.419 28.3595 8.5584C28.3668 8.4844 28.3735 8.41162 28.3795 8.34015C28.3979 8.12182 28.4101 7.91579 28.4168 7.72498C25.3815 8.27776 22.4495 9.67883 20.8266 10.8621L20.4579 11.1638C20.1065 11.0223 19.9665 10.9828 19.7207 10.9224L19.475 17.3793C19.4135 18.6466 18.492 19.7328 17.079 19.7328C16.0841 19.7328 15.2832 19.0119 14.9209 18.1638L11.7342 9.65519Z" fill="white"/>
<path d="M4.61511 18.1199H4.62127L5.99988 18.2068C6.00094 18.1032 6.00399 17.9995 6.0091 17.8959L6.04061 17.5173L4.12597 17.3966H4.11981C4.07664 17.3946 4.03463 17.3868 3.99414 17.3739C4.01299 17.7346 4.2789 18.1043 4.61511 18.1199Z" fill="url(#paint7_linear_139_2638)"/>
<path d="M5.69236 22.1297L5.69693 22.1275L6.96437 21.5576C6.86348 21.3938 6.76978 21.2273 6.68361 21.0582L6.55084 20.7975L5.20163 21.4041L5.19706 21.4064C4.98246 21.5115 4.74279 21.5128 4.53711 21.4299C4.53737 21.5471 4.56442 21.6658 4.62123 21.7777C4.81806 22.1655 5.29763 22.323 5.69236 22.1297Z" fill="url(#paint8_linear_139_2638)"/>
<path d="M23.5919 27.7586C24.022 28.1207 24.6421 27.9543 24.9435 27.6379C25.2449 27.3216 25.2443 26.7739 24.9371 26.3515C24.9059 26.5086 24.8222 26.6625 24.6978 26.7931C24.3964 27.1094 23.7911 27.2098 23.4691 26.9138L21.5743 24.7613L21.3845 24.8673C19.8847 25.7044 18.081 26.1942 16.1373 26.1942C13.3478 26.1942 10.6548 25.1854 8.74637 23.5858L8.54439 23.4164L7.03261 24.7166L7.02888 24.7201C6.7934 24.9367 6.45984 24.986 6.17969 24.8733C6.18029 25.0646 6.2517 25.2562 6.39532 25.4069C6.69677 25.7232 7.20217 25.7395 7.52418 25.4434L7.52791 25.4399L9.03969 24.1399L9.24167 24.3091C11.1501 25.9087 13.8431 26.9175 16.6327 26.9175C18.5763 26.9175 20.1264 26.6043 21.626 25.7672L21.7489 25.7069L23.5919 27.7586Z" fill="url(#paint9_linear_139_2638)"/>
<path d="M28.918 20.0382C29.3591 20.0382 29.7166 19.687 29.7166 19.2538C29.7166 19.1927 29.7096 19.1333 29.6961 19.0763C29.6375 18.8271 29.4579 18.6259 29.2213 18.5305C29.2213 18.9637 28.8638 19.3149 28.4227 19.3149H28.4176L25.5066 19.4103L25.4583 19.6438C25.3654 20.0929 25.2269 20.5294 25.0471 20.9497L24.9238 21.2378L25.6177 21.4965C25.7976 21.0763 25.8607 20.8163 25.9536 20.3671L26.0019 20.1336L28.9129 20.0382H28.918Z" fill="url(#paint10_linear_139_2638)"/>
<path d="M26.8948 24.1792C27.2895 24.3726 27.7721 24.2201 27.9704 23.8295C28.082 23.6099 28.0788 23.3636 27.9835 23.1561C27.9123 23.0012 27.7241 22.8518 27.5592 22.7675C27.5576 22.8817 27.5306 22.9972 27.4751 23.1062C27.2768 23.4968 26.7942 23.6492 26.3994 23.4558L24.1798 22.4578L24.0305 22.6462C23.7361 23.0176 23.405 23.3675 23.041 23.692L22.8535 23.8362L23.3608 24.3803L23.4559 24.4747C23.8199 24.15 24.2315 23.7409 24.5258 23.3695L24.6751 23.1811L26.8948 24.1792Z" fill="url(#paint11_linear_139_2638)"/>
<path d="M25.7688 16.3315C26.999 15.3221 27.7904 13.7718 28.2732 12.1984C28.6167 11.0791 28.7984 9.96602 28.8744 9.06348C28.8928 8.84514 28.905 8.63911 28.9117 8.4483C28.727 8.48194 28.5427 8.51873 28.359 8.55841C28.2733 9.41901 28.0941 10.4444 27.7779 11.4751C27.2951 13.0485 26.5037 14.5988 25.2734 15.6082L25.1094 15.7429L25.181 15.9408C25.3878 16.5127 25.5215 17.1086 25.5731 17.7191L25.5989 18.0249L26.0139 17.9841C25.9448 17.5333 25.831 17.092 25.6763 16.6641L25.6047 16.4662L25.7688 16.3315Z" fill="url(#paint12_linear_139_2638)"/>
<path d="M117.797 3.83987C118.279 3.97537 118.658 4.21775 118.936 4.56721C119.213 4.90949 119.352 5.33014 119.352 5.82935C119.352 6.52809 119.104 7.08078 118.607 7.48722C118.111 7.88649 117.457 8.08621 116.647 8.08621C116.428 8.08621 116.201 8.06832 115.968 8.03273C115.734 8.00415 115.533 7.96505 115.365 7.91507L115.552 6.81338C115.829 6.90613 116.165 6.95242 116.559 6.95242C116.997 6.95242 117.34 6.85265 117.589 6.65293C117.844 6.4462 117.972 6.15741 117.972 5.78656C117.972 5.42289 117.833 5.14128 117.556 4.94157C117.278 4.74186 116.899 4.64209 116.417 4.64209H115.814V3.5404C116.289 3.53325 116.665 3.4156 116.943 3.18743C117.227 2.95211 117.37 2.64192 117.37 2.25686C117.37 1.90745 117.253 1.63293 117.019 1.43327C116.786 1.23361 116.457 1.13378 116.034 1.13378C115.559 1.13378 115.19 1.2657 114.927 1.52954C114.665 1.78624 114.533 2.1606 114.533 2.65261V8.01133H113.164V2.78097C113.164 2.182 113.288 1.67572 113.536 1.26214C113.785 0.841427 114.124 0.527666 114.555 0.320881C114.993 0.10696 115.486 0 116.034 0C116.574 0 117.045 0.0962639 117.446 0.288792C117.848 0.474185 118.155 0.734467 118.366 1.0696C118.578 1.39762 118.684 1.76841 118.684 2.182C118.684 2.53853 118.604 2.8594 118.443 3.14463C118.282 3.42273 118.067 3.65448 117.797 3.83987ZM126.15 5.18758C126.15 5.28033 126.142 5.4122 126.127 5.58333H121.538C121.618 6.00398 121.826 6.33925 122.162 6.58876C122.505 6.83126 122.929 6.95242 123.432 6.95242C124.076 6.95242 124.604 6.7457 125.02 6.33206L125.755 7.15565C125.493 7.46233 125.159 7.69397 124.758 7.8509C124.356 8.00782 123.904 8.08621 123.4 8.08621C122.757 8.08621 122.192 7.96137 121.702 7.71184C121.213 7.46233 120.833 7.11638 120.563 6.67433C120.3 6.2251 120.169 5.71887 120.169 5.15549C120.169 4.5993 120.297 4.10014 120.552 3.65804C120.815 3.20881 121.177 2.8594 121.637 2.60983C122.097 2.36027 122.615 2.23547 123.191 2.23547C123.76 2.23547 124.269 2.36027 124.714 2.60983C125.167 2.85228 125.519 3.19812 125.767 3.64735C126.021 4.08945 126.15 4.6028 126.15 5.18758ZM123.191 3.30507C122.754 3.30507 122.381 3.43343 122.075 3.69013C121.775 3.9397 121.593 4.27491 121.527 4.69556H124.845C124.788 4.28192 124.608 3.94684 124.308 3.69013C124.009 3.43343 123.637 3.30507 123.191 3.30507ZM130.979 7.70115C130.819 7.8295 130.621 7.92576 130.388 7.98995C130.163 8.05412 129.921 8.08621 129.664 8.08621C129.023 8.08621 128.526 7.92226 128.176 7.59419C127.825 7.26612 127.65 6.78848 127.65 6.16092V3.41204H126.687V2.34243H127.65V1.03752H129.019V2.34243L130.586 2.34243V3.41204L129.019 3.41204V6.12883C129.019 6.40693 129.088 6.62085 129.227 6.77059C129.367 6.91315 129.567 6.98452 129.829 6.98452C130.137 6.98452 130.392 6.90613 130.596 6.74921L130.979 7.70115ZM134.339 2.23547C135.202 2.23547 135.859 2.43869 136.312 2.84515C136.771 3.24446 137.001 3.85058 137.001 4.66347V8.01133H135.708V7.31609C135.541 7.56561 135.3 7.75814 134.987 7.89368C134.68 8.02202 134.308 8.08621 133.869 8.08621C133.431 8.08621 133.048 8.01484 132.719 7.87228C132.391 7.72255 132.135 7.51932 131.952 7.26261C131.778 6.99872 131.689 6.70291 131.689 6.37484C131.689 5.86143 131.882 5.45147 132.27 5.14479C132.665 4.8311 133.28 4.67417 134.121 4.67417H135.632V4.5886C135.632 4.18934 135.509 3.88266 135.261 3.66874C135.019 3.45483 134.658 3.34786 134.176 3.34786C133.847 3.34786 133.522 3.39778 133.202 3.49761C132.887 3.59743 132.621 3.73648 132.401 3.91475L131.865 2.94141C132.172 2.71324 132.539 2.53853 132.971 2.41731C133.402 2.29608 133.859 2.23547 134.339 2.23547ZM134.153 7.11287C134.497 7.11287 134.8 7.03799 135.063 6.88825C135.332 6.73132 135.523 6.51037 135.632 6.2251V5.56195H134.22C133.431 5.56195 133.037 5.81514 133.037 6.32136C133.037 6.56386 133.135 6.75639 133.332 6.89895C133.53 7.04151 133.804 7.11287 134.153 7.11287Z" fill="white" fill-opacity="0.75"/>
</g>
</g>
<defs>
<linearGradient id="paint0_linear_139_2638" x1="99.6522" y1="22.8089" x2="98.593" y2="10.8006" gradientUnits="userSpaceOnUse">
<stop stop-color="#6117E7"/>
<stop offset="1" stop-color="#FF0056"/>
</linearGradient>
<linearGradient id="paint1_linear_139_2638" x1="94.8403" y1="23.2011" x2="92.9484" y2="11.4181" gradientUnits="userSpaceOnUse">
<stop stop-color="#6117E7"/>
<stop offset="1" stop-color="#FF0056"/>
</linearGradient>
<linearGradient id="paint2_linear_139_2638" x1="106.793" y1="22.9632" x2="104.902" y2="11.1802" gradientUnits="userSpaceOnUse">
<stop stop-color="#6117E7"/>
<stop offset="1" stop-color="#FF0056"/>
</linearGradient>
<linearGradient id="paint3_linear_139_2638" x1="14.8386" y1="15.7421" x2="10.0996" y2="4.13122" gradientUnits="userSpaceOnUse">
<stop stop-color="#6117E7"/>
<stop offset="1" stop-color="#FF0056"/>
</linearGradient>
<linearGradient id="paint4_linear_139_2638" x1="14.8381" y1="15.7422" x2="10.099" y2="4.13127" gradientUnits="userSpaceOnUse">
<stop stop-color="#6117E7"/>
<stop offset="1" stop-color="#FF0056"/>
</linearGradient>
<linearGradient id="paint5_linear_139_2638" x1="14.8378" y1="15.7422" x2="10.0989" y2="4.13126" gradientUnits="userSpaceOnUse">
<stop stop-color="#6117E7"/>
<stop offset="1" stop-color="#FF0056"/>
</linearGradient>
<linearGradient id="paint6_linear_139_2638" x1="14.8394" y1="15.7422" x2="10.1004" y2="4.13125" gradientUnits="userSpaceOnUse">
<stop stop-color="#6117E7"/>
<stop offset="1" stop-color="#FF0056"/>
</linearGradient>
<linearGradient id="paint7_linear_139_2638" x1="21.7478" y1="26.8534" x2="14.4723" y2="12.8351" gradientUnits="userSpaceOnUse">
<stop stop-color="#6117E7"/>
<stop offset="1" stop-color="#FF0056"/>
</linearGradient>
<linearGradient id="paint8_linear_139_2638" x1="21.7475" y1="26.8534" x2="14.4721" y2="12.8351" gradientUnits="userSpaceOnUse">
<stop stop-color="#6117E7"/>
<stop offset="1" stop-color="#FF0056"/>
</linearGradient>
<linearGradient id="paint9_linear_139_2638" x1="21.7489" y1="26.8534" x2="14.4735" y2="12.8351" gradientUnits="userSpaceOnUse">
<stop stop-color="#6117E7"/>
<stop offset="1" stop-color="#FF0056"/>
</linearGradient>
<linearGradient id="paint10_linear_139_2638" x1="21.7473" y1="26.8535" x2="14.4718" y2="12.8352" gradientUnits="userSpaceOnUse">
<stop stop-color="#6117E7"/>
<stop offset="1" stop-color="#FF0056"/>
</linearGradient>
<linearGradient id="paint11_linear_139_2638" x1="21.7477" y1="26.8535" x2="14.4723" y2="12.8352" gradientUnits="userSpaceOnUse">
<stop stop-color="#6117E7"/>
<stop offset="1" stop-color="#FF0056"/>
</linearGradient>
<linearGradient id="paint12_linear_139_2638" x1="21.7477" y1="26.8535" x2="14.4722" y2="12.8352" gradientUnits="userSpaceOnUse">
<stop stop-color="#6117E7"/>
<stop offset="1" stop-color="#FF0056"/>
</linearGradient>
<clipPath id="clip0_139_2638">
<rect width="137" height="28" fill="white"/>
</clipPath>
</defs>
</svg>
