<svg width="342" height="126" viewBox="0 0 342 126" fill="none" xmlns="http://www.w3.org/2000/svg">
<path fill-rule="evenodd" clip-rule="evenodd" d="M4.16427 66.8221C3.74629 68.9908 5.16505 71.0878 7.33357 71.5066L269.335 122.101C270.769 122.378 272.24 121.851 273.173 120.727L296.24 92.9027C297.187 91.7605 297.424 90.1878 296.856 88.8173L282.183 53.4437C281.67 52.2067 280.572 51.3085 279.258 51.0509L21.0464 0.43327C18.8737 0.00734315 16.7683 1.42746 16.3492 3.60155L4.16427 66.8221ZM275.202 92.08C277.915 92.5952 280.532 90.8135 281.047 88.1006C281.563 85.3877 279.781 82.7708 277.068 82.2556C274.355 81.7404 271.738 83.5221 271.223 86.235C270.708 88.9479 272.489 91.5649 275.202 92.08Z" fill="#557AFF"/>
<path d="M41.1856 21.5754L45.7481 22.4418C46.9152 22.6634 47.814 23.2371 48.4443 24.163C49.0864 25.0911 49.2978 26.1328 49.0784 27.2882C48.8612 28.4317 48.2827 29.3234 47.3428 29.9633C46.417 30.5937 45.3705 30.798 44.2034 30.5764L41.6745 30.0962L40.8686 34.3403L38.8349 33.9542L41.1856 21.5754ZM42.0372 28.1863L44.566 28.6665C45.1673 28.7807 45.7005 28.6743 46.1657 28.3473C46.6331 28.0086 46.9261 27.5268 47.0447 26.902C47.1634 26.2771 47.0663 25.7274 46.7533 25.2526C46.4426 24.7661 45.9867 24.4658 45.3854 24.3516L42.8566 23.8714L42.0372 28.1863ZM56.9637 29.5367L57.2021 28.2812L59.112 28.6438L57.433 37.4858L55.5231 37.1231L55.7649 35.8499C54.8554 36.7154 53.7287 37.0206 52.3847 36.7654C51.1704 36.5348 50.2181 35.8898 49.5276 34.8304C48.8371 33.771 48.6161 32.5869 48.8646 31.2783C49.1131 29.9697 49.7527 28.9491 50.7835 28.2166C51.8143 27.484 52.9368 27.233 54.1511 27.4636C55.4951 27.7188 56.4326 28.4099 56.9637 29.5367ZM51.1841 33.8258C51.6139 34.457 52.2296 34.8488 53.0313 35.001C53.8329 35.1532 54.5494 35.0145 55.1807 34.5847C55.8142 34.1431 56.2082 33.5156 56.3626 32.7021C56.5171 31.8887 56.3794 31.1663 55.9497 30.5351C55.5221 29.892 54.9075 29.4944 54.1058 29.3421C53.3042 29.1899 52.5866 29.3346 51.9531 29.7761C51.3218 30.2059 50.929 30.8275 50.7745 31.641C50.6223 32.4427 50.7588 33.1709 51.1841 33.8258ZM63.7888 38.9309C62.4567 38.678 61.4276 38.0184 60.7018 36.9523C59.99 35.8766 59.7572 34.6903 60.0035 33.3935C60.2542 32.0731 60.9056 31.0548 61.9577 30.3385C63.0238 29.6126 64.223 29.3762 65.5552 29.6292C66.4158 29.7926 67.1606 30.1478 67.7896 30.6947C68.4186 31.2417 68.8439 31.8965 69.0655 32.6593L67.2396 33.3019C67.1198 32.8394 66.8759 32.4511 66.5081 32.137C66.1542 31.8133 65.7121 31.6011 65.1816 31.5003C64.4035 31.3526 63.6988 31.4936 63.0675 31.9233C62.4458 32.3671 62.0611 32.9781 61.9133 33.7562C61.7656 34.5343 61.8996 35.2437 62.3153 35.8846C62.7451 36.5158 63.349 36.9053 64.1271 37.0531C64.6458 37.1516 65.1339 37.1221 65.5913 36.9647C66.0627 36.7977 66.4449 36.5222 66.7377 36.138L68.2043 37.3876C67.6927 38.0233 67.0382 38.4792 66.2407 38.7553C65.455 39.0336 64.6377 39.0921 63.7888 38.9309ZM73.1835 40.7149C71.8513 40.4619 70.8223 39.8024 70.0964 38.7363C69.3846 37.6606 69.1518 36.4743 69.3981 35.1775C69.6488 33.8571 70.3002 32.8387 71.3523 32.1225C72.4185 31.3966 73.6176 31.1602 74.9498 31.4131C75.8104 31.5766 76.5552 31.9318 77.1843 32.4787C77.8133 33.0257 78.2386 33.6805 78.4602 34.4432L76.6342 35.0859C76.5144 34.6234 76.2705 34.2351 75.9027 33.9209C75.5489 33.5973 75.1067 33.385 74.5762 33.2843C73.7981 33.1365 73.0934 33.2775 72.4621 33.7073C71.8404 34.1511 71.4557 34.7621 71.3079 35.5402C71.1602 36.3183 71.2942 37.0277 71.7099 37.6685C72.1397 38.2998 72.7436 38.6893 73.5217 38.8371C74.0405 38.9356 74.5285 38.9061 74.9859 38.7487C75.4574 38.5817 75.8395 38.3061 76.1323 37.922L77.5989 39.1716C77.0873 39.8073 76.4328 40.2632 75.6353 40.5393C74.8496 40.8176 74.0323 40.8761 73.1835 40.7149ZM81.6563 36.0395L83.6016 36.4089C84.5565 36.5903 85.2772 37.0081 85.7637 37.6623C86.2642 38.307 86.4316 39.0655 86.266 39.938C86.1025 40.7986 85.6687 41.443 84.9645 41.8711C84.272 42.3015 83.4483 42.426 82.4934 42.2446L78.6383 41.5126L80.3173 32.6706L82.2272 33.0333L81.6563 36.0395ZM86.7729 43.0573L88.452 34.2153L90.3618 34.578L88.6828 43.42L86.7729 43.0573ZM80.8739 40.1599L82.8368 40.5327C83.2141 40.6043 83.5477 40.5516 83.8379 40.3746C84.1398 40.1999 84.3243 39.9357 84.3915 39.582C84.4586 39.2283 84.3897 38.916 84.1846 38.645C83.9796 38.374 83.6826 38.2015 83.2935 38.1276L81.3306 37.7549L80.8739 40.1599ZM93.2684 35.1299L100.041 36.4161L98.3623 45.2581L96.4524 44.8954L97.7822 37.8925L94.829 37.3317L94.2044 40.6209C93.9424 42.0003 93.4538 42.9335 92.7383 43.4206C92.0229 43.9077 91.0976 43.9885 89.9624 43.663L90.3016 41.8769C90.8259 42.0742 91.2539 42.0394 91.5855 41.7726C91.9194 41.494 92.1613 40.9597 92.3113 40.1698L93.2684 35.1299ZM105.229 41.8899L108.404 47.1649L106.123 46.7318L103.273 41.9583L102.498 46.0433L100.588 45.6807L102.267 36.8387L104.177 37.2014L103.435 41.1095L107.607 37.8528L109.942 38.2961L105.229 41.8899ZM117.424 41.0178L117.663 39.7623L119.573 40.1249L117.894 48.9669L115.984 48.6043L116.225 47.331C115.316 48.1965 114.189 48.5017 112.845 48.2465C111.631 48.0159 110.679 47.3709 109.988 46.3115C109.298 45.2521 109.077 44.068 109.325 42.7594C109.574 41.4508 110.213 40.4302 111.244 39.6977C112.275 38.9651 113.397 38.7141 114.612 38.9447C115.956 39.1999 116.893 39.891 117.424 41.0178ZM111.645 45.3069C112.074 45.9381 112.69 46.3299 113.492 46.4821C114.294 46.6343 115.01 46.4956 115.641 46.0658C116.275 45.6242 116.669 44.9967 116.823 44.1833C116.978 43.3698 116.84 42.6474 116.41 42.0162C115.983 41.3731 115.368 40.9755 114.566 40.8232C113.765 40.671 113.047 40.8157 112.414 41.2572C111.782 41.687 111.39 42.3086 111.235 43.1221C111.083 43.9238 111.219 44.652 111.645 45.3069ZM126.22 41.3872L134.089 42.8815L132.41 51.7235L130.5 51.3608L131.837 44.3226L127.787 43.5536L126.451 50.5918L124.541 50.2292L126.22 41.3872ZM142.318 52.4507C141.252 53.1766 140.064 53.4152 138.756 53.1667C137.447 52.9182 136.43 52.2609 135.704 51.1948C134.969 50.1146 134.724 48.9261 134.97 47.6293C135.217 46.3325 135.88 45.3164 136.96 44.581C138.026 43.8551 139.214 43.6165 140.522 43.865C141.831 44.1135 142.848 44.7708 143.574 45.8369C144.309 46.9171 144.554 48.1055 144.308 49.4024C144.061 50.6992 143.398 51.7153 142.318 52.4507ZM136.88 47.992C136.728 48.7937 136.867 49.5101 137.297 50.1414C137.726 50.7726 138.33 51.1622 139.108 51.3099C139.887 51.4577 140.591 51.3167 141.222 50.8869C141.854 50.4571 142.245 49.8414 142.398 49.0397C142.55 48.238 142.411 47.5216 141.981 46.8903C141.552 46.259 140.948 45.8695 140.17 45.7218C139.391 45.574 138.687 45.715 138.056 46.1448C137.424 46.5746 137.033 47.1903 136.88 47.992ZM149.325 55.1737C147.993 54.9207 146.964 54.2612 146.238 53.195C145.526 52.1194 145.293 50.9331 145.539 49.6363C145.79 48.3159 146.442 47.2975 147.494 46.5812C148.56 45.8554 149.759 45.619 151.091 45.8719C151.952 46.0354 152.697 46.3905 153.326 46.9375C153.955 47.4844 154.38 48.1393 154.601 48.902L152.775 49.5447C152.656 49.0822 152.412 48.6939 152.044 48.3797C151.69 48.056 151.248 47.8438 150.717 47.7431C149.939 47.5953 149.235 47.7363 148.603 48.1661C147.982 48.6099 147.597 49.2209 147.449 49.999C147.301 50.7771 147.435 51.4865 147.851 52.1273C148.281 52.7586 148.885 53.1481 149.663 53.2958C150.182 53.3944 150.67 53.3649 151.127 53.2075C151.599 53.0405 151.981 52.7649 152.274 52.3808L153.74 53.6304C153.229 54.2661 152.574 54.722 151.777 54.998C150.991 55.2763 150.174 55.3349 149.325 55.1737ZM161.761 52.5885C162.555 53.1668 162.863 53.9275 162.684 54.8706C162.54 55.6252 162.166 56.183 161.56 56.5443C160.965 56.9078 160.214 57.0034 159.307 56.831L154.78 55.9714L156.459 47.1294L160.632 47.9219C161.528 48.092 162.187 48.4492 162.609 48.9935C163.031 49.5377 163.172 50.1753 163.033 50.9063C162.874 51.7433 162.45 52.3041 161.761 52.5885ZM160.182 49.5219L157.971 49.1022L157.598 51.0651L159.809 51.4849C160.587 51.6326 161.039 51.3764 161.164 50.7162C161.287 50.0678 160.96 49.6697 160.182 49.5219ZM156.917 54.655L159.445 55.1352C160.247 55.2874 160.714 55.0157 160.846 54.3202C160.904 54.0136 160.843 53.7577 160.662 53.5523C160.484 53.3352 160.206 53.1908 159.828 53.1192L157.3 52.639L156.917 54.655ZM167.994 49.3198L171.937 50.0686L170.258 58.9106L168.384 58.5547L168.948 55.5838L167.887 55.3823L165.077 57.9267L162.831 57.5002L165.816 54.8058C165.241 54.489 164.813 54.0413 164.532 53.4627C164.263 52.8864 164.187 52.2858 164.306 51.6609C164.461 50.8475 164.88 50.2127 165.565 49.7565C166.253 49.2885 167.062 49.1429 167.994 49.3198ZM167.297 53.5664L169.26 53.9392L169.733 51.4457L167.771 51.073C167.37 50.9969 167.017 51.0521 166.713 51.2386C166.423 51.4156 166.242 51.6927 166.17 52.07C166.099 52.4472 166.166 52.7713 166.371 53.0424C166.587 53.3156 166.896 53.4903 167.297 53.5664ZM186.362 52.8078L185.025 59.846L186.21 60.071L185.418 64.2445L183.543 63.8885L183.993 61.5188L172.481 59.3327L174.16 50.4907L176.07 50.8534L174.733 57.8916L177.969 58.5062L179.306 51.4679L181.216 51.8306L179.879 58.8688L183.115 59.4834L184.452 52.4451L186.362 52.8078ZM192.145 52.4768C191.906 52.6392 191.64 52.6924 191.345 52.6364C191.05 52.5805 190.816 52.4321 190.641 52.1914C190.481 51.9411 190.429 51.6686 190.485 51.3739C190.541 51.0792 190.688 50.8506 190.927 50.6883C191.179 50.5164 191.453 50.4584 191.748 50.5144C192.042 50.5703 192.27 50.7234 192.43 50.9737C192.604 51.2144 192.663 51.4821 192.607 51.7769C192.551 52.0716 192.397 52.3049 192.145 52.4768ZM195.505 53.1149C195.266 53.2772 194.999 53.3304 194.705 53.2745C194.41 53.2185 194.176 53.0702 194.001 52.8294C193.841 52.5792 193.789 52.3067 193.845 52.0119C193.901 51.7172 194.048 51.4887 194.287 51.3263C194.539 51.1544 194.813 51.0964 195.108 51.1524C195.402 51.2084 195.63 51.3615 195.79 51.6117C195.964 51.8525 196.023 52.1202 195.967 52.4149C195.911 52.7096 195.757 52.943 195.505 53.1149ZM196.3 60.1182L189.262 58.7817C189.278 59.4688 189.499 60.0421 189.925 60.5016C190.362 60.9633 190.952 61.2647 191.695 61.4057C192.697 61.596 193.527 61.3749 194.184 60.7425L195.584 61.9609C194.479 63.0825 193.066 63.4799 191.345 63.1531C189.918 62.8822 188.84 62.2255 188.11 61.1829C187.393 60.1308 187.163 58.9328 187.418 57.5888C187.666 56.2802 188.312 55.2607 189.355 54.5304C190.385 53.7978 191.59 53.5625 192.97 53.8244C194.255 54.0684 195.23 54.7238 195.894 55.7905C196.559 56.8573 196.768 58.0391 196.522 59.3359C196.477 59.5717 196.403 59.8324 196.3 60.1182ZM189.54 57.2222L194.739 58.2094C194.741 57.4892 194.548 56.8969 194.16 56.4323C193.784 55.97 193.271 55.6772 192.623 55.5541C191.916 55.4198 191.289 55.5024 190.744 55.8019C190.198 56.1014 189.797 56.5748 189.54 57.2222ZM204.336 59.8671L205.005 56.348L206.915 56.7107L205.236 65.5527L203.326 65.19L203.994 61.6709L199.944 60.9019L199.276 64.421L197.366 64.0583L199.045 55.2163L200.955 55.579L200.287 59.0981L204.336 59.8671ZM214.422 61.7823L215.09 58.2632L217 58.6258L215.321 67.4678L213.411 67.1051L214.079 63.586L210.03 62.817L209.361 66.3361L207.452 65.9735L209.131 57.1315L211.041 57.4942L210.372 61.0133L214.422 61.7823ZM225.98 61.632L226.219 60.3764L228.129 60.7391L226.45 69.5811L224.54 69.2184L224.782 67.9452C223.872 68.8107 222.745 69.1159 221.402 68.8607C220.187 68.6301 219.235 67.9851 218.544 66.9257C217.854 65.8662 217.633 64.6822 217.881 63.3736C218.13 62.065 218.769 61.0444 219.8 60.3118C220.831 59.5793 221.954 59.3283 223.168 59.5589C224.512 59.8141 225.449 60.5051 225.98 61.632ZM220.201 65.9211C220.631 66.5523 221.246 66.9441 222.048 67.0963C222.85 67.2485 223.566 67.1098 224.197 66.68C224.831 66.2384 225.225 65.6109 225.379 64.7974C225.534 63.984 225.396 63.2616 224.966 62.6303C224.539 61.9873 223.924 61.5897 223.123 61.4374C222.321 61.2852 221.603 61.4299 220.97 61.8714C220.339 62.3012 219.946 62.9228 219.791 63.7363C219.639 64.538 219.776 65.2662 220.201 65.9211ZM233.255 61.7126L237.199 62.4614L235.52 71.3034L233.645 70.9475L234.209 67.9765L233.148 67.7751L230.338 70.3195L228.092 69.893L231.077 67.1986C230.502 66.8818 230.074 66.4341 229.793 65.8555C229.524 65.2791 229.449 64.6786 229.568 64.0537C229.722 63.2403 230.142 62.6054 230.827 62.1492C231.514 61.6813 232.324 61.5357 233.255 61.7126ZM232.559 65.9592L234.521 66.3319L234.995 63.8385L233.032 63.4657C232.631 63.3896 232.279 63.4448 231.975 63.6314C231.684 63.8084 231.504 64.0855 231.432 64.4627C231.36 64.84 231.427 65.1641 231.632 65.4351C231.849 65.7084 232.158 65.8831 232.559 65.9592ZM38.55 57.5493C37.2178 57.2963 36.1888 56.6367 35.463 55.5706C34.7512 54.4949 34.5184 53.3087 34.7646 52.0118C35.0154 50.6914 35.6668 49.6731 36.7189 48.9568C37.785 48.2309 38.9842 47.9945 40.3164 48.2475C41.177 48.4109 41.9218 48.7661 42.5508 49.313C43.1798 49.86 43.6051 50.5148 43.8267 51.2776L42.0008 51.9202C41.881 51.4577 41.6371 51.0694 41.2693 50.7553C40.9154 50.4316 40.4733 50.2194 39.9427 50.1186C39.1647 49.9709 38.46 50.1119 37.8287 50.5417C37.207 50.9855 36.8223 51.5964 36.6745 52.3745C36.5268 53.1526 36.6608 53.8621 37.0765 54.5029C37.5063 55.1341 38.1102 55.5236 38.8883 55.6714C39.407 55.7699 39.8951 55.7404 40.3525 55.583C40.8239 55.416 41.2061 55.1405 41.4989 54.7564L42.9655 56.0059C42.4539 56.6416 41.7994 57.0975 41.0019 57.3736C40.2161 57.6519 39.3989 57.7104 38.55 57.5493ZM44.6085 49.3007L52.301 50.7615L51.9518 52.6006L49.0693 52.0532L47.7395 59.0561L45.8296 58.6934L47.1594 51.6906L44.2592 51.1398L44.6085 49.3007ZM60.0124 53.5267L60.2508 52.2711L62.1607 52.6338L60.4816 61.4758L58.5718 61.1131L58.8135 59.8398C57.9041 60.7054 56.7774 61.0105 55.4334 60.7553C54.2191 60.5247 53.2667 59.8797 52.5762 58.8203C51.8858 57.7609 51.6648 56.5769 51.9133 55.2683C52.1618 53.9596 52.8014 52.9391 53.8322 52.2065C54.8629 51.4739 55.9855 51.2229 57.1998 51.4535C58.5437 51.7087 59.4813 52.3998 60.0124 53.5267ZM54.2327 57.8157C54.6625 58.447 55.2782 58.8387 56.0799 58.9909C56.8816 59.1432 57.5981 59.0044 58.2293 58.5746C58.8628 58.1331 59.2568 57.5056 59.4113 56.6921C59.5658 55.8786 59.4281 55.1563 58.9983 54.525C58.5708 53.8819 57.9562 53.4843 57.1545 53.3321C56.3528 53.1798 55.6352 53.3245 55.0017 53.7661C54.3705 54.1958 53.9776 54.8175 53.8231 55.6309C53.6709 56.4326 53.8074 57.1609 54.2327 57.8157ZM69.435 53.7769C70.6375 54.0053 71.5888 54.6562 72.2888 55.7296C72.9793 56.789 73.2014 57.9672 72.9551 59.264C72.7066 60.5726 72.067 61.5932 71.0362 62.3258C70.0055 63.0583 68.883 63.3093 67.6687 63.0787C66.3365 62.8257 65.3989 62.1347 64.856 61.0056L63.946 65.798L62.0361 65.4353L64.3868 53.0565L66.2967 53.4192L66.0549 54.6924C66.9643 53.8269 68.091 53.5217 69.435 53.7769ZM65.8667 60.0249C66.2965 60.6562 66.9122 61.0479 67.7139 61.2002C68.5156 61.3524 69.232 61.2136 69.8633 60.7839C70.4968 60.3423 70.8908 59.7148 71.0453 58.9013C71.1997 58.0879 71.0621 57.3655 70.6323 56.7342C70.2048 56.0912 69.5902 55.6935 68.7885 55.5413C67.9868 55.3891 67.2692 55.5337 66.6357 55.9753C66.0045 56.4051 65.6116 57.0267 65.4571 57.8402C65.3049 58.6418 65.4414 59.3701 65.8667 60.0249ZM74.243 54.9281L81.9355 56.3889L81.5863 58.228L78.7038 57.6807L77.374 64.6835L75.4641 64.3208L76.7939 57.318L73.8937 56.7673L74.243 54.9281ZM89.6469 59.1541L89.8853 57.8985L91.7952 58.2612L90.1161 67.1032L88.2062 66.7405L88.448 65.4673C87.5386 66.3328 86.4119 66.6379 85.0679 66.3827C83.8536 66.1521 82.9012 65.5071 82.2107 64.4477C81.5203 63.3883 81.2993 62.2043 81.5478 60.8957C81.7963 59.5871 82.4359 58.5665 83.4667 57.8339C84.4974 57.1013 85.6199 56.8504 86.8342 57.0809C88.1782 57.3362 89.1158 58.0272 89.6469 59.1541ZM83.8672 63.4431C84.297 64.0744 84.9127 64.4661 85.7144 64.6184C86.5161 64.7706 87.2325 64.6318 87.8638 64.202C88.4973 63.7605 88.8913 63.133 89.0458 62.3195C89.2002 61.506 89.0626 60.7837 88.6328 60.1524C88.2053 59.5094 87.5907 59.1117 86.789 58.9595C85.9873 58.8073 85.2697 58.9519 84.6362 59.3935C84.005 59.8233 83.6121 60.4449 83.4576 61.2583C83.3054 62.06 83.4419 62.7883 83.8672 63.4431ZM94.0213 58.6839L101.891 60.1783L100.212 69.0202L98.3017 68.6576L99.6382 61.6193L95.5886 60.8503L94.2521 67.8886L92.3422 67.5259L94.0213 58.6839ZM110.871 63.1844L111.11 61.9289L113.019 62.2915L111.34 71.1335L109.43 70.7709L109.672 69.4976C108.763 70.3631 107.636 70.6683 106.292 70.4131C105.078 70.1825 104.125 69.5375 103.435 68.4781C102.744 67.4187 102.523 66.2346 102.772 64.926C103.02 63.6174 103.66 62.5968 104.691 61.8643C105.722 61.1317 106.844 60.8807 108.058 61.1113C109.402 61.3665 110.34 62.0576 110.871 63.1844ZM105.091 67.4735C105.521 68.1047 106.137 68.4965 106.939 68.6487C107.74 68.801 108.457 68.6622 109.088 68.2324C109.722 67.7908 110.116 67.1633 110.27 66.3499C110.424 65.5364 110.287 64.814 109.857 64.1828C109.43 63.5397 108.815 63.1421 108.013 62.9898C107.212 62.8376 106.494 62.9823 105.86 63.4238C105.229 63.8536 104.836 64.4752 104.682 65.2887C104.53 66.0904 104.666 66.8186 105.091 67.4735ZM122.319 64.0575L124.264 64.4269L122.585 73.2689L120.728 72.9163L121.833 67.0982L118.518 70.6643L118.288 70.6207L116.525 66.1085L115.423 71.9089L113.566 71.5563L115.246 62.7143L117.191 63.0837L118.979 67.6556L122.319 64.0575ZM131.702 71.6472L137.293 66.901L138.761 67.1797L137.082 76.0217L135.208 75.6658L136.275 70.0423L130.68 74.8061L129.213 74.5274L130.892 65.6854L132.766 66.0413L131.702 71.6472ZM146.208 74.4018L151.8 69.6557L153.267 69.9344L151.588 78.7764L149.714 78.4204L150.782 72.7969L145.187 77.5608L143.719 77.2821L145.398 68.4401L147.273 68.796L146.208 74.4018ZM160.775 75.006L161.443 71.4869L163.353 71.8496L161.674 80.6916L159.764 80.3289L160.432 76.8098L156.383 76.0408L155.714 79.5599L153.804 79.1972L155.483 70.3552L157.393 70.7179L156.725 74.237L160.775 75.006ZM170.86 76.9212L171.528 73.402L173.438 73.7647L171.759 82.6067L169.849 82.244L170.518 78.7249L166.468 77.9559L165.8 81.475L163.89 81.1124L165.569 72.2704L167.479 72.633L166.81 76.1522L170.86 76.9212ZM181.667 83.3339C180.601 84.0597 179.414 84.2984 178.105 84.0499C176.796 83.8014 175.779 83.1441 175.053 82.078C174.318 80.9978 174.073 79.8093 174.32 78.5125C174.566 77.2157 175.229 76.1996 176.309 75.4642C177.375 74.7383 178.563 74.4996 179.871 74.7481C181.18 74.9966 182.197 75.654 182.923 76.7201C183.658 77.8003 183.903 78.9887 183.657 80.2856C183.41 81.5824 182.747 82.5985 181.667 83.3339ZM176.229 78.8752C176.077 79.6768 176.216 80.3933 176.646 81.0246C177.076 81.6558 177.679 82.0453 178.458 82.1931C179.236 82.3409 179.94 82.1998 180.572 81.7701C181.203 81.3403 181.595 80.7246 181.747 79.9229C181.899 79.1212 181.76 78.4048 181.331 77.7735C180.901 77.1422 180.297 76.7527 179.519 76.605C178.741 76.4572 178.036 76.5982 177.405 77.028C176.773 77.4578 176.382 78.0735 176.229 78.8752ZM191.526 81.6516C192.32 82.2299 192.627 82.9906 192.448 83.9338C192.305 84.6883 191.93 85.2462 191.324 85.6075C190.73 85.971 189.979 86.0666 189.071 85.8942L184.544 85.0345L186.223 76.1925L190.397 76.985C191.293 77.1552 191.952 77.5124 192.373 78.0566C192.795 78.6009 192.937 79.2385 192.798 79.9694C192.639 80.8065 192.215 81.3672 191.526 81.6516ZM189.946 78.5851L187.736 78.1653L187.363 80.1282L189.573 80.548C190.352 80.6958 190.803 80.4395 190.929 79.7793C191.052 79.1309 190.724 78.7328 189.946 78.5851ZM186.681 83.7181L189.21 84.1983C190.012 84.3505 190.479 84.0789 190.611 83.3833C190.669 83.0768 190.608 82.8208 190.427 82.6155C190.248 82.3983 189.97 82.254 189.593 82.1823L187.064 81.7021L186.681 83.7181ZM201.968 80.4832L202.206 79.2276L204.116 79.5903L202.437 88.4323L200.527 88.0696L200.769 86.7963C199.86 87.6619 198.733 87.967 197.389 87.7118C196.175 87.4812 195.222 86.8362 194.532 85.7768C193.841 84.7174 193.62 83.5334 193.869 82.2248C194.117 80.9161 194.757 79.8956 195.788 79.163C196.818 78.4304 197.941 78.1794 199.155 78.41C200.499 78.6652 201.437 79.3563 201.968 80.4832ZM196.188 84.7722C196.618 85.4035 197.234 85.7952 198.035 85.9474C198.837 86.0997 199.553 85.9609 200.185 85.5311C200.818 85.0896 201.212 84.462 201.367 83.6486C201.521 82.8351 201.384 82.1128 200.954 81.4815C200.526 80.8384 199.912 80.4408 199.11 80.2886C198.308 80.1363 197.591 80.281 196.957 80.7226C196.326 81.1523 195.933 81.774 195.779 82.5874C195.626 83.3891 195.763 84.1174 196.188 84.7722ZM213.946 81.457L212.61 88.4952L214.06 88.7706L213.267 92.944L211.393 92.588L211.843 90.2184L204.663 88.855L206.342 80.013L208.252 80.3757L206.916 87.4139L210.7 88.1325L212.036 81.0943L213.946 81.457ZM217.756 87.9883L223.347 83.2422L224.815 83.5209L223.136 92.3629L221.262 92.0069L222.329 86.3834L216.734 91.1472L215.267 90.8685L216.946 82.0265L218.82 82.3825L217.756 87.9883ZM229.931 84.4924L233.875 85.2413L232.196 94.0833L230.321 93.7273L230.885 90.7564L229.824 90.5549L227.014 93.0993L224.768 92.6729L227.754 89.9785C227.179 89.6616 226.751 89.2139 226.47 88.6353C226.2 88.059 226.125 87.4584 226.244 86.8336C226.398 86.0201 226.818 85.3853 227.503 84.9291C228.191 84.4611 229 84.3156 229.931 84.4924ZM229.235 88.739L231.198 89.1118L231.671 86.6183L229.708 86.2456C229.307 86.1695 228.955 86.2247 228.651 86.4112C228.361 86.5882 228.18 86.8653 228.108 87.2426C228.037 87.6198 228.103 87.944 228.308 88.215C228.525 88.4882 228.834 88.6629 229.235 88.739ZM243.171 87.0066L245.116 87.376L243.437 96.218L241.581 95.8654L242.685 90.0473L239.37 93.6134L239.14 93.5698L237.377 89.0576L236.275 94.8579L234.419 94.5054L236.098 85.6634L238.043 86.0327L239.831 90.6047L243.171 87.0066ZM247.257 94.4148C247.622 94.4842 247.91 94.6732 248.12 94.9819C248.33 95.2905 248.4 95.6275 248.331 95.993C248.262 96.3585 248.073 96.6462 247.764 96.8564C247.455 97.0665 247.118 97.1368 246.753 97.0674C246.387 96.998 246.1 96.809 245.89 96.5004C245.679 96.1918 245.609 95.8547 245.678 95.4893C245.748 95.1238 245.931 94.8349 246.228 94.6225C246.536 94.4124 246.879 94.3432 247.257 94.4148Z" fill="white"/>
<path d="M337.335 111.941C337.289 112.566 337.167 112.912 337.055 113.091C336.968 113.229 336.884 113.28 336.75 113.305C336.569 113.339 336.255 113.325 335.754 113.167C335.263 113.013 334.668 112.744 333.959 112.357C331.951 111.26 329.353 109.399 326.169 107.118C324.773 106.117 323.264 105.036 321.643 103.903C313.165 97.9794 301.88 90.8465 288.778 87.6462C304.572 87.5346 316.259 90.6135 324.202 94.9098C333.746 100.072 337.709 106.863 337.335 111.941Z" stroke="#557AFF" stroke-width="2"/>
</svg>
