<svg width="363" height="105" viewBox="0 0 363 105" fill="none" xmlns="http://www.w3.org/2000/svg">
<path fill-rule="evenodd" clip-rule="evenodd" d="M361.957 68.4964C362.138 70.6739 360.539 72.5938 358.364 72.8086L68.2737 101.465C66.7984 101.611 65.3635 100.929 64.5452 99.6924L44.6167 69.5897C43.7976 68.3525 43.7307 66.7636 44.4428 65.4619L62.8419 31.8314C63.4744 30.6753 64.6357 29.9049 65.9468 29.7717L352.231 0.686872C354.457 0.460695 356.436 2.10483 356.621 4.33487L361.957 68.4964ZM69.6233 70.9204C66.9103 71.4355 64.2934 69.6539 63.7783 66.941C63.2631 64.228 65.0447 61.6111 67.7577 61.0959C70.4706 60.5808 73.0875 62.3624 73.6027 65.0754C74.1179 67.7883 72.3362 70.4052 69.6233 70.9204Z" fill="#557AFF"/>
<path d="M81.4729 59.8145L81.2842 57.9158C82.1069 57.9426 82.6784 57.6869 82.9988 57.1486C83.3299 56.5971 83.4284 55.6468 83.2943 54.2974L82.5736 47.0431L90.9743 46.2085L92.2199 58.7468L90.1601 58.9514L89.1102 48.3835L84.8292 48.8088L85.3506 54.0569C85.5677 56.2422 85.2682 57.7793 84.4521 58.6683C83.7209 59.4404 82.7278 59.8225 81.4729 59.8145ZM102.884 53.9973L95.7548 54.7055C95.9646 55.36 96.3386 55.8474 96.8769 56.1678C97.4272 56.4869 98.0784 56.6091 98.8307 56.5344C99.8457 56.4336 100.579 55.9869 101.031 55.1943L102.718 55.9673C101.975 57.3555 100.732 58.1362 98.989 58.3094C97.5441 58.453 96.324 58.128 95.3287 57.3345C94.3441 56.5279 93.7842 55.444 93.649 54.0827C93.5173 52.7572 93.8482 51.5968 94.6417 50.6015C95.4232 49.6073 96.5125 49.0409 97.9097 48.9021C99.2113 48.7727 100.332 49.1257 101.271 49.961C102.21 50.7962 102.745 51.8706 102.875 53.1841C102.899 53.4229 102.902 53.694 102.884 53.9973ZM95.5803 53.1311L100.846 52.6079C100.645 51.9164 100.293 51.4027 99.7889 51.0669C99.2972 50.7298 98.7229 50.5939 98.0661 50.6592C97.3497 50.7304 96.7722 50.9867 96.3337 51.4282C95.8952 51.8698 95.6441 52.4374 95.5803 53.1311ZM109.147 57.3003C107.786 57.4355 106.619 57.1052 105.648 56.3093C104.699 55.4992 104.156 54.4015 104.018 53.0163C103.869 51.5117 103.979 50.3189 104.35 49.438C104.71 48.5701 105.554 47.7205 106.882 46.8891C106.928 46.8605 107.002 46.817 107.105 46.7585C107.218 46.687 107.338 46.6148 107.463 46.542C107.588 46.4693 107.714 46.3965 107.839 46.3238C108.318 46.0471 108.614 45.8729 108.728 45.8013C108.796 45.7584 108.992 45.6063 109.316 45.345C109.704 45.005 109.942 44.5532 110.031 43.9896L111.698 44.7465C111.704 45.4092 111.352 46.0532 110.642 46.6784C110.523 46.8109 110.292 46.9785 109.95 47.1813L109.216 47.616L108.358 48.0811C107.612 48.4687 107.07 48.8421 106.732 49.2013C106.394 49.5605 106.178 49.998 106.085 50.5137C106.721 49.6306 107.654 49.1279 108.883 49.0057C109.934 48.9013 110.885 49.1867 111.736 49.8618C112.599 50.5358 113.09 51.4699 113.208 52.664C113.329 53.882 113.011 54.9266 112.253 55.7978C111.508 56.6678 110.472 57.1686 109.147 57.3003ZM108.949 55.493C109.701 55.4182 110.294 55.1362 110.728 54.6469C111.161 54.1457 111.343 53.5488 111.274 52.8562C111.204 52.1517 110.908 51.5963 110.385 51.1899C109.874 50.7825 109.242 50.6161 108.49 50.6908C107.821 50.7572 107.24 51.0321 106.745 51.5154C106.248 51.9748 106.035 52.5627 106.106 53.2792C106.178 53.9956 106.487 54.5618 107.035 54.9777C107.583 55.3936 108.221 55.5653 108.949 55.493ZM123.419 51.9571L116.29 52.6653C116.5 53.3198 116.874 53.8072 117.413 54.1276C117.963 54.4467 118.614 54.5689 119.366 54.4942C120.381 54.3934 121.115 53.9467 121.567 53.1541L123.253 53.9271C122.511 55.3153 121.268 56.096 119.525 56.2692C118.08 56.4128 116.86 56.0878 115.864 55.2943C114.88 54.4877 114.32 53.4038 114.185 52.0425C114.053 50.717 114.384 49.5566 115.177 48.5613C115.959 47.5671 117.048 47.0007 118.445 46.8619C119.747 46.7326 120.867 47.0855 121.806 47.9208C122.746 48.756 123.28 49.8304 123.411 51.1439C123.435 51.3828 123.437 51.6538 123.419 51.9571ZM116.116 51.0909L121.382 50.5677C121.181 49.8762 120.828 49.3625 120.325 49.0267C119.833 48.6896 119.259 48.5538 118.602 48.619C117.885 48.6902 117.308 48.9465 116.869 49.388C116.431 49.8296 116.18 50.3972 116.116 51.0909ZM132.198 45.7307L132.906 52.8596L134.106 52.7404L134.526 56.9676L132.627 57.1562L132.389 54.756L126.245 55.3664L126.484 57.7666L124.585 57.9552L124.165 53.728L125.258 53.6195C125.731 52.8007 125.898 51.6927 125.76 50.2956L125.373 46.4087L132.198 45.7307ZM127.389 53.4077L131.007 53.0483L130.475 47.6926L127.448 47.9934L127.658 50.1069C127.786 51.3966 127.697 52.4969 127.389 53.4077ZM143.798 49.9325L136.669 50.6408C136.878 51.2952 137.252 51.7827 137.791 52.103C138.341 52.4222 138.992 52.5444 139.745 52.4696C140.76 52.3688 141.493 51.9221 141.945 51.1296L143.632 51.9026C142.889 53.2908 141.646 54.0715 139.903 54.2447C138.458 54.3882 137.238 54.0633 136.242 53.2698C135.258 52.4632 134.698 51.3792 134.563 50.0179C134.431 48.6924 134.762 47.532 135.555 46.5367C136.337 45.5426 137.426 44.9761 138.823 44.8373C140.125 44.708 141.245 45.061 142.185 45.8962C143.124 46.7315 143.659 47.8058 143.789 49.1194C143.813 49.3582 143.816 49.6292 143.798 49.9325ZM136.494 49.0663L141.76 48.5431C141.559 47.8517 141.206 47.338 140.703 47.0021C140.211 46.6651 139.637 46.5292 138.98 46.5945C138.263 46.6656 137.686 46.922 137.248 47.3635C136.809 47.805 136.558 48.3726 136.494 49.0663ZM151.675 48.1913C152.6 48.5214 153.11 49.1641 153.205 50.1194C153.281 50.8837 153.079 51.5247 152.6 52.0426C152.133 52.5594 151.439 52.8634 150.52 52.9547L145.934 53.4103L145.045 44.4544L149.272 44.0344C150.179 43.9443 150.912 44.1006 151.471 44.5033C152.03 44.9061 152.346 45.4776 152.419 46.218C152.503 47.0658 152.255 47.7236 151.675 48.1913ZM149.292 45.6966L147.053 45.919L147.251 47.9072L149.49 47.6848C150.278 47.6065 150.639 47.233 150.572 46.5643C150.507 45.9075 150.08 45.6183 149.292 45.6966ZM147.612 51.5433L150.173 51.2888C150.985 51.2082 151.356 50.8156 151.286 50.111C151.256 49.8006 151.124 49.5724 150.893 49.4266C150.66 49.2688 150.353 49.2089 149.971 49.2469L147.409 49.5014L147.612 51.5433ZM169.216 51.0973L167.157 51.3019L166.311 42.7938L161.246 51.8891L159.634 52.0493L158.388 39.511L160.448 39.3064L161.293 47.8145L166.359 38.7191L167.971 38.559L169.216 51.0973ZM177.335 45.6419C178.261 45.972 178.771 46.6148 178.865 47.5701C178.941 48.3343 178.74 48.9754 178.261 49.4933C177.793 50.01 177.1 50.314 176.181 50.4054L171.595 50.8609L170.705 41.905L174.933 41.4851C175.84 41.3949 176.573 41.5512 177.132 41.9539C177.69 42.3567 178.006 42.9282 178.08 43.6686C178.164 44.5164 177.916 45.1742 177.335 45.6419ZM174.953 43.1472L172.714 43.3696L172.912 45.3578L175.151 45.1354C175.939 45.0571 176.3 44.6836 176.233 44.0149C176.168 43.3581 175.741 43.0689 174.953 43.1472ZM173.273 48.9939L175.834 48.7395C176.646 48.6588 177.017 48.2662 176.947 47.5617C176.916 47.2512 176.785 47.023 176.554 46.8772C176.321 46.7194 176.013 46.6595 175.631 46.6975L173.07 46.952L173.273 48.9939ZM187.021 41.5684L186.894 40.2967L188.829 40.1045L189.719 49.0604L187.784 49.2526L187.656 47.9629C187.028 49.0503 186.034 49.6616 184.673 49.7968C183.443 49.919 182.347 49.5697 181.385 48.7487C180.423 47.9278 179.876 46.8546 179.745 45.5291C179.613 44.2037 179.938 43.0439 180.719 42.0497C181.501 41.0556 182.507 40.4974 183.737 40.3752C185.098 40.24 186.193 40.6377 187.021 41.5684ZM182.69 47.3167C183.281 47.8007 183.982 48.0024 184.794 47.9217C185.606 47.841 186.254 47.5053 186.738 46.9146C187.221 46.3119 187.421 45.5986 187.339 44.7746C187.257 43.9507 186.921 43.2967 186.33 42.8128C185.738 42.3168 185.036 42.1092 184.224 42.1899C183.412 42.2706 182.765 42.6122 182.282 43.2149C181.798 43.8057 181.597 44.513 181.679 45.337C181.76 46.149 182.097 46.8089 182.69 47.3167ZM197.474 42.8452L197.12 39.2808L199.054 39.0886L199.944 48.0445L198.01 48.2367L197.656 44.6722L193.554 45.0797L193.908 48.6442L191.973 48.8364L191.084 39.8805L193.018 39.6883L193.372 43.2527L197.474 42.8452ZM213.526 40.129C214.104 40.361 214.573 40.7183 214.935 41.201C215.295 41.6717 215.507 42.2294 215.571 42.8742C215.673 43.9012 215.394 44.7912 214.733 45.5442C214.072 46.2972 213.216 46.7259 212.166 46.8303L206.792 47.3642L205.546 34.8259L210.526 34.3312C211.553 34.2291 212.452 34.4775 213.223 35.0762C214.006 35.6737 214.446 36.4621 214.543 37.4413C214.65 38.516 214.311 39.4119 213.526 40.129ZM210.718 36.2657L207.798 36.5557L208.126 39.8515L211.046 39.5614C211.499 39.5163 211.866 39.3231 212.146 38.9818C212.424 38.6286 212.54 38.2191 212.494 37.7534C212.448 37.2877 212.254 36.915 211.912 36.6354C211.57 36.3438 211.172 36.2206 210.718 36.2657ZM208.66 45.225L211.973 44.8958C212.451 44.8484 212.835 44.6415 213.124 44.2751C213.424 43.8956 213.549 43.461 213.501 42.9714C213.452 42.4818 213.244 42.0865 212.876 41.7853C212.52 41.4711 212.102 41.3377 211.625 41.3851L208.311 41.7143L208.66 45.225ZM224.016 37.8929L223.89 36.6212L225.824 36.429L226.714 45.3849L224.78 45.5771L224.652 44.2874C224.024 45.3748 223.03 45.9861 221.668 46.1214C220.438 46.2436 219.342 45.8942 218.381 45.0733C217.419 44.2523 216.872 43.1791 216.74 41.8537C216.609 40.5282 216.933 39.3684 217.715 38.3742C218.497 37.3801 219.502 36.8219 220.732 36.6998C222.094 36.5645 223.188 36.9622 224.016 37.8929ZM219.685 43.6413C220.276 44.1252 220.978 44.3269 221.79 44.2462C222.602 44.1655 223.25 43.8298 223.733 43.2391C224.216 42.6364 224.417 41.9231 224.335 41.0991C224.253 40.2752 223.917 39.6212 223.326 39.1373C222.734 38.6414 222.032 38.4337 221.22 38.5144C220.408 38.5951 219.761 38.9368 219.278 39.5394C218.794 40.1302 218.593 40.8375 218.675 41.6615C218.755 42.4735 219.092 43.1334 219.685 43.6413ZM228.778 36.1356L235.638 35.454L236.528 44.4099L234.593 44.6021L233.889 37.509L230.897 37.8062L231.228 41.1378C231.367 42.535 231.162 43.5683 230.614 44.2378C230.065 44.9073 229.201 45.2464 228.02 45.2552L227.84 43.4461C228.399 43.4871 228.799 43.3327 229.042 42.983C229.283 42.6214 229.364 42.0405 229.285 41.2405L228.778 36.1356ZM247.07 39.6725L239.942 40.3807C240.151 41.0352 240.525 41.5226 241.064 41.8429C241.614 42.1621 242.265 42.2843 243.017 42.2096C244.032 42.1087 244.766 41.6621 245.218 40.8695L246.904 41.6425C246.162 43.0307 244.919 43.8114 243.176 43.9846C241.731 44.1282 240.511 43.8032 239.515 43.0097C238.531 42.2031 237.971 41.1192 237.836 39.7579C237.704 38.4324 238.035 37.272 238.828 36.2767C239.61 35.2825 240.699 34.7161 242.096 34.5773C243.398 34.4479 244.518 34.8009 245.457 35.6362C246.397 36.4714 246.931 37.5458 247.062 38.8593C247.086 39.0981 247.089 39.3692 247.07 39.6725ZM239.767 38.8063L245.033 38.2831C244.832 37.5916 244.479 37.0779 243.976 36.7421C243.484 36.405 242.91 36.2691 242.253 36.3344C241.536 36.4056 240.959 36.6619 240.52 37.1034C240.082 37.5449 239.831 38.1126 239.767 38.8063ZM253.363 33.4579C254.581 33.3369 255.678 33.6922 256.653 34.5239C257.615 35.3448 258.161 36.4121 258.291 37.7256C258.423 39.0511 258.098 40.2109 257.317 41.205C256.535 42.1991 255.529 42.7573 254.299 42.8795C252.95 43.0136 251.855 42.6158 251.015 41.6863L251.498 46.5404L249.563 46.7326L248.318 34.1943L250.252 34.0022L250.38 35.2918C251.008 34.2044 252.002 33.5931 253.363 33.4579ZM251.708 40.4599C252.298 40.9439 253 41.1455 253.812 41.0648C254.624 40.9842 255.272 40.6485 255.756 40.0577C256.238 39.455 256.439 38.7417 256.357 37.9178C256.275 37.0938 255.939 36.4399 255.348 35.9559C254.756 35.46 254.054 35.2524 253.242 35.333C252.43 35.4137 251.783 35.7554 251.3 36.3581C250.816 36.9488 250.615 37.6562 250.697 38.4801C250.778 39.2921 251.114 39.952 251.708 40.4599ZM261.837 35.9263L263.807 35.7305C264.774 35.6344 265.584 35.8314 266.235 36.3213C266.898 36.7982 267.273 37.4784 267.361 38.3621C267.447 39.2338 267.213 39.9746 266.659 40.5844C266.116 41.193 265.362 41.5453 264.394 41.6414L260.49 42.0294L259.6 33.0734L261.534 32.8813L261.837 35.9263ZM262.251 40.0997L264.24 39.9022C264.622 39.8642 264.927 39.7194 265.155 39.4676C265.395 39.2146 265.498 38.909 265.462 38.5507C265.426 38.1925 265.272 37.9124 264.999 37.7104C264.725 37.5084 264.392 37.427 263.998 37.4662L262.009 37.6637L262.251 40.0997ZM277.419 36.6574L270.29 37.3656C270.5 38.0201 270.874 38.5075 271.412 38.8278C271.962 39.147 272.614 39.2692 273.366 39.1945C274.381 39.0936 275.114 38.6469 275.566 37.8544L277.253 38.6274C276.511 40.0156 275.268 40.7963 273.524 40.9695C272.079 41.1131 270.859 40.7881 269.864 39.9946C268.879 39.188 268.32 38.104 268.184 36.7427C268.053 35.4173 268.383 34.2569 269.177 33.2616C269.959 32.2674 271.048 31.7009 272.445 31.5621C273.747 31.4328 274.867 31.7858 275.806 32.621C276.745 33.4563 277.28 34.5307 277.411 35.8442C277.434 36.083 277.437 36.3541 277.419 36.6574ZM270.116 35.7911L275.382 35.268C275.18 34.5765 274.828 34.0628 274.324 33.727C273.832 33.3899 273.258 33.254 272.601 33.3193C271.885 33.3905 271.307 33.6468 270.869 34.0883C270.43 34.5298 270.179 35.0974 270.116 35.7911ZM285.296 34.9161C286.221 35.2462 286.731 35.889 286.826 36.8443C286.902 37.6085 286.701 38.2496 286.221 38.7675C285.754 39.2842 285.061 39.5882 284.141 39.6796L279.556 40.1351L278.666 31.1792L282.893 30.7593C283.801 30.6691 284.534 30.8254 285.092 31.2281C285.651 31.6309 285.967 32.2025 286.041 32.9428C286.125 33.7906 285.877 34.4484 285.296 34.9161ZM282.914 32.4214L280.675 32.6438L280.872 34.632L283.111 34.4096C283.899 34.3313 284.26 33.9578 284.194 33.2891C284.129 32.6323 283.702 32.3431 282.914 32.4214ZM281.234 38.2681L283.795 38.0137C284.607 37.933 284.978 37.5404 284.908 36.8359C284.877 36.5254 284.746 36.2972 284.514 36.1514C284.282 35.9937 283.974 35.9338 283.592 35.9717L281.031 36.2262L281.234 38.2681ZM290.225 35.765L294.246 29.6314L295.733 29.4837L296.623 38.4396L294.724 38.6282L294.158 32.9323L290.138 39.0838L288.652 39.2315L287.762 30.2756L289.661 30.0869L290.225 35.765ZM303.83 32.8215L303.423 28.7197L305.357 28.5275L306.247 37.4834L304.312 37.6756L304.012 34.6485C303.333 34.9812 302.594 35.1873 301.794 35.2668C300.659 35.3795 299.748 35.1926 299.061 34.7062C298.372 34.2079 297.976 33.4333 297.871 32.3824L297.565 29.3016L299.5 29.1094L299.788 32.0111C299.895 33.0858 300.587 33.5597 301.865 33.4328C302.593 33.3604 303.248 33.1567 303.83 32.8215ZM83.522 70.0621L92.7466 69.1457L93.9923 81.6839L91.9324 81.8886L90.8825 71.3206L85.7776 71.8278L86.8275 82.3958L84.7677 82.6004L83.522 70.0621ZM100.536 71.7544C101.754 71.6334 102.85 71.9887 103.825 72.8204C104.787 73.6414 105.333 74.7086 105.464 76.0221C105.595 77.3476 105.27 78.5074 104.489 79.5015C103.707 80.4957 102.702 81.0538 101.472 81.176C100.122 81.3101 99.0276 80.9124 98.1876 79.9829L98.6698 84.837L96.7353 85.0291L95.4897 72.4909L97.4241 72.2987L97.5523 73.5883C98.1798 72.501 99.1743 71.8897 100.536 71.7544ZM98.8797 78.7564C99.4704 79.2404 100.172 79.442 100.984 79.3614C101.796 79.2807 102.444 78.945 102.928 78.3542C103.411 77.7516 103.611 77.0383 103.529 76.2143C103.447 75.3904 103.111 74.7364 102.52 74.2524C101.928 73.7565 101.226 73.5489 100.414 73.6296C99.6024 73.7103 98.955 74.0519 98.4722 74.6546C97.9882 75.2453 97.7872 75.9527 97.869 76.7766C97.9497 77.5886 98.2866 78.2486 98.8797 78.7564ZM115.95 75.8124L108.821 76.5206C109.031 77.1751 109.405 77.6625 109.943 77.9829C110.494 78.302 111.145 78.4242 111.897 78.3495C112.912 78.2486 113.646 77.802 114.097 77.0094L115.784 77.7824C115.042 79.1706 113.799 79.9513 112.055 80.1245C110.611 80.2681 109.39 79.9431 108.395 79.1496C107.411 78.343 106.851 77.2591 106.715 75.8978C106.584 74.5723 106.915 73.4119 107.708 72.4166C108.49 71.4224 109.579 70.856 110.976 70.7172C112.278 70.5878 113.398 70.9408 114.337 71.7761C115.276 72.6113 115.811 73.6857 115.942 74.9992C115.965 75.238 115.968 75.5091 115.95 75.8124ZM108.647 74.9462L113.913 74.423C113.711 73.7315 113.359 73.2178 112.855 72.882C112.364 72.5449 111.789 72.409 111.133 72.4743C110.416 72.5455 109.839 72.8018 109.4 73.2433C108.962 73.6849 108.71 74.2525 108.647 74.9462ZM124.729 69.586L125.437 76.7149L126.637 76.5957L127.057 80.8229L125.158 81.0115L124.92 78.6113L118.776 79.2217L119.015 81.6219L117.116 81.8105L116.696 77.5833L117.789 77.4748C118.262 76.656 118.429 75.548 118.29 74.1509L117.904 70.264L124.729 69.586ZM119.92 77.263L123.538 76.9035L123.006 71.5479L119.979 71.8486L120.189 73.9622C120.317 75.2519 120.227 76.3521 119.92 77.263ZM127.5 69.3107L135.471 68.5188L136.361 77.4747L134.426 77.6669L133.718 70.538L129.616 70.9455L130.324 78.0744L128.39 78.2666L127.5 69.3107ZM142.761 67.5593C143.979 67.4383 145.076 67.7937 146.051 68.6253C147.013 69.4463 147.559 70.5135 147.689 71.827C147.821 73.1525 147.496 74.3123 146.715 75.3064C145.933 76.3006 144.927 76.8587 143.697 76.9809C142.348 77.115 141.253 76.7173 140.413 75.7878L140.896 80.6419L138.961 80.8341L137.715 68.2958L139.65 68.1036L139.778 69.3932C140.406 68.3059 141.4 67.6946 142.761 67.5593ZM141.105 74.5613C141.696 75.0453 142.398 75.2469 143.21 75.1663C144.022 75.0856 144.67 74.7499 145.153 74.1592C145.636 73.5565 145.837 72.8432 145.755 72.0192C145.673 71.1953 145.337 70.5413 144.746 70.0574C144.154 69.5614 143.452 69.3538 142.64 69.4345C141.828 69.5152 141.181 69.8568 140.698 70.4595C140.214 71.0503 140.013 71.7576 140.095 72.5816C140.175 73.3936 140.512 74.0535 141.105 74.5613ZM151.46 72.6643L155.482 66.5307L156.968 66.383L157.858 75.3389L155.96 75.5275L155.394 69.8316L151.374 75.9831L149.887 76.1308L148.998 67.1749L150.896 66.9863L151.46 72.6643ZM165.603 69.1248L165.249 65.5603L167.184 65.3681L168.074 74.324L166.139 74.5162L165.785 70.9518L161.683 71.3593L162.037 74.9237L160.103 75.1159L159.213 66.16L161.148 65.9678L161.502 69.5323L165.603 69.1248ZM171.891 70.6345L175.912 64.5009L177.399 64.3532L178.289 73.3091L176.39 73.4978L175.824 67.8018L171.805 73.9533L170.318 74.101L169.428 65.1451L171.327 64.9565L171.891 70.6345ZM186.808 63.4184L188.779 63.2227L189.669 72.1786L187.788 72.3654L187.202 66.4725L185.031 70.8305L184.798 70.8536L181.831 67.0242L182.414 72.8993L180.533 73.0862L179.644 64.1302L181.614 63.9345L184.622 67.8141L186.808 63.4184ZM198.233 63.5677L198.107 62.296L200.041 62.1038L200.931 71.0597L198.996 71.2519L198.868 69.9622C198.241 71.0496 197.246 71.6609 195.885 71.7962C194.655 71.9183 193.559 71.569 192.597 70.7481C191.635 69.9271 191.089 68.8539 190.957 67.5284C190.825 66.203 191.15 65.0432 191.932 64.049C192.713 63.0549 193.719 62.4967 194.949 62.3745C196.31 62.2393 197.405 62.637 198.233 63.5677ZM193.902 69.316C194.493 69.8 195.194 70.0017 196.006 69.921C196.818 69.8403 197.466 69.5046 197.95 68.9139C198.433 68.3112 198.633 67.5979 198.552 66.7739C198.47 65.95 198.133 65.296 197.543 64.8121C196.951 64.3161 196.249 64.1085 195.437 64.1892C194.625 64.2699 193.977 64.6115 193.495 65.2142C193.011 65.805 192.81 66.5123 192.891 67.3363C192.972 68.1483 193.309 68.8082 193.902 69.316ZM201.347 61.9741L209.138 61.2L209.323 63.0628L206.404 63.3529L207.108 70.446L205.174 70.6382L204.469 63.5451L201.532 63.8369L201.347 61.9741ZM219.275 65.5471L212.147 66.2553C212.356 66.9098 212.73 67.3972 213.269 67.7176C213.819 68.0367 214.47 68.159 215.222 68.0842C216.237 67.9834 216.971 67.5367 217.423 66.7441L219.109 67.5172C218.367 68.9054 217.124 69.6861 215.381 69.8593C213.936 70.0028 212.716 69.6778 211.72 68.8844C210.736 68.0777 210.176 66.9938 210.041 65.6325C209.909 64.307 210.24 63.1466 211.033 62.1513C211.815 61.1572 212.904 60.5907 214.301 60.4519C215.603 60.3226 216.723 60.6755 217.663 61.5108C218.602 62.346 219.137 63.4204 219.267 64.7339C219.291 64.9728 219.294 65.2438 219.275 65.5471ZM211.972 64.6809L217.238 64.1577C217.037 63.4662 216.684 62.9526 216.181 62.6167C215.689 62.2797 215.115 62.1438 214.458 62.209C213.741 62.2802 213.164 62.5366 212.725 62.9781C212.287 63.4196 212.036 63.9872 211.972 64.6809ZM220.871 60.0343L227.732 59.3528L228.621 68.3087L226.687 68.5009L225.982 61.4078L222.991 61.705L223.322 65.0366C223.461 66.4337 223.256 67.467 222.707 68.1365C222.159 68.806 221.294 69.1452 220.113 69.154L219.933 67.3449C220.492 67.3858 220.893 67.2314 221.136 66.8817C221.377 66.5201 221.458 65.9393 221.378 65.1392L220.871 60.0343ZM232.223 61.9816L234.193 61.7859C235.16 61.6898 235.97 61.8867 236.621 62.3767C237.284 62.8536 237.659 63.5338 237.747 64.4175C237.833 65.2892 237.599 66.0299 237.045 66.6397C236.502 67.2483 235.748 67.6007 234.78 67.6968L230.876 68.0847L229.986 59.1288L231.92 58.9366L232.223 61.9816ZM232.637 66.1551L234.626 65.9576C235.008 65.9196 235.313 65.7747 235.541 65.5229C235.781 65.2699 235.884 64.9643 235.848 64.6061C235.812 64.2479 235.658 63.9678 235.385 63.7658C235.111 63.5638 234.778 63.4824 234.384 63.5216L232.395 63.7191L232.637 66.1551ZM239.77 65.0304L241.92 64.8168L241.129 69.5985L239.517 69.7586L239.77 65.0304ZM258.373 65.3529L256.313 65.5575L255.468 57.0494L250.402 66.1448L248.79 66.3049L247.545 53.7666L249.604 53.562L250.45 62.0701L255.515 52.9747L257.127 52.8146L258.373 65.3529ZM266.253 59.1254L265.898 55.5609L267.833 55.3687L268.723 64.3246L266.788 64.5168L266.434 60.9524L262.332 61.3599L262.686 64.9243L260.752 65.1165L259.862 56.1606L261.797 55.9684L262.151 59.5329L266.253 59.1254ZM276.707 58.8826C277.633 59.2128 278.143 59.8555 278.237 60.8108C278.313 61.575 278.112 62.2161 277.633 62.734C277.165 63.2507 276.472 63.5547 275.553 63.6461L270.967 64.1017L270.077 55.1457L274.305 54.7258C275.212 54.6356 275.945 54.7919 276.504 55.1947C277.062 55.5974 277.378 56.169 277.452 56.9093C277.536 57.7571 277.288 58.4149 276.707 58.8826ZM274.325 56.3879L272.086 56.6103L272.284 58.5985L274.523 58.3761C275.311 58.2978 275.672 57.9243 275.605 57.2556C275.54 56.5988 275.113 56.3096 274.325 56.3879ZM272.645 62.2346L275.206 61.9802C276.018 61.8995 276.389 61.5069 276.319 60.8024C276.288 60.4919 276.157 60.2638 275.926 60.1179C275.693 59.9602 275.385 59.9003 275.003 59.9382L272.442 60.1927L272.645 62.2346ZM288.351 58.6845L281.223 59.3927C281.432 60.0472 281.806 60.5346 282.345 60.855C282.895 61.1741 283.546 61.2963 284.298 61.2216C285.313 61.1207 286.047 60.6741 286.499 59.8815L288.185 60.6545C287.443 62.0427 286.2 62.8234 284.457 62.9966C283.012 63.1402 281.792 62.8152 280.796 62.0217C279.812 61.2151 279.252 60.1312 279.117 58.7699C278.985 57.4444 279.316 56.284 280.109 55.2887C280.891 54.2945 281.98 53.7281 283.377 53.5893C284.679 53.4599 285.799 53.8129 286.739 54.6482C287.678 55.4834 288.213 56.5578 288.343 57.8713C288.367 58.1101 288.37 58.3812 288.351 58.6845ZM281.048 57.8183L286.314 57.2951C286.113 56.6036 285.76 56.0899 285.257 55.7541C284.765 55.417 284.191 55.2811 283.534 55.3464C282.817 55.4176 282.24 55.6739 281.801 56.1154C281.363 56.557 281.112 57.1246 281.048 57.8183ZM294.686 61.9804C293.337 62.1144 292.163 61.7728 291.166 60.9554C290.179 60.1249 289.62 59.0529 289.489 57.7393C289.357 56.4019 289.693 55.2409 290.5 54.2564C291.317 53.2587 292.401 52.6928 293.75 52.5587C294.622 52.4721 295.437 52.6022 296.195 52.949C296.953 53.2957 297.546 53.8036 297.974 54.4725L296.404 55.6053C296.159 55.1955 295.815 54.892 295.373 54.6947C294.942 54.4843 294.458 54.4058 293.921 54.4592C293.133 54.5375 292.497 54.872 292.013 55.4627C291.542 56.0642 291.346 56.759 291.424 57.5471C291.502 58.3353 291.831 58.9779 292.411 59.475C293.002 59.9589 293.691 60.1618 294.48 60.0835C295.005 60.0313 295.465 59.865 295.859 59.5847C296.264 59.2912 296.553 58.9188 296.725 58.4676L298.485 59.2514C298.174 60.0059 297.675 60.6282 296.988 61.1185C296.313 61.6077 295.546 61.8949 294.686 61.9804ZM298.165 52.3553L305.957 51.5812L306.142 53.444L303.222 53.7341L303.927 60.8272L301.992 61.0194L301.287 53.9263L298.35 54.2181L298.165 52.3553ZM315.27 58.5606C314.453 59.5583 313.381 60.123 312.056 60.2547C310.73 60.3864 309.569 60.0435 308.571 59.2262C307.56 58.398 306.989 57.3272 306.859 56.0137C306.728 54.7002 307.077 53.538 307.905 52.5272C308.723 51.5295 309.794 50.9648 311.12 50.8331C312.445 50.7014 313.607 51.0442 314.604 51.8616C315.615 52.6897 316.186 53.7606 316.316 55.0741C316.447 56.3876 316.098 57.5498 315.27 58.5606ZM308.793 55.8215C308.874 56.6335 309.21 57.2815 309.801 57.7655C310.391 58.2494 311.081 58.4523 311.869 58.374C312.657 58.2957 313.293 57.9611 313.777 57.3704C314.261 56.7797 314.463 56.0783 314.382 55.2663C314.301 54.4543 313.966 53.8063 313.375 53.3223C312.784 52.8384 312.095 52.6355 311.307 52.7138C310.518 52.7921 309.882 53.1266 309.398 53.7174C308.914 54.3081 308.713 55.0095 308.793 55.8215ZM322.667 49.6859C323.885 49.5649 324.981 49.9202 325.956 50.7519C326.918 51.5728 327.464 52.6401 327.595 53.9536C327.726 55.2791 327.401 56.4389 326.62 57.433C325.838 58.4272 324.833 58.9853 323.603 59.1075C322.253 59.2416 321.159 58.8439 320.319 57.9143L320.801 62.7684L318.866 62.9606L317.621 50.4224L319.555 50.2302L319.683 51.5198C320.311 50.4325 321.305 49.8211 322.667 49.6859ZM321.011 56.6879C321.602 57.1719 322.303 57.3735 323.115 57.2929C323.927 57.2122 324.575 56.8765 325.059 56.2857C325.542 55.6831 325.742 54.9697 325.66 54.1458C325.578 53.3219 325.242 52.6679 324.651 52.1839C324.059 51.688 323.357 51.4804 322.545 51.5611C321.733 51.6417 321.086 51.9834 320.603 52.5861C320.119 53.1768 319.918 53.8842 320 54.7081C320.081 55.5201 320.418 56.1801 321.011 56.6879Z" fill="white"/>
<path d="M1.96439 87.3109C1.9431 87.9374 2.02757 88.2949 2.11977 88.4841C2.19114 88.6306 2.26924 88.6903 2.39937 88.7296C2.57568 88.7828 2.88953 88.8027 3.40439 88.6996C3.90894 88.5986 4.53015 88.3954 5.27637 88.0866C7.38995 87.2118 10.1727 85.6394 13.5826 83.7127C15.078 82.8678 16.694 81.9547 18.427 81.0024C27.4915 76.0216 39.4763 70.1398 52.8462 68.3627C37.1554 66.5583 25.2051 68.3664 16.8476 71.7862C6.80519 75.8955 2.13729 82.2221 1.96439 87.3109Z" stroke="#557AFF" stroke-width="2"/>
</svg>
