<svg width="420" height="123" viewBox="0 0 420 123" fill="none" xmlns="http://www.w3.org/2000/svg">
<path fill-rule="evenodd" clip-rule="evenodd" d="M1.15156 46.824C0.739804 48.9923 2.16211 51.0844 4.32987 51.4991L347.815 117.198C348.984 117.421 350.191 117.113 351.109 116.357L373.207 98.1628C374.697 96.9362 375.099 94.8209 374.162 93.1337L360.269 68.0997C359.693 67.0628 358.687 66.3347 357.523 66.112L14.0414 0.413984C11.8696 -0.00142645 9.77273 1.42413 9.3602 3.59652L1.15156 46.824ZM353.202 97.08C355.915 97.5952 358.532 95.8135 359.047 93.1006C359.562 90.3876 357.781 87.7707 355.068 87.2556C352.355 86.7404 349.738 88.522 349.223 91.235C348.708 93.9479 350.489 96.5648 353.202 97.08Z" fill="#557AFF"/>
<path d="M19.5079 21.2645L28.6151 22.9939L26.2645 35.3727L24.2308 34.9865L26.2121 24.5529L21.1721 23.5959L19.1909 34.0294L17.1572 33.6432L19.5079 21.2645ZM35.3485 27.6987C36.551 27.927 37.5023 28.5779 38.2023 29.6514C38.8928 30.7108 39.1149 31.8889 38.8687 33.1857C38.6202 34.4943 37.9805 35.5149 36.9498 36.2475C35.919 36.98 34.7965 37.231 33.5822 37.0004C32.25 36.7475 31.3124 36.0564 30.7696 34.9273L29.8595 39.7197L27.9497 39.357L30.3003 26.9782L32.2102 27.3409L31.9684 28.6141C32.8778 27.7486 34.0046 27.4434 35.3485 27.6987ZM31.7803 33.9467C32.21 34.5779 32.8258 34.9697 33.6274 35.1219C34.4291 35.2741 35.1456 35.1354 35.7768 34.7056C36.4103 34.264 36.8043 33.6365 36.9588 32.823C37.1133 32.0096 36.9756 31.2872 36.5458 30.656C36.1183 30.0129 35.5037 29.6153 34.702 29.463C33.9003 29.3108 33.1828 29.4555 32.5493 29.897C31.918 30.3268 31.5251 30.9484 31.3707 31.7619C31.2184 32.5636 31.355 33.2918 31.7803 33.9467ZM47.452 38.2418C46.3859 38.9676 45.1985 39.2063 43.8899 38.9578C42.5813 38.7093 41.564 38.052 40.8382 36.9859C40.1028 35.9057 39.8582 34.7172 40.1045 33.4204C40.3507 32.1236 41.0139 31.1074 42.0941 30.3721C43.1602 29.6462 44.3476 29.4075 45.6562 29.656C46.9648 29.9045 47.9821 30.5618 48.7079 31.628C49.4433 32.7081 49.6879 33.8966 49.4416 35.1935C49.1954 36.4903 48.5322 37.5064 47.452 38.2418ZM42.0143 33.7831C41.8621 34.5847 42.0009 35.3012 42.4307 35.9325C42.8604 36.5637 43.4644 36.9532 44.2425 37.101C45.0206 37.2487 45.7252 37.1077 46.3565 36.678C46.9878 36.2482 47.3795 35.6325 47.5318 34.8308C47.684 34.0291 47.5452 33.3126 47.1154 32.6814C46.6857 32.0501 46.0817 31.6606 45.3036 31.5128C44.5255 31.3651 43.8209 31.5061 43.1896 31.9359C42.5583 32.3657 42.1666 32.9814 42.0143 33.7831ZM59.5555 37.9568L52.5172 36.6203C52.5333 37.3074 52.7543 37.8806 53.18 38.3401C53.6176 38.8019 54.2077 39.1033 54.9504 39.2443C55.9525 39.4346 56.7823 39.2135 57.4399 38.5811L58.8391 39.7995C57.7345 40.9211 56.3215 41.3185 54.6003 40.9917C53.1738 40.7208 52.0954 40.064 51.365 39.0215C50.6487 37.9694 50.4182 36.7713 50.6734 35.4274C50.9219 34.1187 51.5674 33.0993 52.61 32.369C53.6408 31.6364 54.8458 31.4011 56.2252 31.663C57.5102 31.907 58.4851 32.5624 59.1497 33.6291C59.8144 34.6959 60.0236 35.8776 59.7773 37.1745C59.7325 37.4102 59.6586 37.671 59.5555 37.9568ZM52.7951 35.0607L57.9942 36.048C57.9966 35.3278 57.8037 34.7354 57.4155 34.2709C57.0392 33.8085 56.5268 33.5158 55.8784 33.3927C55.171 33.2584 54.5446 33.3409 53.9992 33.6404C53.4537 33.9399 53.0524 34.4134 52.7951 35.0607ZM65.2624 38.1061L68.438 43.3812L66.1568 42.948L63.3073 38.1746L62.5316 42.2596L60.6217 41.8969L62.3007 33.0549L64.2106 33.4176L63.4685 37.3257L67.6413 34.069L69.9756 34.5123L65.2624 38.1061ZM70.4645 34.6052L78.157 36.0659L77.8078 37.9051L74.9253 37.3577L73.5955 44.3606L71.6856 43.9979L73.0154 36.995L70.1153 36.4443L70.4645 34.6052ZM80.7883 39.6803L82.7336 40.0497C83.6885 40.231 84.4092 40.6488 84.8957 41.303C85.3962 41.9477 85.5637 42.7063 85.398 43.5787C85.2346 44.4393 84.8007 45.0837 84.0965 45.5118C83.404 45.9422 82.5804 46.0667 81.6254 45.8854L77.7703 45.1533L79.4494 36.3113L81.3592 36.674L80.7883 39.6803ZM85.9049 46.698L87.584 37.856L89.4939 38.2187L87.8148 47.0607L85.9049 46.698ZM80.0059 43.8006L81.9688 44.1734C82.3461 44.245 82.6798 44.1924 82.9699 44.0154C83.2718 43.8406 83.4563 43.5764 83.5235 43.2227C83.5906 42.8691 83.5217 42.5567 83.3167 42.2857C83.1116 42.0147 82.8146 41.8423 82.4255 41.7684L80.4626 41.3956L80.0059 43.8006ZM101.434 44.9383C102.228 45.5166 102.536 46.2773 102.357 47.2205C102.214 47.975 101.839 48.5329 101.233 48.8942C100.639 49.2577 99.8875 49.3533 98.9798 49.1809L94.4527 48.3212L96.1317 39.4792L100.305 40.2717C101.201 40.4419 101.86 40.7991 102.282 41.3433C102.704 41.8876 102.845 42.5252 102.707 43.2561C102.548 44.0932 102.124 44.6539 101.434 44.9383ZM99.8547 41.8718L97.6442 41.452L97.2715 43.4149L99.482 43.8347C100.26 43.9825 100.712 43.7262 100.837 43.066C100.96 42.4176 100.633 42.0195 99.8547 41.8718ZM96.5898 47.0048L99.1186 47.485C99.9203 47.6372 100.387 47.3656 100.519 46.67C100.577 46.3635 100.516 46.1075 100.335 45.9022C100.157 45.685 99.8787 45.5407 99.5014 45.469L96.9726 44.9888L96.5898 47.0048ZM112.494 47.0752L115.67 52.3503L113.389 51.9171L110.539 47.1437L109.764 51.2287L107.854 50.866L109.533 42.024L111.443 42.3867L110.701 46.2948L114.873 43.0381L117.208 43.4814L112.494 47.0752ZM123.939 52.7662C122.873 53.492 121.685 53.7307 120.377 53.4822C119.068 53.2337 118.051 52.5764 117.325 51.5102C116.589 50.4301 116.345 49.2416 116.591 47.9448C116.837 46.6479 117.501 45.6318 118.581 44.8964C119.647 44.1706 120.834 43.9319 122.143 44.1804C123.452 44.4289 124.469 45.0862 125.195 46.1523C125.93 47.2325 126.175 48.421 125.928 49.7178C125.682 51.0146 125.019 52.0308 123.939 52.7662ZM118.501 48.3074C118.349 49.1091 118.488 49.8256 118.917 50.4568C119.347 51.0881 119.951 51.4776 120.729 51.6254C121.507 51.7731 122.212 51.6321 122.843 51.2023C123.474 50.7725 123.866 50.1568 124.018 49.3552C124.171 48.5535 124.032 47.837 123.602 47.2057C123.172 46.5745 122.568 46.185 121.79 46.0372C121.012 45.8895 120.308 46.0305 119.676 46.4603C119.045 46.89 118.653 47.5058 118.501 48.3074ZM127.212 45.3812L134.905 46.842L134.555 48.6811L131.673 48.1337L130.343 55.1366L128.433 54.7739L129.763 47.7711L126.863 47.2203L127.212 45.3812ZM141.864 56.1702C140.798 56.896 139.611 57.1347 138.302 56.8862C136.994 56.6377 135.976 55.9804 135.251 54.9142C134.515 53.8341 134.271 52.6456 134.517 51.3488C134.763 50.0519 135.426 49.0358 136.507 48.3004C137.573 47.5746 138.76 47.3359 140.069 47.5844C141.377 47.8329 142.395 48.4902 143.12 49.5563C143.856 50.6365 144.1 51.825 143.854 53.1218C143.608 54.4186 142.945 55.4348 141.864 56.1702ZM136.427 51.7114C136.275 52.5131 136.413 53.2296 136.843 53.8608C137.273 54.4921 137.877 54.8816 138.655 55.0294C139.433 55.1771 140.138 55.0361 140.769 54.6063C141.4 54.1765 141.792 53.5608 141.944 52.7591C142.096 51.9575 141.958 51.241 141.528 50.6097C141.098 49.9785 140.494 49.589 139.716 49.4412C138.938 49.2935 138.233 49.4345 137.602 49.8642C136.971 50.294 136.579 50.9097 136.427 51.7114ZM151.469 49.7492C152.671 49.9776 153.623 50.6285 154.323 51.7019C155.013 52.7613 155.235 53.9394 154.989 55.2363C154.74 56.5449 154.101 57.5655 153.07 58.298C152.039 59.0306 150.917 59.2816 149.702 59.051C148.37 58.798 147.433 58.107 146.89 56.9779L145.98 61.7702L144.07 61.4076L146.421 49.0288L148.33 49.3914L148.089 50.6647C148.998 49.7992 150.125 49.494 151.469 49.7492ZM147.9 55.9972C148.33 56.6285 148.946 57.0202 149.748 57.1724C150.549 57.3247 151.266 57.1859 151.897 56.7561C152.531 56.3146 152.925 55.687 153.079 54.8736C153.233 54.0601 153.096 53.3378 152.666 52.7065C152.239 52.0634 151.624 51.6658 150.822 51.5136C150.021 51.3613 149.303 51.506 148.669 51.9476C148.038 52.3773 147.645 52.999 147.491 53.8124C147.339 54.6141 147.475 55.3424 147.9 55.9972ZM158.898 54.5129L160.844 54.8823C161.799 55.0636 162.519 55.4814 163.006 56.1357C163.506 56.7804 163.674 57.5389 163.508 58.4113C163.345 59.2719 162.911 59.9163 162.207 60.3445C161.514 60.7748 160.69 60.8994 159.735 60.718L155.88 59.986L157.559 51.144L159.469 51.5066L158.898 54.5129ZM164.015 61.5307L165.694 52.6887L167.604 53.0514L165.925 61.8933L164.015 61.5307ZM158.116 58.6333L160.079 59.006C160.456 59.0777 160.79 59.025 161.08 58.848C161.382 58.6733 161.566 58.4091 161.634 58.0554C161.701 57.7017 161.632 57.3893 161.427 57.1183C161.222 56.8473 160.925 56.6749 160.536 56.601L158.573 56.2283L158.116 58.6333ZM177.368 60.3287L170.33 58.9922C170.346 59.6793 170.567 60.2526 170.993 60.7121C171.43 61.1738 172.02 61.4752 172.763 61.6162C173.765 61.8065 174.595 61.5854 175.252 60.953L176.652 62.1714C175.547 63.2931 174.134 63.6904 172.413 63.3636C170.986 63.0927 169.908 62.436 169.178 61.3934C168.461 60.3413 168.231 59.1433 168.486 57.7993C168.735 56.4907 169.38 55.4712 170.423 54.7409C171.453 54.0083 172.658 53.773 174.038 54.0349C175.323 54.279 176.298 54.9343 176.962 56.0011C177.627 57.0678 177.836 58.2496 177.59 59.5464C177.545 59.7822 177.471 60.043 177.368 60.3287ZM170.608 57.4327L175.807 58.4199C175.809 57.6997 175.616 57.1074 175.228 56.6428C174.852 56.1805 174.339 55.8877 173.691 55.7646C172.984 55.6303 172.357 55.7129 171.812 56.0124C171.266 56.3119 170.865 56.7853 170.608 57.4327ZM191.608 57.6096L193.553 57.979L191.874 66.821L190.017 66.4684L191.122 60.6503L187.807 64.2164L187.577 64.1727L185.814 59.6606L184.712 65.4609L182.855 65.1083L184.534 56.2664L186.48 56.6357L188.268 61.2077L191.608 57.6096ZM197.099 61.7669L199.044 62.1363C199.999 62.3176 200.719 62.7354 201.206 63.3897C201.706 64.0344 201.874 64.7929 201.708 65.6653C201.545 66.5259 201.111 67.1703 200.407 67.5984C199.714 68.0288 198.891 68.1533 197.936 67.972L194.081 67.2399L195.76 58.3979L197.669 58.7606L197.099 61.7669ZM202.215 68.7847L203.894 59.9427L205.804 60.3053L204.125 69.1473L202.215 68.7847ZM196.316 65.8873L198.279 66.26C198.656 66.3317 198.99 66.279 199.28 66.102C199.582 65.9273 199.767 65.663 199.834 65.3094C199.901 64.9557 199.832 64.6433 199.627 64.3723C199.422 64.1013 199.125 63.9289 198.736 63.855L196.773 63.4822L196.316 65.8873ZM213.252 67.5276L218.843 62.7815L220.311 63.0602L218.632 71.9022L216.758 71.5462L217.826 65.9227L212.231 70.6865L210.763 70.4078L212.442 61.5658L214.316 61.9218L213.252 67.5276ZM227.819 68.1318L228.487 64.6127L230.397 64.9753L228.718 73.8173L226.808 73.4547L227.476 69.9355L223.426 69.1665L222.758 72.6857L220.848 72.323L222.527 63.481L224.437 63.8437L223.769 67.3628L227.819 68.1318ZM237.915 70.8552C238.709 71.4335 239.017 72.1943 238.838 73.1374C238.694 73.8919 238.32 74.4498 237.714 74.8111C237.12 75.1746 236.369 75.2702 235.461 75.0978L230.934 74.2381L232.613 65.3961L236.786 66.1887C237.682 66.3588 238.341 66.716 238.763 67.2603C239.185 67.8045 239.326 68.4421 239.188 69.1731C239.029 70.0101 238.604 70.5708 237.915 70.8552ZM236.336 67.7887L234.125 67.369L233.752 69.3319L235.963 69.7516C236.741 69.8994 237.193 69.6432 237.318 68.983C237.441 68.3346 237.114 67.9365 236.336 67.7887ZM233.071 72.9217L235.6 73.4019C236.401 73.5542 236.868 73.2825 237 72.5869C237.058 72.2804 236.997 72.0245 236.816 71.8191C236.638 71.602 236.36 71.4576 235.982 71.386L233.454 70.9057L233.071 72.9217ZM249.14 73.9578L242.102 72.6213C242.118 73.3084 242.339 73.8817 242.765 74.3412C243.202 74.8029 243.792 75.1043 244.535 75.2453C245.537 75.4356 246.367 75.2145 247.025 74.5821L248.424 75.8005C247.319 76.9222 245.906 77.3195 244.185 76.9927C242.759 76.7218 241.68 76.0651 240.95 75.0225C240.233 73.9704 240.003 72.7724 240.258 71.4284C240.507 70.1198 241.152 69.1003 242.195 68.37C243.226 67.6374 244.431 67.4021 245.81 67.664C247.095 67.9081 248.07 68.5634 248.734 69.6302C249.399 70.6969 249.608 71.8787 249.362 73.1755C249.317 73.4113 249.243 73.6721 249.14 73.9578ZM242.38 71.0618L247.579 72.049C247.581 71.3288 247.388 70.7365 247 70.2719C246.624 69.8096 246.112 69.5168 245.463 69.3937C244.756 69.2594 244.129 69.342 243.584 69.6415C243.038 69.941 242.637 70.4144 242.38 71.0618ZM254.284 78.9105C252.952 78.6575 251.923 77.998 251.197 76.9318C250.486 75.8561 250.253 74.6699 250.499 73.3731C250.75 72.0527 251.401 71.0343 252.453 70.318C253.519 69.5922 254.719 69.3557 256.051 69.6087C256.911 69.7721 257.656 70.1273 258.285 70.6743C258.914 71.2212 259.339 71.8761 259.561 72.6388L257.735 73.2814C257.615 72.819 257.371 72.4306 257.004 72.1165C256.65 71.7928 256.208 71.5806 255.677 71.4799C254.899 71.3321 254.194 71.4731 253.563 71.9029C252.941 72.3467 252.557 72.9576 252.409 73.7357C252.261 74.5138 252.395 75.2233 252.811 75.8641C253.241 76.4954 253.845 76.8849 254.623 77.0326C255.141 77.1311 255.629 77.1017 256.087 76.9442C256.558 76.7773 256.94 76.5017 257.233 76.1176L258.7 77.3671C258.188 78.0029 257.534 78.4587 256.736 78.7348C255.95 79.0131 255.133 79.0717 254.284 78.9105ZM260.343 70.6619L268.035 72.1227L267.686 73.9618L264.804 73.4145L263.474 80.4173L261.564 80.0547L262.894 73.0518L259.994 72.5011L260.343 70.6619ZM270.138 78.3299L275.729 73.5837L277.197 73.8625L275.518 82.7044L273.644 82.3485L274.711 76.725L269.116 81.4888L267.649 81.2101L269.328 72.3681L271.202 72.7241L270.138 78.3299ZM284.461 75.0037C285.664 75.2321 286.615 75.883 287.315 76.9564C288.006 78.0158 288.228 79.1939 287.981 80.4908C287.733 81.7994 287.093 82.82 286.063 83.5525C285.032 84.2851 283.909 84.5361 282.695 84.3055C281.363 84.0525 280.425 83.3615 279.882 82.2324L278.972 87.0247L277.062 86.662L279.413 74.2833L281.323 74.6459L281.081 75.9192C281.991 75.0537 283.117 74.7485 284.461 75.0037ZM280.893 81.2517C281.323 81.883 281.939 82.2747 282.74 82.4269C283.542 82.5792 284.258 82.4404 284.89 82.0106C285.523 81.5691 285.917 80.9415 286.072 80.1281C286.226 79.3146 286.088 78.5923 285.659 77.961C285.231 77.3179 284.616 76.9203 283.815 76.7681C283.013 76.6158 282.296 76.7605 281.662 77.2021C281.031 77.6318 280.638 78.2535 280.483 79.0669C280.331 79.8686 280.468 80.5969 280.893 81.2517ZM296.565 85.5468C295.499 86.2727 294.311 86.5114 293.003 86.2629C291.694 86.0144 290.677 85.357 289.951 84.2909C289.216 83.2107 288.971 82.0223 289.217 80.7254C289.464 79.4286 290.127 78.4125 291.207 77.6771C292.273 76.9513 293.46 76.7126 294.769 76.9611C296.078 77.2096 297.095 77.8669 297.821 78.933C298.556 80.0132 298.801 81.2017 298.554 82.4985C298.308 83.7953 297.645 84.8114 296.565 85.5468ZM291.127 81.0881C290.975 81.8898 291.114 82.6062 291.543 83.2375C291.973 83.8688 292.577 84.2583 293.355 84.406C294.133 84.5538 294.838 84.4128 295.469 83.983C296.101 83.5532 296.492 82.9375 296.645 82.1358C296.797 81.3342 296.658 80.6177 296.228 79.9864C295.798 79.3552 295.194 78.9657 294.416 78.8179C293.638 78.6701 292.934 78.8111 292.302 79.2409C291.671 79.6707 291.279 80.2864 291.127 81.0881ZM306.424 83.8645C307.218 84.4428 307.525 85.2036 307.346 86.1467C307.203 86.9012 306.828 87.4591 306.222 87.8204C305.628 88.1839 304.877 88.2795 303.969 88.1071L299.442 87.2474L301.121 78.4054L305.294 79.1979C306.19 79.3681 306.849 79.7253 307.271 80.2696C307.693 80.8138 307.834 81.4514 307.696 82.1823C307.537 83.0194 307.113 83.5801 306.424 83.8645ZM304.844 80.798L302.633 80.3782L302.261 82.3412L304.471 82.7609C305.249 82.9087 305.701 82.6525 305.826 81.9923C305.949 81.3439 305.622 80.9458 304.844 80.798ZM301.579 85.931L304.108 86.4112C304.909 86.5635 305.376 86.2918 305.508 85.5962C305.567 85.2897 305.505 85.0338 305.324 84.8284C305.146 84.6113 304.868 84.4669 304.491 84.3953L301.962 83.915L301.579 85.931ZM316.865 82.6961L317.104 81.4405L319.014 81.8032L317.335 90.6452L315.425 90.2825L315.667 89.0093C314.757 89.8748 313.63 90.18 312.286 89.9247C311.072 89.6941 310.12 89.0491 309.429 87.9897C308.739 86.9303 308.518 85.7463 308.766 84.4377C309.015 83.1291 309.654 82.1085 310.685 81.3759C311.716 80.6434 312.839 80.3924 314.053 80.623C315.397 80.8782 316.334 81.5692 316.865 82.6961ZM311.086 86.9851C311.516 87.6164 312.131 88.0081 312.933 88.1604C313.735 88.3126 314.451 88.1738 315.082 87.7441C315.716 87.3025 316.11 86.675 316.264 85.8615C316.419 85.0481 316.281 84.3257 315.851 83.6944C315.424 83.0514 314.809 82.6537 314.008 82.5015C313.206 82.3493 312.488 82.4939 311.855 82.9355C311.224 83.3653 310.831 83.9869 310.676 84.8004C310.524 85.602 310.661 86.3303 311.086 86.9851ZM321.93 82.3569L328.702 83.643L327.023 92.485L325.114 92.1223L326.443 85.1195L323.49 84.5587L322.866 87.8479C322.604 89.2273 322.115 90.1605 321.4 90.6476C320.684 91.1346 319.759 91.2154 318.624 90.8899L318.963 89.1038C319.487 89.3011 319.915 89.2664 320.247 88.9996C320.581 88.721 320.822 88.1867 320.972 87.3968L321.93 82.3569ZM331.738 90.0274L337.33 85.2813L338.797 85.56L337.118 94.402L335.244 94.046L336.312 88.4225L330.717 93.1864L329.249 92.9076L330.928 84.0656L332.803 84.4216L331.738 90.0274Z" fill="white"/>
<path d="M415.336 119.941C415.29 120.566 415.167 120.912 415.056 121.091C414.969 121.229 414.885 121.28 414.751 121.305C414.57 121.339 414.256 121.325 413.755 121.167C413.264 121.013 412.669 120.744 411.96 120.357C409.952 119.26 407.354 117.399 404.17 115.118C402.774 114.117 401.265 113.036 399.644 111.903C391.166 105.979 379.881 98.8465 366.779 95.6462C382.573 95.5346 394.26 98.6135 402.203 102.91C411.747 108.072 415.71 114.863 415.336 119.941Z" stroke="#557AFF" stroke-width="2"/>
</svg>
