<svg width="490" height="115" viewBox="0 0 490 115" fill="none" xmlns="http://www.w3.org/2000/svg">
<path fill-rule="evenodd" clip-rule="evenodd" d="M1.04482 69.9729C0.862957 72.1596 2.47665 74.0846 4.66153 74.2873L421.741 112.981C423.209 113.117 424.632 112.435 425.446 111.206L445.383 81.0897C446.203 79.8524 446.269 78.2635 445.557 76.9618L427.167 43.3467C426.529 42.1821 425.356 41.4094 424.034 41.2843L10.7445 2.15639C8.52739 1.94649 6.56579 3.58773 6.38122 5.80707L1.04482 69.9729ZM420.38 82.4204C423.093 82.9355 425.71 81.1539 426.225 78.4409C426.74 75.728 424.958 73.1111 422.245 72.5959C419.532 72.0808 416.915 73.8624 416.4 76.5753C415.885 79.2883 417.667 81.9052 420.38 82.4204Z" fill="#557AFF"/>
<path d="M37.6867 28.0459L38.1681 22.9024L40.2291 23.0953L39.0549 35.6404L36.994 35.4475L37.5022 30.0173L32.1257 29.514L31.6175 34.9443L29.5565 34.7514L30.7306 22.2062L32.7916 22.3991L32.3102 27.5427L37.6867 28.0459ZM49.2537 28.8393L49.3728 27.5668L51.3084 27.748L50.4697 36.7088L48.5341 36.5276L48.6549 35.2373C47.831 36.1846 46.7381 36.5946 45.376 36.4671C44.1454 36.3519 43.1365 35.7995 42.3493 34.8098C41.5621 33.8201 41.2305 32.6622 41.3547 31.336C41.4788 30.0098 42.0195 28.9335 42.9766 28.1071C43.9338 27.2807 45.0277 26.9251 46.2583 27.0403C47.6204 27.1678 48.6188 27.7674 49.2537 28.8393ZM43.9038 33.6536C44.3911 34.2416 45.041 34.5736 45.8535 34.6497C46.6659 34.7257 47.3661 34.5201 47.9541 34.0327C48.5432 33.5335 48.8763 32.8716 48.9535 32.0472C49.0306 31.2228 48.8255 30.5166 48.3382 29.9287C47.852 29.3288 47.2027 28.9908 46.3902 28.9147C45.5778 28.8387 44.877 29.0503 44.2879 29.5496C43.6999 30.0369 43.3674 30.6928 43.2902 31.5172C43.2142 32.3296 43.4187 33.0418 43.9038 33.6536ZM63.5064 36.085L64.174 28.9522L66.1096 29.1333L65.2709 38.0941L52.7257 36.92L53.5644 27.9591L55.4999 28.1403L54.8323 35.2731L58.2016 35.5885L58.8692 28.4556L60.8047 28.6368L60.1371 35.7696L63.5064 36.085ZM75.3312 31.28L75.4502 30.0076L77.3858 30.1887L76.5471 39.1496L74.6115 38.9684L74.7323 37.678C73.9085 38.6254 72.8155 39.0353 71.4534 38.9078C70.2228 38.7927 69.2139 38.2402 68.4267 37.2506C67.6395 36.2609 67.308 35.103 67.4321 33.7768C67.5562 32.4506 68.0969 31.3743 69.0541 30.5479C70.0112 29.7215 71.1051 29.3659 72.3358 29.481C73.6978 29.6085 74.6963 30.2082 75.3312 31.28ZM69.9812 36.0944C70.4685 36.6824 71.1184 37.0144 71.9309 37.0904C72.7433 37.1665 73.4435 36.9608 74.0315 36.4735C74.6206 35.9742 74.9537 35.3124 75.0309 34.488C75.1081 33.6636 74.903 32.9574 74.4156 32.3694C73.9294 31.7695 73.2801 31.4315 72.4677 31.3555C71.6552 31.2794 70.9544 31.4911 70.3653 31.9903C69.7774 32.4777 69.4448 33.1335 69.3676 33.9579C69.2916 34.7704 69.4961 35.4825 69.9812 36.0944ZM91.8286 31.5405L91.1609 38.6733L92.6305 38.8109L92.2347 43.0404L90.335 42.8626L90.5597 40.4611L83.2835 39.7801L84.1222 30.8192L86.0578 31.0004L85.3902 38.1332L89.2254 38.4922L89.893 31.3594L91.8286 31.5405ZM102.678 37.9073L95.545 37.2397C95.6258 37.9222 95.8997 38.4721 96.3669 38.8894C96.846 39.3079 97.4619 39.5523 98.2146 39.6228C99.2301 39.7179 100.035 39.4196 100.63 38.728L102.138 39.8093C101.144 41.0299 99.775 41.5586 98.0306 41.3954C96.5849 41.2601 95.4494 40.7078 94.6241 39.7387C93.8119 38.7588 93.4696 37.5878 93.597 36.2257C93.7212 34.8995 94.2678 33.8238 95.2369 32.9985C96.1941 32.1721 97.3716 31.8243 98.7695 31.9551C100.072 32.077 101.104 32.6377 101.866 33.6371C102.628 34.6364 102.948 35.7932 102.825 37.1075C102.803 37.3465 102.754 37.613 102.678 37.9073ZM95.6747 35.6609L100.944 36.154C100.878 35.4368 100.63 34.8652 100.2 34.4393C99.782 34.0145 99.2443 33.7713 98.5872 33.7098C97.8704 33.6427 97.2545 33.7839 96.7397 34.1335C96.2249 34.483 95.8699 34.9921 95.6747 35.6609ZM105.298 32.8012L112.162 33.4437L111.323 42.4045L109.388 42.2233L110.052 35.1264L107.059 34.8462L106.747 38.1797C106.616 39.5776 106.218 40.5527 105.551 41.105C104.885 41.6573 103.971 41.8249 102.811 41.6077L102.98 39.7976C103.521 39.9447 103.943 39.8697 104.248 39.5729C104.555 39.2641 104.745 38.7094 104.82 37.9089L105.298 32.8012ZM116.068 36.8826L118.039 37.0671C119.007 37.1577 119.764 37.5058 120.31 38.1113C120.869 38.706 121.107 39.4454 121.024 40.3295C120.943 41.2017 120.571 41.8841 119.911 42.3766C119.262 42.8703 118.454 43.0719 117.486 42.9813L113.579 42.6156L114.418 33.6548L116.353 33.8359L116.068 36.8826ZM115.677 41.0584L117.666 41.2446C118.049 41.2803 118.376 41.1965 118.648 40.9929C118.932 40.7905 119.091 40.5101 119.125 40.1517C119.158 39.7933 119.06 39.4888 118.83 39.2383C118.601 38.9878 118.289 38.8441 117.895 38.8072L115.905 38.621L115.677 41.0584ZM138.29 40.3727L127.358 39.3495L127.533 37.4856L138.465 38.5088L138.29 40.3727ZM145.57 36.5706L153.546 37.317L152.707 46.2779L150.771 46.0967L151.439 38.9639L147.335 38.5797L146.667 45.7126L144.732 45.5314L145.57 36.5706ZM162.639 46.0685C161.646 46.8916 160.487 47.241 159.16 47.1169C157.834 46.9928 156.76 46.4342 155.937 45.4412C155.103 44.4351 154.747 43.2749 154.87 41.9607C154.993 40.6464 155.558 39.5724 156.564 38.7385C157.557 37.9154 158.717 37.566 160.043 37.6901C161.369 37.8142 162.444 38.3728 163.267 39.3658C164.1 40.3719 164.456 41.5321 164.333 42.8463C164.21 44.1606 163.645 45.2347 162.639 46.0685ZM156.806 42.1418C156.73 42.9543 156.935 43.6545 157.423 44.2425C157.91 44.8304 158.548 45.1613 159.337 45.2351C160.125 45.3089 160.813 45.1022 161.401 44.6148C161.989 44.1275 162.321 43.4776 162.397 42.6652C162.473 41.8527 162.268 41.1525 161.78 40.5645C161.293 39.9766 160.655 39.6457 159.867 39.5719C159.078 39.4981 158.39 39.7048 157.802 40.1922C157.214 40.6795 156.882 41.3294 156.806 42.1418ZM173.671 39.2007L175.642 39.3852L174.804 48.346L172.922 48.1699L173.474 42.2737L170.509 46.1362L170.276 46.1144L168.096 41.7884L167.546 47.6667L165.664 47.4906L166.502 38.5297L168.474 38.7142L170.685 43.0974L173.671 39.2007ZM184.726 48.1358C183.733 48.9588 182.574 49.3083 181.247 49.1842C179.921 49.06 178.847 48.5015 178.024 47.5085C177.19 46.5024 176.834 45.3422 176.957 44.0279C177.08 42.7137 177.645 41.6396 178.651 40.8057C179.644 39.9827 180.804 39.6332 182.13 39.7574C183.456 39.8815 184.531 40.4401 185.354 41.4331C186.188 42.4392 186.543 43.5994 186.42 44.9136C186.297 46.2279 185.732 47.3019 184.726 48.1358ZM178.893 44.2091C178.817 45.0216 179.022 45.7218 179.51 46.3097C179.997 46.8977 180.635 47.2286 181.424 47.3024C182.212 47.3762 182.9 47.1694 183.488 46.6821C184.076 46.1948 184.408 45.5449 184.484 44.7325C184.56 43.92 184.355 43.2198 183.868 42.6318C183.38 42.0438 182.742 41.713 181.954 41.6392C181.165 41.5653 180.477 41.7721 179.889 42.2594C179.301 42.7468 178.969 43.3967 178.893 44.2091ZM188.589 40.597L194.593 41.1589L194.419 43.0228L190.351 42.642L189.686 49.739L187.751 49.5578L188.589 40.597ZM202.533 43.1857L202.652 41.9132L204.588 42.0944L203.749 51.0552L201.813 50.8741L201.934 49.5837C201.11 50.531 200.017 50.941 198.655 50.8135C197.425 50.6983 196.416 50.1459 195.629 49.1562C194.841 48.1666 194.51 47.0086 194.634 45.6824C194.758 44.3562 195.299 43.2799 196.256 42.4535C197.213 41.6271 198.307 41.2715 199.538 41.3867C200.9 41.5142 201.898 42.1138 202.533 43.1857ZM197.183 48.0001C197.67 48.588 198.32 48.92 199.133 48.9961C199.945 49.0721 200.645 48.8665 201.233 48.3791C201.822 47.8799 202.156 47.218 202.233 46.3936C202.31 45.5692 202.105 44.8631 201.618 44.2751C201.131 43.6752 200.482 43.3372 199.67 43.2611C198.857 43.1851 198.156 43.3967 197.567 43.896C196.979 44.3833 196.647 45.0392 196.57 45.8636C196.493 46.676 196.698 47.3882 197.183 48.0001ZM205.894 42.2166L213.69 42.9463L213.515 44.8102L210.594 44.5367L209.93 51.6337L207.994 51.4526L208.659 44.3556L205.719 44.0805L205.894 42.2166ZM216.65 46.2967L218.621 46.4812C219.589 46.5718 220.346 46.9199 220.892 47.5254C221.451 48.1201 221.689 48.8595 221.606 49.7436C221.525 50.6158 221.153 51.2982 220.493 51.7907C219.844 52.2844 219.035 52.486 218.068 52.3954L214.161 52.0297L214.999 43.0689L216.935 43.25L216.65 46.2967ZM216.259 50.4725L218.248 50.6587C218.631 50.6945 218.958 50.6106 219.23 50.4071C219.514 50.2047 219.673 49.9242 219.706 49.5658C219.74 49.2074 219.642 48.9029 219.412 48.6524C219.183 48.4019 218.871 48.2582 218.476 48.2213L216.487 48.0351L216.259 50.4725ZM235.399 44.9782L237.371 45.1628L236.532 54.1236L234.65 53.9475L235.202 48.0512L232.237 51.9138L232.004 51.8919L229.824 47.5659L229.274 53.4442L227.392 53.2681L228.231 44.3073L230.202 44.4918L232.413 48.8749L235.399 44.9782ZM246.455 53.9134C245.462 54.7364 244.302 55.0859 242.976 54.9617C241.65 54.8376 240.575 54.279 239.752 53.286C238.918 52.2799 238.563 51.1197 238.686 49.8055C238.809 48.4912 239.373 47.4172 240.379 46.5833C241.372 45.7603 242.532 45.4108 243.858 45.5349C245.184 45.6591 246.259 46.2176 247.082 47.2106C247.916 48.2167 248.271 49.3769 248.148 50.6912C248.025 52.0054 247.461 53.0795 246.455 53.9134ZM240.621 49.9867C240.545 50.7991 240.751 51.4993 241.238 52.0873C241.725 52.6753 242.363 53.0061 243.152 53.0799C243.94 53.1538 244.629 52.947 245.217 52.4597C245.805 51.9723 246.137 51.3224 246.213 50.51C246.289 49.6976 246.083 48.9973 245.596 48.4094C245.108 47.8214 244.47 47.4905 243.682 47.4167C242.893 47.3429 242.205 47.5497 241.617 48.037C241.029 48.5243 240.697 49.1742 240.621 49.9867ZM250.754 46.4154L257.618 47.0578L256.779 56.0187L254.844 55.8375L255.508 48.7405L252.515 48.4604L252.203 51.7938C252.072 53.1917 251.674 54.1668 251.007 54.7191C250.341 55.2714 249.427 55.439 248.267 55.2219L248.436 53.4118C248.977 53.5588 249.4 53.4839 249.705 53.1871C250.011 52.8782 250.201 52.3236 250.276 51.5231L250.754 46.4154ZM266.721 55.8103C265.728 56.6333 264.569 56.9828 263.243 56.8586C261.916 56.7345 260.842 56.1759 260.019 55.1829C259.185 54.1768 258.829 53.0167 258.952 51.7024C259.075 50.3881 259.64 49.3141 260.646 48.4802C261.639 47.6572 262.799 47.3077 264.125 47.4318C265.451 47.556 266.526 48.1145 267.349 49.1076C268.183 50.1136 268.538 51.2738 268.415 52.5881C268.292 53.9023 267.728 54.9764 266.721 55.8103ZM260.888 51.8836C260.812 52.696 261.018 53.3962 261.505 53.9842C261.992 54.5722 262.63 54.9031 263.419 54.9769C264.207 55.0507 264.896 54.8439 265.484 54.3566C266.072 53.8692 266.404 53.2194 266.48 52.4069C266.556 51.5945 266.35 50.8943 265.863 50.3063C265.375 49.7183 264.737 49.3874 263.949 49.3136C263.16 49.2398 262.472 49.4466 261.884 49.9339C261.296 50.4212 260.964 51.0711 260.888 51.8836ZM278.12 48.9768L277.453 56.1096L278.653 56.222L278.257 60.4515L276.358 60.2737L276.582 57.8722L270.435 57.2968L270.211 59.6983L268.311 59.5205L268.707 55.291L269.8 55.3933C270.421 54.6801 270.797 53.6246 270.928 52.2267L271.292 48.3377L278.12 48.9768ZM271.933 55.5929L275.553 55.9318L276.054 50.5732L273.026 50.2897L272.828 52.4045C272.707 53.6948 272.409 54.7577 271.933 55.5929ZM282.543 52.4641L284.515 52.6487C285.483 52.7392 286.24 53.0873 286.785 53.6928C287.344 54.2875 287.583 55.0269 287.5 55.911C287.418 56.7832 287.047 57.4656 286.386 57.9582C285.737 58.4518 284.929 58.6534 283.961 58.5628L280.054 58.1971L280.893 49.2363L282.829 49.4175L282.543 52.4641ZM288.298 58.9687L289.137 50.0079L291.073 50.1891L290.234 59.1499L288.298 58.9687ZM282.153 56.6399L284.142 56.8261C284.524 56.8619 284.852 56.778 285.124 56.5745C285.408 56.3721 285.567 56.0916 285.6 55.7332C285.634 55.3748 285.536 55.0703 285.306 54.8198C285.076 54.5693 284.764 54.4256 284.37 54.3887L282.381 54.2025L282.153 56.6399ZM300.488 51.0703L302.459 51.2548L301.621 60.2157L299.739 60.0395L300.291 54.1433L297.326 58.0058L297.093 57.984L294.913 53.658L294.362 59.5363L292.481 59.3602L293.319 50.3993L295.291 50.5839L297.502 54.967L300.488 51.0703ZM312.6 56.6332L316.258 61.5857L313.947 61.3693L310.66 56.8855L310.273 61.0254L308.337 60.8443L309.176 51.8835L311.111 52.0646L310.741 56.0253L314.588 52.39L316.954 52.6114L312.6 56.6332ZM324.529 61.2209C323.536 62.0439 322.377 62.3934 321.051 62.2693C319.724 62.1451 318.65 61.5865 317.827 60.5935C316.993 59.5874 316.637 58.4273 316.76 57.113C316.883 55.7988 317.448 54.7247 318.454 53.8908C319.447 53.0678 320.607 52.7183 321.933 52.8425C323.259 52.9666 324.334 53.5252 325.157 54.5182C325.991 55.5243 326.346 56.6844 326.223 57.9987C326.1 59.3129 325.535 60.387 324.529 61.2209ZM318.696 57.2942C318.62 58.1066 318.826 58.8068 319.313 59.3948C319.8 59.9828 320.438 60.3137 321.227 60.3875C322.015 60.4613 322.703 60.2545 323.291 59.7672C323.879 59.2799 324.211 58.63 324.287 57.8175C324.364 57.0051 324.158 56.3049 323.671 55.7169C323.183 55.1289 322.545 54.798 321.757 54.7242C320.968 54.6504 320.28 54.8572 319.692 55.3445C319.104 55.8318 318.772 56.4817 318.696 57.2942ZM335.561 54.353L337.533 54.5376L336.694 63.4984L334.812 63.3223L335.364 57.426L332.399 61.2885L332.166 61.2667L329.986 56.9407L329.436 62.819L327.554 62.6429L328.393 53.6821L330.364 53.8666L332.575 58.2497L335.561 54.353ZM339.769 54.7468L347.744 55.4933L346.905 64.4541L344.97 64.273L345.637 57.1401L341.533 56.756L340.865 63.8888L338.93 63.7077L339.769 54.7468ZM356.967 57.6402L357.087 56.3677L359.022 56.5489L358.183 65.5097L356.248 65.3286L356.369 64.0382C355.545 64.9856 354.452 65.3955 353.09 65.268C351.859 65.1528 350.85 64.6004 350.063 63.6107C349.276 62.6211 348.944 61.4631 349.068 60.1369C349.193 58.8107 349.733 57.7344 350.69 56.908C351.648 56.0816 352.741 55.726 353.972 55.8412C355.334 55.9687 356.333 56.5683 356.967 57.6402ZM351.618 62.4546C352.105 63.0425 352.755 63.3745 353.567 63.4506C354.38 63.5266 355.08 63.321 355.668 62.8337C356.257 62.3344 356.59 61.6725 356.667 60.8482C356.744 60.0238 356.539 59.3176 356.052 58.7296C355.566 58.1297 354.916 57.7917 354.104 57.7157C353.291 57.6396 352.591 57.8512 352.002 58.3505C351.414 58.8378 351.081 59.4937 351.004 60.3181C350.928 61.1305 351.132 61.8427 351.618 62.4546ZM366.984 60.8917L367.318 57.3253L369.253 57.5065L368.415 66.4673L366.479 66.2862L366.813 62.7198L362.709 62.3356L362.375 65.902L360.439 65.7209L361.278 56.7601L363.214 56.9412L362.88 60.5076L366.984 60.8917ZM372.867 63.5757L377.987 58.3239L379.474 58.4631L378.636 67.424L376.736 67.2462L377.269 61.5471L372.148 66.8168L370.66 66.6775L371.499 57.7167L373.399 57.8945L372.867 63.5757ZM384.659 58.9484L388.656 59.3225L387.817 68.2833L385.917 68.1055L386.199 65.0947L385.124 64.994L382.566 67.7919L380.29 67.5788L383.008 64.6152C382.406 64.354 381.937 63.9486 381.603 63.399C381.281 62.8506 381.149 62.2598 381.209 61.6265C381.286 60.8021 381.644 60.1306 382.283 59.6119C382.923 59.0812 383.715 58.8601 384.659 58.9484ZM384.366 63.2418L386.355 63.428L386.592 60.901L384.602 60.7148C384.196 60.6768 383.85 60.765 383.565 60.9793C383.293 61.1828 383.139 61.4758 383.103 61.8581C383.067 62.2404 383.164 62.5568 383.394 62.8073C383.636 63.0589 383.96 63.2038 384.366 63.2418ZM398.077 60.2043L400.048 60.3888L399.21 69.3497L397.328 69.1735L397.88 63.2773L394.915 67.1398L394.682 67.118L392.502 62.792L391.951 68.6703L390.07 68.4942L390.908 59.5333L392.88 59.7179L395.091 64.101L398.077 60.2043ZM33.22 48.9205C34.4387 49.0345 35.447 49.5929 36.2451 50.5957C37.0323 51.5853 37.3643 52.7373 37.2413 54.0515C37.1172 55.3777 36.5766 56.454 35.6194 57.2804C34.6622 58.1068 33.5683 58.4625 32.3377 58.3473C30.9876 58.2209 29.9891 57.6212 29.3423 56.5483L28.8877 61.4051L26.9522 61.2239L28.1264 48.6787L30.0619 48.8599L29.9411 50.1503C30.765 49.2029 31.858 48.793 33.22 48.9205ZM30.2561 55.4768C30.7434 56.0648 31.3933 56.3968 32.2058 56.4728C33.0182 56.5489 33.7184 56.3432 34.3064 55.8559C34.8955 55.3566 35.2286 54.6948 35.3058 53.8704C35.383 53.046 35.1779 52.3398 34.6905 51.7518C34.2043 51.1519 33.555 50.8139 32.7426 50.7379C31.9301 50.6618 31.2293 50.8735 30.6402 51.3727C30.0523 51.8601 29.7197 52.5159 29.6425 53.3403C29.5665 54.1528 29.771 54.8649 30.2561 55.4768ZM46.3928 51.672L46.5119 50.3996L48.4474 50.5807L47.6087 59.5416L45.6732 59.3604L45.794 58.07C44.9701 59.0174 43.8771 59.4273 42.5151 59.2998C41.2845 59.1847 40.2756 58.6322 39.4884 57.6426C38.7012 56.6529 38.3696 55.495 38.4938 54.1688C38.6179 52.8426 39.1585 51.7663 40.1157 50.9399C41.0729 50.1135 42.1668 49.7579 43.3974 49.873C44.7595 50.0005 45.7579 50.6002 46.3928 51.672ZM41.0429 56.4864C41.5302 57.0744 42.1801 57.4064 42.9925 57.4824C43.805 57.5585 44.5052 57.3528 45.0932 56.8655C45.6823 56.3662 46.0154 55.7044 46.0925 54.88C46.1697 54.0556 45.9646 53.3494 45.4773 52.7614C44.9911 52.1615 44.3418 51.8235 43.5293 51.7475C42.7169 51.6714 42.0161 51.8831 41.427 52.3823C40.839 52.8697 40.5065 53.5255 40.4293 54.3499C40.3533 55.1624 40.5578 55.8745 41.0429 56.4864ZM55.3302 55.6361C56.2457 56.1557 56.6571 56.9113 56.5643 57.903C56.4916 58.6796 56.1146 59.2951 55.4333 59.7496C54.7531 60.1922 53.8694 60.3626 52.7821 60.2608C50.978 60.0919 49.8264 59.261 49.3274 57.768L50.9917 56.9837C51.2304 57.91 51.8874 58.4234 52.9627 58.5241C53.4645 58.571 53.8683 58.5064 54.1741 58.3301C54.481 58.1419 54.6506 57.8745 54.683 57.5281C54.7121 57.2174 54.6215 56.9619 54.4113 56.7614C54.2022 56.549 53.8945 56.4238 53.4883 56.3857L52.2159 56.2666L52.3752 54.5641L53.3251 54.653C53.7193 54.6899 54.0324 54.6288 54.2642 54.4697C54.5091 54.2998 54.6467 54.0535 54.6769 53.731C54.7059 53.4203 54.604 53.1577 54.371 52.943C54.1391 52.7164 53.814 52.5836 53.3959 52.5444C52.4998 52.4605 51.8416 52.7967 51.4213 53.5528L49.9281 52.5091C50.7104 51.2324 51.9081 50.6696 53.5211 50.8206C54.5247 50.9145 55.2952 51.2458 55.8325 51.8143C56.3829 52.372 56.624 53.0153 56.5558 53.7441C56.4719 54.6402 56.0634 55.2709 55.3302 55.6361ZM64.5475 56.4808C65.3925 56.9817 65.7703 57.7101 65.6808 58.6659C65.6092 59.4305 65.2888 60.0212 64.7195 60.438C64.1621 60.8559 63.4234 61.0218 62.5035 60.9357L57.9155 60.5062L58.7542 51.5454L62.9837 51.9413C63.8918 52.0263 64.5814 52.3198 65.0527 52.8219C65.5239 53.324 65.7249 53.9454 65.6556 54.6862C65.5762 55.5345 65.2068 56.1327 64.5475 56.4808ZM62.686 53.5766L60.4458 53.367L60.2596 55.3563L62.4998 55.566C63.2884 55.6398 63.714 55.3421 63.7766 54.673C63.8381 54.0159 63.4746 53.6505 62.686 53.5766ZM59.9191 58.9944L62.4819 59.2342C63.2944 59.3103 63.7336 58.9958 63.7996 58.2909C63.8286 57.9803 63.7435 57.7313 63.5441 57.5439C63.3458 57.3445 63.0555 57.227 62.6731 57.1912L60.1103 56.9513L59.9191 58.9944ZM69.223 58.2562L74.3427 53.0044L75.8302 53.1437L74.9915 62.1045L73.0918 61.9267L73.6252 56.2276L68.5039 61.4973L67.0164 61.358L67.8551 52.3972L69.7548 52.575L69.223 58.2562ZM83.8693 58.2892C84.7143 58.7901 85.0921 59.5185 85.0026 60.4743C84.931 61.239 84.6106 61.8297 84.0413 62.2465C83.4839 62.6643 82.7452 62.8302 81.8253 62.7441L77.2373 62.3147L78.076 53.3539L82.3055 53.7497C83.2136 53.8347 83.9032 54.1283 84.3745 54.6304C84.8457 55.1325 85.0467 55.7539 84.9774 56.4947C84.898 57.3429 84.5286 57.9411 83.8693 58.2892ZM82.0078 55.3851L79.7676 55.1754L79.5814 57.1647L81.8216 57.3744C82.6102 57.4482 83.0358 57.1506 83.0984 56.4815C83.1599 55.8244 82.7964 55.4589 82.0078 55.3851ZM79.2409 60.8028L81.8037 61.0427C82.6162 61.1187 83.0554 60.8043 83.1214 60.0994C83.1504 59.7887 83.0653 59.5397 82.8659 59.3523C82.6676 59.153 82.3773 59.0354 81.995 58.9996L79.4322 58.7598L79.2409 60.8028ZM94.1548 56.1424L94.2739 54.8699L96.2094 55.0511L95.3707 64.0119L93.4352 63.8308L93.5559 62.5404C92.7321 63.4877 91.6391 63.8977 90.2771 63.7702C89.0464 63.655 88.0375 63.1026 87.2503 62.1129C86.4631 61.1233 86.1316 59.9653 86.2557 58.6391C86.3798 57.3129 86.9205 56.2366 87.8777 55.4102C88.8348 54.5838 89.9287 54.2282 91.1594 54.3434C92.5214 54.4709 93.5199 55.0705 94.1548 56.1424ZM88.8048 60.9568C89.2922 61.5447 89.942 61.8767 90.7545 61.9528C91.5669 62.0288 92.2672 61.8232 92.8551 61.3358C93.4442 60.8366 93.7773 60.1747 93.8545 59.3503C93.9317 58.5259 93.7266 57.8198 93.2393 57.2318C92.753 56.6319 92.1037 56.2939 91.2913 56.2178C90.4788 56.1418 89.778 56.3534 89.189 56.8527C88.601 57.34 88.2684 57.9959 88.1913 58.8203C88.1152 59.6327 88.3197 60.3449 88.8048 60.9568ZM97.5156 55.1733L105.312 55.903L105.137 57.7669L102.216 57.4934L101.552 64.5904L99.616 64.4093L100.28 57.3123L97.3411 57.0372L97.5156 55.1733ZM108.272 59.2534L110.243 59.4379C111.211 59.5285 111.968 59.8766 112.514 60.4821C113.073 61.0768 113.311 61.8162 113.228 62.7003C113.146 63.5725 112.775 64.2549 112.114 64.7474C111.465 65.2411 110.657 65.4427 109.689 65.3521L105.782 64.9864L106.621 56.0256L108.557 56.2067L108.272 59.2534ZM107.881 63.4292L109.87 63.6154C110.252 63.6512 110.58 63.5673 110.852 63.3638C111.136 63.1614 111.295 62.8809 111.328 62.5225C111.362 62.1641 111.264 61.8596 111.034 61.6091C110.804 61.3586 110.492 61.2149 110.098 61.178L108.109 60.9918L107.881 63.4292ZM118.636 66.4245C117.286 66.2981 116.199 65.7384 115.376 64.7454C114.566 63.7416 114.223 62.5825 114.346 61.2683C114.471 59.9301 115.024 58.8549 116.004 58.0427C116.997 57.2197 118.168 56.8713 119.518 56.9977C120.391 57.0793 121.165 57.3628 121.843 57.848C122.521 58.3333 123.006 58.9452 123.298 59.6836L121.541 60.4954C121.378 60.0463 121.099 59.6827 120.703 59.4046C120.32 59.1157 119.86 58.946 119.323 58.8957C118.534 58.8219 117.846 59.0287 117.258 59.516C116.681 60.0164 116.355 60.6609 116.281 61.4494C116.208 62.238 116.408 62.9316 116.882 63.5304C117.369 64.1184 118.007 64.4493 118.796 64.5231C119.322 64.5723 119.805 64.497 120.245 64.2972C120.699 64.0865 121.053 63.7762 121.309 63.3662L122.886 64.4721C122.437 65.1532 121.828 65.6687 121.06 66.0186C120.304 66.3697 119.496 66.505 118.636 66.4245ZM127.745 58.0027L131.741 58.3767L130.902 67.3376L129.003 67.1597L129.284 64.1489L128.209 64.0483L125.651 66.8461L123.375 66.633L126.093 63.6694C125.491 63.4082 125.023 63.0028 124.688 62.4532C124.366 61.9048 124.235 61.314 124.294 60.6808C124.371 59.8564 124.729 59.1848 125.368 58.6661C126.009 58.1355 126.801 57.9143 127.745 58.0027ZM127.451 62.296L129.44 62.4822L129.677 59.9552L127.688 59.769C127.281 59.731 126.936 59.8192 126.651 60.0335C126.378 60.2371 126.224 60.53 126.189 60.9123C126.153 61.2947 126.25 61.6111 126.479 61.8616C126.721 62.1132 127.045 62.258 127.451 62.296ZM139.842 64.8659L144.962 59.6141L146.449 59.7534L145.611 68.7142L143.711 68.5364L144.244 62.8373L139.123 68.107L137.635 67.9677L138.474 59.0069L140.374 59.1847L139.842 64.8659ZM161.061 61.121L160.393 68.2538L161.594 68.3662L161.198 72.5957L159.299 72.4179L159.523 70.0164L153.376 69.441L153.152 71.8425L151.252 71.6647L151.648 67.4352L152.741 67.5375C153.362 66.8243 153.738 65.7688 153.869 64.3709L154.233 60.4819L161.061 61.121ZM154.874 67.7372L158.494 68.076L158.995 62.7174L155.967 62.4339L155.769 64.5487C155.648 65.839 155.349 66.9019 154.874 67.7372ZM170.332 69.8891C169.339 70.7121 168.179 71.0616 166.853 70.9374C165.527 70.8133 164.452 70.2547 163.629 69.2617C162.795 68.2556 162.44 67.0955 162.563 65.7812C162.686 64.4669 163.25 63.3929 164.256 62.559C165.25 61.736 166.409 61.3865 167.735 61.5106C169.062 61.6348 170.136 62.1933 170.959 63.1864C171.793 64.1924 172.148 65.3526 172.025 66.6669C171.902 67.9811 171.338 69.0552 170.332 69.8891ZM164.498 65.9624C164.422 66.7748 164.628 67.475 165.115 68.063C165.603 68.651 166.241 68.9818 167.029 69.0557C167.818 69.1295 168.506 68.9227 169.094 68.4354C169.682 67.948 170.014 67.2982 170.09 66.4857C170.166 65.6733 169.96 64.973 169.473 64.3851C168.986 63.7971 168.348 63.4662 167.559 63.3924C166.771 63.3186 166.082 63.5254 165.494 64.0127C164.906 64.5 164.574 65.1499 164.498 65.9624ZM177.564 71.9399C176.214 71.8136 175.127 71.2539 174.304 70.2609C173.494 69.257 173.151 68.098 173.274 66.7837C173.399 65.4456 173.952 64.3704 174.932 63.5582C175.925 62.7351 177.096 62.3868 178.446 62.5131C179.319 62.5948 180.093 62.8782 180.771 63.3635C181.449 63.8488 181.934 64.4606 182.226 65.1991L180.469 66.0109C180.306 65.5617 180.027 65.1981 179.631 64.92C179.248 64.6311 178.788 64.4615 178.251 64.4112C177.462 64.3374 176.774 64.5441 176.186 65.0314C175.609 65.5318 175.283 66.1763 175.209 66.9649C175.136 67.7534 175.336 68.4471 175.81 69.0459C176.297 69.6339 176.935 69.9648 177.724 70.0386C178.25 70.0878 178.733 70.0125 179.173 69.8126C179.627 69.602 179.981 69.2917 180.237 68.8817L181.814 69.9875C181.365 70.6686 180.756 71.1841 179.988 71.5341C179.232 71.8852 178.424 72.0205 177.564 71.9399ZM182.819 63.1574L190.614 63.8871L190.44 65.7509L187.519 65.4775L186.855 72.5745L184.919 72.3933L185.583 65.2963L182.644 65.0212L182.819 63.1574ZM193.292 69.8686L198.412 64.6169L199.899 64.7561L199.061 73.7169L197.161 73.5391L197.694 67.84L192.573 73.1097L191.085 72.9705L191.924 64.0096L193.824 64.1874L193.292 69.8686ZM202.145 64.9663L208.149 65.5282L207.974 67.3921L203.906 67.0113L203.242 74.1083L201.306 73.9271L202.145 64.9663ZM216.089 67.5549L216.208 66.2825L218.143 66.4637L217.305 75.4245L215.369 75.2433L215.49 73.953C214.666 74.9003 213.573 75.3103 212.211 75.1828C210.98 75.0676 209.971 74.5152 209.184 73.5255C208.397 72.5358 208.065 71.3779 208.19 70.0517C208.314 68.7255 208.854 67.6492 209.812 66.8228C210.769 65.9964 211.863 65.6408 213.093 65.756C214.455 65.8835 215.454 66.4831 216.089 67.5549ZM210.739 72.3693C211.226 72.9573 211.876 73.2893 212.688 73.3654C213.501 73.4414 214.201 73.2358 214.789 72.7484C215.378 72.2492 215.711 71.5873 215.788 70.7629C215.866 69.9385 215.66 69.2323 215.173 68.6444C214.687 68.0444 214.038 67.7065 213.225 67.6304C212.413 67.5544 211.712 67.766 211.123 68.2653C210.535 68.7526 210.202 69.4085 210.125 70.2329C210.049 71.0453 210.254 71.7575 210.739 72.3693ZM219.449 66.5859L227.245 67.3156L227.071 69.1794L224.15 68.906L223.485 76.003L221.55 75.8218L222.214 68.7249L219.275 68.4498L219.449 66.5859ZM230.205 70.666L232.177 70.8505C233.145 70.9411 233.901 71.2892 234.447 71.8947C235.006 72.4893 235.245 73.2288 235.162 74.1129C235.08 74.9851 234.709 75.6675 234.048 76.16C233.399 76.6537 232.591 76.8553 231.623 76.7647L227.716 76.399L228.555 67.4382L230.491 67.6193L230.205 70.666ZM229.815 74.8418L231.804 75.028C232.186 75.0637 232.513 74.9799 232.786 74.7763C233.07 74.5739 233.229 74.2935 233.262 73.9351C233.296 73.5767 233.198 73.2722 232.968 73.0217C232.738 72.7712 232.426 72.6275 232.032 72.5906L230.043 72.4044L229.815 74.8418ZM244.921 75.5506L247.826 69.2418L249.887 69.4348L245.58 78.3603C245.056 79.4562 244.391 80.2497 243.586 80.7408C242.781 81.2319 241.885 81.4011 240.899 81.2486L241.068 79.4385C242.209 79.6175 243.057 79.1184 243.613 77.9411L243.678 77.8207L240.747 68.5793L242.808 68.7722L244.921 75.5506ZM254.116 79.105C252.766 78.9786 251.679 78.4189 250.856 77.4259C250.046 76.422 249.703 75.263 249.826 73.9487C249.951 72.6106 250.504 71.5354 251.484 70.7232C252.477 69.9001 253.648 69.5518 254.998 69.6782C255.871 69.7598 256.646 70.0432 257.323 70.5285C258.001 71.0138 258.486 71.6256 258.779 72.3641L257.021 73.1759C256.858 72.7268 256.579 72.3631 256.183 72.085C255.801 71.7961 255.34 71.6265 254.803 71.5762C254.014 71.5024 253.326 71.7091 252.738 72.1965C252.161 72.6968 251.835 73.3413 251.762 74.1299C251.688 74.9184 251.888 75.6121 252.362 76.2109C252.85 76.7989 253.487 77.1298 254.276 77.2036C254.802 77.2528 255.285 77.1775 255.725 76.9777C256.179 76.767 256.533 76.4567 256.789 76.0467L258.367 77.1526C257.917 77.8336 257.308 78.3492 256.541 78.6991C255.785 79.0502 254.976 79.1855 254.116 79.105ZM260.461 70.4244L268.436 71.1709L267.597 80.1317L265.661 79.9505L266.329 72.8177L262.225 72.4336L261.557 79.5664L259.622 79.3852L260.461 70.4244ZM278.841 77.4961L271.708 76.8284C271.789 77.5109 272.063 78.0609 272.53 78.4782C273.009 78.8967 273.625 79.1411 274.378 79.2116C275.393 79.3066 276.199 79.0084 276.794 78.3168L278.302 79.398C277.307 80.6187 275.938 81.1474 274.194 80.9842C272.748 80.8488 271.613 80.2966 270.787 79.3275C269.975 78.3476 269.633 77.1766 269.76 75.8145C269.884 74.4883 270.431 73.4126 271.4 72.5873C272.357 71.7609 273.535 71.4131 274.933 71.5439C276.235 71.6658 277.267 72.2265 278.03 73.2258C278.792 74.2252 279.111 75.382 278.988 76.6963C278.966 76.9352 278.917 77.2018 278.841 77.4961ZM271.838 75.2497L277.107 75.7428C277.042 75.0256 276.794 74.454 276.364 74.0281C275.945 73.6033 275.408 73.3601 274.751 73.2986C274.034 73.2315 273.418 73.3727 272.903 73.7223C272.388 74.0718 272.033 74.5809 271.838 75.2497ZM284.908 77.1238L287.83 82.0254L285.59 81.8157L283.654 78.5431L281.127 81.3981L278.869 81.1867L282.669 76.8962L279.887 72.2426L282.127 72.4523L283.923 75.4768L286.249 72.8381L288.507 73.0495L284.908 77.1238ZM296.299 75.0623L296.418 73.7899L298.353 73.971L297.515 82.9319L295.579 82.7507L295.7 81.4603C294.876 82.4077 293.783 82.8176 292.421 82.6901C291.19 82.575 290.181 82.0225 289.394 81.0329C288.607 80.0432 288.275 78.8853 288.4 77.5591C288.524 76.2329 289.064 75.1566 290.022 74.3302C290.979 73.5038 292.073 73.1482 293.303 73.2633C294.665 73.3908 295.664 73.9905 296.299 75.0623ZM290.949 79.8767C291.436 80.4647 292.086 80.7967 292.898 80.8727C293.711 80.9488 294.411 80.7431 294.999 80.2558C295.588 79.7565 295.921 79.0947 295.998 78.2703C296.076 77.4459 295.87 76.7397 295.383 76.1517C294.897 75.5518 294.248 75.2138 293.435 75.1378C292.623 75.0617 291.922 75.2734 291.333 75.7726C290.745 76.26 290.412 76.9158 290.335 77.7402C290.259 78.5527 290.464 79.2648 290.949 79.8767ZM301.167 80.7789C301.537 80.8135 301.842 80.9746 302.08 81.262C302.318 81.5495 302.42 81.8784 302.385 82.2488C302.351 82.6192 302.19 82.9235 301.902 83.1617C301.615 83.4 301.286 83.5018 300.915 83.4671C300.545 83.4325 300.241 83.2714 300.002 82.9839C299.764 82.6965 299.662 82.3676 299.697 81.9972C299.732 81.6268 299.887 81.3219 300.162 81.0826C300.45 80.8443 300.785 80.7431 301.167 80.7789Z" fill="white"/>
<path d="M488.036 98.811C488.057 99.4375 487.972 99.795 487.88 99.9843C487.809 100.131 487.731 100.19 487.601 100.23C487.424 100.283 487.11 100.303 486.596 100.2C486.091 100.099 485.47 99.8956 484.724 99.5867C482.61 98.7119 479.827 97.1396 476.417 95.2128C474.922 94.3679 473.306 93.4548 471.573 92.5025C462.508 87.5217 450.524 81.6399 437.154 79.8629C452.845 78.0585 464.795 79.8665 473.152 83.2864C483.195 87.3956 487.863 93.7222 488.036 98.811Z" stroke="#557AFF" stroke-width="2"/>
</svg>
