<svg width="497" height="84" viewBox="0 0 497 84" fill="none" xmlns="http://www.w3.org/2000/svg">
<path fill-rule="evenodd" clip-rule="evenodd" d="M496.953 48.2654C497.099 50.4637 495.439 52.3659 493.242 52.5202L67.6149 82.3962C66.4247 82.4797 65.2593 82.0276 64.4369 81.1632L44.7101 60.4301C43.38 59.0321 43.2376 56.8838 44.3715 55.3224L61.1995 32.1511C61.8942 31.1945 62.9765 30.5942 64.1559 30.5114L489.771 0.636282C491.98 0.481173 493.895 2.1515 494.042 4.36184L496.953 48.2654ZM68.6901 61.5144C65.9347 61.6971 63.5529 59.6115 63.3703 56.8562C63.1876 54.1008 65.2732 51.719 68.0285 51.5363C70.7839 51.3537 73.1657 53.4392 73.3484 56.1946C73.531 58.95 71.4454 61.3318 68.6901 61.5144Z" fill="#557AFF"/>
<path d="M94.668 52.5487L96.9766 45.7391L99.06 45.6009L95.7818 55.1988C94.9755 57.5493 93.4964 58.7298 91.3444 58.7402L91.2169 56.8184C91.9281 56.8434 92.4902 56.7039 92.9029 56.3999C93.3269 56.0832 93.648 55.5748 93.8662 54.8749L89.0919 46.2618L91.1753 46.1237L94.668 52.5487ZM104.106 58.1286C102.752 58.2183 101.591 57.8383 100.62 56.9887C99.6613 56.1262 99.1381 55.0364 99.0508 53.7193C98.9618 52.3783 99.3366 51.229 100.175 50.2714C101.025 49.3011 102.126 48.771 103.479 48.6813C104.353 48.6234 105.163 48.7801 105.91 49.1516C106.656 49.523 107.232 50.0501 107.638 50.7327L106.032 51.8133C105.8 51.3958 105.466 51.0811 105.031 50.8694C104.608 50.645 104.126 50.5506 103.587 50.5863C102.797 50.6387 102.15 50.9522 101.647 51.5268C101.157 52.1125 100.938 52.8005 100.99 53.5907C101.043 54.381 101.351 55.0341 101.914 55.5499C102.489 56.053 103.171 56.2784 103.961 56.226C104.488 56.191 104.953 56.0399 105.356 55.7727C105.771 55.4927 106.071 55.13 106.258 54.6846L107.992 55.5258C107.656 56.2696 107.137 56.8753 106.435 57.3428C105.744 57.8095 104.968 58.0714 104.106 58.1286ZM109.516 48.5156L116.394 48.0596L116.99 57.0398L115.05 57.1685L114.579 50.0561L111.579 50.2549L111.801 53.5956C111.893 54.9965 111.655 56.0226 111.085 56.6737C110.514 57.3248 109.639 57.6354 108.459 57.6055L108.338 55.7915C108.895 55.8507 109.301 55.7096 109.555 55.368C109.808 55.0145 109.908 54.4366 109.855 53.6344L109.516 48.5156ZM122.842 54.1985L124.707 47.5084L126.773 47.3715L123.939 56.8677C123.595 58.033 123.065 58.9221 122.348 59.5348C121.631 60.1476 120.773 60.457 119.776 60.463L119.655 58.649C120.81 58.6447 121.568 58.0171 121.93 56.7664L121.975 56.6371L117.613 47.9788L119.679 47.8418L122.842 54.1985ZM127.986 47.291L134.003 46.8921L134.126 48.76L130.049 49.0303L130.521 56.1427L128.581 56.2713L127.986 47.291ZM137.599 52.3722L141.819 46.3739L143.31 46.2751L143.905 55.2553L142.001 55.3816L141.623 49.6701L137.404 55.6864L135.913 55.7852L135.317 46.805L137.221 46.6787L137.599 52.3722ZM146.552 52.9151L148.707 52.7722L147.759 57.5253L146.143 57.6325L146.552 52.9151ZM154.804 45.513L162.796 44.9831L163.392 53.9634L161.452 54.092L160.978 46.9437L156.865 47.2164L157.339 54.3647L155.399 54.4933L154.804 45.513ZM170.114 44.2634C171.336 44.1824 172.42 44.5735 173.367 45.4368C174.302 46.2888 174.812 47.3734 174.9 48.6905C174.988 50.0196 174.625 51.1681 173.811 52.1361C172.998 53.104 171.974 53.6289 170.741 53.7106C169.388 53.8004 168.307 53.3669 167.498 52.4103L167.82 57.2777L165.881 57.4063L165.047 44.8339L166.987 44.7053L167.073 45.9984C167.735 44.9322 168.749 44.3539 170.114 44.2634ZM168.23 51.2073C168.804 51.7104 169.499 51.9349 170.313 51.8809C171.127 51.827 171.786 51.5127 172.289 50.9382C172.791 50.3516 173.015 49.6453 172.96 48.8191C172.905 47.9929 172.591 47.3283 172.016 46.8252C171.441 46.3101 170.746 46.0796 169.932 46.1336C169.118 46.1875 168.459 46.5078 167.957 47.0943C167.454 47.6689 167.23 48.3692 167.284 49.1954C167.338 50.0096 167.654 50.6802 168.23 51.2073ZM185.388 48.825L178.239 49.2989C178.427 49.9599 178.785 50.4593 179.313 50.7972C179.852 51.1342 180.499 51.2777 181.253 51.2277C182.271 51.1603 183.019 50.7379 183.497 49.9606L185.157 50.7885C184.369 52.1516 183.102 52.8911 181.353 53.007C179.905 53.1031 178.696 52.7382 177.727 51.9125C176.769 51.074 176.245 49.9723 176.155 48.6073C176.067 47.2782 176.436 46.1293 177.261 45.1605C178.075 44.1926 179.182 43.6622 180.583 43.5693C181.888 43.4828 182.997 43.8723 183.908 44.7379C184.819 45.6035 185.318 46.6949 185.406 48.012C185.422 48.2515 185.416 48.5225 185.388 48.825ZM178.116 47.7196L183.397 47.3695C183.218 46.6718 182.883 46.1468 182.39 45.7946C181.91 45.4416 181.341 45.287 180.682 45.3306C179.964 45.3782 179.378 45.6155 178.925 46.0424C178.473 46.4693 178.203 47.0283 178.116 47.7196ZM194.366 42.89L194.84 50.0383L196.043 49.9586L196.324 54.1973L194.42 54.3235L194.261 51.9168L188.1 52.3252L188.26 54.7319L186.356 54.8581L186.075 50.6194L187.17 50.5468C187.67 49.744 187.874 48.6421 187.781 47.2412L187.523 43.3437L194.366 42.89ZM189.308 50.4051L192.936 50.1646L192.58 44.7944L189.544 44.9956L189.685 47.1149C189.771 48.4081 189.645 49.5048 189.308 50.4051ZM204.911 50.0741C204.062 51.0444 202.972 51.5737 201.643 51.6618C200.314 51.7499 199.165 51.3691 198.194 50.5195C197.211 49.6586 196.676 48.5696 196.589 47.2525C196.501 45.9354 196.888 44.7853 197.749 43.8022C198.599 42.8319 199.688 42.3026 201.017 42.2145C202.346 42.1264 203.496 42.5072 204.466 43.3569C205.449 44.2177 205.984 45.3067 206.072 46.6238C206.159 47.9409 205.772 49.091 204.911 50.0741ZM198.528 47.1239C198.582 47.9381 198.897 48.5968 199.471 49.0999C200.046 49.603 200.728 49.8283 201.518 49.7759C202.309 49.7235 202.955 49.4101 203.458 48.8355C203.961 48.261 204.186 47.5666 204.132 46.7524C204.078 45.9382 203.764 45.2795 203.189 44.7764C202.615 44.2733 201.932 44.048 201.142 44.1004C200.352 44.1528 199.705 44.4663 199.202 45.0408C198.699 45.6153 198.474 46.3097 198.528 47.1239ZM212.378 50.9501C211.025 51.0398 209.863 50.6598 208.893 49.8102C207.933 48.9477 207.41 47.858 207.323 46.5408C207.234 45.1998 207.609 44.0505 208.447 43.0929C209.297 42.1226 210.398 41.5925 211.751 41.5028C212.625 41.4449 213.435 41.6016 214.182 41.9731C214.928 42.3445 215.504 42.8716 215.91 43.5542L214.304 44.6348C214.072 44.2173 213.738 43.9026 213.303 43.691C212.88 43.4665 212.398 43.3721 211.859 43.4079C211.069 43.4602 210.423 43.7737 209.919 44.3483C209.429 44.934 209.21 45.622 209.263 46.4122C209.315 47.2025 209.623 47.8556 210.186 48.3714C210.761 48.8745 211.443 49.0999 212.233 49.0475C212.76 49.0125 213.225 48.8614 213.628 48.5942C214.043 48.3142 214.344 47.9515 214.53 47.5061L216.264 48.3473C215.928 49.0911 215.409 49.6968 214.707 50.1643C214.016 50.631 213.24 50.8929 212.378 50.9501ZM216.17 41.4444L223.983 40.9264L224.107 42.7943L221.179 42.9884L221.651 50.1008L219.711 50.2294L219.24 43.117L216.294 43.3123L216.17 41.4444ZM232.142 41.6663L232.057 40.3911L233.997 40.2625L234.592 49.2427L232.653 49.3713L232.567 48.0782C231.904 49.1444 230.89 49.7227 229.525 49.8132C228.292 49.895 227.208 49.5098 226.273 48.6578C225.339 47.8057 224.828 46.7152 224.74 45.3861C224.652 44.057 225.014 42.9085 225.828 41.9405C226.642 40.9726 227.665 40.4477 228.899 40.366C230.264 40.2755 231.345 40.7089 232.142 41.6663ZM227.625 47.2694C228.199 47.7725 228.893 47.997 229.708 47.943C230.522 47.8891 231.181 47.5748 231.684 47.0003C232.186 46.4137 232.41 45.7074 232.355 44.8812C232.3 44.055 231.985 43.3904 231.411 42.8873C230.836 42.3722 230.141 42.1417 229.327 42.1957C228.512 42.2496 227.854 42.5699 227.352 43.1564C226.849 43.7309 226.625 44.4313 226.679 45.2575C226.733 46.0717 227.048 46.7423 227.625 47.2694ZM242.762 44.065C243.675 44.4253 244.164 45.0844 244.228 46.0423C244.278 46.8086 244.056 47.4427 243.56 47.9446C243.076 48.4457 242.373 48.7269 241.451 48.788L236.853 49.0928L236.258 40.1126L240.497 39.8315C241.407 39.7712 242.134 39.9515 242.679 40.3723C243.224 40.7932 243.521 41.3748 243.571 42.1172C243.627 42.9673 243.357 43.6166 242.762 44.065ZM240.462 41.4934L238.217 41.6423L238.35 43.6359L240.595 43.487C241.385 43.4346 241.758 43.0732 241.713 42.4027C241.67 41.7441 241.253 41.441 240.462 41.4934ZM238.591 47.2819L241.16 47.1116C241.974 47.0576 242.358 46.6774 242.311 45.971C242.29 45.6596 242.166 45.4273 241.94 45.274C241.712 45.1087 241.407 45.0387 241.024 45.0641L238.456 45.2344L238.591 47.2819ZM245.904 39.473L252.782 39.017L253.378 47.9972L251.438 48.1259L250.967 41.0135L247.967 41.2123L248.189 44.553C248.282 45.9539 248.043 46.98 247.473 47.6311C246.903 48.2822 246.027 48.5928 244.847 48.5629L244.726 46.7489C245.283 46.8081 245.689 46.667 245.943 46.3254C246.196 45.9719 246.296 45.394 246.243 44.5918L245.904 39.473ZM257.988 38.6718L261.994 38.4063L262.589 47.3865L260.685 47.5128L260.485 44.4954L259.407 44.5668L257.327 47.7354L255.046 47.8867L257.258 44.5289C256.622 44.3667 256.095 44.0408 255.678 43.5513C255.273 43.0611 255.049 42.4986 255.007 41.864C254.952 41.0378 255.199 40.3179 255.748 39.7043C256.296 39.0787 257.042 38.7345 257.988 38.6718ZM258.381 42.9572L260.374 42.8251L260.206 40.2926L258.213 40.4248C257.806 40.4518 257.478 40.5938 257.231 40.8507C256.994 41.0949 256.889 41.4085 256.914 41.7917C256.94 42.1749 257.086 42.4718 257.352 42.6827C257.631 42.8927 257.974 42.9842 258.381 42.9572ZM273.279 42.9978L266.13 43.4717C266.318 44.1327 266.676 44.6321 267.204 44.97C267.743 45.307 268.39 45.4505 269.144 45.4005C270.162 45.333 270.91 44.9106 271.388 44.1333L273.048 44.9613C272.26 46.3244 270.993 47.0639 269.244 47.1798C267.796 47.2759 266.587 46.911 265.618 46.0853C264.66 45.2468 264.136 44.1451 264.046 42.7801C263.958 41.451 264.327 40.3021 265.152 39.3333C265.966 38.3654 267.073 37.835 268.474 37.7421C269.779 37.6555 270.888 38.0451 271.799 38.9107C272.71 39.7763 273.209 40.8677 273.297 42.1848C273.313 42.4242 273.307 42.6952 273.279 42.9978ZM266.008 41.8924L271.288 41.5423C271.109 40.8445 270.774 40.3196 270.282 39.9674C269.801 39.6144 269.232 39.4597 268.573 39.5034C267.855 39.551 267.269 39.7883 266.816 40.2152C266.364 40.6421 266.094 41.2011 266.008 41.8924ZM281.889 37.0872L283.865 36.9562L284.46 45.9365L282.574 46.0615L282.182 40.1525L279.869 44.4369L279.635 44.4524L276.795 40.5277L277.186 46.4188L275.3 46.5438L274.705 37.5635L276.68 37.4325L279.56 41.4087L281.889 37.0872ZM288.248 39.7323L290.223 39.6013C291.193 39.537 291.996 39.7604 292.631 40.2715C293.277 40.7699 293.63 41.462 293.689 42.3481C293.747 43.2222 293.488 43.9549 292.914 44.5461C292.352 45.1366 291.586 45.464 290.616 45.5283L286.701 45.7879L286.105 36.8076L288.045 36.679L288.248 39.7323ZM294.963 45.2401L294.367 36.2599L296.307 36.1313L296.902 45.1115L294.963 45.2401ZM288.525 43.9171L290.519 43.785C290.902 43.7596 291.212 43.6248 291.448 43.3806C291.696 43.1356 291.809 42.8335 291.785 42.4743C291.761 42.1151 291.616 41.8301 291.349 41.6193C291.083 41.4084 290.752 41.3161 290.357 41.3423L288.363 41.4745L288.525 43.9171ZM307.586 40.7232L300.438 41.1971C300.626 41.8581 300.984 42.3575 301.511 42.6954C302.051 43.0324 302.698 43.1759 303.452 43.1259C304.47 43.0584 305.217 42.636 305.695 41.8587L307.355 42.6867C306.568 44.0498 305.3 44.7893 303.552 44.9052C302.103 45.0013 300.894 44.6364 299.926 43.8107C298.968 42.9722 298.444 41.8705 298.353 40.5055C298.265 39.1764 298.634 38.0275 299.46 37.0587C300.274 36.0908 301.381 35.5603 302.782 35.4675C304.087 35.3809 305.195 35.7705 306.106 36.6361C307.018 37.5017 307.517 38.5931 307.604 39.9102C307.62 40.1496 307.614 40.4206 307.586 40.7232ZM300.315 39.6178L305.595 39.2677C305.417 38.5699 305.081 38.045 304.589 37.6928C304.109 37.3398 303.539 37.1851 302.881 37.2288C302.162 37.2764 301.577 37.5137 301.124 37.9406C300.671 38.3675 300.401 38.9265 300.315 39.6178ZM317.638 39.1367L322.036 43.4452L319.719 43.5988L315.762 39.694L316.038 43.8429L314.098 43.9715L313.502 34.9912L315.442 34.8626L315.705 38.8319L318.926 34.6316L321.297 34.4744L317.638 39.1367ZM330.144 41.7711C329.295 42.7414 328.205 43.2707 326.876 43.3588C325.547 43.4469 324.397 43.0661 323.427 42.2165C322.444 41.3556 321.909 40.2666 321.821 38.9495C321.734 37.6324 322.121 36.4823 322.982 35.4992C323.831 34.5289 324.921 33.9996 326.25 33.9115C327.579 33.8234 328.729 34.2042 329.699 35.0538C330.682 35.9147 331.217 37.0037 331.305 38.3208C331.392 39.6379 331.005 40.788 330.144 41.7711ZM323.761 38.8209C323.815 39.6351 324.129 40.2938 324.704 40.7969C325.279 41.3 325.961 41.5253 326.751 41.4729C327.541 41.4205 328.188 41.1071 328.691 40.5325C329.194 39.958 329.419 39.2636 329.365 38.4494C329.311 37.6352 328.997 36.9765 328.422 36.4734C327.848 35.9703 327.165 35.745 326.375 35.7974C325.585 35.8498 324.938 36.1632 324.435 36.7378C323.932 37.3123 323.707 38.0067 323.761 38.8209ZM339.945 33.238L341.921 33.107L342.516 42.0873L340.63 42.2124L340.239 36.3033L337.925 40.5878L337.691 40.6033L334.852 36.6785L335.242 42.5696L333.356 42.6946L332.761 33.7144L334.737 33.5834L337.616 37.5596L339.945 33.238ZM344.162 32.9585L352.154 32.4286L352.749 41.4089L350.81 41.5375L350.336 34.3892L346.223 34.6618L346.697 41.8102L344.757 41.9388L344.162 32.9585ZM361.602 33.083L361.517 31.8078L363.457 31.6792L364.052 40.6595L362.113 40.7881L362.027 39.4949C361.364 40.5611 360.35 41.1395 358.985 41.23C357.752 41.3117 356.668 40.9266 355.733 40.0745C354.799 39.2225 354.288 38.1319 354.2 36.8028C354.111 35.4738 354.474 34.3252 355.288 33.3573C356.102 32.3893 357.125 31.8645 358.359 31.7827C359.724 31.6922 360.805 32.1256 361.602 33.083ZM357.084 38.6861C357.659 39.1892 358.353 39.4138 359.168 39.3598C359.982 39.3058 360.64 38.9915 361.144 38.417C361.646 37.8305 361.87 37.1241 361.815 36.2979C361.76 35.4718 361.445 34.8071 360.871 34.304C360.296 33.789 359.601 33.5584 358.787 33.6124C357.972 33.6664 357.314 33.9866 356.812 34.5731C356.309 35.1477 356.085 35.848 356.139 36.6742C356.193 37.4884 356.508 38.1591 357.084 38.6861ZM372.007 34.7021L371.771 31.128L373.71 30.9994L374.306 39.9797L372.366 40.1083L372.129 36.5341L368.016 36.8068L368.253 40.381L366.313 40.5096L365.718 31.5293L367.658 31.4007L367.895 34.9748L372.007 34.7021ZM378.242 36.4174L382.463 30.4191L383.953 30.3203L384.549 39.3005L382.645 39.4268L382.266 33.7153L378.047 39.7316L376.556 39.8304L375.961 30.8502L377.865 30.7239L378.242 36.4174ZM395.232 34.9122L388.083 35.3862C388.271 36.0472 388.629 36.5466 389.157 36.8844C389.696 37.2215 390.343 37.365 391.097 37.315C392.115 37.2475 392.863 36.8251 393.341 36.0478L395.001 36.8758C394.213 38.2389 392.946 38.9784 391.197 39.0943C389.749 39.1903 388.54 38.8255 387.571 37.9998C386.613 37.1613 386.089 36.0595 385.999 34.6945C385.911 33.3654 386.28 32.2165 387.105 31.2478C387.919 30.2798 389.026 29.7494 390.427 29.6565C391.732 29.57 392.841 29.9595 393.752 30.8251C394.663 31.6908 395.162 32.7821 395.25 34.0992C395.266 34.3387 395.26 34.6097 395.232 34.9122ZM387.96 33.8068L393.241 33.4567C393.062 32.759 392.727 32.234 392.234 31.8818C391.754 31.5289 391.185 31.3742 390.526 31.4179C389.808 31.4655 389.222 31.7027 388.769 32.1296C388.317 32.5565 388.047 33.1156 387.96 33.8068ZM403.076 27.7897L398.047 28.1231L397.935 26.4348L402.964 26.1014L403.076 27.7897ZM398.939 35.0452L403.159 29.0469L404.65 28.9481L405.246 37.9283L403.342 38.0546L402.963 32.3431L398.744 38.3594L397.253 38.4582L396.658 29.478L398.562 29.3517L398.939 35.0452ZM419.388 32.9318L418.822 24.4006L420.887 24.2636L421.721 36.836L420.105 36.9432L413.612 28.8049L414.178 37.3361L412.112 37.4731L411.279 24.9007L412.895 24.7935L419.388 32.9318ZM430.708 28.5012L430.623 27.226L432.563 27.0974L433.158 36.0777L431.219 36.2063L431.133 34.9131C430.47 35.9793 429.456 36.5577 428.091 36.6482C426.858 36.73 425.774 36.3448 424.839 35.4928C423.905 34.6407 423.394 33.5501 423.306 32.2211C423.218 30.892 423.58 29.7435 424.394 28.7755C425.208 27.8076 426.231 27.2827 427.465 27.2009C428.83 27.1104 429.911 27.5439 430.708 28.5012ZM426.191 34.1043C426.765 34.6074 427.459 34.832 428.274 34.778C429.088 34.724 429.747 34.4098 430.25 33.8352C430.752 33.2487 430.976 32.5424 430.921 31.7162C430.866 30.89 430.552 30.2253 429.977 29.7222C429.402 29.2072 428.707 28.9766 427.893 29.0306C427.078 29.0846 426.42 29.4049 425.918 29.9914C425.415 30.5659 425.191 31.2663 425.245 32.0925C425.299 32.9067 425.614 33.5773 426.191 34.1043ZM438.959 31.093L443.358 35.4015L441.041 35.5551L437.084 31.6503L437.359 35.7992L435.419 35.9278L434.586 23.3554L436.525 23.2268L437.027 30.7882L440.248 26.5879L442.619 26.4307L438.959 31.093ZM450.545 27.186L450.461 25.9108L452.4 25.7822L452.996 34.7625L451.056 34.8911L450.97 33.5979C450.307 34.6641 449.293 35.2425 447.928 35.333C446.695 35.4147 445.611 35.0296 444.677 34.1775C443.742 33.3255 443.231 32.2349 443.143 30.9058C443.055 29.5768 443.418 28.4282 444.231 27.4603C445.045 26.4923 446.069 25.9675 447.302 25.8857C448.667 25.7952 449.748 26.2286 450.545 27.186ZM446.028 32.7891C446.602 33.2922 447.297 33.5168 448.111 33.4628C448.925 33.4088 449.584 33.0945 450.087 32.52C450.589 31.9335 450.813 31.2271 450.758 30.4009C450.703 29.5748 450.389 28.9101 449.814 28.407C449.239 27.892 448.544 27.6614 447.73 27.7154C446.916 27.7694 446.257 28.0896 445.755 28.6761C445.252 29.2507 445.028 29.951 445.083 30.7772C445.137 31.5914 445.452 32.2621 446.028 32.7891ZM456.601 25.5037L456.701 27.0124C457.118 25.8663 458.003 25.2484 459.356 25.1587L459.495 27.26C458.762 27.2606 458.127 27.4831 457.591 27.9275C457.067 28.3591 456.835 29.0359 456.896 29.9579L457.196 34.484L455.257 34.6126L454.661 25.6323L456.601 25.5037ZM466.039 24.8779L466.163 26.7458L463.936 26.8935L464.222 31.204C464.246 31.5752 464.348 31.8391 464.527 31.9956C464.705 32.1401 464.956 32.2137 465.281 32.2162C465.617 32.2059 466.03 32.1725 466.519 32.116L466.634 33.8582C465.162 34.1363 464.088 34.0812 463.413 33.693C462.737 33.2929 462.36 32.5061 462.282 31.3326L461.996 27.0221L460.344 27.1317L460.22 25.2638L461.872 25.1542L461.744 23.2145L463.645 22.5111L463.812 25.0256L466.039 24.8779ZM476.457 29.5269L469.309 30.0008C469.497 30.6618 469.855 31.1612 470.383 31.4991C470.922 31.8361 471.569 31.9797 472.323 31.9296C473.341 31.8622 474.089 31.4398 474.566 30.6625L476.227 31.4904C475.439 32.8535 474.171 33.593 472.423 33.7089C470.974 33.805 469.766 33.4402 468.797 32.6144C467.839 31.7759 467.315 30.6742 467.225 29.3092C467.137 27.9801 467.506 26.8312 468.331 25.8625C469.145 24.8945 470.252 24.3641 471.653 24.2712C472.958 24.1847 474.067 24.5742 474.978 25.4398C475.889 26.3054 476.388 27.3968 476.476 28.7139C476.492 28.9534 476.486 29.2244 476.457 29.5269ZM469.186 28.4215L474.467 28.0714C474.288 27.3737 473.953 26.8487 473.46 26.4965C472.98 26.1435 472.411 25.9889 471.752 26.0325C471.034 26.0802 470.448 26.3174 469.995 26.7443C469.543 27.1712 469.273 27.7303 469.186 28.4215Z" fill="white"/>
<path d="M3.88738 81.1294C3.92886 81.7549 4.04864 82.1021 4.15931 82.2813C4.24498 82.4199 4.32865 82.4715 4.46206 82.4975C4.6428 82.5329 4.95707 82.5212 5.45904 82.3672C5.95096 82.2162 6.54874 81.952 7.26034 81.57C9.27584 80.4883 11.8874 78.6455 15.0876 76.3874C16.491 75.3972 18.0075 74.3271 19.6367 73.2063C28.1576 67.344 39.4942 60.2932 52.6193 57.188C36.8267 56.9618 25.1172 59.9558 17.1435 64.1943C7.56237 69.2872 3.55054 76.0489 3.88738 81.1294Z" stroke="#557AFF" stroke-width="2"/>
</svg>
