<svg width="141" height="42" viewBox="0 0 141 42" fill="none" xmlns="http://www.w3.org/2000/svg">
<path fill-rule="evenodd" clip-rule="evenodd" d="M38.665 10.9705L39.7836 9.54729L39.1482 8.84855L40.2107 7.51849L43.277 11.8745L46.5135 11.2044L53.3273 12.7122L66.2739 13.3824L70.1918 10.7018L80.2423 8.18867L87.0562 12.042L92.3369 13.2148L88.4191 17.5708L87.694 20.0393H84.4152V22.2826C83.1834 20.8716 81.0185 19.6776 78.6669 19.6776C73.3292 19.6776 69.4098 23.9107 69.4098 29.0848C69.4098 32.4983 71.1159 35.5024 73.8097 37.1515L73.9395 38.5132L66.1034 39.5185L64.3337 38.492H65.4098L57.3845 29.1211L64.9617 20.4013H59.4001L52.9798 27.8184V16.8125H48.5751V38.4701L46.1728 38.3457L44.81 31.3091L44.5751 31.1358V20.0393H42.8068L44.2991 18.4085L39.5293 13.885L38.665 10.9705ZM42.5332 20.0393L43.3313 19.1528L39.1923 15.1628L38.1576 11.6162L38.665 10.9705L38.3369 9.86406L39.1482 8.84855L38.3054 7.92175L39.7836 6.2962L37.8618 5.26176L35.6445 7.33063L31.0621 4.52288L30.0275 0.680664L28.2971 9.6118L27.1147 6.50847L22.6801 2.96183L17.9497 2.51849L11.6978 3.78399L14.6978 8.57736L15.4887 9.4146L16.8715 11.4684L16.1324 15.7539L14.5064 16.1973L16.5759 17.8228L16.76 18.0069V30.3875L4.06838 12.4414H0V38.492H4.40437V20.5462L17.0585 38.492H21.1647V25.5042L22.5233 27.4283L24.445 28.4628L25.3319 31.8616L25.5678 31.8953L25.5679 31.8955L25.3314 31.8617L24.5923 35.1128L26.0705 39.1028L29.4702 41.3194L34.4961 40.5806L37.157 38.5117L41.2958 38.6594L41.681 38.13H44.5751V31.1358L40.0404 27.7907L41.2327 26.4504L40.2107 25.1101L41.2327 21.7593L42.8068 20.0393H42.5332ZM39.8098 27.2295L40.6705 26.2461L39.7836 25.0639L40.6705 22.1083L42.5332 20.0393H40.1705V22.2826C38.9386 20.8716 36.7734 19.6776 34.4218 19.6776C32.6935 19.6776 31.1139 20.1214 29.7679 20.8973L29.4362 20.4828L27.958 19.8917L26.7753 18.5617L26.0585 18.8802L25.7752 18.5617L24.445 19.1528L23.7059 22.2561L23.2957 22.3928L23.5234 22.1083L21.1647 20.6486V12.4414H16.76V18.0069L17.9061 19.1528L20.4192 20.1872L21.1647 20.6486V24.1897L20.7495 24.9161L21.1647 25.5042V24.1897L21.9319 22.8472L23.2957 22.3928L22.932 22.8472L24.706 22.2561L25.4451 19.1528L26.0585 18.8802L26.9579 19.8917L28.4361 20.4828L29.1052 21.319C26.6783 23.0175 25.1647 25.8694 25.1647 29.0848C25.1647 30.0626 25.3047 31.0069 25.5678 31.8953L26.3661 32.0093L26.366 32.0095L25.5679 31.8955C26.697 35.7077 30.093 38.492 34.4218 38.492C36.7734 38.492 38.9386 37.298 40.1705 35.8143V38.13H41.681L42.4785 37.0339L43.9567 36.7384L42.774 30.5317L40.1424 28.5585C40.093 28.095 39.9792 27.6492 39.8098 27.2295ZM38.7351 27.5033L39.6358 27.4283L39.8098 27.2295C38.9191 25.0232 36.4929 23.5427 33.8286 24.045C33.7496 24.0599 33.6712 24.0765 33.5934 24.0949L33.6098 24.0295L33.4594 24.0509L31.949 22.4039L30.6188 21.9606L29.7679 20.8973C29.5402 21.0285 29.3191 21.1693 29.1052 21.319L29.6187 21.9606L30.9489 22.4039L32.5751 24.1772L33.4594 24.0509L33.5169 24.1136C31.5794 24.602 30.0556 26.1569 29.6708 28.0751C29.6056 28.3995 29.5728 28.7203 29.5697 29.035L26.5138 30.0884L26.3661 32.0093L26.3666 32.0094L26.5143 30.0883L29.5697 29.0351C29.5382 32.2107 32.5331 34.7611 35.9113 34.1243C37.9955 33.7315 39.6638 32.1141 40.0691 30.0939C40.1744 29.569 40.1952 29.0537 40.1424 28.5585L38.7351 27.5033ZM33.4794 28.0077L33.5752 28.1672L36.0881 27.7239L38.7351 27.5033L38.6352 27.4284L35.0875 27.724L33.4794 28.0077ZM33.5733 24.1752L33.5934 24.0949C33.5678 24.101 33.5423 24.1072 33.5169 24.1136L33.5733 24.1752ZM33.5733 24.1752L33.0185 26.3939L32.1316 27.4283L32.5751 28.1672L33.4794 28.0077L33.1317 27.4283L34.0186 26.3939L34.6099 24.0294L33.5752 24.1772L33.5733 24.1752ZM29.5697 29.0351L29.5697 29.035L30.8006 28.6106L30.8012 28.6105L29.5697 29.0351ZM48.9989 38.492H48.5751V38.4701L48.9989 38.492ZM58.0137 36.3052L52.6461 38.6808L48.9989 38.492H52.9798V30.4235L58.0137 36.3052ZM58.0137 36.3052L59.8854 38.492H64.3337L59.46 35.6651L58.0137 36.3052ZM75.1448 32.4768L73.4284 33.152L73.8097 37.1515C75.1989 38.0019 76.8508 38.492 78.6669 38.492C81.0185 38.492 83.1834 37.298 84.4152 35.8143V38.13H88.8199V30.977L89.7817 31.1415L88.8199 29.5199V20.0393H87.694L86.2045 25.1101L88.8199 29.5199V30.977L84.2911 30.2024C84.2992 30.1663 84.3069 30.1302 84.3141 30.0939C85.0359 26.495 81.7862 23.3451 78.0733 24.045C75.9894 24.4381 74.3211 26.0552 73.9155 28.0751C73.5782 29.7556 74.1071 31.3383 75.1448 32.4768ZM75.1448 32.4768L81.9458 29.8012L84.2911 30.2024C83.8488 32.1718 82.2028 33.7385 80.1563 34.1243C78.177 34.4974 76.3293 33.7765 75.1448 32.4768ZM97.2246 22.4636C98.2987 21.2388 99.5916 20.2172 101.635 20.0472V20.0396L101.97 20.0289V24.1109C101.357 24.1359 100.747 24.2419 100.181 24.4714C98.4432 25.1749 97.2246 26.7285 97.2246 28.7231V38.492H92.8199V20.4013H97.2246V22.4636ZM113.827 16.4505H109.423V18.0123C109.423 19.2994 108.751 19.5415 107.781 19.5415L105.97 19.5985V23.7382H109.423V32.1611C109.423 36.6424 111.214 38.492 115.47 38.492C116.478 38.492 117.71 38.3498 118.568 38.1361V34.153C117.635 34.3306 116.888 34.4375 116.067 34.4375C114.276 34.4375 113.827 33.726 113.827 30.9164V23.7382H118.568V19.5415H113.827V16.4505ZM132.012 23.5127C129.436 23.5127 127.234 25.1771 126.861 27.6738H136.864C136.491 25.1047 134.513 23.5127 132.012 23.5127ZM132.087 19.6776C137.387 19.6776 141.008 23.4403 141.008 28.8315C141.008 29.354 140.943 29.9185 140.879 30.4769C140.859 30.6531 140.839 30.8287 140.821 31.0022H126.935C127.682 33.2456 129.772 34.6206 132.534 34.6206C134.326 34.6206 136.043 34.0056 137.163 32.8115L139.963 35.525C138.171 37.4427 135.558 38.492 132.497 38.492C126.861 38.492 122.568 34.4033 122.568 29.0848C122.568 23.766 126.674 19.6776 132.087 19.6776Z" fill="white"/>
</svg>
