<svg width="131" height="28" viewBox="0 0 131 28" fill="none" xmlns="http://www.w3.org/2000/svg">
<g clip-path="url(#clip0_139_4568)">
<path fill-rule="evenodd" clip-rule="evenodd" d="M25.1093 17.732L24.7385 17.2464L25.0572 16.6426C25.4749 15.85 25.4331 14.9241 24.9499 14.2397C24.6812 13.8572 24.6159 13.8169 24.561 14.0007C24.5244 14.1214 24.433 14.5467 24.3547 14.9417C24.1433 16.0335 24.1407 16.0335 23.8142 15.7394C23.6577 15.5959 23.4696 15.4801 23.3939 15.4801C23.3209 15.4801 21.9292 16.8011 20.3053 18.4164C18.6812 20.0316 17.3131 21.3524 17.2636 21.3524C17.2139 21.3524 16.1775 20.6204 14.9607 19.7221C13.7415 18.8263 12.6815 18.0691 12.6004 18.039C12.5222 18.0113 11.5117 18.5144 10.3604 19.161C9.20894 19.8051 8.35517 20.3512 8.46218 20.3712C8.57203 20.3914 9.02885 20.3586 9.48048 20.3008C11.0862 20.0946 13.5143 23.9943 13.9582 25.5542C14.0626 25.919 14.2766 26.3292 14.4334 26.4651C14.7259 26.7192 18.013 27.9847 18.1174 27.8815C18.1514 27.8513 18.1148 27.2174 18.0389 26.4777L19.6526 22.4922L22.2217 20.8997C24.4096 19.5411 24.8403 19.224 25.1328 18.7609L25.4775 18.2151L25.1093 17.732Z" fill="#CD2A1C"/>
<path fill-rule="evenodd" clip-rule="evenodd" d="M24.4662 11.5449H20.0752V15.2942H15.6579L12.562 11.5449H9.42035V15.2942H4.25507V14.0433H3.27378C1.39393 14.0433 -0.146484 14.0888 -0.146484 14.1466C-0.146484 14.2019 0.571509 14.8988 1.44861 15.6939L3.04136 17.1406L3.41473 18.318L3.78811 19.4956L4.83752 20.2353C5.41456 20.6455 5.95766 20.9826 6.04393 20.9851C6.12996 20.99 7.02027 20.3057 8.02301 19.4654C11.3754 16.6499 12.2263 15.9606 12.3517 15.9655C12.4196 15.9682 13.511 16.7482 14.7773 17.6991L17.0774 19.4252L19.6752 16.9268L22.2731 14.4284L21.8554 14.0685L21.4377 13.7087L22.3671 13.4496C22.8789 13.3061 23.5629 13.1075 23.8866 13.0068L24.4768 12.823V11.9653C24.4768 11.8193 24.4742 11.6783 24.4662 11.5449Z" fill="#4967D4"/>
<path d="M16.0922 9.09429L8.02403 0.0638914H5.4375V14.1658H8.23759V5.13538L16.2819 14.1658H18.8923V0.0638914H16.0922V9.09429Z" fill="white"/>
<path d="M43.464 17.4682L33.9634 4.24476H30.918V23.4399H34.215V10.2167L43.6875 23.4399H46.7613V4.24476H43.464V17.4682Z" fill="white"/>
<path d="M60.6277 17.5187C60.3243 19.0073 59.0755 20.199 57.5153 20.4885C54.7359 21.0042 52.3031 18.683 52.8438 16.0312C53.1472 14.5428 54.396 13.3513 55.9562 13.0616C58.7353 12.5459 61.1682 14.8669 60.6277 17.5187ZM60.7036 11.763C59.7815 10.7233 58.1607 9.84352 56.4003 9.84352C52.4047 9.84352 49.4707 12.9627 49.4707 16.7752C49.4707 20.5874 52.4047 23.7068 56.4003 23.7068C58.1607 23.7068 59.7815 22.827 60.7036 21.7337V23.4401H64.0008V10.11H60.7036V11.763Z" fill="white"/>
<path d="M91.0847 17.5187C90.7814 19.0073 89.5323 20.199 87.9723 20.4885C85.1927 21.0042 82.7599 18.683 83.3006 16.0312C83.6042 14.5428 84.8531 13.3513 86.413 13.0616C89.1924 12.5459 91.625 14.8669 91.0847 17.5187ZM91.1604 11.763C90.2383 10.7233 88.6177 9.84352 86.8574 9.84352C82.8617 9.84352 79.9277 12.9627 79.9277 16.7752C79.9277 20.5874 82.8617 23.7068 86.8574 23.7068C88.6177 23.7068 90.2383 22.827 91.1604 21.7337V23.4401H94.4576V10.11H91.1604V11.763Z" fill="white"/>
<path d="M120.471 15.7354C120.75 13.8958 122.399 12.6694 124.327 12.6694C126.199 12.6694 127.68 13.8425 127.96 15.7354H120.471ZM131.061 16.5885C131.061 12.6161 128.351 9.84352 124.383 9.84352C120.331 9.84352 117.258 12.8561 117.258 16.7752C117.258 20.694 120.471 23.7068 124.69 23.7068C126.982 23.7068 128.938 22.9336 130.279 21.5205L128.183 19.5212C127.345 20.401 126.06 20.8542 124.718 20.8542C122.651 20.8542 121.086 19.841 120.527 18.188H130.921C130.978 17.655 131.061 17.095 131.061 16.5885Z" fill="white"/>
<path d="M104.298 9.84903C102.768 9.9743 101.8 10.727 100.996 11.6296V10.1099H97.6992V23.4399H100.996V16.2418C100.996 14.7721 101.909 13.6274 103.209 13.109C103.633 12.9398 104.09 12.8618 104.549 12.8433V9.83554L104.298 9.84341V9.84903Z" fill="white"/>
<path d="M112.061 7.46566H108.764V8.61647C108.764 9.56488 108.261 9.74322 107.535 9.74322L106.18 9.78528V12.8356H108.764V19.0419C108.764 22.3439 110.105 23.7068 113.291 23.7068C114.045 23.7068 114.967 23.602 115.61 23.4446V20.5096C114.912 20.6405 114.353 20.7192 113.738 20.7192C112.397 20.7192 112.061 20.195 112.061 18.1248V12.8356H115.61V9.74322H112.061V7.46566Z" fill="white"/>
<path d="M79.5087 10.1099H75.3454L70.5394 15.5752V7.46555H67.2422V23.4399H70.5394V17.4947L75.7087 23.4399H79.8441L73.8366 16.5351L79.5087 10.1099Z" fill="white"/>
</g>
<defs>
<clipPath id="clip0_139_4568">
<rect width="131" height="28" fill="white"/>
</clipPath>
</defs>
</svg>
