<svg width="2202" height="189" viewBox="0 0 2202 189" fill="none" xmlns="http://www.w3.org/2000/svg">
<g clip-path="url(#clip0_2027_930)">
<path d="M1051.38 189.086L1050.95 193.57L1049.56 193.784L1049.13 197.52L1044.43 194.424L1041.76 194.958L1038.03 191.862L1035.46 189.193L1033.11 189.086L1032.26 186.737L1036.42 185.456L1040.27 185.99L1045.07 184.602L1048.39 187.484L1051.38 189.086V189.086Z" fill="#1C1C1C" stroke="#6A6A6A" stroke-width="0.2" stroke-linecap="round" stroke-linejoin="round"/>
<path d="M1184.97 173.711L1180.81 173.498L1179.96 174.138L1181.56 176.274L1183.69 180.544L1179.31 180.865L1177.93 182.359L1178.25 185.669L1176 185.029L1171.41 185.349L1169.81 183.747L1167.99 184.922L1165.97 183.961L1161.8 183.854L1155.71 182.253L1150.48 181.719L1146.42 181.932L1143.86 183.641L1141.4 183.961L1140.87 180.971L1138.84 177.982L1141.83 176.594L1141.4 174.031L1139.59 171.576L1138.95 168.693H1143.97L1149.09 166.237L1149.63 162.607L1153.47 160.472L1152.4 157.589L1155.29 156.522L1160.2 154.066L1165.86 155.667L1166.82 157.269L1169.38 156.522L1174.51 158.016L1175.68 161.113L1174.94 162.821L1178.99 167.092L1181.24 168.266V169.44L1184.87 170.615L1186.68 172.323L1184.97 173.711V173.711Z" fill="#1C1C1C" stroke="#6A6A6A" stroke-width="0.2" stroke-linecap="round" stroke-linejoin="round"/>
<path d="M725.657 189.833L720.317 195.599L724.482 193.357L727.579 194.851L725.016 197.093L729.074 198.908L732.064 197.307L736.656 199.335L733.666 204.247L737.724 203.072L737.404 206.596L737.938 210.76L734.093 216.739L731.53 216.952L728.433 215.671L731.103 210.226L729.822 209.372L722.026 215.137L718.822 214.924L723.521 211.721L718.822 210.119L712.948 210.546L702.696 210.333L702.482 208.411L706.541 205.955L704.725 204.247L710.492 200.19L719.249 189.62L723.734 185.883L729.074 183.641L731.317 183.854L729.715 185.669L725.657 189.833Z" fill="#1C1C1C" stroke="#6A6A6A" stroke-width="0.2" stroke-linecap="round" stroke-linejoin="round"/>
<path d="M341.2 166.984L342.802 167.839L348.142 167.305L340.452 174.672L340.773 180.01H338.744L337.996 177.021L338.53 173.924L337.676 171.896L339.064 169.013L341.2 166.984Z" fill="#1C1C1C" stroke="#6A6A6A" stroke-width="0.2" stroke-linecap="round" stroke-linejoin="round"/>
<path d="M643.853 116.27L640.008 119.473L638.193 118.94L638.086 117.124L638.513 116.697L641.503 114.882L643.319 114.989L643.853 116.27Z" fill="#1C1C1C" stroke="#6A6A6A" stroke-width="0.2" stroke-linecap="round" stroke-linejoin="round"/>
<path d="M633.495 112.853L625.805 116.27L622.602 116.057V114.455L627.941 111.572L634.349 111.679L633.495 112.853Z" fill="#1C1C1C" stroke="#6A6A6A" stroke-width="0.2" stroke-linecap="round" stroke-linejoin="round"/>
<path d="M630.183 94.9163L629.222 97.5855L632.105 96.6246L633.707 98.2261L637.445 100.361L641.503 102.177L640.008 105.059L643.746 104.632L645.775 106.661L640.435 108.583L634.134 107.088L633.28 104.312L626.552 107.622L617.795 110.718L618.542 107.195L611.814 107.728L617.902 104.739L621.746 99.9344L627.193 94.4893L630.183 94.9163Z" fill="#1C1C1C" stroke="#6A6A6A" stroke-width="0.2" stroke-linecap="round" stroke-linejoin="round"/>
<path d="M678.133 86.0547L672.9 86.375L673.648 83.4922L677.706 80.1824L682.298 79.4351L684.755 81.0366L683.153 83.4922L682.191 84.3464L678.133 86.0547Z" fill="#1C1C1C" stroke="#6A6A6A" stroke-width="0.2" stroke-linecap="round" stroke-linejoin="round"/>
<path d="M598.572 74.6309L594.193 76.6594L589.708 74.9511L585.543 75.485L581.912 72.9226L587.252 71.1075L592.485 68.6519L595.688 70.2534L597.397 71.3211L597.824 72.3887L598.572 74.6309Z" fill="#1C1C1C" stroke="#6A6A6A" stroke-width="0.2" stroke-linecap="round" stroke-linejoin="round"/>
<g filter="url(#filter0_d_2027_930)">
<path d="M655.172 226.881L652.823 223.038L655.92 213.962L654.211 212.041L650.26 213.108L649.085 211.4L643.211 216.418L639.794 221.65L636.804 224.746L634.134 225.814L632.318 226.134L631.144 227.735H621.212L612.882 227.842L609.998 229.017L602.737 233.714V233.608L601.775 233.181L599.639 234.141L597.61 235.529L595.688 234.355L590.669 235.209L586.504 236.17L584.475 237.024L582.019 239.266L583.941 240.014L585.756 239.587H586.077L585.756 241.615L580.63 242.363L577.64 243.217L575.825 244.284L573.048 243.644L571.339 243.964L568.242 245.886L563.33 248.021L560.446 247.594L562.582 245.245L566.533 241.508L570.912 239.266L572.087 237.345L573.048 234.141L577.106 230.405L578.067 226.134L579.242 230.298L583.3 231.259L585.863 229.017L584.368 223.892L583.407 221.756L579.135 220.475L575.077 219.728H570.912L567.281 218.874L566.854 217.379L565.359 218.34L564.077 218.126L566.106 215.884L564.184 215.03L566.213 212.468L564.932 210.546L566.747 208.624L561.194 207.663L561.087 203.819L560.233 202.965L556.708 202.752L552.33 201.471L550.728 202.325L548.806 203.926L545.282 204.994L541.971 207.663L536.204 205.848L531.505 206.702L527.34 204.674L522.428 203.606L518.904 203.179L517.836 202.111L518.797 198.481H516.981L515.593 201.043H504.7H486.545H468.604H452.692H436.886H421.188H405.062H399.936H384.237H369.179H368.432L362.665 194.531L360.956 191.648L353.481 188.872L354.869 183L358.713 179.049L354.335 176.167L357.645 170.935L355.403 166.237L358.073 162.821L363.519 159.724L366.937 155.667L362.024 151.61L363.519 144.243L364.694 139.759L362.985 136.876L362.131 134.314L362.772 131.004L355.83 133.032L347.714 136.556L347.393 132.499L346.859 129.723L343.869 128.014L339.384 127.801L377.402 92.8877L403.673 71.1071L410.081 72.495L413.605 75.271L417.557 75.8048L424.285 73.456L431.76 71.6409L437.42 72.2815L446.925 69.8259L455.682 68.4379L455.895 70.7868L460.701 69.3988L464.866 66.7296L467.109 67.3702L468.604 72.495L478.749 68.5446L474.584 72.9221L480.992 71.9612L484.409 70.3597L489.322 70.68L493.487 73.0289L501.496 75.1642L506.516 76.1252L511.214 75.8048L514.311 78.7943L505.234 81.6771L512.069 82.8515L524.777 82.2109L529.476 81.1432L530.971 84.6666L538.554 81.7838L536.311 79.2214L541.117 77.2996L546.67 76.9793L550.835 76.4455L553.078 77.8334L554.679 80.9297L560.019 80.5026L565.679 83.1718L573.368 82.2109L579.776 82.3177L582.339 78.6876L587.145 77.7267L592.378 79.6485L587.785 85.2004L594.407 80.5026L597.824 80.7162L604.659 74.8439L602.95 71.3206L599.853 68.9717L605.727 62.6724L614.484 58.6152L619.289 59.5761L621.425 62.0318L621.852 68.4379L615.658 71.2138L622.814 72.3883L618.115 78.2605L627.619 73.7763L629.969 77.5131L625.377 81.7838L626.765 85.7343L634.561 81.5703L641.503 76.4455L646.522 70.1462L652.395 70.5732L658.162 71.4274L662.007 74.3101L660.191 77.1928L654.745 80.2891L655.706 83.3854L653.143 86.2681L641.503 90.432L634.561 91.3929L631.144 89.5779L627.619 92.5674L619.717 97.5855L616.513 100.255L608.29 104.312L601.348 104.739L595.902 107.301L592.805 111.359L586.717 112.106L577.426 117.124L567.388 124.064L562.048 128.975L556.815 136.342L563.223 137.41L561.621 143.282L560.767 148.193L568.563 146.912L576.038 149.688L579.562 152.144L581.378 155.133L586.611 156.948L590.455 159.618L598.572 160.045L603.698 160.685L599.853 166.237L598.038 172.75L598.144 180.117L602.843 186.416L607.863 184.281L613.843 177.448L616.299 167.198L614.484 163.782L624.095 160.685L632.105 156.201L637.231 151.717L639.046 147.446L638.619 142.001L635.202 137.196L644.706 130.577L645.774 124.918L649.939 115.309L653.997 113.814L661.152 115.522L665.638 116.163L670.444 114.455L673.754 116.59L677.599 120.22L677.812 122.569L686.035 123.103L683.259 128.335L680.803 136.235L684.861 137.303L686.569 141.04L695.326 137.517L703.336 130.47L707.821 127.587L708.996 133.246L711.773 141.254L713.908 148.941L710.277 152.998L715.404 156.628L718.501 160.258L725.869 161.966L728.432 163.995V169.547L732.063 170.401L733.238 172.857L731.102 180.224L726.51 182.679L722.025 185.028L712.627 187.377L704.19 192.716L695.006 193.89L684.22 192.395H676.424L670.764 192.822L664.677 197.627L656.774 200.616L645.988 209.371L637.551 215.564L642.57 214.496L654.211 205.635L667.347 200.083L675.463 199.442L678.987 202.752L672.473 207.236L671.832 214.389L671.939 219.514L677.919 222.824L687.103 221.863L694.792 214.283L693.724 219.194L696.394 221.65L688.492 226.027L675.249 230.084L669.055 232.754L661.366 237.665L657.415 237.131L659.017 231.472L670.123 225.814L661.473 226.027L655.172 226.881Z" fill="#1C1C1C"/>
<path d="M655.172 226.881L652.823 223.038L655.92 213.962L654.211 212.041L650.26 213.108L649.085 211.4L643.211 216.418L639.794 221.65L636.804 224.746L634.134 225.814L632.318 226.134L631.144 227.735H621.212L612.882 227.842L609.998 229.017L602.737 233.714V233.608L601.775 233.181L599.639 234.141L597.61 235.529L595.688 234.355L590.669 235.209L586.504 236.17L584.475 237.024L582.019 239.266L583.941 240.014L585.756 239.587H586.077L585.756 241.615L580.63 242.363L577.64 243.217L575.825 244.284L573.048 243.644L571.339 243.964L568.242 245.886L563.33 248.021L560.446 247.594L562.582 245.245L566.533 241.508L570.912 239.266L572.087 237.345L573.048 234.141L577.106 230.405L578.067 226.134L579.242 230.298L583.3 231.259L585.863 229.017L584.368 223.892L583.407 221.756L579.135 220.475L575.077 219.728H570.912L567.281 218.874L566.854 217.379L565.359 218.34L564.077 218.126L566.106 215.884L564.184 215.03L566.213 212.468L564.932 210.546L566.747 208.624L561.194 207.663L561.087 203.819L560.233 202.965L556.708 202.752L552.33 201.471L550.728 202.325L548.806 203.926L545.282 204.994L541.971 207.663L536.204 205.848L531.505 206.702L527.34 204.674L522.428 203.606L518.904 203.179L517.836 202.111L518.797 198.481H516.981L515.593 201.043H504.7H486.545H468.604H452.692H436.886H421.188H405.062H399.936H384.237H369.179H368.432L362.665 194.531L360.956 191.648L353.481 188.872L354.869 183L358.713 179.049L354.335 176.167L357.645 170.935L355.403 166.237L358.073 162.821L363.519 159.724L366.937 155.667L362.024 151.61L363.519 144.243L364.694 139.759L362.985 136.876L362.131 134.314L362.772 131.004L355.83 133.032L347.714 136.556L347.393 132.499L346.859 129.723L343.869 128.014L339.384 127.801L377.402 92.8877L403.673 71.1071L410.081 72.495L413.605 75.271L417.557 75.8048L424.285 73.456L431.76 71.6409L437.42 72.2815L446.925 69.8259L455.682 68.4379L455.895 70.7868L460.701 69.3988L464.866 66.7296L467.109 67.3702L468.604 72.495L478.749 68.5446L474.584 72.9221L480.992 71.9612L484.409 70.3597L489.322 70.68L493.487 73.0289L501.496 75.1642L506.516 76.1252L511.214 75.8048L514.311 78.7943L505.234 81.6771L512.069 82.8515L524.777 82.2109L529.476 81.1432L530.971 84.6666L538.554 81.7838L536.311 79.2214L541.117 77.2996L546.67 76.9793L550.835 76.4455L553.078 77.8334L554.679 80.9297L560.019 80.5026L565.679 83.1718L573.368 82.2109L579.776 82.3177L582.339 78.6876L587.145 77.7267L592.378 79.6485L587.785 85.2004L594.407 80.5026L597.824 80.7162L604.659 74.8439L602.95 71.3206L599.853 68.9717L605.727 62.6724L614.484 58.6152L619.289 59.5761L621.425 62.0318L621.852 68.4379L615.658 71.2138L622.814 72.3883L618.115 78.2605L627.619 73.7763L629.969 77.5131L625.377 81.7838L626.765 85.7343L634.561 81.5703L641.503 76.4455L646.522 70.1462L652.395 70.5732L658.162 71.4274L662.007 74.3101L660.191 77.1928L654.745 80.2891L655.706 83.3854L653.143 86.2681L641.503 90.432L634.561 91.3929L631.144 89.5779L627.619 92.5674L619.717 97.5855L616.513 100.255L608.29 104.312L601.348 104.739L595.902 107.301L592.805 111.359L586.717 112.106L577.426 117.124L567.388 124.064L562.048 128.975L556.815 136.342L563.223 137.41L561.621 143.282L560.767 148.193L568.563 146.912L576.038 149.688L579.562 152.144L581.378 155.133L586.611 156.948L590.455 159.618L598.572 160.045L603.698 160.685L599.853 166.237L598.038 172.75L598.144 180.117L602.843 186.416L607.863 184.281L613.843 177.448L616.299 167.198L614.484 163.782L624.095 160.685L632.105 156.201L637.231 151.717L639.046 147.446L638.619 142.001L635.202 137.196L644.706 130.577L645.774 124.918L649.939 115.309L653.997 113.814L661.152 115.522L665.638 116.163L670.444 114.455L673.754 116.59L677.599 120.22L677.812 122.569L686.035 123.103L683.259 128.335L680.803 136.235L684.861 137.303L686.569 141.04L695.326 137.517L703.336 130.47L707.821 127.587L708.996 133.246L711.773 141.254L713.908 148.941L710.277 152.998L715.404 156.628L718.501 160.258L725.869 161.966L728.432 163.995V169.547L732.063 170.401L733.238 172.857L731.102 180.224L726.51 182.679L722.025 185.028L712.627 187.377L704.19 192.716L695.006 193.89L684.22 192.395H676.424L670.764 192.822L664.677 197.627L656.774 200.616L645.988 209.371L637.551 215.564L642.57 214.496L654.211 205.635L667.347 200.083L675.463 199.442L678.987 202.752L672.473 207.236L671.832 214.389L671.939 219.514L677.919 222.824L687.103 221.863L694.792 214.283L693.724 219.194L696.394 221.65L688.492 226.027L675.249 230.084L669.055 232.754L661.366 237.665L657.415 237.131L659.017 231.472L670.123 225.814L661.473 226.027L655.172 226.881Z" stroke="#6A6A6A" stroke-width="0.2" stroke-linecap="round" stroke-linejoin="round"/>
</g>
<path d="M541.438 51.9959L536.419 54.5583L547.632 52.9568L550.409 55.7328L558.205 52.85L560.127 54.6651L557.777 60.1103L562.369 57.8681L565.36 52.2094L569.952 51.3553L573.156 52.2094L575.505 54.4516L572.622 59.8967L570.059 63.8471L574.544 66.6231L579.884 69.3991L577.107 71.8547L569.525 72.3886L570.379 74.5239L566.962 76.6593L559.806 75.8051L553.719 74.2036L548.273 74.5239L538.127 76.5525L526.06 77.4066L517.623 77.9405L517.943 75.1645L513.565 73.6698L508.973 74.3104L508.332 69.7194L511.856 69.0787L519.652 68.1178L525.526 68.4381L532.147 67.3705L525.205 66.0893L515.487 66.5163L509.4 66.4096V64.381L521.895 62.0321L515.167 62.1388L509.4 60.6441L517.73 56.4801L523.283 54.238L538.448 50.9282L541.438 51.9959Z" fill="#1C1C1C" stroke="#6A6A6A" stroke-width="0.2" stroke-linecap="round" stroke-linejoin="round"/>
<path d="M583.621 50.3945L576.146 54.0246L573.689 50.181L575.932 49.3268L581.806 49.1133L583.621 50.3945Z" fill="#1C1C1C" stroke="#6A6A6A" stroke-width="0.2" stroke-linecap="round" stroke-linejoin="round"/>
<path d="M699.598 52.1028L698.85 53.5975L694.471 53.4907L690.093 53.384L684.86 54.1313L683.899 53.7043L681.656 50.8215L683.472 48.8997L685.821 48.4727L694.792 49.1133L699.598 52.1028Z" fill="#1C1C1C" stroke="#6A6A6A" stroke-width="0.2" stroke-linecap="round" stroke-linejoin="round"/>
<path d="M657.094 51.7821L657.414 55.1987L665.103 50.8212L677.598 48.5791L680.054 54.2378L676.637 57.8679L686.248 56.2664L691.908 54.0242L699.17 56.8002L703.122 59.4694L701.947 61.9251L710.704 60.6439L712.733 64.274L721.704 66.5161L724.053 68.7582L725.014 74.2034L715.296 76.8726L723.519 80.7162L729.82 81.9974L733.344 87.3358L740.286 87.7629L736.762 91.9268L725.121 98.8667L720.849 96.3043L716.791 90.5388L710.49 91.2862L708.034 94.8096L710.917 98.2261L715.723 101.002L716.791 102.604L716.684 108.689L712.84 113.067L707.82 111.359L698.636 106.554L702.481 111.786L705.471 115.522L705.151 117.658L693.51 115.202L685.394 111.572L681.336 108.689L683.899 106.874L678.773 103.778L673.753 100.895L672.792 102.604L658.802 103.565L656.239 101.536L662.006 97.0517L670.656 96.9449L680.588 96.1975L680.375 94.0622L683.685 91.0727L693.083 85.3072L693.51 82.638L692.976 80.7162L687.957 77.8335L680.375 75.9116L684.112 74.4169L681.976 70.7868L678.345 70.4665L676.316 68.5447L672.792 70.253L664.356 71.0003L649.404 69.7191L641.502 68.0108L635.201 67.1567L633.172 65.1281L639.9 62.5657H633.813L637.337 56.907L644.919 51.9957L651.327 49.7535L663.288 48.2588L657.094 51.7821Z" fill="#1C1C1C" stroke="#6A6A6A" stroke-width="0.2" stroke-linecap="round" stroke-linejoin="round"/>
<path d="M603.27 48.0454L607.115 49.2199L615.231 48.4725L614.697 50.074L608.183 52.7432L612.241 55.0921L606.688 60.1102L597.717 62.2455L594.086 61.8185L593.125 59.6831L586.824 55.4124L588.64 53.5973L596.542 54.2379L595.581 50.7146L603.27 48.0454Z" fill="#1C1C1C" stroke="#6A6A6A" stroke-width="0.2" stroke-linecap="round" stroke-linejoin="round"/>
<path d="M627.406 53.9181L619.076 58.082L614.377 57.8685L616.299 52.9572L619.076 50.288L623.561 47.9391L629.114 46.4443L637.551 46.6579L644.172 47.9391L633.386 52.8504L627.406 53.9181Z" fill="#1C1C1C" stroke="#6A6A6A" stroke-width="0.2" stroke-linecap="round" stroke-linejoin="round"/>
<path d="M503.74 61.6047L489.323 64.3806L489.963 61.925L483.556 58.9355L488.255 56.5866L496.264 52.5294L504.38 48.8993L504.808 45.5895L519.759 44.7354L524.244 45.9098L534.389 46.2301L536.418 47.7248L538.127 50.0737L531.186 51.4617L516.341 55.3054L506.516 59.2558L503.74 61.6047Z" fill="#1C1C1C" stroke="#6A6A6A" stroke-width="0.2" stroke-linecap="round" stroke-linejoin="round"/>
<path d="M637.445 41.9597L633.066 43.9883L627.513 43.5612L624.096 42.1732L628.901 39.8243L636.27 38.3296L637.765 40.2514L637.445 41.9597Z" fill="#1C1C1C" stroke="#6A6A6A" stroke-width="0.2" stroke-linecap="round" stroke-linejoin="round"/>
<path d="M628.047 32.6709L628.261 35.1266L625.271 37.7958L619.077 41.8529L611.708 42.3868L608.29 41.5326L611.921 38.4364L604.873 38.7567L609.465 34.6995L613.523 34.913L621.746 33.098L626.979 33.4183L628.047 32.6709Z" fill="#1C1C1C" stroke="#6A6A6A" stroke-width="0.2" stroke-linecap="round" stroke-linejoin="round"/>
<path d="M585.97 35.4469L585.223 37.2619L589.922 36.4078L593.766 36.6213L591.31 39.2905L585.863 41.7462L571.019 42.6003L557.884 44.9492L551.476 45.056L553.078 43.3477L564.505 40.892L545.389 41.5326L540.903 40.5717L553.398 35.4469L559.165 33.9521L568.029 35.7672L571.126 38.8634L577.64 39.2905L578.388 34.2724L584.582 32.3506L587.892 32.8844L585.97 35.4469Z" fill="#1C1C1C" stroke="#6A6A6A" stroke-width="0.2" stroke-linecap="round" stroke-linejoin="round"/>
<path d="M645.454 30.749L647.911 32.4573H655.813L657.308 34.1656L654.318 36.0874L657.629 37.2619L658.91 38.5431L664.143 38.7566L669.59 39.1837L677.172 38.116L685.822 37.5822L692.016 38.0092L694.472 40.0378L693.405 42.1732L689.56 43.6679L682.405 44.8424L677.813 44.095L665.211 44.9491L656.668 45.0559L650.687 44.4153L641.503 42.707L643.212 39.7175L645.454 37.1551L643.959 34.8062L636.484 34.1656L633.707 32.5641L637.765 30.4287L645.454 30.749Z" fill="#1C1C1C" stroke="#6A6A6A" stroke-width="0.2" stroke-linecap="round" stroke-linejoin="round"/>
<path d="M564.611 27.9731L558.417 31.9236L552.757 33.7386L548.699 33.9521L538.126 36.1943L530.544 37.0484L526.699 35.874L539.194 31.9236L552.223 28.6137L558.096 28.7205L564.611 27.9731Z" fill="#1C1C1C" stroke="#6A6A6A" stroke-width="0.2" stroke-linecap="round" stroke-linejoin="round"/>
<path d="M651.328 28.6137L649.406 28.7205L642.357 28.4002L643.105 27.0122L650.794 27.119L652.503 27.9731L651.328 28.6137Z" fill="#1C1C1C" stroke="#6A6A6A" stroke-width="0.2" stroke-linecap="round" stroke-linejoin="round"/>
<path d="M588.533 27.6533L579.135 29.148L575.611 27.5465L581.058 25.945L587.465 25.4111L591.844 26.1585L588.533 27.6533Z" fill="#1C1C1C" stroke="#6A6A6A" stroke-width="0.2" stroke-linecap="round" stroke-linejoin="round"/>
<path d="M596.862 23.1686L590.775 24.1295H584.367L585.435 23.3821L591.522 21.9941L593.338 22.2077L596.862 23.1686Z" fill="#1C1C1C" stroke="#6A6A6A" stroke-width="0.2" stroke-linecap="round" stroke-linejoin="round"/>
<path d="M646.843 25.8381L639.795 26.9058L638.086 25.7313L638.727 23.9163L641.076 21.8877L645.775 22.1012L647.591 22.4215L650.047 24.1298L646.843 25.8381Z" fill="#1C1C1C" stroke="#6A6A6A" stroke-width="0.2" stroke-linecap="round" stroke-linejoin="round"/>
<path d="M632.104 24.5565L630.93 26.5851L625.27 26.0513L620.998 24.4497L612.668 24.2362L618.328 22.8482L615.338 21.6738L617.687 19.752L624.202 20.3926L632.211 22.2076L632.104 24.5565Z" fill="#1C1C1C" stroke="#6A6A6A" stroke-width="0.2" stroke-linecap="round" stroke-linejoin="round"/>
<path d="M689.88 18.0439L692.764 19.6454L685.822 21.0334L674.502 24.7703L667.24 25.0906L659.978 24.45L658.269 22.4214L660.512 20.7131L665.104 19.4319H658.056L655.92 17.8304L656.347 15.8018L661.58 13.7732L665.958 12.3852L670.23 12.0649L669.91 10.9972L678.774 10.7837L680.482 13.1326L685.502 14.0935L690.628 15.0544L689.88 18.0439Z" fill="#1C1C1C" stroke="#6A6A6A" stroke-width="0.2" stroke-linecap="round" stroke-linejoin="round"/>
<path d="M774.46 3.09602L783.751 3.41632L790.906 3.95016L796.459 5.01784L795.285 6.08551L784.819 7.90057L775.208 8.75471L770.936 9.71562H778.945L767.732 12.3848L760.47 13.666L750.538 17.4029L741.888 18.1503L738.577 19.218L726.51 19.645L731.209 20.2856L727.684 21.1398L728.432 23.5954L723.092 25.3037L715.724 26.6917L711.986 28.6135L704.937 30.215L704.403 31.3895L711.345 31.1759L710.17 32.4572L696.607 35.5534L687.53 34.0587L675.035 34.9128L669.696 34.2722L662.434 33.9519L664.676 31.4963L673.22 30.3218L675.356 26.6917L678.132 26.3714L686.142 28.5068L684.326 25.3037L679.093 24.3428L684.433 22.421L692.549 21.2465L695.54 19.5383L692.336 17.7232L693.511 15.3743L703.549 15.4811L705.899 16.0149L713.694 14.3066L705.899 13.7728L692.443 14.0931L687.744 12.5984L686.889 10.7833L684.219 9.50208L685.394 8.1141L691.802 7.25996L696.287 7.15319L704.19 6.51259L711.452 4.91107L715.617 5.1246L718.18 6.29905L723.519 4.16369L729.073 3.52309L736.014 3.09602L747.121 2.88248L748.509 3.30955L759.509 2.66895L766.984 2.88248L774.46 3.09602Z" fill="#1C1C1C" stroke="#6A6A6A" stroke-width="0.2" stroke-linecap="round" stroke-linejoin="round"/>
<g filter="url(#filter1_d_2027_930)">
<path d="M1701.86 198.055L1711.47 202.859L1717.87 209.052H1725.99L1728.77 206.489L1736.14 204.461L1737.52 210.546L1737.2 213.002L1740.19 220.262L1740.83 226.882L1733.47 225.707L1730.37 228.056L1735.39 233.822L1739.55 241.829L1736.88 241.936L1738.91 245.459L1733.04 241.402V245.246L1726.2 248.129L1729.19 251.759L1724.28 251.438L1720.44 249.303L1719.26 254.214L1715.1 257.845L1712.86 262.222L1706.13 264.144L1703.56 267.347L1698.44 269.269L1699.83 266.066L1697.37 263.396L1699.51 258.805L1694.7 255.282L1691.07 257.631L1687.22 262.436L1685.84 266.813L1680.5 267.133L1679.11 270.336L1684.23 274.927L1689.36 276.102L1690.86 279.091L1696.3 281.12L1700.36 276.209L1706.66 278.878L1710.4 279.091L1712.86 282.615L1705.7 284.537L1704.63 288.273L1700.57 291.69L1699.61 296.495L1707.2 300.231L1712.11 306.958L1717.98 313.257L1723.85 318.489L1725.56 323.614L1722.57 325.535L1725.14 329.165L1729.3 331.301L1730.16 336.853L1730.26 342.298L1727.27 342.939L1725.03 350.305L1722.57 359.381L1718.94 367.495L1712.11 373.794L1705.06 379.667L1698.54 380.414L1695.45 383.404L1692.99 381.268L1690.32 384.578L1682.63 388.101L1676.44 389.062L1675.69 396.322L1672.38 396.749L1670.03 391.731L1670.99 389.169L1662.66 386.927L1660.1 388.101L1653.8 386.286L1650.49 383.51L1650.81 379.56L1645.15 378.279L1641.84 375.716L1637.46 379.346L1631.8 380.2L1627.1 380.094L1624.22 381.802L1621.33 382.763L1623.47 390.664L1620.27 390.45L1619.41 388.849L1618.88 385.966L1614.82 387.995L1612.04 386.713L1607.24 384.151L1608.09 378.492L1604.14 377.104L1601.58 370.805L1595.6 371.979L1594.85 363.865L1599.33 358.1L1598.37 352.441L1596.98 347.209L1594.1 345.608L1591.22 341.551L1587.91 342.084L1581.39 341.017L1582.67 338.134L1578.83 333.863L1575.41 336.746L1570.18 335.144L1564.41 339.415L1560.25 344.54L1555.76 345.394L1552.77 343.579L1549.67 343.366L1545.08 341.871L1542.31 343.579L1539.53 348.704L1537.93 343.259L1534.62 344.754L1527.68 344.006L1520.73 342.511L1515.39 339.415L1510.59 338.134L1507.92 334.824L1504.39 333.863L1497.56 329.379L1492.43 327.244L1490.4 328.845L1481.22 324.041L1474.6 319.77L1471.18 312.189L1475.56 313.15L1474.92 309.627L1471.72 306.104L1470.86 300.552L1462.64 292.437L1452.49 289.768L1449.4 284.43L1444.38 281.227L1442.77 279.305L1440.85 275.461L1440.32 272.792L1436.37 271.191L1434.76 271.938L1431.45 265.532L1432.63 264.037L1431.35 262.436L1435.73 259.233L1439.14 257.845L1445.34 258.805L1445.98 254.428L1452.81 253.681L1453.88 250.905L1461.25 247.275L1461.46 245.78L1459.65 241.829L1462.74 240.121L1453.35 228.377L1463.07 225.707L1465.2 224.213L1464.13 212.148L1475.67 214.39L1477.38 211.294L1474.71 204.674L1478.76 204.034L1480.79 199.549L1482.61 199.015L1486.13 203.713L1492.22 207.237L1500.98 209.692L1507.17 215.137L1508.67 222.931L1511.87 225.921L1518.81 227.095L1526.5 227.95L1535.04 232.22L1538.68 232.968L1544.01 239.16L1549.03 243.217L1555.01 243.004L1567.08 244.605L1573.92 243.644L1579.9 244.605L1589.94 248.769H1596.56L1600.08 250.798L1604.78 247.168L1612.47 244.819L1620.59 244.605L1625.82 242.256L1627.95 238.626L1630.52 236.277L1628.49 234.035L1625.39 231.473L1625.93 227.095L1629.34 227.736L1635.64 229.124L1639.06 225.494L1645.9 222.931L1647.28 218.447L1649.95 216.525L1657.22 215.671L1661.91 216.419L1661.06 214.07L1653.37 209.372L1647.82 207.237L1645.15 209.692L1639.27 208.625L1636.82 209.479L1633.83 206.81L1633.51 200.083L1632.87 195.065L1640.77 197.628L1645.47 193.464L1643.44 190.474L1643.23 183.534L1644.61 181.399L1641.94 177.769L1637.99 176.274L1639.81 172.964L1645.25 171.79L1651.88 171.576L1661.06 173.605L1667.47 175.954L1675.69 182.573L1679.75 185.456L1684.55 189.513L1691.18 195.919L1701.86 198.055Z" fill="#1C1C1C"/>
<path d="M1701.86 198.055L1711.47 202.859L1717.87 209.052H1725.99L1728.77 206.489L1736.14 204.461L1737.52 210.546L1737.2 213.002L1740.19 220.262L1740.83 226.882L1733.47 225.707L1730.37 228.056L1735.39 233.822L1739.55 241.829L1736.88 241.936L1738.91 245.459L1733.04 241.402V245.246L1726.2 248.129L1729.19 251.759L1724.28 251.438L1720.44 249.303L1719.26 254.214L1715.1 257.845L1712.86 262.222L1706.13 264.144L1703.56 267.347L1698.44 269.269L1699.83 266.066L1697.37 263.396L1699.51 258.805L1694.7 255.282L1691.07 257.631L1687.22 262.436L1685.84 266.813L1680.5 267.133L1679.11 270.336L1684.23 274.927L1689.36 276.102L1690.86 279.091L1696.3 281.12L1700.36 276.209L1706.66 278.878L1710.4 279.091L1712.86 282.615L1705.7 284.537L1704.63 288.273L1700.57 291.69L1699.61 296.495L1707.2 300.231L1712.11 306.958L1717.98 313.257L1723.85 318.489L1725.56 323.614L1722.57 325.535L1725.14 329.165L1729.3 331.301L1730.16 336.853L1730.26 342.298L1727.27 342.939L1725.03 350.305L1722.57 359.381L1718.94 367.495L1712.11 373.794L1705.06 379.667L1698.54 380.414L1695.45 383.404L1692.99 381.268L1690.32 384.578L1682.63 388.101L1676.44 389.062L1675.69 396.322L1672.38 396.749L1670.03 391.731L1670.99 389.169L1662.66 386.927L1660.1 388.101L1653.8 386.286L1650.49 383.51L1650.81 379.56L1645.15 378.279L1641.84 375.716L1637.46 379.346L1631.8 380.2L1627.1 380.094L1624.22 381.802L1621.33 382.763L1623.47 390.664L1620.27 390.45L1619.41 388.849L1618.88 385.966L1614.82 387.995L1612.04 386.713L1607.24 384.151L1608.09 378.492L1604.14 377.104L1601.58 370.805L1595.6 371.979L1594.85 363.865L1599.33 358.1L1598.37 352.441L1596.98 347.209L1594.1 345.608L1591.22 341.551L1587.91 342.084L1581.39 341.017L1582.67 338.134L1578.83 333.863L1575.41 336.746L1570.18 335.144L1564.41 339.415L1560.25 344.54L1555.76 345.394L1552.77 343.579L1549.67 343.366L1545.08 341.871L1542.31 343.579L1539.53 348.704L1537.93 343.259L1534.62 344.754L1527.68 344.006L1520.73 342.511L1515.39 339.415L1510.59 338.134L1507.92 334.824L1504.39 333.863L1497.56 329.379L1492.43 327.244L1490.4 328.845L1481.22 324.041L1474.6 319.77L1471.18 312.189L1475.56 313.15L1474.92 309.627L1471.72 306.104L1470.86 300.552L1462.64 292.437L1452.49 289.768L1449.4 284.43L1444.38 281.227L1442.77 279.305L1440.85 275.461L1440.32 272.792L1436.37 271.191L1434.76 271.938L1431.45 265.532L1432.63 264.037L1431.35 262.436L1435.73 259.233L1439.14 257.845L1445.34 258.805L1445.98 254.428L1452.81 253.681L1453.88 250.905L1461.25 247.275L1461.46 245.78L1459.65 241.829L1462.74 240.121L1453.35 228.377L1463.07 225.707L1465.2 224.213L1464.13 212.148L1475.67 214.39L1477.38 211.294L1474.71 204.674L1478.76 204.034L1480.79 199.549L1482.61 199.015L1486.13 203.713L1492.22 207.237L1500.98 209.692L1507.17 215.137L1508.67 222.931L1511.87 225.921L1518.81 227.095L1526.5 227.95L1535.04 232.22L1538.68 232.968L1544.01 239.16L1549.03 243.217L1555.01 243.004L1567.08 244.605L1573.92 243.644L1579.9 244.605L1589.94 248.769H1596.56L1600.08 250.798L1604.78 247.168L1612.47 244.819L1620.59 244.605L1625.82 242.256L1627.95 238.626L1630.52 236.277L1628.49 234.035L1625.39 231.473L1625.93 227.095L1629.34 227.736L1635.64 229.124L1639.06 225.494L1645.9 222.931L1647.28 218.447L1649.95 216.525L1657.22 215.671L1661.91 216.419L1661.06 214.07L1653.37 209.372L1647.82 207.237L1645.15 209.692L1639.27 208.625L1636.82 209.479L1633.83 206.81L1633.51 200.083L1632.87 195.065L1640.77 197.628L1645.47 193.464L1643.44 190.474L1643.23 183.534L1644.61 181.399L1641.94 177.769L1637.99 176.274L1639.81 172.964L1645.25 171.79L1651.88 171.576L1661.06 173.605L1667.47 175.954L1675.69 182.573L1679.75 185.456L1684.55 189.513L1691.18 195.919L1701.86 198.055Z" stroke="#6A6A6A" stroke-width="0.2" stroke-linecap="round" stroke-linejoin="round"/>
</g>
<path d="M1097.51 187.057L1100.18 189.192L1104.13 189.726L1103.92 191.541L1106.91 192.929L1107.55 191.221L1111.18 191.968L1111.93 194.104L1115.88 194.424L1118.66 197.734H1117.05L1116.31 198.908L1115.13 199.228L1114.92 200.723L1113.96 201.044L1113.85 201.684L1112.14 202.325L1109.79 202.218L1109.15 203.713L1106.59 202.432L1104.13 202.752L1099.86 200.723L1098.04 201.257L1095.27 204.033L1091.21 201.791L1088.01 199.015L1085.23 197.413L1084.48 194.531L1083.41 192.609L1087.05 191.221L1088.86 189.513L1092.6 188.231L1093.77 186.95L1095.16 187.698L1097.51 187.057V187.057Z" fill="#1C1C1C" stroke="#6A6A6A" stroke-width="0.2" stroke-linecap="round" stroke-linejoin="round"/>
<path d="M1091.32 169.654L1092.81 172.964L1091.53 174.779L1093.56 177.021L1095.16 180.544L1094.95 182.893L1097.51 187.057L1095.16 187.698L1093.77 186.95L1092.6 188.231L1088.86 189.513L1087.04 191.221L1083.41 192.609L1084.48 194.531L1085.23 197.413L1088.01 199.015L1091.21 201.791L1089.5 204.887L1087.69 205.741L1088.75 210.119L1088.33 211.293L1086.51 209.905L1083.95 209.692L1080.21 210.866L1075.51 210.546L1074.87 212.361L1071.99 210.546L1070.49 210.866L1064.62 208.838L1063.55 210.226H1059.07L1059.49 205.421L1062.06 200.937L1054.37 199.656L1051.8 197.947L1052.02 195.064L1050.95 193.57L1051.38 189.085L1050.2 182.146H1053.3L1054.58 179.69L1055.54 173.711L1054.58 171.469L1055.43 170.081L1059.71 169.761L1060.77 171.149L1064.08 167.945L1062.7 165.49L1062.27 161.86L1066.22 162.714L1069.32 161.753L1069.64 164.209L1074.87 165.703L1074.98 168.052L1080 166.771L1082.77 165.063L1088.75 167.625L1091.32 169.654V169.654Z" fill="#1C1C1C" stroke="#6A6A6A" stroke-width="0.2" stroke-linecap="round" stroke-linejoin="round"/>
<path d="M1082.99 157.696L1080.42 162.928L1074.87 159.191L1073.91 156.522L1081.17 154.386L1082.99 157.696Z" fill="#1C1C1C" stroke="#6A6A6A" stroke-width="0.2" stroke-linecap="round" stroke-linejoin="round"/>
<path d="M1069.32 161.753L1066.22 162.714L1062.27 161.86L1060.03 158.229L1059.6 151.717L1060.24 149.902L1061.63 147.98L1065.9 147.659L1067.61 145.844L1071.45 144.029V147.339L1070.17 149.474L1070.92 151.183L1073.7 152.144L1072.63 154.599L1071.13 153.959L1067.82 158.55L1069.32 161.753Z" fill="#1C1C1C" stroke="#6A6A6A" stroke-width="0.2" stroke-linecap="round" stroke-linejoin="round"/>
<path d="M1155.18 133.033L1156.14 134.101L1153.36 137.731L1155.93 143.71L1154.22 145.738L1150.16 145.631L1145.46 143.283L1143.22 142.535L1139.16 143.603L1139.05 139.866L1137.45 140.72L1133.93 138.478L1132.86 134.848L1138.73 133.033L1144.71 132.179L1150.16 133.14L1155.18 133.033V133.033Z" fill="#1C1C1C" stroke="#6A6A6A" stroke-width="0.2" stroke-linecap="round" stroke-linejoin="round"/>
<path d="M1144.93 74.8442L1145.35 78.9014L1153.15 82.8518L1150.05 87.3361L1156.99 94.0624L1155.18 99.1873L1160.41 103.672L1159.45 107.729L1167.35 111.893L1166.39 114.989L1162.76 118.619L1154.22 126.52L1145.67 127.054L1137.56 129.296L1129.98 130.684L1126.56 127.267L1121.54 125.239L1121.65 119.046L1118.44 113.494L1120.15 109.864L1123.68 106.127L1133.07 99.5076L1135.85 98.2264L1134.89 95.6639L1127.95 92.888L1126.02 90.5391L1124.1 81.4638L1116.41 77.5134L1110.01 74.6307L1112.36 73.1359L1117.8 76.1254L1123.46 75.9119L1128.48 77.2999L1132.11 74.7375L1133.29 70.4667L1139.59 68.5449L1145.78 70.7871L1144.93 74.8442V74.8442Z" fill="#1C1C1C" stroke="#6A6A6A" stroke-width="0.2" stroke-linecap="round" stroke-linejoin="round"/>
<path d="M987.514 168.907L983.776 167.626L980.572 167.732L981.854 164.209L980.893 160.792L985.164 160.472L990.397 164.529L987.514 168.907Z" fill="#1C1C1C" stroke="#6A6A6A" stroke-width="0.2" stroke-linecap="round" stroke-linejoin="round"/>
<path d="M1004.49 138.264L999.048 145.204L1004.07 144.35H1009.51L1008.13 149.582L1003.53 155.347L1008.77 155.667L1009.09 156.415L1013.57 163.995L1016.99 165.063L1020.09 172.537L1021.58 175.099L1027.88 176.273L1027.24 180.544L1024.68 182.466L1026.71 185.883L1022.01 189.299L1015.07 189.192L1006.1 191.114L1003.75 189.726L1000.22 192.823L995.417 192.075L991.572 194.638L988.902 193.356L996.698 186.416L1001.4 184.922L993.281 183.854L991.893 181.185L997.339 179.156L994.669 175.633L995.737 171.362L1003.32 172.003L1004.17 168.159L1000.86 164.209L1000.76 164.102L994.669 162.928L993.495 161.219L995.417 158.337L993.815 156.521L991.038 159.618L990.932 153.318L988.582 150.115L990.611 143.496L994.669 138.371L998.514 138.798L1004.49 138.264Z" fill="#1C1C1C" stroke="#6A6A6A" stroke-width="0.2" stroke-linecap="round" stroke-linejoin="round"/>
<path d="M923.011 1.49445L944.263 4.69749L937.107 6.19224L923.224 6.40577L903.468 6.83284L904.963 7.58022L918.098 7.04638L928.457 8.54113L935.933 7.25992L938.496 8.75466L933.69 11.3171L943.515 9.60881L961.777 8.00729L972.456 8.86143L974.272 10.6765L958.466 13.7728L956.117 14.8404L943.942 15.6946L952.593 15.9081L947.36 19.3247L943.515 22.4209L942.234 27.9729L946.185 31.3894L939.884 31.4962L932.942 33.2045L939.671 35.9805L939.564 40.4647L935.078 40.9985L939.457 45.5896L930.166 46.0166L934.438 48.152L932.729 50.0738L926.642 50.9279L920.768 51.0347L925.253 54.6648L924.719 57.2272L916.923 54.8784L914.36 56.3731L919.7 57.7611L924.613 61.1777L925.253 65.7687L917.351 66.8363L914.467 64.5942L909.982 61.3912L910.516 65.2348L904.749 68.2243L916.176 68.4379L922.05 68.7582L909.341 73.7763L896.312 78.3673L882.75 80.2891L877.837 80.3959L872.604 82.638L864.595 88.8305L853.702 92.9945L850.498 93.3148L843.984 94.7027L836.935 96.1975L831.809 99.8276L830.314 104.098L826.683 108.155L817.499 113.067L817.819 117.871L813.975 122.996L809.596 129.082L802.654 129.509L797.315 124.384L787.703 124.277L784.286 120.861L783.432 114.882L778.306 107.195L777.558 103.244L779.16 97.799L775.209 92.3538L778.733 87.9764L776.704 85.841L784.179 79.0079L791.868 76.7658L794.645 74.4169L797.635 69.9326L791.762 71.9612L788.985 72.8153L784.606 73.5627L780.121 71.7477L781.723 67.7973L784.927 64.8078L788.985 64.701L797.101 66.3025L791.441 62.6724L788.558 60.7506L783.859 61.498L781.082 60.11L788.558 54.9851L787.169 52.8498L785.995 49.1129L784.5 43.3474L780.655 41.3188L782.15 39.0767L773.5 35.9805L765.277 35.5534L754.491 35.7669L744.345 36.194L741.035 34.4857L736.976 31.1759L748.724 29.5744L756.84 29.3608L741.248 27.9729L734.307 25.9443L736.656 24.0225L753.423 21.6736L769.442 19.3247L772.432 17.6164L763.782 15.9081L768.694 14.0931L784.393 10.9968L790.16 10.5697L790.373 8.6479L799.985 7.47345L811.732 6.83284H822.838L825.829 8.11406L837.149 5.76517L844.731 7.36668L849.644 7.68699L856.265 9.07497L849.11 6.83284L850.818 5.01779L864.381 2.6689L876.769 2.88244L882.216 1.38769L894.924 1.06738L923.011 1.49445V1.49445Z" fill="#1C1C1C" stroke="#6A6A6A" stroke-width="0.2" stroke-linecap="round" stroke-linejoin="round"/>
<path d="M987.515 168.907L988.262 173.605L984.097 179.477L974.699 183.32L967.438 182.36L972.03 175.526L969.787 168.907L976.942 163.782L980.893 160.792L981.855 164.209L980.573 167.732L983.777 167.626L987.515 168.907V168.907Z" fill="#1C1C1C" stroke="#6A6A6A" stroke-width="0.2" stroke-linecap="round" stroke-linejoin="round"/>
<path d="M953.447 90.2191L951.952 94.0627L956.651 98.1199L950.137 102.711L936.147 106.875L931.982 108.049L926.001 107.088L913.293 105.167L918.419 102.497L908.807 99.6146L917.244 98.4402L917.351 96.6251L907.953 95.2371L911.798 91.2867L918.846 90.4326L925.254 94.4898L932.729 91.2867L938.176 92.8883L945.972 89.792L953.447 90.2191V90.2191Z" fill="#1C1C1C" stroke="#6A6A6A" stroke-width="0.2" stroke-linecap="round" stroke-linejoin="round"/>
<path d="M1395.04 171.362L1399.74 171.042L1409.56 164.849L1408.71 166.985L1417.68 172.003L1437.22 188.659L1438.4 185.242L1447.37 188.979L1453.99 187.271L1457.51 188.445L1461.89 192.289L1466.16 193.57L1469.69 196.453L1476.09 195.492L1480.79 199.549L1478.76 204.033L1474.71 204.674L1477.37 211.293L1475.67 214.39L1464.13 212.148L1465.2 224.212L1463.06 225.707L1453.35 228.376L1462.74 240.121L1459.65 241.829L1461.46 245.779L1457.72 244.712L1454.09 242.256L1445.66 241.615L1436.47 241.402L1434.76 242.149L1426.01 239.267L1423.34 240.761L1423.87 244.712L1414.05 242.363L1410.74 243.324L1410.42 246.313L1407.64 247.594L1401.87 252.292L1400.91 257.204H1398.77L1396.32 254.001L1389.16 253.787L1386.49 248.235L1383.72 248.128L1382.12 241.295L1374 236.384L1364.81 236.918L1358.73 237.879L1351.68 231.793L1346.55 229.23L1336.73 224.426L1335.55 223.892L1322.74 227.842L1329.36 252.826L1326.58 253.146L1321.46 247.808L1317.29 245.886L1311.31 247.274L1309.39 249.623L1308.75 247.915L1309.39 245.139L1307.79 242.79L1300.85 240.441L1296.89 234.355L1293.48 232.647L1292.84 230.405L1298.28 231.045L1297.21 226.134L1301.59 225.066L1306.61 226.027L1305.86 219.515L1303.84 215.351L1298.5 215.671L1293.48 214.069L1288.03 216.952L1283.33 218.447L1280.34 217.272L1280.13 213.856L1275.54 209.372L1271.69 209.585L1266.03 205.101L1267.85 199.976L1265.92 198.695L1268.27 191.328L1274.68 195.172L1274.04 190.367L1282.69 183.214L1290.81 183L1303.62 187.591L1310.67 190.26L1315.37 187.484L1323.59 187.377L1331.39 190.794L1332.24 188.765L1339.72 189.086L1339.93 185.989L1329.89 181.398L1333.63 178.195L1332.03 176.487L1336.3 174.779L1330.85 170.295L1332.35 168.052L1350.5 165.81L1352.32 164.209L1363.96 161.753L1367.27 159.084L1376.99 160.472L1381.69 167.198L1386.28 165.597L1393.86 167.839L1395.04 171.362V171.362Z" fill="#1C1C1C" stroke="#6A6A6A" stroke-width="0.2" stroke-linecap="round" stroke-linejoin="round"/>
<path d="M1152.4 157.589L1153.47 160.472L1149.63 162.607L1149.09 166.237L1143.97 168.693H1138.95L1137.45 166.664L1134.78 165.917L1134.14 164.316L1134.36 162.501L1132.01 161.54L1126.56 160.365L1124.74 154.92L1130.19 152.998L1138.63 153.425L1143.43 152.785L1144.39 154.066L1147.06 154.493L1152.4 157.589V157.589Z" fill="#1C1C1C" stroke="#6A6A6A" stroke-width="0.2" stroke-linecap="round" stroke-linejoin="round"/>
<path d="M1154.22 145.738L1156.89 147.126L1157.96 150.222L1160.2 154.066L1155.29 156.522L1152.4 157.589L1147.06 154.493L1144.39 154.066L1143.43 152.785L1138.63 153.425L1130.19 152.998L1124.74 154.92L1124.21 150.116L1126.02 146.058L1130.4 143.923L1135.1 148.728L1139.05 148.514L1139.16 143.603L1143.22 142.535L1145.46 143.283L1150.16 145.631L1154.22 145.738V145.738Z" fill="#1C1C1C" stroke="#6A6A6A" stroke-width="0.2" stroke-linecap="round" stroke-linejoin="round"/>
<path d="M1563.67 193.783L1567.94 192.502L1574.02 191.648L1579.79 192.609L1586.84 195.705L1592.07 199.122H1596.99L1604.25 200.189L1608.09 198.481L1614.39 197.413L1619.09 192.715L1622.72 193.463L1626.89 195.705L1632.87 195.064L1633.51 200.082L1633.83 206.809L1636.82 209.478L1639.28 208.624L1645.15 209.692L1647.82 207.236L1653.37 209.371L1661.06 214.069L1661.92 216.418L1657.22 215.671L1649.95 216.525L1647.28 218.447L1645.9 222.931L1639.06 225.493L1635.64 229.123L1629.34 227.735L1625.93 227.095L1625.39 231.472L1628.49 234.035L1630.52 236.277L1627.96 238.626L1625.82 242.256L1620.59 244.605L1612.47 244.818L1604.78 247.167L1600.08 250.797L1596.56 248.769H1589.94L1579.9 244.605L1573.92 243.644L1567.08 244.605L1555.02 243.003L1549.03 243.217L1544.02 239.159L1538.68 232.967L1535.04 232.22L1526.5 227.949L1518.81 227.095L1511.87 225.92L1508.67 222.931L1507.17 215.137L1500.98 209.692L1492.22 207.236L1486.13 203.713L1482.61 199.015L1487.63 197.84L1494.78 192.182L1501.08 189.085L1506.74 191.114L1512.3 191.221L1517.42 194.317L1522.76 194.531L1531.31 196.239L1533.87 191.541L1529.6 187.697L1530.99 180.864L1538.46 183.533L1543.59 184.388L1550.74 186.096L1554.59 191.007L1563.67 193.783V193.783Z" fill="#1C1C1C" stroke="#6A6A6A" stroke-width="0.2" stroke-linecap="round" stroke-linejoin="round"/>
<path d="M1155.18 72.0681L1148.34 74.3102L1144.93 74.8441L1145.78 70.7869L1139.59 68.5448L1133.29 70.4666L1132.11 74.7373L1128.48 77.2997L1123.46 75.9117L1117.8 76.1253L1112.35 73.1358L1110.01 74.6305L1107.23 74.8441L1107.34 78.6877L1098.79 77.7268L1098.15 81.0366H1093.88L1091.42 85.2005L1087.79 91.7134L1081.7 100.148L1083.63 102.283L1082.24 104.632L1077.65 104.526L1075.08 110.291L1076.15 118.512L1079.46 121.608L1078.61 128.975L1074.98 133.246L1073.05 136.876L1069.53 133.033L1060.35 140.293L1053.83 141.787L1046.89 138.584L1044.97 131.858L1042.83 117.444L1047.1 113.494L1059.17 108.262L1067.82 101.963L1075.51 93.6352L1085.02 82.211L1091.85 77.8336L1102.85 70.5733L1111.93 68.0109L1119.08 68.3312L1124.64 63.6334L1132.54 63.847L1140.01 62.7793L1154.64 66.9432L1149.41 68.438L1155.18 72.0681Z" fill="#1C1C1C" stroke="#6A6A6A" stroke-width="0.2" stroke-linecap="round" stroke-linejoin="round"/>
<path d="M1115.56 26.9055L1107.44 28.9341L1100.18 27.7597L1102.53 26.4784L1099.75 24.8769L1107.55 23.916L1109.58 25.7311L1115.56 26.9055Z" fill="#1C1C1C" stroke="#6A6A6A" stroke-width="0.2" stroke-linecap="round" stroke-linejoin="round"/>
<path d="M1088.22 17.83L1101.68 21.4601L1092.49 23.382L1091.21 27.0121L1088.01 27.973L1087.04 32.2437L1082.35 32.4572L1073.27 29.361L1076.47 27.5459L1070.38 26.0512L1062.16 21.8872L1058.74 18.1503L1068.68 16.4421L1071.13 18.0436H1076.47L1077.54 16.4421L1083.09 16.2285L1088.22 17.83Z" fill="#1C1C1C" stroke="#6A6A6A" stroke-width="0.2" stroke-linecap="round" stroke-linejoin="round"/>
<path d="M1114.28 14.6276L1122.18 16.2291L1117.48 18.7915L1106.7 19.3254L1095.27 18.4712L1094.2 17.19H1088.75L1084.16 15.0546L1095.38 13.7734L1101.14 14.8411L1104.45 13.4531L1114.28 14.6276Z" fill="#1C1C1C" stroke="#6A6A6A" stroke-width="0.2" stroke-linecap="round" stroke-linejoin="round"/>
<path d="M1119.08 165.277L1125.38 166.024L1134.78 165.917L1137.45 166.665L1138.95 168.693L1139.59 171.576L1141.4 174.032L1141.83 176.594L1138.84 177.982L1140.87 180.971L1141.4 183.961L1144.82 189.726L1144.5 191.541L1142.04 192.289L1137.99 197.841L1139.69 200.83L1138.52 200.403L1133.18 197.841L1129.44 198.802L1126.88 198.161L1123.89 199.549L1121 197.2L1118.98 198.161L1118.66 197.734L1115.88 194.424L1111.93 194.104L1111.18 191.969L1107.55 191.221L1106.91 192.929L1103.92 191.541L1104.13 189.726L1100.18 189.193L1097.51 187.057L1094.95 182.893L1095.16 180.544L1093.56 177.021L1091.53 174.779L1092.81 172.964L1091.32 169.654L1094.63 167.732L1102.21 164.743L1108.4 162.607L1113.53 163.675L1114.17 165.277H1119.08V165.277Z" fill="#1C1C1C" stroke="#6A6A6A" stroke-width="0.2" stroke-linecap="round" stroke-linejoin="round"/>
<path d="M1127.95 92.8882L1120.47 94.5964L1116.73 98.7604L1118.12 102.497L1111.5 107.302L1103.17 112.64L1100.93 121.288L1104.88 125.666L1110.01 129.189L1106.48 136.236L1101.57 137.731L1100.93 148.407L1098.69 154.493L1092.6 153.853L1090.25 158.977L1084.37 159.298L1082.35 153.212L1077.54 145.845L1073.05 136.876L1074.98 133.246L1078.61 128.976L1079.46 121.609L1076.15 118.512L1075.08 110.291L1077.65 104.526L1082.24 104.633L1083.63 102.284L1081.7 100.148L1087.79 91.7137L1091.42 85.2009L1093.88 81.0369H1098.15L1098.79 77.7271L1107.34 78.688L1107.23 74.8444L1110.01 74.6309L1116.41 77.5136L1124.1 81.464L1126.02 90.5393L1127.95 92.8882V92.8882Z" fill="#1C1C1C" stroke="#6A6A6A" stroke-width="0.2" stroke-linecap="round" stroke-linejoin="round"/>
<path d="M1201.63 186.417L1204.09 189.299L1204.2 190.581L1211.35 192.929L1215.2 191.862L1219.04 194.958L1222.14 194.851L1230.36 196.987L1230.79 199.015L1229.4 202.432L1231.32 206.169L1231 208.411L1225.88 208.838L1223.53 210.76L1223.95 213.642L1219.79 214.176L1216.59 216.418L1211.67 216.739L1207.4 219.301L1208.47 223.465L1211.46 225.067L1216.91 224.639L1216.27 227.095L1210.5 228.27L1203.77 232.113L1200.46 230.725L1201.21 227.629L1194.91 225.6L1195.65 224.319L1200.57 222.077L1198.75 220.582L1190.1 218.874L1189.25 216.312L1184.44 217.166L1183.05 220.903L1179.53 225.814L1176.96 224.639L1174.51 225.814L1171.95 224.533L1173.23 223.785L1173.87 221.543L1175.04 219.301L1174.4 218.127L1175.47 217.593L1176.11 218.554L1179.31 218.767L1180.7 218.233L1179.63 217.593L1179.85 216.525L1177.71 214.817L1176.54 212.041L1174.4 210.973L1174.51 208.731L1171.73 206.916L1169.6 206.596L1165.32 204.567L1161.91 205.208L1160.73 206.169H1158.49L1157.42 207.77L1153.58 208.411L1151.87 209.478L1149.2 207.77H1145.78L1142.36 207.023L1140.23 208.518L1139.69 206.703L1136.49 204.887L1137.24 202.218L1138.52 200.403L1139.69 200.83L1137.99 197.841L1142.04 192.289L1144.5 191.541L1144.82 189.726L1141.4 183.961L1143.86 183.641L1146.42 181.932L1150.48 181.719L1155.71 182.253L1161.8 183.854L1165.97 183.961L1167.99 184.922L1169.81 183.747L1171.41 185.349L1176 185.029L1178.25 185.669L1177.93 182.359L1179.31 180.865L1183.69 180.544L1185.62 180.758L1186.68 179.263L1188.29 179.583L1193.52 178.943L1197.58 182.68L1196.62 184.068L1197.47 186.096L1201.63 186.417V186.417Z" fill="#1C1C1C" stroke="#6A6A6A" stroke-width="0.2" stroke-linecap="round" stroke-linejoin="round"/>
<path d="M1051.38 189.086L1048.39 187.484L1045.08 184.601L1040.27 185.989L1036.43 185.455L1039.1 183.64L1043.37 174.031L1050.31 171.255L1054.58 171.469L1055.54 173.711L1054.58 179.69L1053.3 182.146H1050.2L1051.38 189.086V189.086Z" fill="#1C1C1C" stroke="#6A6A6A" stroke-width="0.2" stroke-linecap="round" stroke-linejoin="round"/>
<path d="M1770.1 189.406L1784.73 201.151L1775.22 199.015L1779.17 208.624L1789.43 215.457L1792.63 220.155L1785.69 216.098L1785.79 221.33L1780.77 215.671L1776.72 209.158L1770.74 202.005L1768.17 196.88L1761.34 188.125L1752.8 181.612L1745.53 172.644L1747.56 169.654L1742.86 166.665L1744.25 165.704L1749.48 169.974L1756.85 176.274L1762.41 182.786L1770.1 189.406Z" fill="#1C1C1C" stroke="#6A6A6A" stroke-width="0.2" stroke-linecap="round" stroke-linejoin="round"/>
<path d="M1134.78 165.917L1125.38 166.024L1119.08 165.277L1119.83 162.501L1126.56 160.365L1132 161.54L1134.35 162.501L1134.14 164.316L1134.78 165.917Z" fill="#1C1C1C" stroke="#6A6A6A" stroke-width="0.2" stroke-linecap="round" stroke-linejoin="round"/>
<path d="M1619.41 51.4618L1613.11 51.5686L1603.61 50.928L1602.54 50.6077L1603.28 48.4723L1607.77 47.9385L1616.74 50.0738L1619.41 51.4618Z" fill="#1C1C1C" stroke="#6A6A6A" stroke-width="0.2" stroke-linecap="round" stroke-linejoin="round"/>
<path d="M1632.87 41.3189L1631.69 43.4543L1624.32 43.0272L1613.32 40.8919L1611.4 39.1836L1620.26 39.931L1632.87 41.3189Z" fill="#1C1C1C" stroke="#6A6A6A" stroke-width="0.2" stroke-linecap="round" stroke-linejoin="round"/>
<path d="M1605.63 38.7566L1608.95 42.8138L1593.67 42.6002L1588.76 43.8814L1575.41 40.3581L1571.78 36.728L1575.52 35.7671L1586.41 35.9806L1605.63 38.7566Z" fill="#1C1C1C" stroke="#6A6A6A" stroke-width="0.2" stroke-linecap="round" stroke-linejoin="round"/>
<path d="M1267.42 65.4489L1265.07 65.876L1250.65 65.1286L1248.2 62.6729L1239.76 61.1782L1237.62 58.0819L1241.36 56.9075L1239.65 53.918L1245.42 49.2202L1241.15 48.5796L1248.3 43.775L1245.63 41.3194L1252.9 38.5434L1263.9 35.1269L1276.39 34.1659L1281.73 32.2441L1288.89 31.6035L1293.37 33.6321L1291.98 35.2336L1279.81 37.9028L1269.24 40.3585L1259.94 45.4833L1256.95 50.8217L1253.43 56.1601L1256.74 60.7511L1267.42 65.4489Z" fill="#1C1C1C" stroke="#6A6A6A" stroke-width="0.2" stroke-linecap="round" stroke-linejoin="round"/>
<g filter="url(#filter2_d_2027_930)">
<path d="M1740.41 246.634L1738.91 245.459L1736.88 241.936L1739.55 241.829L1735.39 233.821L1730.37 228.056L1733.47 225.707L1740.84 226.882L1740.19 220.262L1737.2 213.002L1737.52 210.546L1736.14 204.46L1728.77 206.489L1725.99 209.051H1717.87L1711.47 202.859L1701.86 198.054L1691.18 195.919L1684.56 189.513L1679.75 185.456L1675.69 182.573L1667.47 175.953L1661.06 173.604L1651.88 171.576L1645.26 171.789L1639.81 172.964L1637.99 176.274L1641.94 177.768L1644.61 181.398L1643.23 183.534L1643.44 190.474L1645.47 193.463L1640.77 197.627L1632.87 195.065L1626.89 195.705L1622.72 193.463L1619.09 192.716L1614.39 197.414L1608.09 198.481L1604.25 200.19L1596.98 199.122H1592.07L1586.84 195.705L1579.79 192.609L1574.02 191.648L1567.94 192.502L1563.66 193.784L1554.59 191.008L1550.74 186.096L1543.59 184.388L1538.46 183.534L1530.99 180.865L1529.6 187.698L1533.87 191.541L1531.31 196.239L1522.76 194.531L1517.42 194.317L1512.3 191.221L1506.74 191.114L1501.08 189.086L1494.78 192.182L1487.63 197.841L1482.61 199.015L1480.79 199.549L1476.09 195.492L1469.69 196.453L1466.16 193.57L1461.89 192.289L1457.51 188.445L1453.99 187.271L1447.37 188.979L1438.4 185.242L1437.22 188.659L1417.68 172.003L1408.71 166.985L1409.56 164.849L1399.74 171.042L1395.04 171.362L1393.86 167.839L1386.28 165.597L1381.69 167.198L1376.99 160.472L1367.27 159.084L1363.96 161.753L1352.32 164.209L1350.51 165.81L1332.35 168.052L1330.86 170.295L1336.3 174.779L1332.03 176.487L1333.63 178.195L1329.89 181.398L1339.93 185.989L1339.72 189.086L1332.24 188.765L1331.39 190.794L1323.59 187.377L1315.37 187.484L1310.67 190.26L1303.62 187.591L1290.81 183L1282.69 183.214L1274.04 190.367L1274.68 195.171L1268.27 191.328L1265.92 198.695L1267.85 199.976L1266.03 205.101L1271.69 209.585L1275.54 209.372L1280.13 213.856L1280.34 217.272L1283.33 218.447L1281.84 222.397L1276.92 223.465L1273.08 230.405L1279.49 236.918L1279.91 241.402L1287.71 249.41L1285.04 252.185L1284.4 253.894L1281.84 253.36L1277.24 249.303L1275.64 249.089L1271.8 247.488L1269.56 244.712L1264.11 243.324L1261.01 244.391L1259.73 243.11L1251.61 239.8L1243.39 238.733L1238.48 237.558L1238.05 238.412L1229.94 232.647L1223.31 230.085L1217.87 226.134L1221.71 225.066L1225.13 219.515L1221.61 216.845L1228.97 214.069L1228.55 212.575L1223.95 213.642L1223.53 210.76L1225.88 208.838L1231 208.411L1231.32 206.169L1229.4 202.432L1230.79 199.015L1230.36 196.987L1222.14 194.851L1219.04 194.958L1215.2 191.862L1211.35 192.929L1204.2 190.58L1204.09 189.299L1201.64 186.417L1197.47 186.096L1196.62 184.068L1197.58 182.68L1193.52 178.943L1188.29 179.583L1186.68 179.263L1185.62 180.758L1183.69 180.544L1181.56 176.274L1179.96 174.138L1180.81 173.498L1184.98 173.711L1186.68 172.323L1184.87 170.615L1181.24 169.44V168.266L1178.99 167.092L1174.94 162.821L1175.68 161.113L1174.51 158.016L1169.38 156.522L1166.82 157.269L1165.86 155.667L1160.2 154.066L1157.96 150.222L1156.89 147.126L1154.22 145.738L1155.93 143.709L1153.36 137.73L1156.14 134.1L1155.18 133.033L1159.99 129.509L1154.22 126.52L1162.76 118.619L1166.39 114.989L1167.35 111.893L1159.45 107.729L1160.41 103.671L1155.18 99.1872L1157 94.0624L1150.05 87.336L1153.15 82.8518L1145.35 78.9014L1144.93 74.8442L1148.35 74.3103L1155.18 72.0682L1159.13 70.0396L1167.35 73.4562L1179.85 74.8442L1198.75 81.4638L1203.13 84.2398L1204.73 88.1902L1200.78 91.2864L1193.84 92.8879L1172.27 88.4037L1169.17 89.1511L1177.82 93.5286L1178.89 96.3045L1180.92 102.497L1187.43 104.312L1191.49 105.914L1191.28 102.924L1187.65 100.362L1189.89 98.0128L1202.28 101.856L1205.69 100.362L1201.1 95.8774L1209.75 90.112L1214.13 90.4323L1219.04 92.4609L1220.22 88.4037L1215.2 84.8804L1216.05 81.357L1211.46 77.7269L1224.6 79.6487L1228.44 82.8518L1222.99 83.5992L1224.28 86.909L1228.65 88.9375L1235.06 87.6563L1234.63 83.9195L1242.86 81.0367L1256.1 76.1254L1259.52 76.3389L1256.85 79.8623L1262.61 80.5029L1264.86 78.4743L1273.08 78.3675L1278.42 75.9119L1285.25 79.4352L1288.24 75.5916L1281.84 72.2818L1283.12 70.3599L1297 72.0682L1304.05 73.8833L1323.91 80.5029L1325.09 77.5134L1318.79 74.4171L1317.93 73.2427L1312.27 72.6021L1312.06 69.9329L1307.04 65.4486L1305.87 63.6336L1310.46 58.6155L1309.82 53.4906L1312.17 52.423L1324.34 53.9177L1327.44 57.014L1326.48 61.4982L1330.43 63.3133L1334.49 67.2637L1338.54 75.1645L1345.7 78.6878L1346.23 82.6382L1342.5 90.9661L1348.16 91.8203L1348.69 89.6849L1352.75 88.1902L1352.21 85.3074L1354.24 82.4247L1349.54 79.1149L1349.12 75.2713L1343.99 74.8442L1340.89 71.6412L1340.47 65.8757L1331.71 61.2847L1336.73 57.5478L1332.78 53.5974L1334.81 53.4906L1339.29 56.4801L1341.53 61.9253L1346.87 62.993L1341.96 58.9358L1347.41 56.6937L1356.06 56.3734L1366.31 59.5764L1358.94 54.9854L1353.71 49.1132L1360.01 48.0455L1370.16 48.259L1378.49 47.5116L1372.5 44.7357L1373.89 41.2123L1378.38 40.9988L1383.61 38.4364L1393.54 37.689L1393.33 36.1943L1403.26 35.7672L1407.85 36.9416L1413.62 34.1657L1421.1 34.2724L1419.49 31.9235L1420.45 29.7882L1427.08 27.6528L1435.94 29.3611L1432.2 30.6423L1442.24 31.3897L1446.62 33.9521L1448.65 32.6709L1460.29 32.7777L1472.68 35.3401L1478.55 37.2619L1481.22 40.0379L1478.66 41.6394L1471.61 44.6289L1470.43 46.2304L1476.41 46.9778L1484.1 48.3658L1486.67 47.2981L1492.86 50.8214L1493.07 49.4335L1498.63 48.5793L1513.15 49.4335L1517.21 51.9959L1535.79 52.85L1530.67 48.6861L1540.81 49.647L1547.33 49.5402L1557.9 52.423L1564.31 55.9463L1564.73 58.2952L1575.52 62.7794L1585.13 65.0216L1581.93 59.1493L1591.97 61.605L1597.3 60.1102L1607.77 61.8185L1608.84 60.3238L1616.95 61.0712L1606.92 55.8395L1609.16 53.4906L1652.3 57.1207L1660.74 60.4305L1678.15 64.7012L1693.95 63.6336L1703.88 64.5945L1710.93 66.9434L1716.38 71.1073L1724.18 72.7088L1728.34 71.5344L1735.82 71.4276L1745.75 72.4953L1753.12 71.8547L1768.39 76.9795L1771.06 75.1645L1761.98 71.5344L1760.06 68.972L1776.4 70.5735L1784.94 70.2532L1801.81 72.9224L1811.96 75.4848L1847.42 99.0805L1845.28 101.75L1838.66 101.323L1847.42 104.526L1857.13 109.544L1861.62 111.145L1865.68 113.708L1866.74 115.309L1856.07 114.028L1849.02 118.619L1845.81 119.366L1844.1 123.744L1841.97 127.587L1843.78 130.47L1831.5 126.093L1824.99 131.004L1819.97 128.655L1818.47 131.431L1811 130.47L1814.31 134.634L1815.48 140.827L1818.58 143.389L1825.84 144.777L1835.56 154.066L1831.18 154.386L1834.81 159.725L1839.83 162.501L1834.49 165.81L1840.26 173.284L1834.17 174.886L1838.98 181.505L1837.16 187.698L1831.08 183.107L1819.86 173.604L1802.56 159.084L1795.62 150.222L1795.73 146.379L1792.74 143.389L1798.82 142.001L1798.61 133.994L1799.36 127.587L1802.03 122.569L1794.98 113.814L1789.96 114.348L1793.38 119.473L1789.53 126.306L1776.4 118.619L1766.68 120.754V131.218L1774.9 135.061L1765.82 136.77L1758.99 137.41L1754.4 132.819L1745.85 131.858L1743.18 134.954L1727.06 133.887L1712.96 135.702L1709.22 148.194L1703.88 163.355L1712.64 164.209L1718.73 168.266L1724.92 169.654L1725.35 166.451L1731.33 166.878L1745 174.031L1750.02 179.583L1751.51 186.203L1757.39 194.104L1763.05 204.674L1761.98 214.39L1763.37 218.981L1761.23 226.882L1758.99 234.676L1758.03 238.626L1753.12 242.576L1749.81 242.683L1744.25 239.373L1739.87 244.391L1740.41 246.634Z" fill="#1C1C1C"/>
<path d="M1740.41 246.634L1738.91 245.459L1736.88 241.936L1739.55 241.829L1735.39 233.821L1730.37 228.056L1733.47 225.707L1740.84 226.882L1740.19 220.262L1737.2 213.002L1737.52 210.546L1736.14 204.46L1728.77 206.489L1725.99 209.051H1717.87L1711.47 202.859L1701.86 198.054L1691.18 195.919L1684.56 189.513L1679.75 185.456L1675.69 182.573L1667.47 175.953L1661.06 173.604L1651.88 171.576L1645.26 171.789L1639.81 172.964L1637.99 176.274L1641.94 177.768L1644.61 181.398L1643.23 183.534L1643.44 190.474L1645.47 193.463L1640.77 197.627L1632.87 195.065L1626.89 195.705L1622.72 193.463L1619.09 192.716L1614.39 197.414L1608.09 198.481L1604.25 200.19L1596.98 199.122H1592.07L1586.84 195.705L1579.79 192.609L1574.02 191.648L1567.94 192.502L1563.66 193.784L1554.59 191.008L1550.74 186.096L1543.59 184.388L1538.46 183.534L1530.99 180.865L1529.6 187.698L1533.87 191.541L1531.31 196.239L1522.76 194.531L1517.42 194.317L1512.3 191.221L1506.74 191.114L1501.08 189.086L1494.78 192.182L1487.63 197.841L1482.61 199.015L1480.79 199.549L1476.09 195.492L1469.69 196.453L1466.16 193.57L1461.89 192.289L1457.51 188.445L1453.99 187.271L1447.37 188.979L1438.4 185.242L1437.22 188.659L1417.68 172.003L1408.71 166.985L1409.56 164.849L1399.74 171.042L1395.04 171.362L1393.86 167.839L1386.28 165.597L1381.69 167.198L1376.99 160.472L1367.27 159.084L1363.96 161.753L1352.32 164.209L1350.51 165.81L1332.35 168.052L1330.86 170.295L1336.3 174.779L1332.03 176.487L1333.63 178.195L1329.89 181.398L1339.93 185.989L1339.72 189.086L1332.24 188.765L1331.39 190.794L1323.59 187.377L1315.37 187.484L1310.67 190.26L1303.62 187.591L1290.81 183L1282.69 183.214L1274.04 190.367L1274.68 195.171L1268.27 191.328L1265.92 198.695L1267.85 199.976L1266.03 205.101L1271.69 209.585L1275.54 209.372L1280.13 213.856L1280.34 217.272L1283.33 218.447L1281.84 222.397L1276.92 223.465L1273.08 230.405L1279.49 236.918L1279.91 241.402L1287.71 249.41L1285.04 252.185L1284.4 253.894L1281.84 253.36L1277.24 249.303L1275.64 249.089L1271.8 247.488L1269.56 244.712L1264.11 243.324L1261.01 244.391L1259.73 243.11L1251.61 239.8L1243.39 238.733L1238.48 237.558L1238.05 238.412L1229.94 232.647L1223.31 230.085L1217.87 226.134L1221.71 225.066L1225.13 219.515L1221.61 216.845L1228.97 214.069L1228.55 212.575L1223.95 213.642L1223.53 210.76L1225.88 208.838L1231 208.411L1231.32 206.169L1229.4 202.432L1230.79 199.015L1230.36 196.987L1222.14 194.851L1219.04 194.958L1215.2 191.862L1211.35 192.929L1204.2 190.58L1204.09 189.299L1201.64 186.417L1197.47 186.096L1196.62 184.068L1197.58 182.68L1193.52 178.943L1188.29 179.583L1186.68 179.263L1185.62 180.758L1183.69 180.544L1181.56 176.274L1179.96 174.138L1180.81 173.498L1184.98 173.711L1186.68 172.323L1184.87 170.615L1181.24 169.44V168.266L1178.99 167.092L1174.94 162.821L1175.68 161.113L1174.51 158.016L1169.38 156.522L1166.82 157.269L1165.86 155.667L1160.2 154.066L1157.96 150.222L1156.89 147.126L1154.22 145.738L1155.93 143.709L1153.36 137.73L1156.14 134.1L1155.18 133.033L1159.99 129.509L1154.22 126.52L1162.76 118.619L1166.39 114.989L1167.35 111.893L1159.45 107.729L1160.41 103.671L1155.18 99.1872L1157 94.0624L1150.05 87.336L1153.15 82.8518L1145.35 78.9014L1144.93 74.8442L1148.35 74.3103L1155.18 72.0682L1159.13 70.0396L1167.35 73.4562L1179.85 74.8442L1198.75 81.4638L1203.13 84.2398L1204.73 88.1902L1200.78 91.2864L1193.84 92.8879L1172.27 88.4037L1169.17 89.1511L1177.82 93.5286L1178.89 96.3045L1180.92 102.497L1187.43 104.312L1191.49 105.914L1191.28 102.924L1187.65 100.362L1189.89 98.0128L1202.28 101.856L1205.69 100.362L1201.1 95.8774L1209.75 90.112L1214.13 90.4323L1219.04 92.4609L1220.22 88.4037L1215.2 84.8804L1216.05 81.357L1211.46 77.7269L1224.6 79.6487L1228.44 82.8518L1222.99 83.5992L1224.28 86.909L1228.65 88.9375L1235.06 87.6563L1234.63 83.9195L1242.86 81.0367L1256.1 76.1254L1259.52 76.3389L1256.85 79.8623L1262.61 80.5029L1264.86 78.4743L1273.08 78.3675L1278.42 75.9119L1285.25 79.4352L1288.24 75.5916L1281.84 72.2818L1283.12 70.3599L1297 72.0682L1304.05 73.8833L1323.91 80.5029L1325.09 77.5134L1318.79 74.4171L1317.93 73.2427L1312.27 72.6021L1312.06 69.9329L1307.04 65.4486L1305.87 63.6336L1310.46 58.6155L1309.82 53.4906L1312.17 52.423L1324.34 53.9177L1327.44 57.014L1326.48 61.4982L1330.43 63.3133L1334.49 67.2637L1338.54 75.1645L1345.7 78.6878L1346.23 82.6382L1342.5 90.9661L1348.16 91.8203L1348.69 89.6849L1352.75 88.1902L1352.21 85.3074L1354.24 82.4247L1349.54 79.1149L1349.12 75.2713L1343.99 74.8442L1340.89 71.6412L1340.47 65.8757L1331.71 61.2847L1336.73 57.5478L1332.78 53.5974L1334.81 53.4906L1339.29 56.4801L1341.53 61.9253L1346.87 62.993L1341.96 58.9358L1347.41 56.6937L1356.06 56.3734L1366.31 59.5764L1358.94 54.9854L1353.71 49.1132L1360.01 48.0455L1370.16 48.259L1378.49 47.5116L1372.5 44.7357L1373.89 41.2123L1378.38 40.9988L1383.61 38.4364L1393.54 37.689L1393.33 36.1943L1403.26 35.7672L1407.85 36.9416L1413.62 34.1657L1421.1 34.2724L1419.49 31.9235L1420.45 29.7882L1427.08 27.6528L1435.94 29.3611L1432.2 30.6423L1442.24 31.3897L1446.62 33.9521L1448.65 32.6709L1460.29 32.7777L1472.68 35.3401L1478.55 37.2619L1481.22 40.0379L1478.66 41.6394L1471.61 44.6289L1470.43 46.2304L1476.41 46.9778L1484.1 48.3658L1486.67 47.2981L1492.86 50.8214L1493.07 49.4335L1498.63 48.5793L1513.15 49.4335L1517.21 51.9959L1535.79 52.85L1530.67 48.6861L1540.81 49.647L1547.33 49.5402L1557.9 52.423L1564.31 55.9463L1564.73 58.2952L1575.52 62.7794L1585.13 65.0216L1581.93 59.1493L1591.97 61.605L1597.3 60.1102L1607.77 61.8185L1608.84 60.3238L1616.95 61.0712L1606.92 55.8395L1609.16 53.4906L1652.3 57.1207L1660.74 60.4305L1678.15 64.7012L1693.95 63.6336L1703.88 64.5945L1710.93 66.9434L1716.38 71.1073L1724.18 72.7088L1728.34 71.5344L1735.82 71.4276L1745.75 72.4953L1753.12 71.8547L1768.39 76.9795L1771.06 75.1645L1761.98 71.5344L1760.06 68.972L1776.4 70.5735L1784.94 70.2532L1801.81 72.9224L1811.96 75.4848L1847.42 99.0805L1845.28 101.75L1838.66 101.323L1847.42 104.526L1857.13 109.544L1861.62 111.145L1865.68 113.708L1866.74 115.309L1856.07 114.028L1849.02 118.619L1845.81 119.366L1844.1 123.744L1841.97 127.587L1843.78 130.47L1831.5 126.093L1824.99 131.004L1819.97 128.655L1818.47 131.431L1811 130.47L1814.31 134.634L1815.48 140.827L1818.58 143.389L1825.84 144.777L1835.56 154.066L1831.18 154.386L1834.81 159.725L1839.83 162.501L1834.49 165.81L1840.26 173.284L1834.17 174.886L1838.98 181.505L1837.16 187.698L1831.08 183.107L1819.86 173.604L1802.56 159.084L1795.62 150.222L1795.73 146.379L1792.74 143.389L1798.82 142.001L1798.61 133.994L1799.36 127.587L1802.03 122.569L1794.98 113.814L1789.96 114.348L1793.38 119.473L1789.53 126.306L1776.4 118.619L1766.68 120.754V131.218L1774.9 135.061L1765.82 136.77L1758.99 137.41L1754.4 132.819L1745.85 131.858L1743.18 134.954L1727.06 133.887L1712.96 135.702L1709.22 148.194L1703.88 163.355L1712.64 164.209L1718.73 168.266L1724.92 169.654L1725.35 166.451L1731.33 166.878L1745 174.031L1750.02 179.583L1751.51 186.203L1757.39 194.104L1763.05 204.674L1761.98 214.39L1763.37 218.981L1761.23 226.882L1758.99 234.676L1758.03 238.626L1753.12 242.576L1749.81 242.683L1744.25 239.373L1739.87 244.391L1740.41 246.634Z" stroke="#6A6A6A" stroke-width="0.2" stroke-linecap="round" stroke-linejoin="round"/>
</g>
<path d="M1425.79 24.6634L1406.46 26.5852L1405.08 20.0724L1407.43 19.5386L1410.74 19.8589L1424.19 22.6348L1425.79 24.6634Z" fill="#1C1C1C" stroke="#6A6A6A" stroke-width="0.2" stroke-linecap="round" stroke-linejoin="round"/>
<path d="M1209.75 13.9866L1205.16 14.5204L1202.06 14.9475V15.6949L1198.22 16.4423L1193.41 15.3746L1194.59 13.8798L1186.26 13.7731L1192.98 12.9189H1198.54L1200.14 14.0934L1201.53 13.0257L1204.52 12.2783L1210.71 13.2392L1209.75 13.9866Z" fill="#1C1C1C" stroke="#6A6A6A" stroke-width="0.2" stroke-linecap="round" stroke-linejoin="round"/>
<path d="M1402.3 21.7809L1394.72 22.4215L1382.22 21.0336L1373.57 19.2185L1366.52 15.8019L1360.22 14.9478L1365.99 11.8515L1372.61 10.8906L1382.86 13.026L1397.49 17.5102L1402.3 21.7809Z" fill="#1C1C1C" stroke="#6A6A6A" stroke-width="0.2" stroke-linecap="round" stroke-linejoin="round"/>
<path d="M1049.13 197.52L1050.31 198.054L1051.8 197.947L1054.37 199.656L1062.06 200.937L1059.49 205.421L1059.07 210.226L1057.68 211.4L1055.22 210.76L1055.43 212.468L1051.59 216.205V219.301L1054.15 218.233L1056.07 221.116L1055.97 223.038L1057.57 225.6L1055.75 227.629L1057.36 232.861L1060.35 233.715L1059.81 236.597L1055.01 240.441L1044.11 238.626L1036.21 240.868L1035.57 244.925L1029.27 245.779L1023.08 242.683L1021.05 244.178L1010.9 241.082L1008.77 238.519L1011.65 234.462L1012.72 221.009L1007.27 213.963L1003.32 210.546L995.203 207.984L994.775 203.072L1001.72 201.684L1010.58 203.393L1008.98 195.812L1014 198.695L1026.17 193.57L1027.77 188.125L1032.26 186.737L1033.11 189.086L1035.46 189.192L1038.03 191.862L1041.76 194.958L1044.43 194.424L1049.13 197.52Z" fill="#1C1C1C" stroke="#6A6A6A" stroke-width="0.2" stroke-linecap="round" stroke-linejoin="round"/>
<path d="M259.502 147.98L252.026 150.436L251.172 148.728L253.628 145.738L260.463 143.496L264.201 142.535L266.977 142.962V144.991L259.502 147.98Z" fill="#1C1C1C" stroke="#6A6A6A" stroke-width="0.2" stroke-linecap="round" stroke-linejoin="round"/>
<path d="M217.853 130.257L213.688 131.218L211.873 130.043L211.019 128.335L217.106 127.267L220.31 127.908L217.853 130.257Z" fill="#1C1C1C" stroke="#6A6A6A" stroke-width="0.2" stroke-linecap="round" stroke-linejoin="round"/>
<path d="M219.135 106.341L220.416 107.408L224.154 106.875L225.863 108.476L229.387 109.224L228.105 109.971L222.873 111.252L221.057 109.864L220.737 108.796L216.145 109.117L215.824 108.583L219.135 106.341Z" fill="#1C1C1C" stroke="#6A6A6A" stroke-width="0.2" stroke-linecap="round" stroke-linejoin="round"/>
<path d="M403.674 71.1072L377.403 92.8878L339.385 127.801L343.87 128.014L346.86 129.723L347.394 132.499L347.715 136.556L355.831 133.032L362.772 131.004L362.132 134.314L362.986 136.876L364.695 139.759L363.52 144.243L362.025 151.61L366.937 155.667L363.52 159.724L358.073 162.821L357.433 160.472L354.763 158.336L358.287 152.785L356.578 147.553L359.462 141.574L355.083 141.147L347.501 141.04L343.443 139.118L339.919 132.605L336.394 131.431L330.307 129.189L323.045 129.723L316.638 126.84L313.754 124.171L307.026 125.452L303.288 129.829L300.191 130.257L293.143 131.538L286.522 133.673L279.687 135.061L283.104 131.324L292.075 125.132L299.337 123.21L299.764 121.715L289.726 125.132L281.823 129.296L269.862 133.78L270.076 136.876L260.464 141.36L252.241 144.03L245.193 146.058L240.921 148.834L229.601 152.144L224.795 155.133L216.038 157.909L213.155 157.482L206.534 159.191L199.058 161.433L192.544 163.568L181.864 165.49L182.291 164.315L191.048 161.326L198.097 159.297L207.281 155.774L214.223 155.133L219.562 152.464L230.669 148.621L233.125 147.339L239.212 145.097L245.406 140.293L252.028 136.556L244.232 138.478L243.911 137.303L238.678 139.652L239.106 136.449L235.261 138.691L236.97 135.595L229.174 138.051H226.184L230.135 134.314L233.659 131.965L233.232 129.723L225.543 131.004L224.902 128.014L223.514 126.52L227.785 122.996L227.358 120.327L233.659 116.804L241.882 113.28L247.542 110.184L251.921 109.757L253.843 110.718L261.425 107.729L264.095 108.262L270.076 106.341L272.745 103.565L271.571 102.497L277.978 100.148L274.988 100.255L268.367 101.536L265.27 102.924L263.348 101.536L255.979 102.283L251.066 100.789L252.348 98.3329L251.28 94.9164L261.105 92.3539L275.202 89.4712H278.94L274.347 92.4607L284.172 92.2472L285.454 88.5103L282.998 86.2682L283.852 83.2787L283.104 80.823L279.58 79.008L286.522 75.9117L294.531 75.6982L303.929 73.1357L309.055 70.3598L317.492 67.5838L322.618 66.9432L334.579 64.3808L337.89 64.8079L348.996 61.8184L353.695 62.9928L353.161 65.5552L356.685 64.4876L363.413 64.8079L361.384 66.0891L366.617 67.05L371.85 66.5161L378.471 68.2244L386.16 68.865L388.51 69.5056L395.558 68.6515L399.937 70.3598L403.674 71.1072Z" fill="#1C1C1C" stroke="#6A6A6A" stroke-width="0.2" stroke-linecap="round" stroke-linejoin="round"/>
<path d="M986.34 119.58L986.767 119.794H987.087L987.194 120.007V120.434L987.407 120.755L987.3 120.968L986.66 120.541L986.446 120.114L986.233 119.9L986.02 119.58H986.34Z" fill="#1C1C1C" stroke="#6A6A6A" stroke-width="0.2" stroke-linecap="round" stroke-linejoin="round"/>
<path d="M986.66 117.871L987.514 118.085L987.727 118.298L987.621 118.726L987.514 118.832L987.087 118.298L986.553 118.192L986.34 117.765L986.66 117.871Z" fill="#1C1C1C" stroke="#6A6A6A" stroke-width="0.2" stroke-linecap="round" stroke-linejoin="round"/>
<path d="M985.291 116.42L985.377 116.591H985.697V116.911H985.27L985.056 117.125L984.415 116.911L984.202 116.804L983.988 116.484L984.522 116.377L984.629 116.27L985.224 116.37L984.949 116.164L985.163 115.31L985.697 115.416L986.017 115.95V116.057L986.658 116.27L986.978 116.804L987.299 117.018L987.192 117.658L986.658 117.231L986.445 117.018L986.231 116.911L986.124 116.698L985.911 116.484H985.377L985.291 116.42Z" fill="#1C1C1C" stroke="#6A6A6A" stroke-width="0.2" stroke-linecap="round" stroke-linejoin="round"/>
<path d="M989.222 115.739L989.008 115.524L989.33 115.31L989.222 115.739Z" fill="#1C1C1C" stroke="#6A6A6A" stroke-width="0.2" stroke-linecap="round" stroke-linejoin="round"/>
<path d="M986.659 116.27L986.232 116.056L985.912 115.736L985.805 115.416L985.912 115.309L986.339 115.202H986.659L987.3 115.629L987.193 115.843L987.3 116.056L987.941 116.27V116.483L987.513 116.804L986.659 116.27Z" fill="#1C1C1C" stroke="#6A6A6A" stroke-width="0.2" stroke-linecap="round" stroke-linejoin="round"/>
<path d="M989.007 115.629L988.687 116.056L988.367 115.843H988.047L988.26 115.523L988.154 115.096L988.26 114.989L988.474 115.416L989.007 115.629Z" fill="#1C1C1C" stroke="#6A6A6A" stroke-width="0.2" stroke-linecap="round" stroke-linejoin="round"/>
<path d="M988.048 115.63H987.835L987.621 115.203L987.728 114.882L987.941 115.309L988.048 115.63Z" fill="#1C1C1C" stroke="#6A6A6A" stroke-width="0.2" stroke-linecap="round" stroke-linejoin="round"/>
</g>
<defs>
<filter id="filter0_d_2027_930" x="289.284" y="12.5151" width="494.054" height="289.606" filterUnits="userSpaceOnUse" color-interpolation-filters="sRGB">
<feFlood flood-opacity="0" result="BackgroundImageFix"/>
<feColorMatrix in="SourceAlpha" type="matrix" values="0 0 0 0 0 0 0 0 0 0 0 0 0 0 0 0 0 0 127 0" result="hardAlpha"/>
<feOffset dy="4"/>
<feGaussianBlur stdDeviation="25"/>
<feComposite in2="hardAlpha" operator="out"/>
<feColorMatrix type="matrix" values="0 0 0 0 0 0 0 0 0 1 0 0 0 0 0.82 0 0 0 0.2 0"/>
<feBlend mode="normal" in2="BackgroundImageFix" result="effect1_dropShadow_2027_930"/>
<feBlend mode="normal" in="SourceGraphic" in2="effect1_dropShadow_2027_930" result="shape"/>
</filter>
<filter id="filter1_d_2027_930" x="1381.25" y="125.476" width="409.688" height="325.374" filterUnits="userSpaceOnUse" color-interpolation-filters="sRGB">
<feFlood flood-opacity="0" result="BackgroundImageFix"/>
<feColorMatrix in="SourceAlpha" type="matrix" values="0 0 0 0 0 0 0 0 0 0 0 0 0 0 0 0 0 0 127 0" result="hardAlpha"/>
<feOffset dy="4"/>
<feGaussianBlur stdDeviation="25"/>
<feComposite in2="hardAlpha" operator="out"/>
<feColorMatrix type="matrix" values="0 0 0 0 0 0 0 0 0 1 0 0 0 0 0.82 0 0 0 0.2 0"/>
<feBlend mode="normal" in2="BackgroundImageFix" result="effect1_dropShadow_2027_930"/>
<feBlend mode="normal" in="SourceGraphic" in2="effect1_dropShadow_2027_930" result="shape"/>
</filter>
<filter id="filter2_d_2027_930" x="1094.83" y="-18.4473" width="822.018" height="326.441" filterUnits="userSpaceOnUse" color-interpolation-filters="sRGB">
<feFlood flood-opacity="0" result="BackgroundImageFix"/>
<feColorMatrix in="SourceAlpha" type="matrix" values="0 0 0 0 0 0 0 0 0 0 0 0 0 0 0 0 0 0 127 0" result="hardAlpha"/>
<feOffset dy="4"/>
<feGaussianBlur stdDeviation="25"/>
<feComposite in2="hardAlpha" operator="out"/>
<feColorMatrix type="matrix" values="0 0 0 0 0 0 0 0 0 1 0 0 0 0 0.82 0 0 0 0.2 0"/>
<feBlend mode="normal" in2="BackgroundImageFix" result="effect1_dropShadow_2027_930"/>
<feBlend mode="normal" in="SourceGraphic" in2="effect1_dropShadow_2027_930" result="shape"/>
</filter>
<clipPath id="clip0_2027_930">
<rect width="2202" height="189" fill="white"/>
</clipPath>
</defs>
</svg>
