<svg width="177" height="177" viewBox="0 0 177 177" fill="none" xmlns="http://www.w3.org/2000/svg">
<path d="M159.681 98.5898L159.769 97.3889L165.695 97.824L165.702 97.7188C165.207 97.0303 164.754 95.8778 164.859 94.4403C165.079 91.4425 167.102 89.9342 169.653 90.1215L173.002 90.3674L172.913 91.5682L169.582 91.3237C167.488 91.1699 166.13 92.3745 165.972 94.522C165.855 96.1173 166.471 97.3346 166.983 97.9186L172.418 98.3177L172.33 99.5185L159.681 98.5898Z" fill="#557AFF"/>
<path d="M159.099 101.654L159.345 100.529L168.275 102.481L168.029 103.606L160.851 102.036L160.837 102.097L166.929 108.637L166.683 109.762L157.753 107.81L157.999 106.685L165.177 108.254L165.189 108.203L159.099 101.654Z" fill="#557AFF"/>
<path d="M163.599 118.98L162.686 118.661L163.713 115.724L155.998 113.026L156.378 111.939L164.093 114.637L165.12 111.7L166.033 112.019L163.599 118.98Z" fill="#557AFF"/>
<path d="M153.775 120.472C153.065 121.906 153.524 123.535 154.823 124.179L155.729 124.627L156.765 122.119C157.318 120.785 157.113 119.791 156.207 119.343C155.317 118.902 154.325 119.362 153.775 120.472ZM152.982 119.815C153.782 118.201 155.296 117.577 156.73 118.287C158.132 118.981 158.464 120.45 157.654 122.403L156.548 125.033L157.257 125.384C158.439 125.969 159.518 125.571 160.15 124.295C160.746 123.09 160.538 122.026 159.635 121.353L160.134 120.345C161.541 121.189 161.984 122.908 161.06 124.775C160.135 126.642 158.507 127.297 156.837 126.47L151.229 123.694L151.72 122.701L153.28 123.473L153.291 123.45C152.502 122.49 152.378 121.036 152.982 119.815Z" fill="#557AFF"/>
<path d="M154.055 136.202L153.247 135.671L154.956 133.07L148.125 128.582L148.757 127.62L155.588 132.108L157.297 129.508L158.105 130.039L154.055 136.202Z" fill="#557AFF"/>
<path d="M147.272 138.125L148.537 136.617L145.393 133.978L144.127 135.486C143.274 136.503 143.352 137.681 144.302 138.478C145.251 139.275 146.424 139.135 147.272 138.125ZM145.392 132.475L152.394 138.35L151.654 139.232L149.278 137.238L148.001 138.76C146.707 140.301 144.982 140.552 143.562 139.36C142.141 138.168 142.082 136.42 143.376 134.878L145.392 132.475Z" fill="#557AFF"/>
<path d="M133.878 144.015C135.977 142.292 138.306 142.803 140.537 145.52C143.871 149.583 144.173 151.974 141.51 154.284C141.367 154.401 140.888 154.829 140.79 154.931C140.227 155.45 139.703 156.073 139.496 156.528L138.85 155.74C138.933 155.398 139.428 154.754 140.073 154.155C140.178 154.047 140.657 153.619 140.806 153.497C142.807 151.764 142.691 150.279 140.933 147.583L140.892 147.616C141.236 148.949 140.752 150.244 139.57 151.214C137.674 152.77 135.331 152.408 133.586 150.281C131.768 148.067 131.881 145.655 133.878 144.015ZM134.536 144.817C133.089 146.005 133.071 147.77 134.51 149.523C135.892 151.208 137.6 151.501 139.047 150.313C140.494 149.126 140.539 147.394 139.157 145.709C137.718 143.956 135.983 143.629 134.536 144.817Z" fill="#557AFF"/>
<path d="M126.49 149.331C128.599 148.012 130.987 148.663 132.526 151.121C134.07 153.587 133.6 156.017 131.499 157.332C129.391 158.652 127.007 158.008 125.464 155.542C123.925 153.084 124.382 150.651 126.49 149.331ZM127.036 150.203C125.516 151.154 125.231 152.951 126.462 154.918C127.693 156.884 129.434 157.412 130.953 156.461C132.473 155.509 132.751 153.718 131.52 151.751C130.289 149.784 128.556 149.252 127.036 150.203Z" fill="#557AFF"/>
<path d="M121.525 156.76C120.699 154.537 120.463 152.816 122.066 152.073C122.305 151.963 122.499 151.941 122.574 151.935L123.017 152.892C122.962 152.899 122.78 152.925 122.565 153.024C121.703 153.423 121.914 154.672 122.536 156.331C122.71 156.831 124.199 160.694 124.385 161.16L119.074 163.62L115.233 155.325L116.277 154.841L119.712 162.259L123.03 160.722C122.854 160.28 121.695 157.233 121.525 156.76Z" fill="#557AFF"/>
<path d="M111.813 161.819L113.688 161.218L112.435 157.309L110.561 157.91C109.297 158.315 108.734 159.353 109.112 160.533C109.49 161.714 110.557 162.221 111.813 161.819ZM113.237 156.037L116.026 164.742L114.929 165.093L113.983 162.139L112.091 162.745C110.174 163.359 108.582 162.651 108.016 160.885C107.45 159.119 108.332 157.609 110.249 156.994L113.237 156.037Z" fill="#557AFF"/>
<path d="M105.68 158.483L107.151 167.505L106.015 167.69L104.699 159.623L100.874 160.247L102.19 168.314L101.053 168.499L99.7374 160.432L95.912 161.056L97.2278 169.123L96.0828 169.31L94.6113 160.289L105.68 158.483Z" fill="#557AFF"/>
<path d="M89.213 168.565C90.8477 168.552 91.9718 167.286 92.0546 165.484L86.4122 165.528C86.4524 167.329 87.5607 168.577 89.213 168.565ZM86.4622 162.908L85.3109 162.917C85.5712 161.333 87.0475 160.161 89.0601 160.146C91.6265 160.126 93.2311 161.906 93.2535 164.807C93.2754 167.646 91.6818 169.565 89.2033 169.584C86.7776 169.603 85.2346 167.831 85.2136 165.106L85.2098 164.614L92.0562 164.561L92.0557 164.491C92.0397 162.425 90.8609 161.151 89.0416 161.165C87.6618 161.176 86.7094 161.904 86.4622 162.908Z" fill="#557AFF"/>
<path d="M69.9492 157.964L71.1293 158.203L69.9493 164.026L70.0527 164.047C70.7983 163.642 71.9988 163.338 73.4115 163.625C76.3575 164.222 77.5981 166.419 77.0901 168.926L76.4233 172.216L75.2432 171.977L75.9065 168.704C76.3237 166.645 75.3002 165.146 73.1898 164.719C71.622 164.401 70.3367 164.858 69.6927 165.292L68.6105 170.633L67.4303 170.394L69.9492 157.964Z" fill="#557AFF"/>
<path d="M67.0641 157.005L68.1495 157.389L65.0996 166.006L64.0142 165.622L66.4659 158.695L66.4079 158.675L59.159 163.903L58.0736 163.519L61.1235 154.902L62.2089 155.286L59.7572 162.213L59.807 162.231L67.0641 157.005Z" fill="#557AFF"/>
<path d="M49.2676 159.257L49.6998 158.392L52.483 159.783L56.1366 152.471L57.1666 152.986L53.5129 160.298L56.2961 161.688L55.864 162.553L49.2676 159.257Z" fill="#557AFF"/>
<path d="M49.091 149.352C47.7573 148.469 46.0834 148.72 45.2826 149.929L44.7245 150.771L47.0833 152.112C48.3384 152.828 49.3498 152.749 49.9079 151.906C50.4564 151.078 50.1241 150.036 49.091 149.352ZM49.8421 148.648C51.3442 149.642 51.7731 151.223 50.8898 152.557C50.0259 153.861 48.5272 154.007 46.691 152.959L44.2198 151.534L43.783 152.193C43.055 153.292 43.3143 154.413 44.5014 155.199C45.6225 155.942 46.7046 155.868 47.4846 155.056L48.4226 155.677C47.4099 156.967 45.6482 157.192 43.9115 156.042C42.1749 154.891 41.7286 153.194 42.7575 151.64L46.213 146.423L47.1363 147.035L46.1753 148.485L46.1973 148.5C47.2484 147.836 48.7063 147.895 49.8421 148.648Z" fill="#557AFF"/>
<path d="M33.4852 147.693L34.112 146.956L36.4807 148.974L41.7803 142.751L42.6569 143.497L37.3573 149.72L39.7261 151.738L39.0992 152.474L33.4852 147.693Z" fill="#557AFF"/>
<path d="M32.4586 140.755L33.7992 142.196L36.8051 139.401L35.4644 137.96C34.5607 136.988 33.3816 136.92 32.4741 137.764C31.5665 138.608 31.5609 139.789 32.4586 140.755ZM38.2971 139.586L31.6032 145.811L30.8192 144.967L33.0912 142.855L31.7386 141.4C30.3681 139.926 30.3319 138.184 31.69 136.921C33.0481 135.658 34.7899 135.814 36.1605 137.288L38.2971 139.586Z" fill="#557AFF"/>
<path d="M28.2789 126.743C29.7284 129.04 28.9334 131.288 25.9603 133.164C21.5156 135.969 19.1064 135.973 17.1436 133.044C17.0451 132.888 16.6804 132.359 16.5905 132.25C16.1452 131.626 15.592 131.03 15.1669 130.768L16.0291 130.224C16.3576 130.349 16.9358 130.919 17.4495 131.635C17.5441 131.752 17.9089 132.28 18.0121 132.444C19.4835 134.643 20.9716 134.712 23.8647 133.302L23.8366 133.257C22.4716 133.433 21.2464 132.793 20.4302 131.499C19.1214 129.426 19.771 127.145 22.0974 125.677C24.5205 124.148 26.8998 124.558 28.2789 126.743ZM27.4019 127.297C26.4027 125.714 24.653 125.477 22.7354 126.688C20.8921 127.851 20.3898 129.509 21.3889 131.092C22.3881 132.675 24.1007 132.935 25.944 131.771C27.8616 130.561 28.4011 128.88 27.4019 127.297Z" fill="#557AFF"/>
<path d="M23.9177 118.737C24.9629 120.994 24.0174 123.281 21.3855 124.5C18.7457 125.723 16.3936 124.952 15.3521 122.703C14.3069 120.446 15.2444 118.162 17.8842 116.94C20.5161 115.721 22.8724 116.48 23.9177 118.737ZM22.9845 119.169C22.2311 117.542 20.4846 117.033 18.3791 118.008C16.2736 118.983 15.5318 120.644 16.2852 122.271C17.0387 123.898 18.7814 124.399 20.8869 123.424C22.9924 122.448 23.738 120.796 22.9845 119.169Z" fill="#557AFF"/>
<path d="M17.192 112.953C19.5019 112.416 21.2394 112.401 21.772 114.086C21.8515 114.337 21.8485 114.532 21.8446 114.607L20.839 114.925C20.8398 114.869 20.8371 114.685 20.7656 114.459C20.4794 113.554 19.2138 113.604 17.4897 114.011C16.971 114.12 12.9502 115.105 12.4646 115.231L10.6997 109.65L19.415 106.894L19.7622 107.992L11.9687 110.456L13.0711 113.943C13.5315 113.825 16.7011 113.062 17.192 112.953Z" fill="#557AFF"/>
<path d="M13.4048 102.774L13.7663 104.709L17.801 103.956L17.4395 102.021C17.1959 100.716 16.2358 100.028 15.0177 100.255C13.7995 100.483 13.1628 101.478 13.4048 102.774ZM18.9628 104.91L9.97751 106.588L9.76612 105.457L12.8159 104.887L12.4512 102.934C12.0817 100.956 12.9833 99.4642 14.8063 99.1237C16.6292 98.7832 18.0171 99.8472 18.3867 101.826L18.9628 104.91Z" fill="#557AFF"/>
<path d="M17.4746 97.1997L8.34081 97.5524L8.29638 96.4019L16.4641 96.0865L16.3146 92.2134L8.14683 92.5288L8.10241 91.3783L16.2702 91.0629L16.1206 87.1898L7.95286 87.5052L7.9081 86.3459L17.0419 85.9932L17.4746 97.1997Z" fill="#557AFF"/>
<path d="M9.50869 79.1605C9.31384 80.7836 10.4266 82.0592 12.204 82.3699L12.8765 76.7675C11.0845 76.579 9.70563 77.52 9.50869 79.1605ZM15.4686 77.1495L15.6058 76.0064C17.1441 76.4654 18.119 78.0785 17.8791 80.0768C17.5732 82.6249 15.6034 83.9907 12.7237 83.645C9.90503 83.3067 8.2031 81.4824 8.49852 79.0216C8.78765 76.6131 10.7414 75.3073 13.4466 75.6321L13.9352 75.6907L13.1192 82.4886L13.189 82.497C15.2397 82.7432 16.6531 81.7355 16.8699 79.9291C17.0344 78.5591 16.433 77.522 15.4686 77.1495Z" fill="#557AFF"/>
<path d="M22.3456 61.7519L21.961 62.893L16.3308 60.9951L16.2971 61.095C16.6057 61.8854 16.7572 63.1144 16.2968 64.4803C15.3367 67.3287 13.0015 68.2852 10.5779 67.4683L7.39639 66.3958L7.78102 65.2548L10.9459 66.3216C12.9364 66.9926 14.5513 66.1643 15.2391 64.1238C15.75 62.608 15.4571 61.2757 15.1065 60.5824L9.94277 58.8418L10.3274 57.7008L22.3456 61.7519Z" fill="#557AFF"/>
<path d="M23.6282 59.0089L23.1097 60.037L14.9483 55.9209L15.4668 54.8929L22.0273 58.2016L22.055 58.1466L17.786 50.2942L18.3045 49.2662L26.4659 53.3823L25.9474 54.4103L19.3869 51.1016L19.3632 51.1487L23.6282 59.0089Z" fill="#557AFF"/>
<path d="M23.576 41.098L24.3801 41.6348L22.6525 44.2224L29.4506 48.7609L28.8113 49.7185L22.0132 45.18L20.2857 47.7676L19.4816 47.2308L23.576 41.098Z" fill="#557AFF"/>
<path d="M33.3237 42.225C34.3652 41.0109 34.3231 39.3188 33.2224 38.3745L32.4553 37.7164L30.8327 39.8911C29.9676 41.0481 29.9204 42.0614 30.6876 42.7195C31.4413 43.3662 32.5168 43.1655 33.3237 42.225ZM33.9296 43.0575C32.7564 44.425 31.1348 44.655 29.9207 43.6134C28.7333 42.5948 28.774 41.0895 30.0408 39.397L31.7615 37.1212L31.1612 36.6062C30.1606 35.7478 29.0166 35.8664 28.0895 36.9471C27.2139 37.9677 27.1534 39.0506 27.8622 39.9251L27.1297 40.7789C25.9748 39.6144 25.9699 37.8384 27.3262 36.2575C28.6825 34.6766 30.4224 34.4438 31.8365 35.657L36.586 39.7316L35.865 40.5721L34.5442 39.439L34.527 39.459C35.0556 40.5842 34.8166 42.0235 33.9296 43.0575Z" fill="#557AFF"/>
<path d="M37.1462 26.6809L37.7968 27.396L35.4953 29.4897L40.9957 35.536L40.144 36.3108L34.6437 30.2645L32.3422 32.3582L31.6916 31.6431L37.1462 26.6809Z" fill="#557AFF"/>
<path d="M43.9053 26.6894L42.309 27.8417L44.7114 31.1697L46.3077 30.0174C47.3837 29.2406 47.5966 28.0789 46.8713 27.0741C46.1459 26.0692 44.9743 25.9177 43.9053 26.6894ZM44.3437 32.6275L38.9937 25.216L39.9273 24.5422L41.7432 27.0578L43.3537 25.8952C44.9857 24.7172 46.7194 24.8965 47.8048 26.4002C48.8902 27.9038 48.5197 29.613 46.8878 30.791L44.3437 32.6275Z" fill="#557AFF"/>
<path d="M58.5052 24.1402C56.045 25.2906 53.9145 24.2203 52.4253 21.0356C50.1989 16.2746 50.4976 13.884 53.6492 12.3035C53.8164 12.2253 54.3864 11.9296 54.5064 11.8541C55.1804 11.4904 55.8416 11.0163 56.1546 10.6274L56.5865 11.5509C56.4211 11.8611 55.7827 12.3634 55.0089 12.7834C54.881 12.8627 54.311 13.1583 54.1358 13.2402C51.7691 14.4245 51.5144 15.8923 52.5511 18.9393L52.5988 18.9169C52.5956 17.5407 53.3843 16.4054 54.7696 15.7576C56.9909 14.7189 59.1723 15.649 60.3376 18.141C61.5513 20.7365 60.8459 23.0457 58.5052 24.1402ZM58.0658 23.2007C59.7617 22.4078 60.2154 20.7014 59.2548 18.6473C58.3315 16.6728 56.7498 15.9668 55.0539 16.7598C53.3581 17.5528 52.8858 19.2194 53.8091 21.1938C54.7696 23.2479 56.37 23.9937 58.0658 23.2007Z" fill="#557AFF"/>
<path d="M66.7263 20.8913C64.3576 21.6502 62.2038 20.4298 61.3189 17.6677C60.4313 14.8972 61.486 12.6581 63.8463 11.9019C66.215 11.1431 68.3661 12.3551 69.2537 15.1256C70.1386 17.8877 69.095 20.1324 66.7263 20.8913ZM66.4126 19.912C68.12 19.365 68.84 17.6946 68.1321 15.4849C67.4242 13.2752 65.8676 12.3342 64.1601 12.8812C62.4526 13.4283 61.741 15.096 62.4489 17.3057C63.1568 19.5154 64.7051 20.4591 66.4126 19.912Z" fill="#557AFF"/>
<path d="M73.3881 14.8847C73.6317 17.2436 73.429 18.9693 71.6912 19.287C71.4318 19.3345 71.2392 19.3071 71.1653 19.2938L70.9756 18.2563C71.0307 18.2641 71.2131 18.2844 71.4465 18.2417C72.3802 18.071 72.4891 16.8092 72.3011 15.0477C72.2581 14.5195 71.7832 10.407 71.719 9.9094L77.4771 8.8567L79.121 17.8483L77.9884 18.0554L76.5184 10.0148L72.9218 10.6723C72.9812 11.144 73.3412 14.384 73.3881 14.8847Z" fill="#557AFF"/>
<path d="M84.2516 12.3515L82.2861 12.4654L82.5236 16.563L84.489 16.4491C85.8139 16.3724 86.6178 15.507 86.5461 14.2698C86.4744 13.0327 85.5677 12.2752 84.2516 12.3515ZM81.43 17.5948L80.9013 8.46946L82.0507 8.40286L82.2302 11.5002L84.2132 11.3853C86.2225 11.2689 87.5883 12.3519 87.6955 14.2032C87.8028 16.0546 86.5718 17.2969 84.5625 17.4133L81.43 17.5948Z" fill="#557AFF"/>
<path d="M89.2484 17.0565L90.0581 7.95184L91.2049 8.05383L90.4809 16.1955L94.3416 16.5389L95.0657 8.39718L96.2125 8.49917L95.4884 16.6409L99.3492 16.9842L100.073 8.84252L101.229 8.94529L100.419 18.05L89.2484 17.0565Z" fill="#557AFF"/>
<path d="M108.129 11.4072C106.543 11.0096 105.138 11.953 104.606 13.6772L110.079 15.0494C110.492 13.2953 109.732 11.809 108.129 11.4072ZM109.374 17.5728L110.491 17.8528C109.842 19.3211 108.119 20.0852 106.167 19.5957C103.677 18.9716 102.57 16.8456 103.276 14.0323C103.966 11.2786 105.99 9.81979 108.394 10.4225C110.747 11.0125 111.796 13.115 111.134 15.7578L111.014 16.2352L104.373 14.5702L104.356 14.6384C103.854 16.6418 104.675 18.1708 106.44 18.6132C107.779 18.9488 108.883 18.4827 109.374 17.5728Z" fill="#557AFF"/>
<path d="M123.866 26.3678L122.783 25.8416L125.38 20.4976L125.285 20.4515C124.462 20.6574 123.224 20.6519 121.927 20.0219C119.223 18.7084 118.571 16.2708 119.688 13.9703L121.156 10.9505L122.239 11.4767L120.779 14.4807C119.861 16.3701 120.478 18.0769 122.415 19.018C123.854 19.717 125.212 19.5954 125.944 19.3355L128.326 14.4342L129.409 14.9604L123.866 26.3678Z" fill="#557AFF"/>
<path d="M126.316 27.9144L125.361 27.2716L130.464 19.6881L131.419 20.3309L127.317 26.4269L127.368 26.4612L135.692 23.2063L136.647 23.8491L131.544 31.4326L130.589 30.7898L134.691 24.6938L134.647 24.6644L126.316 27.9144Z" fill="#557AFF"/>
<path d="M144.058 30.0493L143.426 30.7808L141.071 28.7463L135.727 34.9306L134.856 34.1777L140.2 27.9935L137.846 25.959L138.479 25.2275L144.058 30.0493Z" fill="#557AFF"/>
<path d="M142.057 39.9209C143.129 41.108 144.813 41.2809 145.889 40.3089L146.639 39.6315L144.688 37.7462C143.65 36.7412 142.651 36.5659 141.901 37.2433C141.164 37.909 141.226 39.0012 142.057 39.9209ZM141.154 40.4163C139.947 39.0791 139.924 37.4414 141.111 36.3693C142.272 35.3207 143.76 35.552 145.279 37.0233L147.318 39.0188L147.905 38.4887C148.883 37.6051 148.911 36.4552 147.956 35.3985C147.055 34.4005 145.988 34.2031 145.031 34.7953L144.277 33.9604C145.579 32.9626 147.341 33.183 148.737 34.7289C150.133 36.2748 150.143 38.0302 148.761 39.279L144.116 43.4732L143.374 42.6513L144.666 41.485L144.648 41.4654C143.465 41.847 142.067 41.4273 141.154 40.4163Z" fill="#557AFF"/>
<path d="M156.729 45.3213L155.939 45.8785L154.146 43.3359L147.466 48.0471L146.803 47.1062L153.482 42.3951L151.689 39.8525L152.479 39.2953L156.729 45.3213Z" fill="#557AFF"/>
<path d="M155.942 52.1294L154.997 50.402L151.396 52.3712L152.34 54.0986C152.977 55.263 154.103 55.6189 155.191 55.0243C156.278 54.4297 156.574 53.2861 155.942 52.1294ZM149.995 51.8249L158.015 47.4394L158.568 48.4496L155.845 49.9381L156.798 51.6809C157.764 53.4468 157.37 55.1448 155.743 56.0345C154.116 56.9242 152.466 56.3438 151.501 54.5779L149.995 51.8249Z" fill="#557AFF"/>
<path d="M156.565 66.716C155.727 64.1328 157.051 62.1505 160.395 61.0652C165.395 59.4428 167.73 60.0339 168.91 63.3564C168.967 63.5319 169.19 64.134 169.25 64.2624C169.528 64.9761 169.917 65.6907 170.264 66.0493L169.295 66.364C169.007 66.1616 168.588 65.4662 168.266 64.6465C168.203 64.5098 167.98 63.9076 167.92 63.7237C167.037 61.2291 165.612 60.7953 162.46 61.4485L162.476 61.4987C163.843 61.6652 164.872 62.5878 165.344 64.0424C166.101 66.3748 164.909 68.4249 162.292 69.2741C159.567 70.1585 157.363 69.1738 156.565 66.716ZM157.551 66.3959C158.129 68.1765 159.767 68.8371 161.923 68.1371C163.997 67.4643 164.892 65.9816 164.314 64.201C163.737 62.4203 162.141 61.7462 160.068 62.419C157.911 63.119 156.973 64.6152 157.551 66.3959Z" fill="#557AFF"/>
<path d="M158.83 75.56C158.373 73.115 159.853 71.1308 162.704 70.5983C165.564 70.0641 167.654 71.3905 168.109 73.8269C168.565 76.2719 167.094 78.2545 164.234 78.7887C161.383 79.3212 159.286 78.005 158.83 75.56ZM159.84 75.3712C160.17 77.1337 161.737 78.057 164.018 77.6309C166.299 77.2049 167.427 75.7782 167.098 74.0157C166.769 72.2532 165.203 71.3386 162.922 71.7646C160.641 72.1906 159.511 73.6087 159.84 75.3712Z" fill="#557AFF"/>
<path d="M163.957 83.1594C161.587 83.1028 159.9 82.6835 159.805 80.9194C159.791 80.6561 159.842 80.4685 159.865 80.3969L160.918 80.3399C160.903 80.3936 160.86 80.5719 160.873 80.8089C160.924 81.7567 162.162 82.0242 163.933 82.0605C164.463 82.0847 168.602 82.1337 169.104 82.133L169.42 87.978L160.293 88.4715L160.23 87.3218L168.392 86.8805L168.195 83.2296C167.72 83.2289 164.46 83.1763 163.957 83.1594Z" fill="#557AFF"/>
</svg>
