<svg width="94" height="28" viewBox="0 0 94 28" fill="none" xmlns="http://www.w3.org/2000/svg">
<g clip-path="url(#clip0_139_5169)">
<path fill-rule="evenodd" clip-rule="evenodd" d="M27.4331 10.8147L20.8032 19.1215L18.0126 15.4128L16.7832 13.4962L20.575 0L27.4331 10.8147ZM27.4331 10.8147L23.9314 23.2789L20.9831 19.3606L21.0175 19.4062L27.4331 10.8147Z" fill="url(#paint0_linear_139_5169)"/>
<path fill-rule="evenodd" clip-rule="evenodd" d="M0 10.8147L3.50173 23.2789L6.4157 19.4062L0 10.8147L6.62994 19.1214L10.7077 13.7021L6.85818 0L0 10.8147Z" fill="url(#paint1_linear_139_5169)"/>
<path fill-rule="evenodd" clip-rule="evenodd" d="M27.4318 10.8147L20.5737 19.4074L14.0477 9.23364L20.5736 0L27.4318 10.8147ZM20.5737 19.4074L13.7156 28L6.85742 19.4074L13.7155 9.70366L20.5737 19.4074Z" fill="url(#paint2_linear_139_5169)"/>
<path fill-rule="evenodd" clip-rule="evenodd" d="M0 10.8147L13.7163 28L20.5744 19.4074L6.85823 0L0 10.8147Z" fill="url(#paint3_linear_139_5169)"/>
<path d="M43.8909 5.85927H40.6367V20.2423H42.6786V10.0714L44.4227 20.2423H46.6347L48.2511 9.92762V20.2423H50.4631V5.85927H47.2089L45.6137 16.0712L43.8909 5.85927ZM54.3127 9.16735C54.3127 8.13998 54.7808 7.7496 55.5254 7.7496C56.2696 7.7496 56.7376 8.13998 56.7376 9.16735V16.9342C56.7376 17.9616 56.2696 18.352 55.5254 18.352C54.7808 18.352 54.3127 17.9616 54.3127 16.9342V9.16735ZM51.9735 16.7904C51.9735 19.0917 53.2283 20.4067 55.5254 20.4067C57.8226 20.4067 59.0774 19.0917 59.0774 16.7904V9.31119C59.0774 7.00987 57.8226 5.69482 55.5254 5.69482C53.2283 5.69482 51.9735 7.00987 51.9735 9.31119V16.7904ZM60.2896 9.31119C60.2896 13.4206 64.8623 13.9754 64.8623 16.9342C64.8623 17.9616 64.3942 18.3315 63.6501 18.3315C62.9054 18.3315 62.4379 17.9616 62.4379 16.9342V15.9069H60.2259V16.7904C60.2259 19.0917 61.4166 20.4067 63.7137 20.4067C66.0108 20.4067 67.202 19.0917 67.202 16.7904C67.202 12.6809 62.6293 12.1261 62.6293 9.16735C62.6293 8.13998 63.0547 7.7496 63.7989 7.7496C64.5436 7.7496 64.969 8.13998 64.969 9.16735V9.76318H67.1809V9.31119C67.1809 7.00987 66.0108 5.69482 63.7353 5.69482C61.4592 5.69482 60.2896 7.00987 60.2896 9.31119ZM70.8817 14.0781H73.5401V20.2423H75.9225V5.85927H73.5401V12.0234H70.8817V5.85927H68.542V20.2423H70.8817V14.0781ZM82.9627 20.2423H85.366L82.1118 12.27L85.366 5.85927H83.0263L79.9635 12.1261V5.85927H77.6238V20.2423H79.9635V15.8247L80.6866 14.5097L82.9627 20.2423ZM91.619 5.85927H88.1948L85.8125 20.2423H87.9608L88.3647 17.6328H91.2361L91.6405 20.2423H94.0013L91.619 5.85927ZM89.7899 8.40712L90.9174 15.6808H88.6629L89.7899 8.40712Z" fill="#D8D8D8"/>
</g>
<defs>
<linearGradient id="paint0_linear_139_5169" x1="27.3556" y1="10.3621" x2="23.2215" y2="24.3046" gradientUnits="userSpaceOnUse">
<stop stop-color="#838383"/>
<stop offset="1" stop-color="#DCDCDC"/>
</linearGradient>
<linearGradient id="paint1_linear_139_5169" x1="0.0834726" y1="10.4437" x2="5.07696" y2="23.3857" gradientUnits="userSpaceOnUse">
<stop stop-color="#767676"/>
<stop offset="1" stop-color="#C3C4C4"/>
</linearGradient>
<linearGradient id="paint2_linear_139_5169" x1="19.0214" y1="-1.22387" x2="20.9205" y2="19.593" gradientUnits="userSpaceOnUse">
<stop stop-color="#E3E3E3"/>
<stop offset="1" stop-color="#9F9F9F"/>
</linearGradient>
<linearGradient id="paint3_linear_139_5169" x1="6.05967" y1="-0.979098" x2="12.7235" y2="28.8924" gradientUnits="userSpaceOnUse">
<stop stop-color="#AFAFAF"/>
<stop offset="1" stop-color="#F8F8F8"/>
</linearGradient>
<clipPath id="clip0_139_5169">
<rect width="94" height="28" fill="white"/>
</clipPath>
</defs>
</svg>
