<svg width="153" height="24" viewBox="0 0 153 24" fill="none" xmlns="http://www.w3.org/2000/svg">
<g clip-path="url(#clip0_139_5188)">
<mask id="mask0_139_5188" style="mask-type:luminance" maskUnits="userSpaceOnUse" x="0" y="0" width="153" height="24">
<path d="M152.479 0H0V24H152.479V0Z" fill="white"/>
</mask>
<g mask="url(#mask0_139_5188)">
<path fill-rule="evenodd" clip-rule="evenodd" d="M21.9311 1.31165H34.9367C39.4789 2.54355 38.3017 8.24221 34.9088 8.61444H24.1095V12.6115H21.9219V1.31165H21.9311Z" fill="white" stroke="white" stroke-width="0.216" stroke-miterlimit="22.9256"/>
<path fill-rule="evenodd" clip-rule="evenodd" d="M24.2031 3.48291H34.3906C35.8831 4.06785 36.0314 5.63653 34.3906 6.44302H24.2031V3.48291Z" fill="#171717" stroke="white" stroke-width="0.216" stroke-miterlimit="22.9256"/>
<path fill-rule="evenodd" clip-rule="evenodd" d="M63.0527 1.31165H76.6982C79.8869 1.72819 81.0735 7.02802 76.9668 8.7031L80.1555 12.7001H77.245L74.01 8.96007H65.324V12.7001H63.0527V1.31165Z" fill="white" stroke="white" stroke-width="0.216" stroke-miterlimit="22.9256"/>
<path fill-rule="evenodd" clip-rule="evenodd" d="M65.3242 3.48303H75.8361C76.9765 3.74005 77.8756 5.69869 75.8361 6.54062H65.3242V3.48303Z" fill="#171717" stroke="white" stroke-width="0.216" stroke-miterlimit="22.9256"/>
<path fill-rule="evenodd" clip-rule="evenodd" d="M82.6953 1.40027H97.7124V3.40322H91.2515V12.6203H89.1569V3.40322H82.6953V1.40027Z" fill="white" stroke="white" stroke-width="0.216" stroke-miterlimit="22.9256"/>
<path fill-rule="evenodd" clip-rule="evenodd" d="M100.622 12.7089H102.893V8.35734H114.175V12.7089H116.446V5.22886C115.945 3.24363 114.908 1.77243 112.08 1.23181H105.072C102.959 1.35589 100.974 3.21704 100.613 5.22886V12.7089H100.622Z" fill="white" stroke="white" stroke-width="0.216" stroke-miterlimit="22.9256"/>
<path fill-rule="evenodd" clip-rule="evenodd" d="M102.895 6.18605H114.176C114.148 3.98813 112.415 3.53613 111.877 3.53613H105.212C104.415 3.53613 103.006 4.31604 102.895 6.18605Z" fill="#171717" stroke="white" stroke-width="0.216" stroke-miterlimit="22.9256"/>
<path fill-rule="evenodd" clip-rule="evenodd" d="M134.559 10.5376H124.27C122.833 10.4845 121.971 9.67796 121.813 8.20676L121.637 1.31165H119.273V8.5347C119.348 11.1314 121.09 12.3899 123.185 12.709H134.559V10.5376Z" fill="white" stroke="white" stroke-width="0.216" stroke-miterlimit="22.9256"/>
<path fill-rule="evenodd" clip-rule="evenodd" d="M41.1953 23.9203V19.2496H44.8106V20.0384H42.178V21.0753H44.6252V21.8641H42.178V23.1315H44.9033V23.9203H41.1953ZM54.1453 23.9203V19.2496H55.1094L57.1116 22.3693V19.2496H58.0293V23.9203H57.0375L55.063 20.8715V23.9114H54.1453V23.9203ZM67.4658 23.9203V19.2496H71.0814V20.0384H68.4484V21.0753H70.8958V21.8641H68.4484V23.1315H71.1739V23.9203H67.4658ZM80.4067 23.9203V19.2496H82.4829C83.0024 19.2496 83.3825 19.294 83.6233 19.3737C83.8641 19.4535 84.0497 19.6041 84.189 19.8168C84.3278 20.0296 84.4019 20.2777 84.4019 20.5524C84.4019 20.8981 84.291 21.1905 84.0775 21.421C83.864 21.6514 83.5397 21.7932 83.1133 21.8552C83.3268 21.9705 83.5029 22.1034 83.6417 22.2452C83.781 22.387 83.966 22.644 84.1979 22.9985L84.7915 23.9114H83.6138L82.9004 22.8922C82.6501 22.5288 82.474 22.2984 82.3809 22.2097C82.2884 22.1123 82.1864 22.0503 82.0844 22.0148C81.9824 21.9793 81.8158 21.9616 81.5839 21.9616H81.3894V23.9114H80.4067V23.9203ZM81.3983 21.226H82.1306C82.6039 21.226 82.9004 21.2083 83.0208 21.1728C83.1412 21.1374 83.2343 21.0665 83.2989 20.9779C83.3635 20.8804 83.4009 20.7652 83.4009 20.6322C83.4009 20.4727 83.3546 20.3486 83.271 20.2511C83.1874 20.1536 83.0581 20.0916 82.9004 20.065C82.8168 20.0561 82.5849 20.0473 82.1775 20.0473H81.4077V21.226H81.3983ZM95.9985 22.2009V21.4121H98.1215V23.2733C97.9175 23.4683 97.6115 23.6367 97.2219 23.7784C96.8329 23.9203 96.4344 24 96.0359 24C95.5259 24 95.0811 23.8937 94.701 23.6898C94.3208 23.486 94.0332 23.1935 93.8482 22.8124C93.6531 22.4313 93.5606 22.0148 93.5606 21.5716C93.5606 21.0842 93.6721 20.6499 93.8755 20.2777C94.089 19.8966 94.4039 19.613 94.8119 19.4092C95.1273 19.2496 95.5164 19.1787 95.9801 19.1787C96.5826 19.1787 97.0648 19.3028 97.398 19.5421C97.7414 19.7814 97.9543 20.1182 98.0563 20.5524L97.0736 20.7297C97.009 20.4993 96.8791 20.322 96.6846 20.1891C96.499 20.0561 96.2582 19.9941 95.9706 19.9941C95.5442 19.9941 95.2015 20.1271 94.9417 20.3841C94.6915 20.6499 94.5616 21.0311 94.5616 21.5451C94.5616 22.0945 94.6915 22.5111 94.9512 22.7947C95.2104 23.0695 95.5442 23.2112 95.9617 23.2112C96.1651 23.2112 96.3786 23.1758 96.5826 23.096C96.7866 23.0163 96.9716 22.9276 97.1199 22.8124V22.2186H95.9985V22.2009ZM108.716 23.9203V21.9528L106.928 19.2496H108.086L109.236 21.0931L110.357 19.2496H111.498L109.699 21.9616V23.9203H108.716Z" fill="white"/>
<path fill-rule="evenodd" clip-rule="evenodd" d="M58.7886 3.48303C59.7619 4.06796 60.3828 5.13148 60.4943 6.7445L60.5126 10.4491C60.3086 12.5495 58.9277 14.1093 56.8234 14.4461H45.5791C43.5953 14.0296 41.9453 12.3988 41.9453 10.6706C41.9453 10.6706 42.6591 11.3353 43.4748 11.4771L55.0807 11.4948C56.4804 11.3442 58.3158 10.5466 58.7886 7.95867C58.835 7.7105 58.7793 3.48303 58.7886 3.48303Z" fill="#00C2FF"/>
<path fill-rule="evenodd" clip-rule="evenodd" d="M55.0807 11.4948C57.2035 11.3973 58.1954 9.60706 58.1954 9.60706C58.1213 10.8921 57.63 11.867 55.9521 12.1152H46.3764C45.9407 12.0531 45.3753 11.805 45.125 11.5036L55.0807 11.4948Z" fill="#171717"/>
<path fill-rule="evenodd" clip-rule="evenodd" d="M43.734 0.00878906H55.0246C57.4996 0.124003 58.6305 2.10924 58.816 3.78427C58.816 3.78427 58.8345 7.20522 58.8345 7.48888C58.816 9.03979 57.7036 11.2554 55.0895 11.4859H43.5485C41.7409 11.2112 40.2948 8.80939 40.2207 7.50659C40.2207 7.48887 40.2207 3.83745 40.2207 3.83745C40.3134 2.28649 42.019 0.150591 43.734 0.00878906Z" fill="white" stroke="white" stroke-width="0.216" stroke-miterlimit="22.9256"/>
<path fill-rule="evenodd" clip-rule="evenodd" d="M44.699 2.18904L54.5899 2.18018C55.3037 2.25108 56.1009 2.87146 56.4346 3.8818C56.481 4.01474 56.518 6.88622 56.3419 7.44456C56.1101 8.16244 55.6467 8.88033 54.5992 9.13736H44.7083C43.67 8.99553 42.9934 8.27764 42.7152 7.22302C42.6225 6.85079 42.6411 4.36924 42.7338 4.0236C42.9934 3.02212 43.7257 2.27767 44.699 2.18904Z" fill="#171717"/>
<path fill-rule="evenodd" clip-rule="evenodd" d="M55.9326 2.96899H46.0881C44.4195 3.11966 43.0197 4.2718 42.6582 5.02513L42.6768 6.92174C42.788 7.97637 43.3813 8.66768 44.2897 9.04877L44.336 7.20534C44.4287 5.81391 45.5226 5.19351 46.7555 5.1492L56.4609 5.18465C56.4609 5.18465 56.4609 4.26294 56.4331 3.97934C56.4054 3.65142 56.118 3.11966 55.9326 2.96899Z" fill="#00C2FF"/>
</g>
<path d="M76.243 17.1403C118.346 17.1403 152.478 16.5967 152.478 15.9261C152.478 15.2555 118.346 14.7119 76.243 14.7119C34.1394 14.7119 0.0078125 15.2555 0.0078125 15.9261C0.0078125 16.5967 34.1394 17.1403 76.243 17.1403Z" fill="white"/>
</g>
<defs>
<clipPath id="clip0_139_5188">
<rect width="153" height="24" fill="white"/>
</clipPath>
</defs>
</svg>
