<svg width="546" height="115" viewBox="0 0 546 115" fill="none" xmlns="http://www.w3.org/2000/svg">
<path fill-rule="evenodd" clip-rule="evenodd" d="M7.04663 67.9511C6.86406 70.1465 8.49084 72.0762 10.6854 72.2675L477.755 112.995C479.215 113.123 480.628 112.441 481.438 111.219L501.383 81.0898C502.203 79.8526 502.269 78.2636 501.557 76.9619L483.174 43.3598C482.533 42.1881 481.349 41.4136 480.019 41.2954L16.7234 0.131226C14.5141 -0.0650685 12.567 1.57369 12.3831 3.78402L7.04663 67.9511ZM476.38 82.4205C479.093 82.9357 481.709 81.1541 482.225 78.4411C482.74 75.7282 480.958 73.1113 478.245 72.5961C475.532 72.0809 472.915 73.8626 472.4 76.5755C471.885 79.2884 473.667 81.9054 476.38 82.4205Z" fill="#557AFF"/>
<path d="M41.5491 24.9369C42.0718 25.2751 42.4645 25.7156 42.7271 26.2585C42.9907 26.7893 43.0924 27.3774 43.032 28.0225C42.9358 29.0501 42.4915 29.8702 41.6989 30.483C40.9063 31.0958 39.9844 31.353 38.933 31.2546L33.5565 30.7514L34.7306 18.2062L39.7129 18.6726C40.7404 18.7687 41.5753 19.1843 42.2176 19.9194C42.8718 20.6556 43.1531 21.5135 43.0614 22.4932C42.9608 23.5685 42.4566 24.3831 41.5491 24.9369ZM39.5317 20.6081L36.6105 20.3347L36.3018 23.6323L39.2231 23.9057C39.6771 23.9482 40.0739 23.8286 40.4137 23.5471C40.7545 23.2536 40.9467 22.8738 40.9903 22.4079C41.034 21.9419 40.915 21.5391 40.6334 21.1993C40.353 20.8477 39.9857 20.6506 39.5317 20.6081ZM35.7986 29.0088L39.1141 29.3191C39.592 29.3638 40.0079 29.234 40.3618 28.9297C40.7288 28.6145 40.9352 28.212 40.9811 27.7221C41.0269 27.2323 40.8982 26.8044 40.595 26.4386C40.3048 26.0619 39.9208 25.8512 39.4429 25.8064L36.1274 25.4961L35.7986 29.0088ZM48.6647 32.4005C47.3146 32.2741 46.2281 31.7145 45.405 30.7214C44.5951 29.7176 44.2516 28.5585 44.3746 27.2443C44.4998 25.9061 45.0524 24.8309 46.0324 24.0187C47.0254 23.1957 48.197 22.8473 49.5471 22.9737C50.4192 23.0553 51.1942 23.3388 51.8719 23.8241C52.5497 24.3093 53.0348 24.9212 53.3272 25.6597L51.5699 26.4714C51.4071 26.0223 51.1277 25.6587 50.7319 25.3806C50.3492 25.0917 49.889 24.9221 49.3513 24.8717C48.5628 24.7979 47.8745 25.0047 47.2865 25.492C46.7094 25.9924 46.3839 26.6369 46.3101 27.4254C46.2363 28.214 46.4365 28.9077 46.9108 29.5065C47.3981 30.0944 48.0361 30.4253 48.8246 30.4991C49.3503 30.5483 49.8335 30.473 50.274 30.2732C50.7276 30.0626 51.0821 29.7523 51.3374 29.3423L52.9152 30.4481C52.4658 31.1292 51.8571 31.6447 51.0891 31.9947C50.3331 32.3457 49.525 32.481 48.6647 32.4005ZM57.7733 23.9787L61.7698 24.3527L60.9311 33.3136L59.0314 33.1358L59.3132 30.1249L58.2379 30.0243L55.6801 32.8221L53.404 32.6091L56.122 29.6455C55.5197 29.3842 55.0515 28.9788 54.7172 28.4293C54.3949 27.8808 54.2634 27.29 54.3227 26.6568C54.3999 25.8324 54.758 25.1608 55.3971 24.6421C56.0374 24.1115 56.8294 23.8903 57.7733 23.9787ZM57.4799 28.272L59.4692 28.4582L59.7057 25.9313L57.7164 25.7451C57.3102 25.707 56.9645 25.7952 56.6793 26.0096C56.4071 26.2131 56.2531 26.506 56.2174 26.8883C56.1816 27.2707 56.2785 27.5871 56.5082 27.8376C56.7498 28.0892 57.0737 28.234 57.4799 28.272ZM68.5029 24.9829L76.4781 25.7294L75.6393 34.6902L73.7038 34.5091L74.3714 27.3762L70.2674 26.9921L69.5997 34.1249L67.6642 33.9438L68.5029 24.9829ZM83.8175 26.1813C85.0362 26.2954 86.0445 26.8538 86.8426 27.8565C87.6298 28.8462 87.9618 29.9981 87.8388 31.3124C87.7147 32.6386 87.1741 33.7149 86.2169 34.5413C85.2597 35.3677 84.1658 35.7233 82.9352 35.6081C81.5851 35.4817 80.5866 34.8821 79.9398 33.8091L79.4852 38.6659L77.5497 38.4848L78.7239 25.9396L80.6594 26.1207L80.5386 27.4111C81.3625 26.4638 82.4555 26.0538 83.8175 26.1813ZM80.8536 32.7376C81.341 33.3256 81.9908 33.6576 82.8033 33.7337C83.6157 33.8097 84.3159 33.6041 84.9039 33.1167C85.493 32.6175 85.8261 31.9556 85.9033 31.1312C85.9805 30.3068 85.7754 29.6006 85.288 29.0127C84.8018 28.4127 84.1525 28.0748 83.3401 27.9987C82.5276 27.9227 81.8268 28.1343 81.2377 28.6336C80.6498 29.1209 80.3172 29.7768 80.24 30.6012C80.164 31.4136 80.3685 32.1258 80.8536 32.7376ZM98.1721 33.1112L91.0392 32.4435C91.12 33.126 91.3939 33.676 91.8611 34.0933C92.3402 34.5118 92.9561 34.7562 93.7088 34.8267C94.7243 34.9217 95.5296 34.6235 96.1247 33.9319L97.6325 35.0131C96.6384 36.2338 95.2692 36.7625 93.5248 36.5993C92.0791 36.4639 90.9436 35.9117 90.1184 34.9426C89.3061 33.9626 88.9638 32.7916 89.0913 31.4296C89.2154 30.1034 89.762 29.0277 90.7311 28.2024C91.6883 27.376 92.8658 27.0282 94.2637 27.159C95.566 27.2809 96.5983 27.8416 97.3605 28.8409C98.1227 29.8403 98.4422 30.9971 98.3192 32.3114C98.2969 32.5503 98.2478 32.8169 98.1721 33.1112ZM91.1689 30.8648L96.4379 31.3579C96.3725 30.6407 96.1246 30.0691 95.6945 29.6432C95.2762 29.2184 94.7386 28.9752 94.0814 28.9137C93.3646 28.8466 92.7487 28.9878 92.2339 29.3374C91.7191 29.6869 91.3641 30.196 91.1689 30.8648ZM107.979 28.6777L107.311 35.8106L108.512 35.923L108.116 40.1525L106.216 39.9747L106.441 37.5732L100.294 36.9978L100.069 39.3993L98.1696 39.2215L98.5655 34.992L99.6587 35.0943C100.28 34.3811 100.656 33.3256 100.787 31.9277L101.151 28.0387L107.979 28.6777ZM101.791 35.2939L105.412 35.6328L105.913 30.2742L102.884 29.9907L102.686 32.1055C102.566 33.3958 102.267 34.4586 101.791 35.2939ZM113.771 38.4942C112.421 38.3678 111.334 37.8082 110.511 36.8151C109.701 35.8113 109.358 34.6522 109.481 33.338C109.606 31.9998 110.159 30.9246 111.138 30.1124C112.131 29.2894 113.303 28.941 114.653 29.0674C115.525 29.149 116.3 29.4325 116.978 29.9178C117.656 30.403 118.141 31.0149 118.433 31.7534L116.676 32.5651C116.513 32.116 116.234 31.7524 115.838 31.4743C115.455 31.1854 114.995 31.0158 114.457 30.9654C113.669 30.8916 112.981 31.0984 112.393 31.5857C111.815 32.0861 111.49 32.7306 111.416 33.5191C111.342 34.3077 111.543 35.0014 112.017 35.6002C112.504 36.1881 113.142 36.519 113.931 36.5928C114.456 36.642 114.94 36.5667 115.38 36.3669C115.834 36.1563 116.188 35.846 116.443 35.436L118.021 36.5418C117.572 37.2229 116.963 37.7384 116.195 38.0884C115.439 38.4394 114.631 38.5747 113.771 38.4942ZM119.025 29.7117L126.821 30.4413L126.647 32.3052L123.726 32.0318L123.061 39.1288L121.126 38.9476L121.79 31.8506L118.851 31.5755L119.025 29.7117ZM134.759 32.4678L134.878 31.1954L136.813 31.3766L135.975 40.3374L134.039 40.1562L134.16 38.8659C133.336 39.8132 132.243 40.2232 130.881 40.0957C129.65 39.9805 128.642 39.4281 127.854 38.4384C127.067 37.4487 126.736 36.2908 126.86 34.9646C126.984 33.6384 127.525 32.5621 128.482 31.7357C129.439 30.9093 130.533 30.5537 131.763 30.6689C133.125 30.7964 134.124 31.396 134.759 32.4678ZM129.409 37.2822C129.896 37.8702 130.546 38.2022 131.359 38.2783C132.171 38.3543 132.871 38.1487 133.459 37.6613C134.048 37.1621 134.381 36.5002 134.459 35.6758C134.536 34.8514 134.331 34.1452 133.843 33.5573C133.357 32.9573 132.708 32.6194 131.895 32.5433C131.083 32.4673 130.382 32.6789 129.793 33.1782C129.205 33.6655 128.872 34.3214 128.795 35.1458C128.719 35.9582 128.924 36.6704 129.409 37.2822ZM144.863 36.5231C145.708 37.024 146.086 37.7524 145.996 38.7082C145.925 39.4728 145.604 40.0636 145.035 40.4803C144.477 40.8982 143.739 41.0641 142.819 40.978L138.231 40.5486L139.069 31.5877L143.299 31.9836C144.207 32.0686 144.897 32.3621 145.368 32.8642C145.839 33.3663 146.04 33.9878 145.971 34.7285C145.891 35.5768 145.522 36.175 144.863 36.5231ZM143.001 33.619L140.761 33.4093L140.575 35.3986L142.815 35.6083C143.604 35.6821 144.029 35.3844 144.092 34.7154C144.153 34.0582 143.79 33.6928 143.001 33.619ZM140.234 39.0367L142.797 39.2766C143.61 39.3526 144.049 39.0382 144.115 38.3332C144.144 38.0226 144.059 37.7736 143.859 37.5862C143.661 37.3868 143.371 37.2693 142.988 37.2335L140.426 36.9936L140.234 39.0367ZM148.694 32.4886L155.558 33.131L154.72 42.0918L152.784 41.9107L153.448 34.8137L150.455 34.5336L150.143 37.867C150.013 39.2649 149.614 40.24 148.948 40.7923C148.281 41.3446 147.368 41.5122 146.207 41.2951L146.376 39.485C146.917 39.632 147.34 39.5571 147.645 39.2602C147.951 38.9514 148.141 38.3967 148.216 37.5962L148.694 32.4886ZM165.973 39.4571L158.841 38.7895C158.921 39.472 159.195 40.0219 159.662 40.4393C160.141 40.8577 160.757 41.1022 161.51 41.1727C162.526 41.2677 163.331 40.9695 163.926 40.2779L165.434 41.3591C164.44 42.5798 163.07 43.1085 161.326 42.9452C159.88 42.8099 158.745 42.2577 157.92 41.2886C157.107 40.3086 156.765 39.1376 156.893 37.7756C157.017 36.4494 157.563 35.3736 158.532 34.5483C159.49 33.7219 160.667 33.3742 162.065 33.505C163.367 33.6269 164.4 34.1875 165.162 35.1869C165.924 36.1863 166.244 37.3431 166.121 38.6574C166.098 38.8963 166.049 39.1629 165.973 39.4571ZM158.97 37.2107L164.239 37.7039C164.174 36.9867 163.926 36.4151 163.496 35.9891C163.078 35.5643 162.54 35.3212 161.883 35.2596C161.166 35.1926 160.55 35.3338 160.035 35.6833C159.52 36.0329 159.165 36.542 158.97 37.2107ZM173.951 38.4501L174.284 34.8837L176.22 35.0649L175.381 44.0257L173.446 43.8445L173.779 40.2781L169.675 39.894L169.342 43.4604L167.406 43.2793L168.245 34.3184L170.18 34.4996L169.846 38.066L173.951 38.4501ZM184.171 39.4068L184.505 35.8403L186.441 36.0215L185.602 44.9823L183.667 44.8012L184 41.2348L179.896 40.8506L179.563 44.4171L177.627 44.2359L178.466 35.2751L180.401 35.4562L180.067 39.0226L184.171 39.4068ZM195.665 38.1684L195.784 36.896L197.719 37.0771L196.88 46.038L194.945 45.8568L195.066 44.5664C194.242 45.5138 193.149 45.9237 191.787 45.7962C190.556 45.6811 189.547 45.1286 188.76 44.139C187.973 43.1493 187.641 41.9914 187.765 40.6652C187.89 39.339 188.43 38.2627 189.387 37.4363C190.345 36.6099 191.438 36.2543 192.669 36.3694C194.031 36.4969 195.03 37.0966 195.665 38.1684ZM190.315 42.9828C190.802 43.5708 191.452 43.9028 192.264 43.9788C193.077 44.0549 193.777 43.8492 194.365 43.3619C194.954 42.8626 195.287 42.2008 195.364 41.3764C195.441 40.552 195.236 39.8458 194.749 39.2578C194.263 38.6579 193.613 38.3199 192.801 38.2439C191.989 38.1678 191.288 38.3795 190.699 38.8787C190.111 39.3661 189.778 40.0219 189.701 40.8463C189.625 41.6588 189.829 42.3709 190.315 42.9828ZM202.914 37.5634L206.911 37.9374L206.072 46.8983L204.172 46.7205L204.454 43.7096L203.379 43.609L200.821 46.4068L198.545 46.1938L201.263 43.2302C200.661 42.9689 200.193 42.5635 199.858 42.0139C199.536 41.4655 199.404 40.8747 199.464 40.2415C199.541 39.4171 199.899 38.7455 200.538 38.2268C201.178 37.6962 201.97 37.475 202.914 37.5634ZM202.621 41.8567L204.61 42.0429L204.847 39.516L202.857 39.3298C202.451 39.2917 202.106 39.3799 201.82 39.5943C201.548 39.7978 201.394 40.0907 201.358 40.473C201.323 40.8554 201.42 41.1718 201.649 41.4223C201.891 41.6739 202.215 41.8187 202.621 41.8567ZM219.437 43.503C220.282 44.0039 220.66 44.7323 220.571 45.6881C220.499 46.4528 220.179 47.0435 219.609 47.4602C219.052 47.8781 218.313 48.044 217.393 47.9579L212.805 47.5285L213.644 38.5676L217.873 38.9635C218.782 39.0485 219.471 39.342 219.942 39.8441C220.414 40.3462 220.615 40.9677 220.545 41.7084C220.466 42.5567 220.097 43.1549 219.437 43.503ZM217.576 40.5989L215.336 40.3892L215.149 42.3785L217.39 42.5882C218.178 42.662 218.604 42.3643 218.666 41.6953C218.728 41.0381 218.364 40.6727 217.576 40.5989ZM214.809 46.0166L217.372 46.2565C218.184 46.3325 218.623 46.0181 218.689 45.3132C218.718 45.0025 218.633 44.7535 218.434 44.5661C218.236 44.3667 217.945 44.2492 217.563 44.2134L215 43.9735L214.809 46.0166ZM229.723 41.3561L229.842 40.0837L231.777 40.2648L230.939 49.2257L229.003 49.0445L229.124 47.7542C228.3 48.7015 227.207 49.1114 225.845 48.984C224.614 48.8688 223.605 48.3164 222.818 47.3267C222.031 46.337 221.7 45.1791 221.824 43.8529C221.948 42.5267 222.488 41.4504 223.446 40.624C224.403 39.7976 225.497 39.442 226.727 39.5572C228.089 39.6846 229.088 40.2843 229.723 41.3561ZM224.373 46.1705C224.86 46.7585 225.51 47.0905 226.322 47.1665C227.135 47.2426 227.835 47.0369 228.423 46.5496C229.012 46.0503 229.345 45.3885 229.422 44.5641C229.5 43.7397 229.295 43.0335 228.807 42.4456C228.321 41.8456 227.672 41.5076 226.859 41.4316C226.047 41.3556 225.346 41.5672 224.757 42.0665C224.169 42.5538 223.836 43.2096 223.759 44.034C223.683 44.8465 223.888 45.5587 224.373 46.1705ZM241.202 41.147L243.173 41.3315L242.335 50.2923L240.453 50.1162L241.005 44.22L238.04 48.0825L237.807 48.0607L235.627 43.7347L235.076 49.613L233.195 49.4368L234.033 40.476L236.005 40.6605L238.216 45.0436L241.202 41.147ZM246.777 47.3997L251.897 42.148L253.385 42.2872L252.546 51.248L250.646 51.0702L251.18 45.3711L246.058 50.6408L244.571 50.5016L245.409 41.5408L247.309 41.7186L246.777 47.3997ZM261.479 48.7757L266.598 43.524L268.086 43.6632L267.247 52.624L265.348 52.4462L265.881 46.7471L260.76 52.0168L259.272 51.8776L260.111 42.9168L262.01 43.0946L261.479 48.7757ZM276.038 48.0051L276.371 44.4387L278.307 44.6199L277.468 53.5807L275.533 53.3995L275.866 49.8331L271.762 49.449L271.429 53.0154L269.493 52.8342L270.332 43.8734L272.267 44.0546L271.933 47.621L276.038 48.0051ZM285.613 54.5057L285.293 57.9288L283.393 57.751L283.713 54.3279C282.344 54.019 281.293 53.4023 280.56 52.478C279.827 51.5537 279.517 50.4822 279.632 49.2635C279.746 48.0448 280.249 47.0494 281.14 46.2771C282.032 45.5049 283.18 45.094 284.582 45.0445L284.903 41.6215L286.802 41.7993L286.482 45.2223C287.851 45.5312 288.902 46.1479 289.635 47.0722C290.368 47.9965 290.678 49.068 290.564 50.2867C290.45 51.5054 289.947 52.5009 289.055 53.2731C288.163 54.0454 287.016 54.4562 285.613 54.5057ZM286.309 47.0682L285.786 52.6598C286.625 52.5816 287.294 52.3189 287.794 51.8715C288.295 51.4122 288.579 50.8241 288.646 50.1072C288.713 49.3904 288.543 48.7658 288.135 48.2334C287.727 47.6891 287.119 47.3007 286.309 47.0682ZM283.886 52.482L284.409 46.8904C283.582 46.9697 282.913 47.2384 282.4 47.6966C281.9 48.144 281.616 48.7261 281.549 49.443C281.482 50.1599 281.652 50.7904 282.059 51.3347C282.479 51.8682 283.088 52.2506 283.886 52.482ZM299.582 54.5115C298.589 55.3345 297.429 55.684 296.103 55.5598C294.777 55.4357 293.702 54.8771 292.879 53.8841C292.045 52.878 291.69 51.7179 291.813 50.4036C291.936 49.0894 292.5 48.0153 293.506 47.1814C294.499 46.3584 295.659 46.0089 296.985 46.133C298.311 46.2572 299.386 46.8157 300.209 47.8088C301.043 48.8149 301.398 49.975 301.275 51.2893C301.152 52.6035 300.588 53.6776 299.582 54.5115ZM293.748 50.5848C293.672 51.3972 293.878 52.0974 294.365 52.6854C294.852 53.2734 295.49 53.6043 296.279 53.6781C297.068 53.7519 297.756 53.5451 298.344 53.0578C298.932 52.5705 299.264 51.9206 299.34 51.1081C299.416 50.2957 299.21 49.5955 298.723 49.0075C298.236 48.4195 297.598 48.0886 296.809 48.0148C296.02 47.941 295.332 48.1478 294.744 48.6351C294.156 49.1224 293.824 49.7723 293.748 50.5848ZM308.538 47.2144C309.757 47.3285 310.766 47.8869 311.564 48.8896C312.351 49.8793 312.683 51.0312 312.56 52.3455C312.436 53.6717 311.895 54.748 310.938 55.5744C309.981 56.4008 308.887 56.7564 307.656 56.6412C306.306 56.5148 305.308 55.9152 304.661 54.8422L304.206 59.699L302.271 59.5178L303.445 46.9727L305.38 47.1538L305.26 48.4442C306.083 47.4968 307.176 47.0869 308.538 47.2144ZM305.575 53.7707C306.062 54.3587 306.712 54.6907 307.524 54.7667C308.337 54.8428 309.037 54.6371 309.625 54.1498C310.214 53.6505 310.547 52.9887 310.624 52.1643C310.701 51.3399 310.496 50.6337 310.009 50.0458C309.523 49.4458 308.873 49.1079 308.061 49.0318C307.249 48.9558 306.548 49.1674 305.959 49.6667C305.371 50.154 305.038 50.8099 304.961 51.6343C304.885 52.4467 305.09 53.1589 305.575 53.7707ZM321.902 48.7002L323.873 48.8847L323.035 57.8456L321.153 57.6694L321.705 51.7732L318.74 55.6357L318.507 55.6139L316.327 51.2879L315.776 57.1662L313.895 56.9901L314.733 48.0292L316.705 48.2138L318.916 52.5969L321.902 48.7002ZM333.087 51.0307L333.206 49.7583L335.142 49.9394L334.303 58.9003L332.368 58.7191L332.489 57.4287C331.665 58.3761 330.572 58.786 329.21 58.6585C327.979 58.5433 326.97 57.9909 326.183 57.0013C325.396 56.0116 325.064 54.8537 325.188 53.5275C325.312 52.2012 325.853 51.1249 326.81 50.2986C327.767 49.4722 328.861 49.1165 330.092 49.2317C331.454 49.3592 332.452 49.9589 333.087 51.0307ZM327.737 55.8451C328.225 56.4331 328.875 56.7651 329.687 56.8411C330.5 56.9172 331.2 56.7115 331.788 56.2242C332.377 55.7249 332.71 55.0631 332.787 54.2387C332.864 53.4143 332.659 52.7081 332.172 52.1201C331.686 51.5202 331.036 51.1822 330.224 51.1062C329.411 51.0301 328.711 51.2417 328.122 51.741C327.534 52.2284 327.201 52.8842 327.124 53.7086C327.048 54.5211 327.252 55.2332 327.737 55.8451ZM345.104 50.8719L344.437 58.0047L345.906 58.1422L345.51 62.3717L343.611 62.1939L343.836 59.7924L336.559 59.1114L337.398 50.1506L339.334 50.3317L338.666 57.4646L342.501 57.8235L343.169 50.6907L345.104 50.8719ZM349.512 57.0153L354.632 51.7636L356.119 51.9028L355.28 60.8636L353.381 60.6858L353.914 54.9867L348.793 60.2564L347.305 60.1172L348.144 51.1564L350.044 51.3342L349.512 57.0153ZM361.304 52.3881L365.301 52.7622L364.462 61.723L362.562 61.5452L362.844 58.5344L361.769 58.4337L359.211 61.2315L356.935 61.0185L359.653 58.0549C359.051 57.7936 358.582 57.3882 358.248 56.8387C357.926 56.2903 357.794 55.6994 357.854 55.0662C357.931 54.2418 358.289 53.5703 358.928 53.0516C359.568 52.5209 360.36 52.2998 361.304 52.3881ZM361.011 56.6814L363 56.8676L363.237 54.3407L361.247 54.1545C360.841 54.1165 360.495 54.2046 360.21 54.419C359.938 54.6225 359.784 54.9154 359.748 55.2978C359.712 55.6801 359.809 55.9965 360.039 56.247C360.281 56.4986 360.605 56.6434 361.011 56.6814ZM35.5506 49.4285L39.209 54.381L36.8971 54.1646L33.6107 49.6808L33.2232 53.8207L31.2877 53.6396L32.1264 44.6787L34.0619 44.8599L33.6912 48.8206L37.5387 45.1853L39.9044 45.4067L35.5506 49.4285ZM47.48 54.0162C46.487 54.8392 45.3274 55.1887 44.0012 55.0645C42.675 54.9404 41.6003 54.3818 40.7773 53.3888C39.9434 52.3827 39.588 51.2226 39.711 49.9083C39.834 48.5941 40.3986 47.52 41.4046 46.6861C42.3977 45.8631 43.5573 45.5136 44.8835 45.6377C46.2097 45.7619 47.2843 46.3204 48.1073 47.3135C48.9412 48.3196 49.2966 49.4797 49.1736 50.794C49.0506 52.1082 48.4861 53.1823 47.48 54.0162ZM41.6465 50.0895C41.5705 50.9019 41.7761 51.6021 42.2635 52.1901C42.7508 52.7781 43.3887 53.109 44.1773 53.1828C44.9658 53.2566 45.6541 53.0498 46.2421 52.5625C46.83 52.0752 47.1621 51.4253 47.2381 50.6128C47.3141 49.8004 47.1085 49.1002 46.6212 48.5122C46.1338 47.9242 45.4959 47.5933 44.7073 47.5195C43.9188 47.4457 43.2305 47.6525 42.6426 48.1398C42.0546 48.6271 41.7226 49.277 41.6465 50.0895ZM57.049 50.6091L57.3828 47.0427L59.3183 47.2238L58.4796 56.1847L56.5441 56.0035L56.8779 52.4371L52.7738 52.053L52.44 55.6194L50.5044 55.4382L51.3432 46.4774L53.2787 46.6585L52.9449 50.2249L57.049 50.6091ZM66.6245 57.1097L66.3041 60.5327L64.4044 60.3549L64.7248 56.9319C63.3556 56.6229 62.3045 56.0063 61.5714 55.082C60.8384 54.1576 60.5289 53.0861 60.6429 51.8675C60.757 50.6488 61.26 49.6533 62.1518 48.8811C63.0437 48.1088 64.1909 47.698 65.5937 47.6485L65.914 44.2254L67.8137 44.4032L67.4934 47.8263C68.8625 48.1352 69.9136 48.7518 70.6467 49.6762C71.3797 50.6005 71.6892 51.672 71.5752 52.8907C71.4611 54.1094 70.9582 55.1048 70.0663 55.8771C69.1745 56.6493 68.0272 57.0602 66.6245 57.1097ZM67.3206 49.6722L66.7972 55.2638C67.6362 55.1856 68.3056 54.9228 68.8054 54.4755C69.3064 54.0162 69.5905 53.4281 69.6576 52.7112C69.7246 51.9943 69.5541 51.3697 69.1459 50.8374C68.7389 50.2931 68.1304 49.9047 67.3206 49.6722ZM64.8975 55.086L65.4209 49.4944C64.5939 49.5737 63.9239 49.8424 63.411 50.3006C62.9111 50.748 62.6277 51.3301 62.5606 52.0469C62.4935 52.7638 62.6634 53.3944 63.0705 53.9387C63.4906 54.4722 64.0996 54.8546 64.8975 55.086ZM81.9049 54.6891L74.7721 54.0215C74.8528 54.704 75.1268 55.2539 75.5939 55.6713C76.073 56.0898 76.6889 56.3342 77.4416 56.4047C78.4572 56.4997 79.2625 56.2015 79.8575 55.5099L81.3653 56.5911C80.3712 57.8118 79.002 58.3405 77.2576 58.1772C75.8119 58.0419 74.6765 57.4897 73.8512 56.5206C73.039 55.5406 72.6966 54.3696 72.8241 53.0076C72.9482 51.6814 73.4948 50.6056 74.464 49.7804C75.4211 48.954 76.5987 48.6062 77.9966 48.737C79.2989 48.8589 80.3311 49.4195 81.0933 50.4189C81.8555 51.4183 82.1751 52.5751 82.0521 53.8894C82.0297 54.1283 81.9806 54.3949 81.9049 54.6891ZM74.9018 52.4427L80.1707 52.9359C80.1053 52.2187 79.8575 51.6471 79.4273 51.2212C79.0091 50.7963 78.4714 50.5532 77.8143 50.4917C77.0974 50.4246 76.4816 50.5658 75.9667 50.9153C75.4519 51.2649 75.0969 51.774 74.9018 52.4427ZM91.7117 50.2557L91.0441 57.3886L92.2449 57.5009L91.849 61.7305L89.9493 61.5526L90.1741 59.1511L84.0269 58.5758L83.8022 60.9773L81.9025 60.7995L82.2983 56.57L83.3916 56.6723C84.0127 55.9591 84.3887 54.9035 84.5196 53.5056L84.8836 49.6166L91.7117 50.2557ZM85.5242 56.8719L89.1444 57.2107L89.646 51.8522L86.6172 51.5687L86.4193 53.6834C86.2985 54.9738 86.0001 56.0366 85.5242 56.8719ZM102.294 56.5975L95.1615 55.9299C95.2422 56.6124 95.5162 57.1623 95.9833 57.5797C96.4624 57.9981 97.0783 58.2426 97.831 58.313C98.8466 58.4081 99.6519 58.1098 100.247 57.4183L101.755 58.4995C100.761 59.7202 99.3914 60.2489 97.647 60.0856C96.2013 59.9503 95.0659 59.3981 94.2406 58.429C93.4284 57.449 93.086 56.278 93.2135 54.916C93.3376 53.5897 93.8842 52.514 94.8534 51.6887C95.8105 50.8623 96.9881 50.5146 98.386 50.6454C99.6883 50.7673 100.721 51.3279 101.483 52.3273C102.245 53.3267 102.564 54.4835 102.441 55.7977C102.419 56.0367 102.37 56.3033 102.294 56.5975ZM95.2912 54.3511L100.56 54.8443C100.495 54.127 100.247 53.5555 99.8167 53.1295C99.3985 52.7047 98.8608 52.4615 98.2037 52.4C97.4868 52.3329 96.871 52.4742 96.3561 52.8237C95.8413 53.1733 95.4863 53.6824 95.2912 54.3511ZM112.272 52.1801L111.604 59.3129L113.074 59.4505L112.678 63.68L110.778 63.5022L111.003 61.1007L103.727 60.4196L104.566 51.4588L106.501 51.64L105.834 58.7728L109.669 59.1318L110.336 51.9989L112.272 52.1801ZM116.68 58.3236L121.799 53.0718L123.287 53.211L122.448 62.1719L120.548 61.9941L121.082 56.295L115.96 61.5647L114.473 61.4254L115.312 52.4646L117.211 52.6424L116.68 58.3236ZM132.51 55.3579L132.63 54.0855L134.565 54.2667L133.726 63.2275L131.791 63.0463L131.912 61.756C131.088 62.7033 129.995 63.1132 128.633 62.9858C127.402 62.8706 126.393 62.3182 125.606 61.3285C124.819 60.3388 124.487 59.1809 124.611 57.8547C124.736 56.5285 125.276 55.4522 126.233 54.6258C127.191 53.7994 128.284 53.4438 129.515 53.559C130.877 53.6864 131.876 54.2861 132.51 55.3579ZM127.161 60.1723C127.648 60.7603 128.298 61.0923 129.11 61.1683C129.923 61.2444 130.623 61.0387 131.211 60.5514C131.8 60.0521 132.133 59.3903 132.21 58.5659C132.287 57.7415 132.082 57.0353 131.595 56.4474C131.109 55.8474 130.459 55.5095 129.647 55.4334C128.835 55.3574 128.134 55.569 127.545 56.0683C126.957 56.5556 126.624 57.2115 126.547 58.0358C126.471 58.8483 126.675 59.5605 127.161 60.1723ZM137.52 54.5432L144.384 55.1857L143.545 64.1465L141.61 63.9653L142.274 56.8684L139.281 56.5882L138.969 59.9217C138.838 61.3196 138.44 62.2947 137.773 62.847C137.107 63.3993 136.193 63.5669 135.033 63.3497L135.202 61.5397C135.743 61.6867 136.165 61.6118 136.47 61.3149C136.777 61.0061 136.967 60.4514 137.042 59.6509L137.52 54.5432ZM148.29 58.6246L150.261 58.8091C151.229 58.8997 151.986 59.2478 152.532 59.8533C153.091 60.448 153.329 61.1874 153.246 62.0715C153.165 62.9437 152.793 63.6261 152.133 64.1186C151.484 64.6123 150.676 64.8139 149.708 64.7233L145.801 64.3576L146.64 55.3968L148.575 55.5779L148.29 58.6246ZM147.899 62.8004L149.888 62.9866C150.271 63.0223 150.598 62.9385 150.87 62.735C151.154 62.5325 151.313 62.2521 151.347 61.8937C151.38 61.5353 151.282 61.2308 151.052 60.9803C150.823 60.7298 150.511 60.5861 150.117 60.5492L148.127 60.363L147.899 62.8004ZM161.096 60.3475L161.43 56.7811L163.366 56.9623L162.527 65.9231L160.591 65.7419L160.925 62.1755L156.821 61.7914L156.487 65.3578L154.552 65.1767L155.39 56.2158L157.326 56.397L156.992 59.9634L161.096 60.3475ZM172.589 59.1092L172.708 57.8367L174.644 58.0179L173.805 66.9787L171.87 66.7976L171.99 65.5072C171.167 66.4545 170.074 66.8645 168.712 66.737C167.481 66.6218 166.472 66.0694 165.685 65.0797C164.898 64.0901 164.566 62.9321 164.69 61.6059C164.814 60.2797 165.355 59.2034 166.312 58.377C167.269 57.5506 168.363 57.195 169.594 57.3102C170.956 57.4377 171.954 58.0373 172.589 59.1092ZM167.239 63.9236C167.727 64.5115 168.376 64.8435 169.189 64.9196C170.001 64.9956 170.702 64.79 171.29 64.3026C171.879 63.8034 172.212 63.1415 172.289 62.3171C172.366 61.4927 172.161 60.7866 171.674 60.1986C171.187 59.5987 170.538 59.2607 169.726 59.1846C168.913 59.1086 168.212 59.3202 167.623 59.8195C167.035 60.3068 166.703 60.9627 166.626 61.7871C166.55 62.5995 166.754 63.3117 167.239 63.9236ZM179.839 58.5041L183.836 58.8782L182.997 67.839L181.097 67.6612L181.379 64.6504L180.304 64.5497L177.746 67.3475L175.47 67.1345L178.188 64.1709C177.585 63.9096 177.117 63.5042 176.783 62.9547C176.461 62.4063 176.329 61.8155 176.388 61.1822C176.466 60.3578 176.824 59.6863 177.463 59.1676C178.103 58.6369 178.895 58.4158 179.839 58.5041ZM179.546 62.7975L181.535 62.9837L181.771 60.4567L179.782 60.2705C179.376 60.2325 179.03 60.3207 178.745 60.535C178.473 60.7385 178.319 61.0315 178.283 61.4138C178.247 61.7961 178.344 62.1125 178.574 62.363C178.816 62.6146 179.139 62.7595 179.546 62.7975ZM191.937 65.3674L197.056 60.1156L198.544 60.2548L197.705 69.2157L195.805 69.0379L196.339 63.3388L191.217 68.6084L189.73 68.4692L190.569 59.5084L192.468 59.6862L191.937 65.3674ZM210.976 65.0161L211.31 61.4497L213.245 61.6308L212.406 70.5917L210.471 70.4105L210.805 66.8441L206.701 66.46L206.367 70.0264L204.431 69.8452L205.27 60.8844L207.206 61.0655L206.872 64.632L210.976 65.0161ZM223.651 67.956L216.518 67.2884C216.599 67.9709 216.873 68.5208 217.34 68.9382C217.819 69.3567 218.435 69.6011 219.187 69.6716C220.203 69.7666 221.008 69.4684 221.603 68.7768L223.111 69.858C222.117 71.0787 220.748 71.6074 219.003 71.4441C217.558 71.3088 216.422 70.7566 215.597 69.7875C214.785 68.8075 214.442 67.6365 214.57 66.2745C214.694 64.9483 215.241 63.8725 216.21 63.0473C217.167 62.2209 218.344 61.8731 219.742 62.0039C221.045 62.1258 222.077 62.6864 222.839 63.6858C223.601 64.6852 223.921 65.842 223.798 67.1563C223.775 67.3952 223.726 67.6618 223.651 67.956ZM216.647 65.7096L221.916 66.2028C221.851 65.4856 221.603 64.914 221.173 64.4881C220.755 64.0632 220.217 63.8201 219.56 63.7586C218.843 63.6915 218.227 63.8327 217.712 64.1822C217.198 64.5318 216.843 65.0409 216.647 65.7096ZM230.402 63.2367L238.378 63.9831L237.539 72.944L235.603 72.7628L236.271 65.63L232.167 65.2459L231.499 72.3787L229.564 72.1975L230.402 63.2367ZM245.717 64.4351C246.936 64.5491 247.944 65.1075 248.742 66.1102C249.529 67.0999 249.861 68.2519 249.738 69.5661C249.614 70.8923 249.074 71.9686 248.116 72.795C247.159 73.6214 246.065 73.977 244.835 73.8619C243.485 73.7355 242.486 73.1358 241.839 72.0629L241.385 76.9197L239.449 76.7385L240.623 64.1933L242.559 64.3745L242.438 65.6648C243.262 64.7175 244.355 64.3076 245.717 64.4351ZM242.753 70.9914C243.24 71.5794 243.89 71.9114 244.703 71.9874C245.515 72.0634 246.215 71.8578 246.803 71.3705C247.392 70.8712 247.726 70.2094 247.803 69.385C247.88 68.5606 247.675 67.8544 247.188 67.2664C246.701 66.6665 246.052 66.3285 245.24 66.2525C244.427 66.1764 243.726 66.388 243.137 66.8873C242.549 67.3746 242.217 68.0305 242.14 68.8549C242.063 69.6674 242.268 70.3795 242.753 70.9914ZM260.072 71.3649L252.939 70.6973C253.019 71.3798 253.293 71.9297 253.761 72.3471C254.24 72.7655 254.856 73.01 255.608 73.0804C256.624 73.1755 257.429 72.8772 258.024 72.1857L259.532 73.2669C258.538 74.4876 257.169 75.0163 255.424 74.853C253.979 74.7177 252.843 74.1655 252.018 73.1963C251.206 72.2164 250.863 71.0454 250.991 69.6833C251.115 68.3571 251.661 67.2814 252.631 66.4561C253.588 65.6297 254.765 65.2819 256.163 65.4128C257.466 65.5347 258.498 66.0953 259.26 67.0947C260.022 68.0941 260.342 69.2509 260.219 70.5651C260.196 70.8041 260.147 71.0707 260.072 71.3649ZM253.068 69.1185L258.337 69.6117C258.272 68.8944 258.024 68.3229 257.594 67.8969C257.176 67.4721 256.638 67.2289 255.981 67.1674C255.264 67.1003 254.648 67.2416 254.133 67.5911C253.619 67.9406 253.264 68.4498 253.068 69.1185ZM269.878 66.9315L269.211 74.0643L270.411 74.1767L270.016 78.4062L268.116 78.2284L268.341 75.8269L262.194 75.2516L261.969 77.6531L260.069 77.4753L260.465 73.2457L261.558 73.3481C262.179 72.6349 262.555 71.5793 262.686 70.1814L263.05 66.2924L269.878 66.9315ZM263.691 73.5477L267.311 73.8865L267.813 68.5279L264.784 68.2445L264.586 70.3592C264.465 71.6496 264.167 72.7124 263.691 73.5477ZM279.149 75.6996C278.156 76.5226 276.996 76.8721 275.67 76.748C274.344 76.6238 273.269 76.0653 272.446 75.0722C271.613 74.0661 271.257 72.906 271.38 71.5917C271.503 70.2775 272.068 69.2034 273.074 68.3695C274.067 67.5465 275.226 67.197 276.553 67.3212C277.879 67.4453 278.953 68.0039 279.776 68.9969C280.61 70.003 280.966 71.1631 280.843 72.4774C280.72 73.7916 280.155 74.8657 279.149 75.6996ZM273.316 71.7729C273.24 72.5853 273.445 73.2855 273.933 73.8735C274.42 74.4615 275.058 74.7924 275.846 74.8662C276.635 74.94 277.323 74.7332 277.911 74.2459C278.499 73.7586 278.831 73.1087 278.907 72.2962C278.983 71.4838 278.778 70.7836 278.29 70.1956C277.803 69.6076 277.165 69.2767 276.376 69.2029C275.588 69.1291 274.9 69.3359 274.312 69.8232C273.724 70.3105 273.392 70.9604 273.316 71.7729ZM286.381 77.7505C285.031 77.6241 283.945 77.0644 283.122 76.0714C282.312 75.0675 281.968 73.9085 282.091 72.5942C282.216 71.2561 282.769 70.1809 283.749 69.3687C284.742 68.5456 285.914 68.1973 287.264 68.3237C288.136 68.4053 288.911 68.6888 289.588 69.174C290.266 69.6593 290.751 70.2712 291.044 71.0096L289.286 71.8214C289.124 71.3723 288.844 71.0087 288.448 70.7306C288.066 70.4416 287.606 70.272 287.068 70.2217C286.279 70.1479 285.591 70.3546 285.003 70.842C284.426 71.3424 284.1 71.9868 284.027 72.7754C283.953 73.5639 284.153 74.2576 284.627 74.8564C285.115 75.4444 285.753 75.7753 286.541 75.8491C287.067 75.8983 287.55 75.823 287.991 75.6232C288.444 75.4125 288.799 75.1022 289.054 74.6922L290.632 75.7981C290.182 76.4792 289.574 76.9947 288.806 77.3446C288.05 77.6957 287.242 77.831 286.381 77.7505ZM291.636 68.9679L299.432 69.6976L299.257 71.5614L296.336 71.288L295.672 78.385L293.736 78.2038L294.401 71.1069L291.461 70.8318L291.636 68.9679ZM307.369 71.7241L307.488 70.4517L309.424 70.6328L308.585 79.5937L306.65 79.4125L306.77 78.1221C305.947 79.0695 304.854 79.4794 303.492 79.3519C302.261 79.2368 301.252 78.6843 300.465 77.6947C299.678 76.705 299.346 75.5471 299.47 74.2209C299.594 72.8947 300.135 71.8184 301.092 70.992C302.049 70.1656 303.143 69.81 304.374 69.9251C305.736 70.0526 306.734 70.6523 307.369 71.7241ZM302.019 76.5385C302.507 77.1265 303.157 77.4585 303.969 77.5345C304.781 77.6106 305.482 77.4049 306.07 76.9176C306.659 76.4183 306.992 75.7565 307.069 74.9321C307.146 74.1077 306.941 73.4015 306.454 72.8135C305.968 72.2136 305.318 71.8756 304.506 71.7996C303.693 71.7235 302.993 71.9352 302.403 72.4344C301.816 72.9218 301.483 73.5776 301.406 74.402C301.33 75.2145 301.534 75.9266 302.019 76.5385ZM317.473 75.7793C318.318 76.2803 318.696 77.0086 318.607 77.9644C318.535 78.7291 318.215 79.3198 317.645 79.7366C317.088 80.1545 316.349 80.3203 315.429 80.2342L310.841 79.8048L311.68 70.844L315.909 71.2398C316.818 71.3248 317.507 71.6184 317.978 72.1205C318.45 72.6226 318.651 73.244 318.581 73.9848C318.502 74.8331 318.133 75.4313 317.473 75.7793ZM315.612 72.8752L313.372 72.6655L313.185 74.6548L315.426 74.8645C316.214 74.9383 316.64 74.6407 316.702 73.9716C316.764 73.3145 316.4 72.949 315.612 72.8752ZM312.845 78.2929L315.408 78.5328C316.22 78.6089 316.659 78.2944 316.725 77.5895C316.754 77.2789 316.669 77.0298 316.47 76.8424C316.272 76.6431 315.981 76.5255 315.599 76.4897L313.036 76.2499L312.845 78.2929ZM321.305 71.7448L328.169 72.3873L327.33 81.3481L325.394 81.1669L326.059 74.07L323.066 73.7898L322.754 77.1233C322.623 78.5212 322.224 79.4963 321.558 80.0486C320.892 80.6009 319.978 80.7685 318.817 80.5513L318.987 78.7412C319.527 78.8883 319.95 78.8133 320.255 78.5165C320.561 78.2077 320.752 77.653 320.827 76.8525L321.305 71.7448ZM333.363 72.8735L337.36 73.2475L336.521 82.2084L334.621 82.0306L334.903 79.0197L333.828 78.9191L331.27 81.7169L328.994 81.5039L331.712 78.5402C331.11 78.279 330.642 77.8736 330.307 77.324C329.985 76.7756 329.854 76.1848 329.913 75.5516C329.99 74.7272 330.348 74.0556 330.987 73.5369C331.627 73.0063 332.419 72.7851 333.363 72.8735ZM333.07 77.1668L335.059 77.353L335.296 74.826L333.307 74.6399C332.9 74.6018 332.555 74.69 332.269 74.9044C331.997 75.1079 331.843 75.4008 331.807 75.7831C331.772 76.1655 331.869 76.4819 332.098 76.7324C332.34 76.984 332.664 77.1288 333.07 77.1668ZM347.772 79.5734L340.639 78.9058C340.72 79.5883 340.994 80.1382 341.461 80.5555C341.94 80.974 342.556 81.2185 343.309 81.2889C344.324 81.384 345.13 81.0857 345.725 80.3941L347.233 81.4754C346.239 82.696 344.869 83.2247 343.125 83.0615C341.679 82.9262 340.544 82.3739 339.719 81.4048C338.906 80.4249 338.564 79.2539 338.691 77.8918C338.816 76.5656 339.362 75.4899 340.331 74.6646C341.288 73.8382 342.466 73.4904 343.864 73.6213C345.166 73.7431 346.198 74.3038 346.961 75.3032C347.723 76.3025 348.042 77.4594 347.919 78.7736C347.897 79.0126 347.848 79.2792 347.772 79.5734ZM340.769 77.327L346.038 77.8201C345.973 77.1029 345.725 76.5313 345.295 76.1054C344.876 75.6806 344.339 75.4374 343.682 75.3759C342.965 75.3088 342.349 75.45 341.834 75.7996C341.319 76.1491 340.964 76.6583 340.769 77.327ZM348.744 74.313L356.54 75.0427L356.365 76.9065L353.444 76.6331L352.78 83.7301L350.844 83.5489L351.508 76.452L348.569 76.1769L348.744 74.313ZM360.868 84.7222C359.518 84.5958 358.432 84.0361 357.609 83.0431C356.799 82.0393 356.455 80.8802 356.578 79.566C356.703 78.2278 357.256 77.1526 358.236 76.3404C359.229 75.5174 360.4 75.169 361.751 75.2954C362.623 75.377 363.398 75.6605 364.075 76.1457C364.753 76.631 365.238 77.2429 365.531 77.9813L363.773 78.7931C363.611 78.344 363.331 77.9804 362.935 77.7023C362.553 77.4134 362.092 77.2437 361.555 77.1934C360.766 77.1196 360.078 77.3264 359.49 77.8137C358.913 78.3141 358.587 78.9586 358.514 79.7471C358.44 80.5357 358.64 81.2293 359.114 81.8281C359.602 82.4161 360.24 82.747 361.028 82.8208C361.554 82.87 362.037 82.7947 362.477 82.5949C362.931 82.3842 363.286 82.0739 363.541 81.6639L365.119 82.7698C364.669 83.4509 364.061 83.9664 363.293 84.3163C362.537 84.6674 361.728 84.8027 360.868 84.7222ZM369.977 76.3004L373.973 76.6744L373.135 85.6353L371.235 85.4574L371.517 82.4466L370.441 82.346L367.884 85.1438L365.608 84.9307L368.326 81.9671C367.723 81.7059 367.255 81.3005 366.921 80.7509C366.598 80.2025 366.467 79.6117 366.526 78.9785C366.603 78.1541 366.961 77.4825 367.601 76.9638C368.241 76.4332 369.033 76.212 369.977 76.3004ZM369.683 80.5937L371.673 80.7799L371.909 78.2529L369.92 78.0667C369.514 78.0287 369.168 78.1169 368.883 78.3312C368.611 78.5348 368.457 78.8277 368.421 79.21C368.385 79.5924 368.482 79.9088 368.712 80.1593C368.953 80.4109 369.277 80.5557 369.683 80.5937ZM388.279 76.1694L385.419 79.3004C386.331 79.6027 387.031 80.1022 387.52 80.7988C388.023 81.4846 388.231 82.2875 388.145 83.2075C388.027 84.462 387.511 85.408 386.595 86.0454C385.692 86.684 384.619 86.9452 383.376 86.8289C382.397 86.7372 381.551 86.4351 380.84 85.9226C380.13 85.3981 379.652 84.7026 379.408 83.836L381.26 82.9789C381.53 84.0889 382.298 84.7031 383.564 84.8216C384.281 84.8887 384.865 84.7626 385.317 84.4434C385.77 84.1121 386.026 83.6358 386.084 83.0146C386.142 82.3933 385.979 81.8838 385.594 81.4863C385.209 81.0887 384.659 80.8564 383.942 80.7893L383.476 80.7457L382.767 79.4319L385.807 76.1188L380.556 75.6273L380.737 73.6918L388.444 74.413L388.279 76.1694ZM395.564 78.6952L402.428 79.3377L401.589 88.2985L399.654 88.1174L400.318 81.0204L397.325 80.7403L397.013 84.0737C396.882 85.4716 396.484 86.4467 395.817 86.999C395.151 87.5513 394.237 87.7189 393.077 87.5018L393.246 85.6917C393.787 85.8387 394.21 85.7638 394.515 85.4669C394.821 85.1581 395.011 84.6034 395.086 83.8029L395.564 78.6952ZM406.052 85.4078L411.171 80.156L412.659 80.2952L411.82 89.2561L409.92 89.0783L410.454 83.3792L405.332 88.6489L403.845 88.5096L404.684 79.5488L406.583 79.7266L406.052 85.4078ZM422.611 81.2267L421.943 88.3596L423.413 88.4971L423.017 92.7266L421.117 92.5488L421.342 90.1473L414.066 89.4663L414.905 80.5054L416.84 80.6866L416.173 87.8194L420.008 88.1784L420.675 81.0456L422.611 81.2267ZM432.278 83.4152L432.398 82.1427L434.333 82.3239L433.494 91.2847L431.559 91.1036L431.68 89.8132C430.856 90.7605 429.763 91.1705 428.401 91.043C427.17 90.9278 426.161 90.3754 425.374 89.3857C424.587 88.3961 424.255 87.2381 424.379 85.9119C424.504 84.5857 425.044 83.5094 426.001 82.683C426.959 81.8566 428.052 81.501 429.283 81.6162C430.645 81.7437 431.644 82.3433 432.278 83.4152ZM426.929 88.2296C427.416 88.8175 428.066 89.1495 428.878 89.2256C429.691 89.3016 430.391 89.096 430.979 88.6086C431.568 88.1094 431.901 87.4475 431.978 86.6231C432.055 85.7987 431.85 85.0926 431.363 84.5046C430.877 83.9047 430.227 83.5667 429.415 83.4906C428.603 83.4146 427.902 83.6262 427.313 84.1255C426.725 84.6128 426.392 85.2687 426.315 86.0931C426.239 86.9055 426.443 87.6177 426.929 88.2296ZM443.758 83.206L445.729 83.3905L444.89 92.3513L443.009 92.1752L443.561 86.279L440.596 90.1415L440.363 90.1197L438.182 85.7937L437.632 91.672L435.75 91.4959L436.589 82.535L438.561 82.7195L440.772 87.1027L443.758 83.206Z" fill="white"/>
<path d="M544.036 98.811C544.057 99.4375 543.972 99.795 543.88 99.9843C543.809 100.131 543.731 100.19 543.601 100.23C543.424 100.283 543.11 100.303 542.596 100.2C542.091 100.099 541.47 99.8956 540.724 99.5867C538.61 98.7119 535.827 97.1396 532.417 95.2128C530.922 94.3679 529.306 93.4548 527.573 92.5025C518.508 87.5217 506.524 81.6399 493.154 79.8629C508.845 78.0585 520.795 79.8665 529.152 83.2864C539.195 87.3956 543.863 93.7222 544.036 98.811Z" stroke="#557AFF" stroke-width="2"/>
</svg>
