<svg width="490" height="115" viewBox="0 0 490 115" fill="none" xmlns="http://www.w3.org/2000/svg">
<path fill-rule="evenodd" clip-rule="evenodd" d="M488.955 69.9729C489.137 72.1596 487.523 74.0846 485.338 74.2873L68.2588 112.981C66.7912 113.117 65.3676 112.435 64.554 111.206L44.6166 81.0897C43.7975 79.8524 43.7306 78.2635 44.4427 76.9618L62.8334 43.3467C63.4705 42.1821 64.6439 41.4094 65.9655 41.2843L479.256 2.1564C481.473 1.94649 483.434 3.58774 483.619 5.80707L488.955 69.9729ZM69.6204 82.4203C66.9074 82.9355 64.2905 81.1539 63.7754 78.4409C63.2602 75.728 65.0418 73.1111 67.7548 72.5959C70.4677 72.0807 73.0846 73.8624 73.5998 76.5753C74.115 79.2883 72.3333 81.9052 69.6204 82.4203Z" fill="#557AFF"/>
<path d="M86.2187 64.7601L88.3061 57.8795L90.3839 57.6741L87.4175 67.3729C86.6875 69.7482 85.2473 70.9758 83.0967 71.0557L82.9073 69.139C83.6189 69.141 84.1761 68.9835 84.5789 68.6663C84.9924 68.3361 85.2969 67.8176 85.4924 67.111L80.4424 58.6566L82.5202 58.4513L86.2187 64.7601ZM91.5006 61.1813L99.4717 60.3935L100.357 69.3498L98.4223 69.541L97.7177 62.4118L93.6157 62.8172L94.3203 69.9464L92.3857 70.1376L91.5006 61.1813ZM106.852 68.9431C105.503 69.0764 104.329 68.7342 103.332 67.9163C102.345 67.0853 101.787 66.013 101.657 64.6994C101.525 63.3619 101.863 62.2011 102.67 61.2169C103.488 60.2197 104.571 59.6543 105.921 59.521C106.793 59.4348 107.607 59.5653 108.365 59.9125C109.123 60.2596 109.716 60.7678 110.144 61.4369L108.573 62.5689C108.328 62.159 107.984 61.8553 107.543 61.6578C107.112 61.4471 106.628 61.3684 106.091 61.4215C105.302 61.4994 104.666 61.8336 104.182 62.4241C103.711 63.0253 103.514 63.72 103.592 64.5082C103.67 65.2963 103.999 65.9391 104.578 66.4365C105.169 66.9208 105.858 67.124 106.646 67.0461C107.172 66.9942 107.632 66.8281 108.026 66.548C108.431 66.2547 108.72 65.8825 108.893 65.4313L110.652 66.2161C110.341 66.9704 109.842 67.5925 109.155 68.0824C108.479 68.5712 107.712 68.8581 106.852 68.9431ZM112.093 66.0194L114.242 65.807L113.449 70.5882L111.837 70.7476L112.093 66.0194ZM119.152 58.4484L126.944 57.6783L127.128 59.5413L124.208 59.8298L124.91 66.9233L122.975 67.1145L122.274 60.021L119.336 60.3114L119.152 58.4484ZM135.122 58.1543L134.997 56.8825L136.931 56.6913L137.816 65.6477L135.882 65.8389L135.754 64.5491C135.126 65.6362 134.132 66.247 132.77 66.3815C131.54 66.5031 130.444 66.1532 129.483 65.3317C128.522 64.5103 127.975 63.4368 127.844 62.1113C127.713 60.7858 128.039 59.6261 128.821 58.6324C129.603 57.6386 130.609 57.081 131.839 56.9594C133.2 56.8249 134.295 57.2232 135.122 58.1543ZM130.789 63.9004C131.379 64.3847 132.08 64.5867 132.892 64.5064C133.704 64.4262 134.353 64.0908 134.837 63.5003C135.32 62.8979 135.521 62.1847 135.439 61.3607C135.358 60.5367 135.022 59.8826 134.431 59.3983C133.84 58.9021 133.138 58.6941 132.326 58.7743C131.514 58.8546 130.866 59.1959 130.383 59.7984C129.899 60.3889 129.697 61.0961 129.779 61.9201C129.859 62.7321 130.196 63.3922 130.789 63.9004ZM143.453 60.4782L147.989 64.6423L145.678 64.8707L141.597 61.0958L142.006 65.2336L140.071 65.4248L139.186 56.4684L141.121 56.2772L141.512 60.236L144.596 55.9338L146.96 55.7001L143.453 60.4782ZM156.038 62.7072C155.221 63.7045 154.149 64.2686 152.823 64.3996C151.498 64.5306 150.336 64.1872 149.339 63.3693C148.329 62.5407 147.759 61.4696 147.629 60.156C147.499 58.8424 147.848 57.6804 148.677 56.67C149.495 55.6727 150.567 55.1086 151.892 54.9775C153.218 54.8465 154.379 55.19 155.376 56.0079C156.387 56.8365 156.957 57.9076 157.087 59.2212C157.217 60.5348 156.867 61.6968 156.038 62.7072ZM149.563 59.9648C149.644 60.7768 149.979 61.425 150.569 61.9092C151.16 62.3935 151.849 62.5967 152.637 62.5188C153.426 62.4409 154.062 62.1067 154.546 61.5162C155.03 60.9257 155.232 60.2245 155.152 59.4124C155.072 58.6004 154.737 57.9522 154.146 57.4679C153.556 56.9837 152.866 56.7805 152.078 56.8584C151.29 56.9363 150.654 57.2705 150.169 57.861C149.685 58.4515 149.483 59.1527 149.563 59.9648ZM164.754 52.6754L159.738 53.1711L159.572 51.4873L164.587 50.9916L164.754 52.6754ZM160.853 60.0608L164.878 53.9293L166.365 53.7824L167.25 62.7387L165.351 62.9264L164.788 57.2301L160.765 63.3796L159.279 63.5265L158.393 54.5702L160.292 54.3825L160.853 60.0608ZM178.223 61.8894C176.874 62.0227 175.7 61.6805 174.703 60.8626C173.716 60.0316 173.158 58.9593 173.028 57.6457C172.896 56.3082 173.234 55.1474 174.041 54.1632C174.859 53.1659 175.942 52.6006 177.292 52.4673C178.164 52.3811 178.978 52.5116 179.736 52.8587C180.494 53.2059 181.087 53.714 181.515 54.3832L179.944 55.5151C179.699 55.1053 179.355 54.8016 178.914 54.6041C178.483 54.3934 177.999 54.3147 177.462 54.3678C176.673 54.4457 176.037 54.7799 175.553 55.3704C175.082 55.9716 174.885 56.6663 174.963 57.4545C175.041 58.2426 175.37 58.8854 175.949 59.3828C176.54 59.8671 177.229 60.0703 178.017 59.9924C178.543 59.9404 179.003 59.7744 179.397 59.4943C179.802 59.201 180.091 58.8288 180.264 58.3776L182.023 59.1624C181.712 59.9166 181.213 60.5388 180.526 61.0287C179.85 61.5175 179.083 61.8044 178.223 61.8894ZM181.707 52.2661L189.499 51.496L189.683 53.3589L186.763 53.6475L187.464 60.7409L185.53 60.9321L184.828 53.8387L181.891 54.129L181.707 52.2661ZM195.854 50.6327C197.072 50.5123 198.168 50.8682 199.143 51.7004C200.104 52.5218 200.65 53.5894 200.78 54.903C200.911 56.2285 200.585 57.3881 199.803 58.3819C199.021 59.3756 198.015 59.9333 196.785 60.0548C195.436 60.1882 194.341 59.7899 193.502 58.86L193.982 63.7143L192.047 63.9055L190.808 51.3666L192.742 51.1754L192.87 52.4651C193.498 51.3781 194.493 50.7673 195.854 50.6327ZM194.195 57.6339C194.785 58.1182 195.486 58.3202 196.298 58.2399C197.11 58.1596 197.759 57.8243 198.243 57.2338C198.726 56.6313 198.927 55.9181 198.845 55.0942C198.764 54.2702 198.428 53.616 197.837 53.1318C197.246 52.6356 196.544 52.4276 195.732 52.5078C194.92 52.5881 194.272 52.9294 193.789 53.5319C193.305 54.1224 193.103 54.8296 193.185 55.6536C193.265 56.4656 193.602 57.1257 194.195 57.6339ZM209.31 50.8222L209.184 49.5504L211.119 49.3592L212.004 58.3156L210.069 58.5068L209.942 57.2171C209.314 58.3041 208.319 58.9149 206.958 59.0495C205.728 59.171 204.632 58.8211 203.67 57.9997C202.709 57.1783 202.163 56.1048 202.032 54.7792C201.901 53.4537 202.226 52.2941 203.008 51.3003C203.79 50.3066 204.796 49.7489 206.026 49.6274C207.388 49.4928 208.482 49.8911 209.31 50.8222ZM204.976 56.5683C205.566 57.0526 206.268 57.2546 207.08 57.1744C207.892 57.0941 208.54 56.7587 209.024 56.1682C209.507 55.5658 209.708 54.8526 209.627 54.0286C209.545 53.2046 209.209 52.5505 208.619 52.0662C208.027 51.57 207.325 51.362 206.513 51.4423C205.701 51.5225 205.054 51.8639 204.571 52.4663C204.086 53.0568 203.885 53.7641 203.966 54.588C204.047 55.4001 204.383 56.0602 204.976 56.5683ZM219.762 52.1044L219.41 48.5398L221.345 48.3486L222.23 57.3049L220.295 57.4961L219.943 53.9315L215.841 54.3369L216.193 57.9015L214.259 58.0927L213.374 49.1364L215.308 48.9452L215.66 52.5098L219.762 52.1044ZM226.049 53.6174L230.074 47.4859L231.561 47.3389L232.446 56.2953L230.547 56.4829L229.984 50.7867L225.961 56.9362L224.475 57.0831L223.589 48.1267L225.488 47.9391L226.049 53.6174ZM241.508 46.3558L242.212 53.4851L243.681 53.3399L244.099 57.5673L242.2 57.755L241.963 55.3547L234.69 56.0734L233.805 47.1171L235.74 46.9259L236.444 54.0551L240.278 53.6763L239.573 46.547L241.508 46.3558ZM246.781 48.9095L248.752 48.7148C249.719 48.6192 250.529 48.8166 251.18 49.3069C251.842 49.7841 252.217 50.4645 252.304 51.3482C252.39 52.2199 252.156 52.9606 251.601 53.5701C251.058 54.1784 250.303 54.5304 249.336 54.626L245.431 55.0119L244.546 46.0556L246.481 45.8644L246.781 48.9095ZM253.671 54.1976L252.786 45.2412L254.72 45.05L255.606 54.0064L253.671 54.1976ZM247.194 53.0832L249.182 52.8867C249.564 52.8489 249.87 52.7042 250.098 52.4525C250.338 52.1997 250.441 51.8941 250.405 51.5358C250.37 51.1776 250.216 50.8974 249.942 50.6953C249.669 50.4932 249.336 50.4116 248.942 50.4506L246.953 50.6471L247.194 53.0832ZM267.833 47.3535L267.481 43.7889L269.415 43.5977L270.3 52.5541L268.366 52.7453L268.014 49.1806L263.912 49.586L264.264 53.1507L262.329 53.3419L261.444 44.3855L263.379 44.1943L263.731 47.7589L267.833 47.3535ZM280.836 47.8229L273.707 48.5275C273.916 49.1821 274.29 49.6697 274.828 49.9903C275.378 50.3098 276.029 50.4323 276.781 50.358C277.797 50.2577 278.53 49.8113 278.982 49.019L280.669 49.7929C279.926 51.1807 278.682 51.9608 276.939 52.1331C275.494 52.2759 274.274 51.9503 273.279 51.1563C272.295 50.3492 271.736 49.265 271.601 47.9036C271.47 46.5781 271.801 45.4178 272.595 44.4229C273.378 43.4292 274.467 42.8633 275.864 42.7252C277.166 42.5965 278.286 42.9501 279.225 43.7858C280.164 44.6215 280.698 45.6962 280.828 47.0098C280.851 47.2486 280.854 47.5197 280.836 47.8229ZM273.533 46.953L278.799 46.4325C278.598 45.7409 278.246 45.2271 277.742 44.891C277.251 44.5537 276.677 44.4175 276.02 44.4824C275.303 44.5532 274.726 44.8093 274.287 45.2506C273.848 45.6918 273.597 46.2593 273.533 46.953ZM291.699 50.6743C290.35 50.8077 289.177 50.4654 288.179 49.6475C287.193 48.8165 286.635 47.7442 286.505 46.4306C286.373 45.0931 286.71 43.9323 287.517 42.9482C288.335 41.9509 289.419 41.3856 290.768 41.2522C291.64 41.166 292.455 41.2965 293.213 41.6437C293.97 41.9908 294.563 42.499 294.991 43.1682L293.421 44.3001C293.175 43.8902 292.832 43.5866 292.39 43.389C291.96 43.1784 291.475 43.0996 290.938 43.1527C290.15 43.2306 289.514 43.5648 289.029 44.1553C288.558 44.7566 288.362 45.4513 288.44 46.2394C288.517 47.0276 288.846 47.6704 289.426 48.1678C290.016 48.652 290.706 48.8552 291.494 48.7773C292.019 48.7254 292.479 48.5593 292.874 48.2792C293.279 47.9859 293.568 47.6137 293.74 47.1626L295.5 47.9473C295.188 48.7016 294.689 49.3237 294.002 49.8137C293.327 50.3024 292.559 50.5893 291.699 50.6743ZM300.311 47.1282L301.959 40.3813L304.019 40.1777L301.493 49.7606C301.188 50.9364 300.686 51.8421 299.989 52.4777C299.292 53.1133 298.446 53.4503 297.448 53.4885L297.27 51.6793C298.423 51.6377 299.161 50.986 299.482 49.7243L299.523 49.5936L294.884 41.0806L296.944 40.877L300.311 47.1282ZM317.589 38.8366L318.293 45.9659L319.493 45.8473L319.911 50.0747L318.012 50.2624L317.775 47.8621L306.114 49.0145L305.229 40.0582L307.163 39.867L307.868 46.9963L311.146 46.6723L310.441 39.543L312.376 39.3518L313.081 46.4811L316.359 46.1571L315.654 39.0278L317.589 38.8366ZM329.186 43.0444L322.057 43.749C322.266 44.4036 322.64 44.8912 323.178 45.2118C323.728 45.5312 324.38 45.6538 325.132 45.5794C326.147 45.4791 326.881 45.0328 327.333 44.2405L329.019 45.0144C328.276 46.4022 327.033 47.1823 325.289 47.3546C323.844 47.4974 322.624 47.1718 321.629 46.3778C320.645 45.5707 320.086 44.4864 319.951 43.1251C319.82 41.7995 320.152 40.6393 320.946 39.6444C321.728 38.6506 322.818 38.0847 324.215 37.9466C325.516 37.818 326.637 38.1715 327.575 39.0073C328.514 39.843 329.048 40.9176 329.178 42.2312C329.202 42.4701 329.204 42.7411 329.186 43.0444ZM321.883 42.1744L327.15 41.654C326.949 40.9624 326.596 40.4485 326.093 40.1124C325.601 39.7751 325.027 39.6389 324.37 39.7039C323.654 39.7747 323.076 40.0307 322.637 40.472C322.199 40.9133 321.947 41.4808 321.883 42.1744ZM335.519 46.3435C334.17 46.4769 332.996 46.1346 331.999 45.3168C331.013 44.4857 330.454 43.4134 330.325 42.0998C330.192 40.7624 330.53 39.6015 331.337 38.6174C332.155 37.6201 333.239 37.0548 334.588 36.9214C335.46 36.8353 336.275 36.9658 337.032 37.3129C337.79 37.6601 338.383 38.1682 338.811 38.8374L337.241 39.9693C336.995 39.5595 336.652 39.2558 336.21 39.0583C335.779 38.8476 335.295 38.7688 334.758 38.8219C333.97 38.8998 333.333 39.234 332.849 39.8245C332.378 40.4258 332.181 41.1205 332.259 41.9086C332.337 42.6968 332.666 43.3396 333.246 43.837C333.836 44.3213 334.525 44.5244 335.314 44.4465C335.839 44.3946 336.299 44.2286 336.693 43.9484C337.098 43.6552 337.387 43.283 337.56 42.8318L339.319 43.6165C339.008 44.3708 338.509 44.9929 337.822 45.4829C337.147 45.9717 336.379 46.2585 335.519 46.3435ZM339.003 36.7202L346.795 35.9501L346.979 37.8131L344.059 38.1016L344.76 45.1951L342.826 45.3863L342.125 38.2928L339.187 38.5832L339.003 36.7202ZM354.732 39.561C355.657 39.8917 356.167 40.5346 356.261 41.49C356.337 42.2543 356.135 42.8952 355.655 43.4129C355.188 43.9294 354.494 44.233 353.575 44.3239L348.989 44.7771L348.104 35.8208L352.331 35.403C353.239 35.3133 353.972 35.4699 354.53 35.873C355.089 36.276 355.404 36.8477 355.477 37.5881C355.561 38.436 355.313 39.0936 354.732 39.561ZM352.351 37.0651L350.112 37.2864L350.308 39.2747L352.547 39.0534C353.336 38.9755 353.697 38.6022 353.631 37.9335C353.566 37.2767 353.139 36.9872 352.351 37.0651ZM350.668 42.911L353.229 42.6578C354.041 42.5776 354.412 42.1852 354.343 41.4806C354.312 41.1701 354.181 40.9419 353.95 40.796C353.717 40.6381 353.41 40.578 353.027 40.6158L350.466 40.8689L350.668 42.911ZM361.239 41.1066L362.887 34.3597L364.947 34.1561L362.421 43.739C362.115 44.9148 361.614 45.8205 360.917 46.4561C360.22 47.0917 359.373 47.4287 358.376 47.4669L358.197 45.6577C359.351 45.6161 360.088 44.9644 360.41 43.7027L360.451 43.572L355.811 35.059L357.871 34.8554L361.239 41.1066ZM374.983 38.5183L367.853 39.2229C368.063 39.8774 368.437 40.365 368.975 40.6857C369.525 41.0051 370.176 41.1277 370.928 41.0533C371.943 40.953 372.677 40.5067 373.129 39.7143L374.816 40.4882C374.072 41.8761 372.829 42.6561 371.086 42.8284C369.641 42.9712 368.421 42.6457 367.426 41.8517C366.442 41.0445 365.882 39.9603 365.748 38.5989C365.617 37.2734 365.948 36.1132 366.742 35.1182C367.524 34.1245 368.614 33.5586 370.011 33.4205C371.313 33.2919 372.433 33.6454 373.372 34.4811C374.31 35.3168 374.845 36.3915 374.975 37.7051C374.998 37.9439 375.001 38.215 374.983 38.5183ZM367.68 37.6483L372.946 37.1278C372.745 36.4362 372.393 35.9224 371.889 35.5863C371.398 35.249 370.824 35.1128 370.167 35.1777C369.45 35.2485 368.873 35.5046 368.434 35.9459C367.995 36.3872 367.744 36.9546 367.68 37.6483ZM374.933 33.1692L382.725 32.3991L382.909 34.262L379.99 34.5506L380.691 41.644L378.756 41.8352L378.055 34.7418L375.117 35.0321L374.933 33.1692ZM390.972 37.3178L394.997 31.1863L396.484 31.0393L397.369 39.9957L395.47 40.1833L394.907 34.4871L390.884 40.6366L389.398 40.7835L388.513 31.8271L390.411 31.6395L390.972 37.3178ZM399.427 30.7484L406.288 30.0704L407.173 39.0268L405.238 39.218L404.537 32.1245L401.546 32.4202L401.875 35.7519C402.013 37.1491 401.808 38.1823 401.259 38.8516C400.71 39.5208 399.845 39.8595 398.664 39.8677L398.485 38.0585C399.044 38.0997 399.445 37.9456 399.688 37.596C399.929 37.2345 400.011 36.6537 399.932 35.8536L399.427 30.7484ZM411.002 35.3383L415.026 29.2067L416.513 29.0598L417.398 38.0162L415.499 38.2038L414.937 32.5076L410.914 38.657L409.427 38.804L408.542 29.8476L410.441 29.6599L411.002 35.3383ZM427.624 34.5456L429.273 27.7987L431.332 27.5952L428.807 37.178C428.501 38.3538 428 39.2595 427.303 39.8951C426.606 40.5308 425.759 40.8677 424.762 40.9059L424.583 39.0968C425.736 39.0551 426.474 38.4034 426.795 37.1417L426.837 37.011L422.197 28.498L424.257 28.2944L427.624 34.5456ZM90.3672 88.8007C91.2922 89.1313 91.8019 89.7743 91.8964 90.7296C91.9719 91.4939 91.77 92.1349 91.2905 92.6525C90.8231 93.169 90.1296 93.4727 89.2101 93.5636L84.6244 94.0168L83.7392 85.0604L87.9666 84.6426C88.8742 84.5529 89.6072 84.7096 90.1655 85.1126C90.7239 85.5157 91.0396 86.0874 91.1128 86.8278C91.1966 87.6756 90.9481 88.3333 90.3672 88.8007ZM87.9862 86.3047L85.7471 86.526L85.9436 88.5143L88.1827 88.293C88.9709 88.2152 89.3319 87.8418 89.2658 87.1731C89.2009 86.5163 88.7744 86.2268 87.9862 86.3047ZM86.303 92.1506L88.8645 91.8975C89.6766 91.8172 90.0478 91.4248 89.9781 90.7202C89.9475 90.4097 89.8164 90.1815 89.5849 90.0356C89.3522 89.8777 89.0448 89.8176 88.6627 89.8554L86.1012 90.1086L86.303 92.1506ZM100.055 84.7321L99.929 83.4603L101.864 83.2691L102.749 92.2255L100.814 92.4167L100.687 91.127C100.059 92.214 99.0638 92.8248 97.7024 92.9594C96.4724 93.0809 95.3767 92.731 94.4153 91.9096C93.4538 91.0882 92.9076 90.0147 92.7766 88.6892C92.6456 87.3636 92.9711 86.204 93.7531 85.2102C94.5352 84.2165 95.5412 83.6589 96.7712 83.5373C98.1326 83.4027 99.2271 83.801 100.055 84.7321ZM95.7208 90.4783C96.3113 90.9625 97.0126 91.1645 97.8246 91.0843C98.6367 91.004 99.2848 90.6686 99.7691 90.0782C100.252 89.4757 100.453 88.7625 100.372 87.9385C100.29 87.1145 99.9542 86.4604 99.3637 85.9761C98.772 85.4799 98.0701 85.2719 97.2581 85.3522C96.4461 85.4325 95.7985 85.7738 95.3154 86.3762C94.8311 86.9667 94.6297 87.674 94.7111 88.498C94.7914 89.31 95.128 89.9701 95.7208 90.4783ZM109.254 91.8177C107.905 91.9511 106.731 91.6088 105.734 90.7909C104.747 89.9599 104.189 88.8876 104.059 87.574C103.927 86.2366 104.265 85.0757 105.072 84.0916C105.89 83.0943 106.973 82.529 108.323 82.3956C109.195 82.3095 110.009 82.44 110.767 82.7871C111.525 83.1343 112.118 83.6424 112.546 84.3116L110.975 85.4435C110.73 85.0337 110.386 84.73 109.945 84.5325C109.514 84.3218 109.03 84.243 108.493 84.2961C107.704 84.374 107.068 84.7082 106.584 85.2987C106.113 85.9 105.916 86.5947 105.994 87.3828C106.072 88.171 106.401 88.8138 106.981 89.3112C107.571 89.7954 108.26 89.9986 109.048 89.9207C109.574 89.8688 110.034 89.7028 110.428 89.4226C110.833 89.1294 111.122 88.7572 111.295 88.306L113.054 89.0907C112.743 89.845 112.244 90.4671 111.557 90.9571C110.881 91.4459 110.114 91.7327 109.254 91.8177ZM127.481 86.0913L120.352 86.7959C120.561 87.4505 120.935 87.9381 121.473 88.2587C122.023 88.5781 122.674 88.7007 123.427 88.6263C124.442 88.526 125.175 88.0797 125.628 87.2874L127.314 88.0613C126.571 89.4491 125.328 90.2291 123.584 90.4015C122.139 90.5443 120.919 90.2187 119.924 89.4247C118.94 88.6176 118.381 87.5333 118.246 86.1719C118.115 84.8464 118.447 83.6862 119.241 82.6913C120.023 81.6975 121.112 81.1316 122.51 80.9935C123.811 80.8649 124.931 81.2184 125.87 82.0541C126.809 82.8899 127.343 83.9645 127.473 85.2781C127.497 85.517 127.499 85.788 127.481 86.0913ZM120.178 85.2213L125.444 84.7009C125.243 84.0093 124.891 83.4954 124.388 83.1593C123.896 82.822 123.322 82.6858 122.665 82.7507C121.949 82.8216 121.371 83.0776 120.932 83.5189C120.494 83.9602 120.242 84.5277 120.178 85.2213ZM133.814 89.3904C132.465 89.5238 131.291 89.1815 130.294 88.3636C129.308 87.5326 128.749 86.4603 128.62 85.1467C128.487 83.8093 128.825 82.6484 129.632 81.6643C130.45 80.667 131.533 80.1017 132.883 79.9683C133.755 79.8822 134.569 80.0127 135.327 80.3598C136.085 80.707 136.678 81.2151 137.106 81.8843L135.536 83.0162C135.29 82.6064 134.946 82.3027 134.505 82.1051C134.074 81.8945 133.59 81.8157 133.053 81.8688C132.264 81.9467 131.628 82.2809 131.144 82.8714C130.673 83.4727 130.476 84.1674 130.554 84.9555C130.632 85.7437 130.961 86.3865 131.541 86.8839C132.131 87.3681 132.82 87.5713 133.609 87.4934C134.134 87.4415 134.594 87.2755 134.988 86.9953C135.393 86.7021 135.682 86.3298 135.855 85.8787L137.614 86.6634C137.303 87.4177 136.804 88.0398 136.117 88.5298C135.441 89.0186 134.674 89.3054 133.814 89.3904ZM137.298 79.7671L145.09 78.997L145.274 80.86L142.354 81.1485L143.055 88.242L141.121 88.4332L140.42 81.3397L137.482 81.6301L137.298 79.7671ZM148.634 81.7216L150.605 81.5269C151.572 81.4313 152.381 81.6286 153.033 82.119C153.695 82.5961 154.07 83.2766 154.157 84.1603C154.243 85.032 154.009 85.7727 153.454 86.3822C152.911 86.9905 152.156 87.3425 151.189 87.4381L147.284 87.824L146.399 78.8677L148.333 78.6765L148.634 81.7216ZM149.047 85.8953L151.035 85.6988C151.417 85.661 151.723 85.5163 151.951 85.2646C152.191 85.0118 152.294 84.7062 152.258 84.3479C152.223 83.9897 152.068 83.7095 151.795 83.5074C151.522 83.3053 151.188 83.2237 150.794 83.2627L148.806 83.4592L149.047 85.8953ZM159.623 77.5606L167.595 76.7728L168.48 85.7292L166.545 85.9204L165.841 78.7911L161.739 79.1965L162.443 86.3258L160.509 86.517L159.623 77.5606ZM174.886 75.8171C176.104 75.6967 177.2 76.0526 178.175 76.8848C179.136 77.7062 179.682 78.7738 179.811 80.0874C179.942 81.4129 179.617 82.5725 178.835 83.5663C178.053 84.56 177.047 85.1177 175.817 85.2392C174.467 85.3726 173.373 84.9743 172.533 84.0444L173.013 88.8987L171.079 89.0899L169.839 76.551L171.774 76.3598L171.901 77.6495C172.529 76.5625 173.524 75.9517 174.886 75.8171ZM173.226 82.8183C173.817 83.3026 174.518 83.5046 175.33 83.4243C176.142 83.3441 176.79 83.0087 177.274 82.4182C177.757 81.8158 177.958 81.1025 177.877 80.2786C177.795 79.4546 177.459 78.8004 176.869 78.3162C176.277 77.82 175.575 77.612 174.763 77.6922C173.951 77.7725 173.304 78.1138 172.821 78.7163C172.336 79.3068 172.135 80.014 172.216 80.838C172.297 81.65 172.633 82.3101 173.226 82.8183ZM189.473 82.5149C188.655 83.5122 187.583 84.0763 186.258 84.2073C184.932 84.3383 183.771 83.9949 182.774 83.177C181.763 82.3484 181.193 81.2772 181.063 79.9636C180.933 78.65 181.283 77.488 182.111 76.4776C182.929 75.4804 184.001 74.9162 185.327 74.7852C186.652 74.6542 187.814 74.9977 188.811 75.8155C189.821 76.6442 190.391 77.7153 190.521 79.0289C190.651 80.3425 190.302 81.5045 189.473 82.5149ZM182.998 79.7724C183.078 80.5845 183.413 81.2326 184.004 81.7169C184.594 82.2012 185.284 82.4044 186.072 82.3265C186.86 82.2486 187.496 81.9144 187.981 81.3239C188.465 80.7334 188.667 80.0321 188.587 79.2201C188.506 78.4081 188.171 77.7599 187.58 77.2756C186.99 76.7914 186.301 76.5882 185.512 76.6661C184.724 76.744 184.088 77.0781 183.604 77.6686C183.12 78.2591 182.918 78.9604 182.998 79.7724ZM196.892 83.1563C195.53 83.2909 194.364 82.96 193.393 82.1636C192.445 81.353 191.902 80.255 191.765 78.8698C191.617 77.3651 191.728 76.1724 192.099 75.2916C192.459 74.4239 193.304 73.5748 194.633 72.744C194.678 72.7154 194.752 72.6719 194.855 72.6136C194.969 72.542 195.088 72.4699 195.213 72.3972C195.339 72.3246 195.464 72.2519 195.59 72.1792C196.069 71.9027 196.365 71.7287 196.479 71.6572C196.547 71.6143 196.743 71.4623 197.067 71.2012C197.455 70.8613 197.694 70.4096 197.783 69.8462L199.45 70.6039C199.455 71.2666 199.102 71.9104 198.392 72.5353C198.273 72.6677 198.042 72.8352 197.701 73.0377L196.966 73.4721L196.107 73.9368C195.362 74.324 194.82 74.6971 194.481 75.0561C194.143 75.4152 193.927 75.8525 193.833 76.3682C194.47 75.4854 195.403 74.9832 196.633 74.8616C197.684 74.7577 198.634 75.0436 199.485 75.7192C200.347 76.3937 200.838 77.328 200.956 78.5222C201.076 79.7402 200.757 80.7847 199.999 81.6554C199.253 82.525 198.217 83.0253 196.892 83.1563ZM196.695 81.3489C197.447 81.2746 198.041 80.9929 198.475 80.5038C198.907 80.0028 199.09 79.406 199.021 78.7134C198.952 78.0088 198.655 77.4532 198.133 77.0467C197.622 76.6389 196.991 76.4722 196.239 76.5465C195.57 76.6126 194.988 76.8872 194.493 77.3702C193.996 77.8293 193.783 78.4172 193.853 79.1337C193.924 79.8502 194.233 80.4165 194.781 80.8327C195.329 81.2488 195.967 81.4209 196.695 81.3489ZM202.427 73.3303L209.288 72.6522L210.173 81.6086L208.239 81.7998L207.538 74.7063L204.546 75.002L204.875 78.3338C205.014 79.7309 204.808 80.7642 204.259 81.4334C203.71 82.1026 202.846 82.4413 201.665 82.4495L201.486 80.6403C202.045 80.6816 202.445 80.5274 202.688 80.1778C202.93 79.8163 203.011 79.2355 202.932 78.4354L202.427 73.3303ZM220.718 76.8765L213.589 77.5811C213.798 78.2357 214.172 78.7233 214.71 79.0439C215.26 79.3634 215.912 79.4859 216.664 79.4116C217.679 79.3112 218.413 78.8649 218.865 78.0726L220.551 78.8465C219.808 80.2343 218.565 81.0144 216.821 81.1867C215.376 81.3295 214.156 81.0039 213.161 80.2099C212.177 79.4028 211.618 78.3185 211.483 76.9572C211.352 75.6316 211.684 74.4714 212.478 73.4765C213.26 72.4827 214.35 71.9168 215.747 71.7788C217.048 71.6501 218.169 72.0036 219.107 72.8394C220.046 73.6751 220.58 74.7498 220.71 76.0634C220.734 76.3022 220.736 76.5732 220.718 76.8765ZM213.415 76.0066L218.682 75.4861C218.481 74.7945 218.128 74.2806 217.625 73.9445C217.133 73.6072 216.559 73.4711 215.902 73.536C215.186 73.6068 214.608 73.8628 214.169 74.3041C213.731 74.7454 213.479 75.3129 213.415 76.0066ZM229.133 70.6909L231.104 70.4961L231.989 79.4525L230.108 79.6384L229.526 73.7451L227.351 78.1021L227.119 78.1251L224.153 74.2941L224.734 80.1695L222.853 80.3554L221.968 71.399L223.939 71.2043L226.945 75.0854L229.133 70.6909ZM235.574 73.1292L237.544 72.9345C238.512 72.8389 239.321 73.0363 239.972 73.5266C240.635 74.0038 241.009 74.6842 241.097 75.5679C241.183 76.4397 240.949 77.1803 240.394 77.7898C239.851 78.3981 239.096 78.7501 238.129 78.8457L234.224 79.2316L233.339 70.2753L235.273 70.0841L235.574 73.1292ZM242.464 78.4173L241.578 69.4609L243.513 69.2697L244.398 78.2261L242.464 78.4173ZM235.987 77.3029L237.975 77.1064C238.357 77.0686 238.662 76.9239 238.891 76.6722C239.131 76.4194 239.233 76.1138 239.198 75.7556C239.163 75.3973 239.008 75.1171 238.735 74.915C238.462 74.7129 238.128 74.6313 237.734 74.6703L235.746 74.8668L235.987 77.3029ZM255.372 77.3766C254.023 77.51 252.849 77.1677 251.852 76.3499C250.866 75.5189 250.308 74.4466 250.178 73.133C250.046 71.7955 250.383 70.6346 251.19 69.6505C252.008 68.6532 253.092 68.0879 254.441 67.9545C255.313 67.8684 256.128 67.9989 256.885 68.346C257.643 68.6932 258.236 69.2013 258.664 69.8705L257.094 71.0024C256.848 70.5926 256.505 70.2889 256.063 70.0914C255.632 69.8807 255.148 69.8019 254.611 69.8551C253.823 69.9329 253.186 70.2671 252.702 70.8576C252.231 71.4589 252.034 72.1536 252.112 72.9418C252.19 73.7299 252.519 74.3727 253.099 74.8701C253.689 75.3544 254.379 75.5575 255.167 75.4797C255.692 75.4277 256.152 75.2617 256.546 74.9815C256.952 74.6883 257.24 74.3161 257.413 73.8649L259.172 74.6496C258.861 75.4039 258.362 76.026 257.675 76.516C257 77.0048 256.232 77.2917 255.372 77.3766ZM266.883 72.6938L270.908 66.5622L272.395 66.4153L273.28 75.3717L271.381 75.5593L270.818 69.8631L266.795 76.0125L265.309 76.1595L264.423 67.2031L266.322 67.0154L266.883 72.6938ZM281.028 69.1615L280.676 65.5968L282.61 65.4057L283.496 74.362L281.561 74.5532L281.209 70.9886L277.107 71.394L277.459 74.9586L275.524 75.1498L274.639 66.1935L276.574 66.0023L276.926 69.5669L281.028 69.1615ZM283.906 65.2776L291.698 64.5075L291.882 66.3705L288.962 66.659L289.663 73.7525L287.729 73.9437L287.028 66.8502L284.09 67.1406L283.906 65.2776ZM301.833 68.8598L294.704 69.5644C294.913 70.219 295.287 70.7066 295.825 71.0272C296.375 71.3467 297.026 71.4692 297.778 71.3949C298.794 71.2946 299.527 70.8482 299.979 70.0559L301.666 70.8298C300.923 72.2176 299.679 72.9977 297.936 73.17C296.491 73.3128 295.271 72.9872 294.276 72.1932C293.292 71.3861 292.733 70.3019 292.598 68.9405C292.467 67.6149 292.798 66.4547 293.592 65.4598C294.375 64.4661 295.464 63.9002 296.861 63.7621C298.163 63.6334 299.283 63.987 300.222 64.8227C301.161 65.6584 301.695 66.7331 301.825 68.0467C301.848 68.2855 301.851 68.5566 301.833 68.8598ZM294.53 67.9899L299.796 67.4694C299.595 66.7778 299.243 66.264 298.739 65.9279C298.248 65.5906 297.674 65.4544 297.017 65.5193C296.3 65.5901 295.723 65.8462 295.284 66.2874C294.845 66.7287 294.594 67.2962 294.53 67.9899ZM308.129 62.6485C309.347 62.5281 310.443 62.884 311.418 63.7162C312.379 64.5376 312.925 65.6051 313.055 66.9187C313.186 68.2442 312.86 69.4039 312.078 70.3976C311.296 71.3914 310.29 71.949 309.06 72.0706C307.711 72.2039 306.616 71.8056 305.777 70.8757L306.257 75.7301L304.322 75.9213L303.083 63.3823L305.017 63.1911L305.145 64.4809C305.773 63.3938 306.768 62.783 308.129 62.6485ZM306.47 69.6496C307.06 70.1339 307.761 70.3359 308.573 70.2556C309.385 70.1754 310.034 69.84 310.518 69.2495C311.001 68.6471 311.202 67.9339 311.12 67.1099C311.039 66.2859 310.703 65.6318 310.112 65.1475C309.521 64.6513 308.819 64.4433 308.007 64.5236C307.195 64.6038 306.547 64.9452 306.064 65.5476C305.58 66.1381 305.378 66.8453 305.46 67.6693C305.54 68.4814 305.877 69.1415 306.47 69.6496ZM320.755 65.2353L320.402 61.6706L322.337 61.4794L323.222 70.4358L321.287 70.627L320.935 67.0624L316.833 67.4678L317.185 71.0324L315.251 71.2236L314.366 62.2672L316.3 62.076L316.653 65.6407L320.755 65.2353ZM333.757 65.7047L326.628 66.4093C326.837 67.0639 327.211 67.5515 327.749 67.8721C328.299 68.1915 328.951 68.3141 329.703 68.2397C330.718 68.1394 331.452 67.6931 331.904 66.9008L333.59 67.6747C332.847 69.0625 331.604 69.8425 329.86 70.0149C328.415 70.1577 327.195 69.8321 326.201 69.0381C325.216 68.2309 324.657 67.1467 324.523 65.7853C324.392 64.4598 324.723 63.2996 325.517 62.3047C326.299 61.3109 327.389 60.745 328.786 60.6069C330.088 60.4783 331.208 60.8318 332.146 61.6675C333.085 62.5033 333.62 63.5779 333.749 64.8915C333.773 65.1304 333.776 65.4014 333.757 65.7047ZM326.454 64.8347L331.721 64.3142C331.52 63.6227 331.167 63.1088 330.664 62.7727C330.172 62.4354 329.598 62.2992 328.941 62.3641C328.225 62.4349 327.647 62.691 327.209 63.1323C326.77 63.5736 326.518 64.1411 326.454 64.8347ZM333.708 60.3556L341.5 59.5855L341.684 61.4484L338.764 61.737L339.465 68.8304L337.531 69.0216L336.83 61.9282L333.892 62.2185L333.708 60.3556ZM350.81 66.5697C349.992 67.567 348.92 68.1311 347.595 68.2621C346.269 68.3931 345.108 68.0497 344.111 67.2318C343.1 66.4032 342.53 65.3321 342.4 64.0185C342.27 62.7049 342.62 61.5429 343.448 60.5325C344.266 59.5352 345.338 58.971 346.664 58.84C347.989 58.709 349.151 59.0525 350.148 59.8703C351.158 60.699 351.728 61.7701 351.858 63.0837C351.988 64.3973 351.639 65.5593 350.81 66.5697ZM344.335 63.8273C344.415 64.6393 344.75 65.2875 345.341 65.7717C345.931 66.256 346.621 66.4592 347.409 66.3813C348.197 66.3034 348.833 65.9692 349.318 65.3787C349.802 64.7882 350.004 64.087 349.924 63.2749C349.843 62.4629 349.508 61.8147 348.917 61.3304C348.327 60.8462 347.638 60.643 346.85 60.7209C346.061 60.7988 345.425 61.133 344.941 61.7234C344.457 62.3139 344.255 63.0152 344.335 63.8273ZM360.33 57.7245L362.3 57.5298L363.186 66.4861L361.305 66.672L360.722 60.7787L358.548 65.1357L358.315 65.1587L355.35 61.3277L355.931 67.2031L354.05 67.389L353.165 58.4326L355.135 58.2379L358.142 62.119L360.33 57.7245Z" fill="white"/>
<path d="M1.96439 98.811C1.9431 99.4375 2.02757 99.795 2.11977 99.9843C2.19114 100.131 2.26924 100.19 2.39937 100.23C2.57568 100.283 2.88953 100.303 3.40439 100.2C3.90894 100.099 4.53015 99.8956 5.27637 99.5867C7.38995 98.7119 10.1727 97.1396 13.5826 95.2128C15.078 94.3679 16.694 93.4548 18.427 92.5025C27.4915 87.5217 39.4763 81.6399 52.8462 79.8629C37.1554 78.0585 25.2051 79.8665 16.8476 83.2864C6.80519 87.3956 2.13729 93.7222 1.96439 98.811Z" stroke="#557AFF" stroke-width="2"/>
</svg>
