<svg width="141" height="41" viewBox="0 0 141 41" fill="none" xmlns="http://www.w3.org/2000/svg">
<path fill-rule="evenodd" clip-rule="evenodd" d="M38.9678 10.2899L40.0863 8.86662L39.4509 8.16788L40.5134 6.83783L43.5798 11.1939L46.8162 10.5237L53.6301 12.0316L66.5766 12.7017L70.4945 10.0211L80.545 7.508L87.3589 11.3614L92.6396 12.5342L88.7218 16.8902L87.9967 19.3586H84.4152V21.602C83.1834 20.1909 81.0185 18.9969 78.6669 18.9969C73.3292 18.9969 69.4098 23.23 69.4098 28.4041C69.4098 31.9511 71.2519 35.0561 74.1303 36.6581L74.2423 37.8326L66.4061 38.8378L64.6364 37.8113H65.4098L57.3845 28.4405L64.9617 19.7206H59.4001L52.9798 27.1378V16.1318H48.5751V37.7737L46.4756 37.6651L45.1127 30.6284L44.5751 30.2318V19.3586H43.1095L44.6018 17.7279L39.832 13.2043L38.9678 10.2899ZM42.8359 19.3586L43.634 18.4721L39.495 14.4822L38.4603 10.9355L38.9678 10.2899L38.6396 9.18339L39.4509 8.16788L38.6081 7.24109L40.0863 5.61553L38.1646 4.5811L35.9473 6.64997L31.3649 3.84221L30.3302 0L28.5999 8.93113L27.4174 5.8278L22.9828 2.28117L18.2525 1.83783L12.0005 3.10333L15.0005 7.8967L15.7914 8.73394L17.1742 10.7877L16.4351 15.0733L14.8091 15.5166L16.76 17.049V29.7068L4.06838 11.7607H0V37.8113H4.40437V19.8656L17.0585 37.8113H21.1647V24.3947L22.826 26.7477L24.7477 27.7821L25.2478 29.6984C25.3203 30.2576 25.4393 30.8014 25.6013 31.3253L24.895 34.4321L26.3732 38.4221L29.773 40.6388L34.7989 39.8999L37.4597 37.831L41.5986 37.9788L41.9837 37.4493H44.5751V30.2318L40.3431 27.1101L41.5355 25.7698L40.5134 24.4294L41.5355 21.0787L43.1095 19.3586H42.8359ZM39.8867 26.752L39.9385 26.7477L40.9732 25.5654L40.0863 24.3832L40.9732 21.4277L42.8359 19.3586H40.1705V21.602C38.9386 20.1909 36.7734 18.9969 34.4218 18.9969C32.7822 18.9969 31.2765 19.3963 29.977 20.0997L29.7389 19.8021L28.2607 19.211L27.0781 17.881L26.3612 18.1996L26.078 17.881L24.7477 18.4721L24.0086 21.5755L23.5984 21.7122L23.8261 21.4277L21.1647 19.7806V19.7626V11.7607H17.0195L16.76 13.211V17.049L16.8786 17.1421L18.2089 18.4721L20.7219 19.5066L21.1647 19.7806V24.0387L21.0522 24.2355L21.1647 24.3947V24.0387L22.2347 22.1666L23.5984 21.7122L23.2348 22.1666L25.0087 21.5755L25.7478 18.4721L26.3612 18.1996L27.2606 19.211L28.7388 19.8021L29.3012 20.505C26.76 22.185 25.1647 25.1031 25.1647 28.4041C25.1647 28.843 25.1929 29.2751 25.2478 29.6984L25.6346 31.181L26.6688 31.3287L26.6688 31.3288L25.6341 31.1811L25.6013 31.3253C26.7629 35.0807 30.1349 37.8113 34.4218 37.8113C36.7734 37.8113 38.9386 36.6173 40.1705 35.1336V37.4493H41.9837L42.7812 36.3532L44.2594 36.0577L43.0768 29.851L40.109 27.6258C40.0612 27.3254 39.9862 27.0333 39.8867 26.752ZM39.0379 26.8227L39.8867 26.752C39.0747 24.458 36.6245 22.8792 33.9124 23.3492L33.9125 23.3488L33.7621 23.3703L32.2518 21.7232L30.9215 21.2799L29.977 20.0997C29.7451 20.2253 29.5197 20.3605 29.3012 20.505L29.9214 21.2799L31.2517 21.7232L32.8778 23.4966L33.7621 23.3703L33.7676 23.3762C31.7118 23.7891 30.0721 25.3943 29.6708 27.3945C29.5984 27.7548 29.5659 28.1107 29.5697 28.4586L26.8166 29.4077L26.6688 31.3287L26.6693 31.3287L26.8171 29.4077L29.5697 28.4587C29.604 31.5856 32.5702 34.0734 35.9113 33.4436C37.9955 33.0508 39.6638 31.4334 40.0691 29.4132C40.1924 28.7987 40.1998 28.1972 40.109 27.6258L39.0379 26.8227ZM33.7822 27.327L33.8779 27.4865L36.3908 27.0432L39.0379 26.8227L38.9379 26.7477L35.3902 27.0433L33.7822 27.327ZM33.8761 23.4945L33.9124 23.3492C33.8845 23.354 33.8565 23.359 33.8286 23.3643C33.8082 23.3682 33.7879 23.3721 33.7676 23.3762L33.8761 23.4945ZM33.8761 23.4945L33.3212 25.7132L32.4343 26.7477L32.8778 27.4865L33.7822 27.327L33.4344 26.7477L34.3213 25.7132L34.9126 23.3488L33.8779 23.4966L33.8761 23.4945ZM29.5697 28.4587L29.5697 28.4586L31.1034 27.93L31.1039 27.9299L29.5697 28.4587ZM49.3016 37.8113H48.5751V37.7737L49.3016 37.8113ZM58.0969 35.7217L52.9489 38.0001L49.3016 37.8113H52.9798V29.7428L58.0969 35.7217ZM58.0969 35.7217L59.8854 37.8113H64.6364L59.7627 34.9844L58.0969 35.7217ZM75.226 31.8833L73.7311 32.4713L74.1303 36.6581C75.4504 37.3928 76.9886 37.8113 78.6669 37.8113C81.0185 37.8113 83.1834 36.6173 84.4152 35.1336V37.4493H88.8199V30.2446L90.0844 30.4609L88.8199 28.3288V19.3586H87.9967L86.5072 24.4294L88.8199 28.3288V30.2446L84.302 29.4718C84.3062 29.4523 84.3102 29.4328 84.3141 29.4132C85.0359 25.8143 81.7862 22.6644 78.0733 23.3643C75.9894 23.7574 74.3211 25.3745 73.9155 27.3945C73.5695 29.1183 74.1349 30.7391 75.226 31.8833ZM75.226 31.8833L82.2485 29.1206L84.302 29.4718C83.8765 31.4647 82.2201 33.0546 80.1563 33.4436C78.2217 33.8083 76.4128 33.1278 75.226 31.8833ZM97.2246 21.783C98.2987 20.5581 99.5916 19.5365 101.635 19.3665V19.3589L101.97 19.3482V23.4303C101.357 23.4553 100.747 23.5612 100.181 23.7907C98.4432 24.4943 97.2246 26.0478 97.2246 28.0424V37.8113H92.8199V19.7206H97.2246V21.783ZM113.827 15.7698H109.423V17.3316C109.423 18.6188 108.751 18.8608 107.781 18.8608L105.97 18.9179V23.0576H109.423V31.4804C109.423 35.9617 111.214 37.8113 115.47 37.8113C116.478 37.8113 117.71 37.6691 118.568 37.4555V33.4723C117.635 33.65 116.888 33.7568 116.067 33.7568C114.276 33.7568 113.827 33.0453 113.827 30.2358V23.0576H118.568V18.8608H113.827V15.7698ZM132.012 22.832C129.436 22.832 127.234 24.4964 126.861 26.9931H136.864C136.491 24.4241 134.513 22.832 132.012 22.832ZM132.087 18.9969C137.387 18.9969 141.008 22.7597 141.008 28.1508C141.008 28.6733 140.943 29.2378 140.879 29.7963C140.859 29.9725 140.839 30.148 140.821 30.3215H126.935C127.682 32.5649 129.772 33.9399 132.534 33.9399C134.326 33.9399 136.043 33.3249 137.163 32.1309L139.963 34.8443C138.171 36.762 135.558 37.8113 132.497 37.8113C126.861 37.8113 122.568 33.7226 122.568 28.4041C122.568 23.0854 126.674 18.9969 132.087 18.9969Z" fill="white"/>
<path fill-rule="evenodd" clip-rule="evenodd" d="M38.9673 10.2899L40.0858 8.86662L39.4504 8.16788L40.5129 6.83783L43.5793 11.1939L46.8157 10.5237L53.6296 12.0316L66.5762 12.7017L70.494 10.0211L80.5445 7.508L87.3584 11.3614L92.6392 12.5342L88.7213 16.8902L87.926 19.5978H84.7183V21.8412C83.4865 20.4301 81.3216 19.2361 78.97 19.2361C73.6323 19.2361 69.7129 23.4692 69.7129 28.6433C69.7129 32.0666 71.4288 35.0782 74.1361 36.7243L74.2418 37.8326L66.4056 38.8378L65.0483 38.0505H65.7126L57.6873 28.6796L65.2645 19.9598H59.7029L53.2826 27.377V16.371H48.8779V37.7894L46.4751 37.6651L45.1122 30.6284L44.8782 30.4558V19.5978H42.8901L44.6013 17.7279L39.8315 13.2043L38.9673 10.2899ZM42.6201 19.5978H42.8901L41.535 21.0787L40.5129 24.4294L41.535 25.7698L40.3426 27.1101L44.8782 30.4558V37.6885H41.8092L42.7807 36.3532L44.2589 36.0577L43.0763 29.851L40.4099 27.8518C40.3407 27.424 40.2164 27.0131 40.0442 26.6263L40.9727 25.5654L40.0858 24.3832L40.9727 21.4277L42.6201 19.5978ZM30.2022 20.3816C31.5192 19.6517 33.0524 19.2361 34.7249 19.2361C37.0765 19.2361 39.2417 20.4301 40.4735 21.8412V19.5978H42.6201L43.6335 18.4721L39.4945 14.4822L38.4598 10.9355L38.9673 10.2899L38.6392 9.18339L39.4504 8.16788L38.6076 7.24109L40.0858 5.61553L38.1641 4.5811L35.9468 6.64997L31.3644 3.84221L30.3297 0L28.5994 8.93113L27.4169 5.8278L22.9823 2.28117L18.252 1.83783L12 3.10333L15 7.8967L15.7909 8.73394L17.1737 10.7877L16.4346 15.0733L14.8086 15.5166L16.8781 17.1421L17.0627 17.3267V17.34L17.2684 17.5324L18.2084 18.4721L19.0994 18.8776L21.4283 19.9814L23.8256 21.4277L23.5979 21.7122L22.2342 22.1666L21.0517 24.2355L22.8255 26.7477L24.7472 27.7821L25.6341 31.181L25.8008 31.2048C25.8008 31.2048 25.8008 31.2049 25.8008 31.2049L25.6336 31.1811L24.8945 34.4321L26.3727 38.4221L29.7725 40.6388L34.7984 39.8999L37.4592 37.831L41.5981 37.9788L41.8092 37.6885H40.4735V35.3728C39.2417 36.8565 37.0765 38.0505 34.7249 38.0505C30.3023 38.0505 26.8534 35.1443 25.8008 31.2049L26.6683 31.3288L26.6683 31.3287L26.6688 31.3287L26.8166 29.4077L29.881 28.3513C29.6899 31.6381 32.7507 34.3357 36.2143 33.6828C38.2986 33.29 39.9669 31.6726 40.3721 29.6524C40.4964 29.0331 40.503 28.4272 40.4099 27.8518L39.0374 26.8227L39.938 26.7477L40.0442 26.6263C39.1926 24.7127 37.1715 23.3876 34.8709 23.5136L34.9121 23.3488L33.8774 23.4966L33.8756 23.4945L33.912 23.3488L33.7616 23.3703L32.2513 21.7232L30.921 21.2799L30.2022 20.3816ZM26.3607 18.1996L26.0775 17.881L24.7472 18.4721L24.0081 21.5755L23.5979 21.7122L23.2343 22.1666L25.0082 21.5755L25.7473 18.4721L26.3607 18.1996ZM26.3607 18.1996L27.0776 17.881L28.2602 19.211L29.7384 19.8021L30.2022 20.3816C29.9718 20.5093 29.748 20.6466 29.5313 20.793L28.7383 19.8021L27.2601 19.211L26.3607 18.1996ZM29.5313 20.793C27.0326 22.4804 25.4678 25.374 25.4678 28.6433C25.4678 29.5303 25.583 30.3897 25.8008 31.2048L26.6683 31.3287L26.8161 29.4077L29.881 28.3512C29.881 28.3512 29.881 28.3512 29.881 28.3513L31.1034 27.9299L32.8773 27.4865L33.7817 27.327L33.8774 27.4865L36.3903 27.0432L39.0374 26.8227L38.9374 26.7477L35.3897 27.0433L33.7817 27.327L33.4339 26.7477L34.3208 25.7132L34.8709 23.5136C34.6273 23.527 34.3805 23.5566 34.1316 23.6035C34.0307 23.6226 33.9308 23.6445 33.8319 23.6691L33.8756 23.4945L33.7616 23.3703L32.8773 23.4966L31.2512 21.7232L29.9209 21.2799L29.5313 20.793ZM32.8773 27.4865L32.8768 27.4866L31.1029 27.93L29.881 28.3512C29.8948 28.1147 29.9254 27.8752 29.9738 27.6337C30.3595 25.7115 31.8888 24.1542 33.8319 23.6691L33.3207 25.7132L32.4338 26.7477L32.8773 27.4865ZM21.4283 19.9814L21.4674 20V11.9999H17.0627V17.3267L17.2684 17.5324L18.303 18.5001L19.0994 18.8776L21.1311 19.8021L21.4283 19.9814ZM53.2826 37.8522V38.0505H48.8779V37.7894L52.9484 38.0001L53.2826 37.8522ZM53.2826 37.8522V29.982L58.1679 35.6901L53.2826 37.8522ZM58.1679 35.6901L59.7623 34.9844L65.0483 38.0505H60.1881L58.1679 35.6901ZM75.2925 31.8569L73.7307 32.4713L74.1361 36.7243C75.5205 37.5659 77.1641 38.0505 78.97 38.0505C81.3216 38.0505 83.4865 36.8565 84.7183 35.3728V37.6885H89.123V30.2965L90.0839 30.4609L89.123 28.8407V19.5978H87.926L86.5067 24.4294L89.123 28.8407V30.2965L84.6404 29.5298C85.265 25.9824 82.0471 22.9116 78.3765 23.6035C76.2925 23.9966 74.6242 25.6137 74.2187 27.6337C73.8986 29.2281 74.3583 30.7344 75.2925 31.8569ZM75.2925 31.8569L82.248 29.1206L84.6404 29.5298C84.6332 29.5706 84.6255 29.6114 84.6173 29.6524C84.212 31.6726 82.5434 33.29 80.4595 33.6828C78.3913 34.0726 76.4669 33.2681 75.2925 31.8569Z" fill="#557AFF"/>
</svg>
