<svg xmlns="http://www.w3.org/2000/svg" width="24" height="24" fill="none"><path fill="#fff" d="M23.873 17.528a1.617 1.617 0 0 0-.082-.156c-.416-.751-1.212-1.673-2.386-2.766l-.025-.025-.012-.012-.013-.013h-.013c-.533-.51-.87-.851-1.012-1.026-.258-.334-.316-.672-.175-1.014.1-.259.475-.805 1.125-1.64.341-.442.612-.796.812-1.063 1.441-1.92 2.066-3.146 1.874-3.68l-.074-.125c-.05-.075-.18-.144-.387-.206-.209-.063-.475-.073-.8-.031l-3.599.024a.466.466 0 0 0-.25.007l-.163.037-.062.032-.05.037a.556.556 0 0 0-.137.132.856.856 0 0 0-.125.219 20.444 20.444 0 0 1-1.337 2.816c-.308.517-.592.965-.85 1.345s-.475.66-.65.838a4.53 4.53 0 0 1-.475.432c-.141.109-.25.155-.324.138a9.555 9.555 0 0 1-.213-.05.832.832 0 0 1-.281-.307 1.374 1.374 0 0 1-.144-.488 5.377 5.377 0 0 1-.044-.507 10.56 10.56 0 0 1 .007-.6c.008-.26.012-.434.012-.526 0-.317.007-.662.019-1.033l.031-.882c.009-.217.013-.446.013-.688 0-.242-.015-.432-.044-.57a1.949 1.949 0 0 0-.131-.4.674.674 0 0 0-.256-.3 1.444 1.444 0 0 0-.419-.17c-.441-.1-1.004-.154-1.687-.162-1.55-.017-2.545.083-2.986.3a1.684 1.684 0 0 0-.475.375c-.15.184-.171.284-.063.3.5.076.854.255 1.062.539l.075.15c.059.109.117.3.175.576.059.275.096.58.113.913.041.61.041 1.13 0 1.565-.042.434-.081.771-.119 1.013a2.033 2.033 0 0 1-.169.589c-.075.15-.125.242-.15.275a.214.214 0 0 1-.062.062.936.936 0 0 1-.337.063c-.117 0-.259-.058-.425-.175a3 3 0 0 1-.519-.482 6.432 6.432 0 0 1-.606-.857c-.225-.367-.458-.801-.7-1.302l-.2-.363a31.275 31.275 0 0 1-.512-1.02 19.68 19.68 0 0 1-.575-1.295.825.825 0 0 0-.3-.4l-.062-.038a.855.855 0 0 0-.2-.107 1.324 1.324 0 0 0-.287-.081L.8 5.77c-.35 0-.587.08-.712.238l-.05.075a.405.405 0 0 0-.038.2c0 .092.025.205.075.338a41.34 41.34 0 0 0 1.63 3.404c.588 1.093 1.098 1.974 1.531 2.64.433.668.875 1.298 1.325 1.89.45.593.748.973.893 1.14.146.166.26.291.344.375l.312.3c.2.2.494.44.881.72.388.28.817.555 1.287.826.471.27 1.019.492 1.644.663.624.171 1.233.24 1.824.207h1.437c.292-.026.512-.117.662-.276l.05-.062a.832.832 0 0 0 .094-.232c.029-.104.044-.219.044-.344a4.128 4.128 0 0 1 .08-.97c.063-.287.134-.504.213-.65a1.598 1.598 0 0 1 .482-.551.823.823 0 0 1 .1-.044c.2-.066.434-.002.706.194.27.196.524.438.762.726.237.288.522.611.856.97.333.359.625.626.874.801l.25.15c.167.1.384.192.65.276.266.083.5.104.7.062l3.199-.05c.316 0 .562-.052.737-.156.175-.105.279-.22.312-.345a.97.97 0 0 0 .007-.425 1.569 1.569 0 0 0-.088-.332Z"/></svg>
